<?xml version="1.0" encoding="UTF-8" standalone="no"?>
<svg baseProfile="tiny" height="14.8cm" version="1.2" width="14.8cm" xmlns="http://www.w3.org/2000/svg">
  <defs>
    <clipPath id="clipPath1">
      <rect fill="#000000" height="559.3700787401575" stroke-linecap="square" stroke-miterlimit="10"
            width="559.3700787401575"/>
    </clipPath>
  </defs>
  <g class="Drawing" clip-path="url(#clipPath1)" id="drawing1">
    <rect fill="#ffffff" height="559.3700787401575" id="background" stroke-linecap="square" stroke-miterlimit="10"
          width="559.3700787401575"/>
    <g class="Layer" id="frame">
      <g>
        <path d="M1,1 181.072265625,1 181.072265625,12.40625 171.072265625,22.40625 1,22.40625 Z M1,1 558,1 558,558 1,558 Z"
              fill="#ffffff" stroke="#000000"/>
        <text fill="#000000" font-family="'Arial Bold', 'Arial'" font-size="12" font-style="normal" font-weight="bold"
              stroke-linecap="square" stroke-miterlimit="10" x="7" y="15.86328125">req
        </text>
        <text fill="#000000" font-family="'Arial'" font-size="12" font-style="normal" font-weight="normal"
              stroke-linecap="square" stroke-miterlimit="10" x="31.673828125" y="15.86328125">User Interface Guidelines
        </text>
      </g>
    </g>
    <g class="Layer" id="content">
      <g>
        <path d="M210,80 360,80 360,170 210,170 Z M210,125.759765625 360,125.759765625" fill="#ffffff"
              stroke="#000000"/>
        <text fill="#000000" font-family="'Arial'" font-size="9" font-style="normal" font-weight="normal"
              stroke-linecap="square" stroke-miterlimit="10">
          <tspan x="255.98291016" y="92.14746094">«requirement»</tspan>
        </text>
        <text fill="#000000" font-family="'Arial Bold', 'Arial'" font-size="12" font-style="normal" font-weight="bold"
              stroke-linecap="square" stroke-miterlimit="10">
          <tspan x="244.65820312" y="105.65625">User Interface</tspan>
          <tspan x="254.49316406" y="119.7890625">Guidelines</tspan>
        </text>
        <text fill="#000000" font-family="'Arial'" font-size="12" font-style="normal" font-weight="normal"
              stroke-linecap="square" stroke-miterlimit="10">
          <tspan x="214" y="141.12304688">Must support macOS and</tspan>
          <tspan x="214" y="154.921875">Windows guidelines.</tspan>
        </text>
      </g>
      <g>
        <path d="M50,300 180,300 180,410 50,410 Z M50,331.9609375 180,331.9609375" fill="#ffffff" stroke="#000000"/>
        <text fill="#000000" font-family="'Arial'" font-size="9" font-style="normal" font-weight="normal"
              stroke-linecap="square" stroke-miterlimit="10">
          <tspan x="85.98291016" y="312.14746094">«requirement»</tspan>
        </text>
        <text fill="#000000" font-family="'Arial Bold', 'Arial'" font-size="12" font-style="normal" font-weight="bold"
              stroke-linecap="square" stroke-miterlimit="10">
          <tspan x="70.04980469" y="325.65625">Menu Bar Items</tspan>
        </text>
        <text fill="#000000" font-family="'Arial'" font-size="12" font-style="normal" font-weight="normal"
              stroke-linecap="square" stroke-miterlimit="10">
          <tspan x="54" y="347.32421875">Must support platform-</tspan>
          <tspan x="54" y="361.12304688">specific standard</tspan>
          <tspan x="54" y="374.921875">menu bar items.</tspan>
        </text>
      </g>
      <g class="MLEdge" id="umledge6">
        <polyline fill="none" points="120,300 120,235 290,235 290,170" stroke="#000000"/>
        <path d="M-12,0 A6,6 0 0,0 0,0 6,6 0 0,0 -12,0 M-6,-6 -6,6 M-12,0 0,0" fill="#ffffff" stroke="#000000"
              stroke-linecap="square" stroke-miterlimit="10"
              transform="rotate(-90, 290,170), matrix(1,0,0,1,0,0), translate(290,170)"/>
      </g>
      <g>
        <path d="M230,300 360,300 360,410 230,410 Z M230,331.9609375 360,331.9609375" fill="#ffffff" stroke="#000000"/>
        <text fill="#000000" font-family="'Arial'" font-size="9" font-style="normal" font-weight="normal"
              stroke-linecap="square" stroke-miterlimit="10">
          <tspan x="265.98291016" y="312.14746094">«requirement»</tspan>
        </text>
        <text fill="#000000" font-family="'Arial Bold', 'Arial'" font-size="12" font-style="normal" font-weight="bold"
              stroke-linecap="square" stroke-miterlimit="10">
          <tspan x="238.26074219" y="325.65625">Keyboard Shortcuts</tspan>
        </text>
        <text fill="#000000" font-family="'Arial'" font-size="12" font-style="normal" font-weight="normal"
              stroke-linecap="square" stroke-miterlimit="10">
          <tspan x="234" y="347.32421875">Must support platform-</tspan>
          <tspan x="234" y="361.12304688">specific standard</tspan>
          <tspan x="234" y="374.921875">keyboard shortcuts.</tspan>
        </text>
      </g>
      <g class="MLEdge" id="mledge1">
        <polyline fill="none" points="290,300 290,170" stroke="#000000"/>
        <path d="M-12,0 A6,6 0 0,0 0,0 6,6 0 0,0 -12,0 M-6,-6 -6,6 M-12,0 0,0" fill="#ffffff" stroke="#000000"
              stroke-linecap="square" stroke-miterlimit="10"
              transform="rotate(-90, 290,170), matrix(1,0,0,1,0,0), translate(290,170)"/>
      </g>
    </g>
  </g>
</svg>
