<?xml version="1.0" encoding="UTF-8" standalone="no"?>
<svg xmlns="http://www.w3.org/2000/svg" baseProfile="full" height="22" version="1.1" viewBox="0 0 22 22" width="22">
  <defs>
    <clipPath id="clipPath1">
      <rect fill="#000000" height="88" width="164"/>
    </clipPath>
  </defs>
  <g class="Drawing" clip-path="url(#clipPath1)" id="drawing1">
    <g class="Layer" id="content">
      <polyline class="Polyline" fill="none" id="polyline1" points="10,3 4,6 9,16 16,17 18,7 13,9" stroke="#000000"
                stroke-linecap="square" stroke-width="2"/>
      <g class="Label" id="label2">
        <path d="m12.44970703125,32.3349609375 -0.3154296875,2.66259765625 -2.74609375,0 0.333984375,-2.66259765625 z m-3.66455078125,-5.7890625 -0.51025390625,4.15625 -2.34716796875,0 0,1.6328125 2.14306640625,0 -0.333984375,2.66259765625 -2.34716796875,0 0,1.595703125 2.115234375,0 -0.52880859375,4.25830078125 1.6513671875,0.21337890625 0.556640625,-4.4345703125 2.75537109375,0 -0.52880859375,4.22119140625 1.6328125,0.21337890625 0.54736328125,-4.4345703125 2.263671875,0 0,-1.6328125 -2.0595703125,0 0.333984375,-2.66259765625 2.25439453125,0 0,-1.6328125 -2.078125,0 0.49169921875,-3.94287109375 -1.62353515625,-0.21337890625 -0.51953125,4.15625 -2.73681640625,0 0.49169921875,-3.94287109375 -1.62353515625,-0.21337890625 z"
              fill="#008b8b"/>
      </g>
      <polygon class="Polygon" fill="#808080" id="polygon8"
               points="22,32 27,36 27,34 30,34 30,37 28,37 32,42 36,37 34,37 34,34 37,34 37,36 42,32 37,28 37,30 34,30 34,27 36,27 32,22 28,27 30,27 30,30 27,30 27,28"
               stroke="#808080" stroke-alignment="inner"/>
    </g>
  </g>
</svg>
