<?xml version="1.0" encoding="UTF-8" standalone="no"?>
<svg xmlns="http://www.w3.org/2000/svg" baseProfile="full" height="22" version="1.1" viewBox="0 0 22 22" width="22">
  <defs>
    <clipPath id="clipPath1">
      <rect fill="#000000" height="88" width="164"/>
    </clipPath>
  </defs>
  <g class="Drawing" clip-path="url(#clipPath1)" id="drawing1">
    <g class="Layer" id="content">
      <polygon class="Polygon" fill="#ffffff" id="polygon1" points="10,3 4,6 9,16 16,17 18,7 12,9" stroke="#000000"
               stroke-linecap="square" stroke-width="2"/>
      <polygon class="Polygon" fill="#808080" id="polygon8"
               points="0,32 5,36 5,34 8,34 8,37 6,37 10,42 14,37 12,37 12,34 15,34 15,36 20,32 15,28 15,30 12,30 12,27 14,27 10,22 6,27 8,27 8,30 5,30 5,28"
               stroke="#808080" stroke-alignment="inner"/>
    </g>
  </g>
</svg>
