<?xml version="1.0" encoding="UTF-8" standalone="no"?>
<svg xmlns="http://www.w3.org/2000/svg" baseProfile="full" height="22" version="1.1" viewBox="0 0 22 22" width="22">
  <defs>
    <clipPath id="clipPath1">
      <rect fill="#000000" height="88" width="164"/>
    </clipPath>
  </defs>
  <g class="Drawing" clip-path="url(#clipPath1)" id="drawing1">
    <g class="Layer" id="content">
      <line class="Line" fill="none" id="line7" stroke="#008b8b" x1="18.5" x2="18.5" y1="4" y2="19"/>
      <g class="Label" id="label2">
        <path d="m12.44970703125,10.3349609375 -0.3154296875,2.66259765625 -2.74609375,0 0.333984375,-2.66259765625 z m-3.66455078125,-5.7890625 -0.51025390625,4.15625 -2.34716796875,0 0,1.6328125 2.14306640625,0 -0.333984375,2.66259765625 -2.34716796875,0 0,1.595703125 2.115234375,0 -0.52880859375,4.25830078125 1.6513671875,0.21337890625 0.556640625,-4.4345703125 2.75537109375,0 -0.52880859375,4.22119140625 1.6328125,0.21337890625 0.54736328125,-4.4345703125 2.263671875,0 0,-1.6328125 -2.0595703125,0 0.333984375,-2.66259765625 2.25439453125,0 0,-1.6328125 -2.078125,0 0.49169921875,-3.94287109375 -1.62353515625,-0.21337890625 -0.51953125,4.15625 -2.73681640625,0 0.49169921875,-3.94287109375 -1.62353515625,-0.21337890625 z"
              fill="#008b8b"/>
      </g>
      <polygon class="Polygon" fill="#000000" id="polygon3" points="55,47 60,58 56.5,57 56.5,62 53.5,62 53.5,57 50,58"
               stroke="#ffffff"
               transform="translate(-44,-44), matrix(0.9238795325112868,-0.38268343236508956,0.38268343236508956,0.9238795325112868,-12.669621352018158,47.19615425821479)"/>
      <polygon class="Polygon" fill="#808080" id="polygon8"
               points="22,10 27,14 27,12 30,12 30,15 28,15 32,20 36,15 34,15 34,12 37,12 37,14 42,10 37,6 37,8 34,8 34,5 36,5 32,0 28,5 30,5 30,8 27,8 27,6"
               stroke="#808080" stroke-alignment="inner"/>
    </g>
  </g>
</svg>
