<?xml version="1.0" encoding="UTF-8" standalone="no"?>
<svg xmlns="http://www.w3.org/2000/svg" baseProfile="tiny" height="22" version="1.2" viewBox="0 0 22 22" width="22">
  <defs/>
  <g>
    <g id="content">
      <line fill="none" id="line7" stroke="#008b8b" x1="18.5" x2="18.5" y1="4" y2="19"/>
      <g id="label2">
        <text fill="#008b8b" font-family="'Futura Medium', 'Futura'" font-size="19" x="5" y="17.63623047">#</text>
      </g>
      <polygon fill="#000000" id="polygon3" points="55,47 60,58 56.5,57 56.5,62 53.5,62 53.5,57 50,58" stroke="#ffffff"
               transform="translate(-44,-44), matrix(0.9238795325112868,-0.38268343236508956,0.38268343236508956,0.9238795325112868,-12.669621352018158,47.19615425821479)"/>
      <polygon fill="#808080" id="polygon8"
               points="22,10 27,14 27,12 30,12 30,15 28,15 32,20 36,15 34,15 34,12 37,12 37,14 42,10 37,6 37,8 34,8 34,5 36,5 32,0 28,5 30,5 30,8 27,8 27,6"
               stroke="#808080" stroke-alignment="inner"/>
    </g>
  </g>
</svg>
