<?xml version="1.0" encoding="UTF-8" standalone="no"?>
<svg xmlns="http://www.w3.org/2000/svg" baseProfile="tiny" height="22" version="1.2" viewBox="0 0 22 22" width="22">
  <defs/>
  <g>
    <g id="content">
      <polygon fill="#000000" id="polygon5" points="76.75,50 80.5,58.5 78,58 78,62 75.5,62 75.5,58 73,58.5"
               stroke="#ffffff"
               transform="translate(-88,-66), matrix(0.9238795325112868,-0.38268343236508956,0.38268343236508956,0.9238795325112868,-9.08802633268628,59.63369961338856)"/>
      <polygon fill="#000000" id="polygon10" points="76.75,50 80.5,58.5 78,58 78,62 75.5,62 75.5,58 73,58.5"
               stroke="#ffffff"
               transform="translate(-88,-66), matrix(0.9238795325112868,-0.38268343236508956,0.38268343236508956,0.9238795325112868,12.91197366731372,58.63369961338856)"/>
      <polyline fill="none" id="polyline5" points="4,2 10.5,7.5 4.5,14.5 10,20" stroke="#808080" stroke-width="2"/>
      <rect fill="#ffffff" height="5" id="rectangle5" stroke="#000000" stroke-alignment="inner" width="5" x="2" y="12"/>
      <rect fill="#ffffff" height="5" id="rectangle11" stroke="#000000" stroke-alignment="inner" width="5" x="8" y="5"/>
      <polygon fill="#000000" id="polygon14" points="76.75,50 80.5,58.5 78,58 78,62 75.5,62 75.5,58 73,58.5"
               stroke="#ffffff"
               transform="translate(-88,-66), matrix(0.9238795325112868,-0.38268343236508956,0.38268343236508956,0.9238795325112868,12.91197366731372,37.63369961338856)"/>
    </g>
  </g>
</svg>
