<?xml version="1.0" encoding="UTF-8" standalone="no"?>
<svg xmlns="http://www.w3.org/2000/svg" baseProfile="tiny" height="22" version="1.2" viewBox="0 0 22 22" width="22">
  <defs/>
  <g>
    <g id="content">
      <rect fill="none" height="16" id="rectangle12" stroke="#808080" stroke-alignment="inner" width="19" x="2" y="2"/>
      <rect fill="none" height="11" id="rectangle9" stroke="#808080" stroke-alignment="inner" stroke-width="2"
            width="14" x="2" y="2"/>
      <polygon fill="#000000" id="polygon4" points="76.75,50 80.5,58.5 78,58 78,62 75.5,62 75.5,58 73,58.5"
               stroke="#ffffff"
               transform="translate(-88,-44), matrix(0.9238795325112868,-0.38268343236508956,0.38268343236508956,0.9238795325112868,-9.08802633268628,37.63369961338856)"/>
      <polygon fill="#ffffff" id="polygon9" points="1,1 1,6 4,6 6,6 6,4 6,1" stroke="#000000" stroke-alignment="inner"/>
      <polygon fill="#ffffff" id="polygon11" points="12,1 17,1 17,6 14,6 12,6 12,4" stroke="#000000"
               stroke-alignment="inner"/>
      <polygon fill="#ffffff" id="polygon12" points="1,9 4,9 6,9 6,11 6,14 1,14" stroke="#000000"
               stroke-alignment="inner"/>
      <polygon fill="#ffffff" id="polygon13" points="12,11 12,9 14,9 17,9 17,14 12,14" stroke="#000000"
               stroke-alignment="inner"/>
      <polygon fill="#000000" id="polygon14" points="76.75,50 80.5,58.5 78,58 78,62 75.5,62 75.5,58 73,58.5"
               stroke="#ffffff"
               transform="translate(-88,-44), matrix(0.9238795325112868,-0.38268343236508956,0.38268343236508956,0.9238795325112868,12.91197366731372,37.63369961338856)"/>
    </g>
  </g>
</svg>
