<?xml version="1.0" encoding="UTF-8" standalone="no"?><svg xmlns:xlink="http://www.w3.org/1999/xlink" baseProfile="tiny" height="240" version="1.2" width="320" xmlns="http://www.w3.org/2000/svg">
<defs>
<clipPath id="clipPath1">
<rect fill="#000000" height="240" stroke-linecap="square" stroke-miterlimit="10" width="320"/>
</clipPath>
</defs>

<g class="Drawing" clip-path="url(#clipPath1)" id="drawing1">
  <rect fill="#ffffff" height="240" id="background" stroke-linecap="square" stroke-miterlimit="10" width="320"/>
    <polyline class="Polyline" fill="none" id="polyline1" points="135,150 135,180 240,180 240,60 160,60" stroke="#000000"/>
      <g><rect fill="#ffffff" height="29.40625" stroke="none" width="50.013671875" x="112" y="42"/><rect fill="none" height="29.40625" stroke="#000000" width="50.013671875" x="112" y="42"/></g>
      <text fill="#000000" font-family="Arial" font-size="12" font-style="normal" font-weight="normal" stroke-linecap="square" stroke-miterlimit="10" x="120" y="60.86328125">Figure</text>
      <g><rect fill="none" height="29.40625" stroke="#000000" width="107.37109375" x="82" y="112"/></g>
      <text fill="#000000" font-family="Arial" font-size="12" font-style="normal" font-weight="normal" stroke-linecap="square" stroke-miterlimit="10" x="90" y="130.86328125">CompositeFigure</text>
      <line fill="none" stroke="#000000" x1="135.9725143432617" x2="136.53114650544913" y1="111.5" y2="81.90446904242869"/>
      <path d="M0,0 L-10,5 -10,-5Z M-1.8,0 L-9,-3.5 -9,3.5Z" fill="#000000" stroke-linecap="square" stroke-miterlimit="10" transform="translate(136.7198684692383,71.90625) rotate(-88.91863860129152,136.7198684692383,71.90625)"/>
    <polygon class="Polygon" fill="#ffffff" id="polygon1" points="135,142 130,147 135,152 140,147" stroke="#000000"/>
</g>
</svg>