<svg version="1.1" xmlns="http://www.w3.org/2000/svg" width="780" height="579"><defs/><g><g transform="translate(-14,2) scale(1,1)"><path fill="none" stroke="#000000" d="M 24 8 L 784 8 L 784 567 L 24 567 L 24 8" stroke-miterlimit="10"/></g><g transform="translate(-14,2) scale(1,1)"><path fill="#ffffff" stroke="none" d="M 24 8 L 24 30 L 102.130859375 30 L 113.130859375 19 L 113.130859375 8 L 24 8"/></g><g transform="translate(-14,2) scale(1,1)"><path fill="none" stroke="#000000" d="M 24 8 L 24 30 L 102.130859375 30 L 113.130859375 19 L 113.130859375 8 L 24 8 L 24 8" stroke-miterlimit="10"/></g><g transform="translate(-14,2) scale(1,1)"><g><path fill="none" stroke="none"/><text fill="#000000" stroke="none" font-family="Arial" font-size="13px" font-style="normal" font-weight="normal" text-decoration="none" x="64.6181640625" y="25.5">Other</text></g></g><g transform="translate(-14,2) scale(1,1)"><g><path fill="none" stroke="none"/><text fill="#000000" stroke="none" font-family="Arial" font-size="13px" font-style="normal" font-weight="bold" text-decoration="none" x="29" y="25.5">class</text></g></g><g transform="translate(-14,2) scale(1,1)"><rect fill="#C0C0C0" stroke="none" x="55" y="55" width="670.9716796875" height="92" opacity="0.2"/></g><g transform="translate(-14,2) scale(1,1)"><rect fill="#ffffff" stroke="none" x="48" y="48" width="670.9716796875" height="92"/></g><g transform="translate(-14,2) scale(1,1)"><path fill="none" stroke="#000000" d="M 48 48 L 718.9716796875 48 L 718.9716796875 140 L 48 140 L 48 48 Z Z" stroke-miterlimit="10"/></g><g transform="translate(-14,2) scale(1,1)"><rect fill="#ffffff" stroke="none" x="48" y="48" width="670.9716796875" height="92"/></g><g transform="translate(-14,2) scale(1,1)"><path fill="none" stroke="#000000" d="M 48 48 L 718.9716796875 48 L 718.9716796875 140 L 48 140 L 48 48 Z Z" stroke-miterlimit="10"/></g><g transform="translate(-14,2) scale(1,1)"><path fill="none" stroke="#000000" d="M 48 73 L 718.9716796875 73" stroke-miterlimit="10"/></g><g transform="translate(-14,2) scale(1,1)"><g><path fill="none" stroke="none"/><text fill="#000000" stroke="none" font-family="Arial" font-size="13px" font-style="normal" font-weight="bold" text-decoration="none" x="308.32958984375" y="67.5">Kruchten1995: BiblioEntry</text><path fill="none" stroke="#000000" d="M 465.113525390625 67.5 L 301.858154296875 67.5" stroke-miterlimit="10"/></g></g><g transform="translate(-14,2) scale(1,1)"><g><path fill="none" stroke="none"/><text fill="#000000" stroke="none" font-family="Arial" font-size="13px" font-style="normal" font-weight="normal" text-decoration="none" x="53" y="90.5">+authors = Philippe Kruchten</text></g></g><g transform="translate(-14,2) scale(1,1)"><g><path fill="none" stroke="none"/><text fill="#000000" stroke="none" font-family="Arial" font-size="13px" font-style="normal" font-weight="normal" text-decoration="none" x="53" y="105.5">+year = 1995</text></g></g><g transform="translate(-14,2) scale(1,1)"><g><path fill="none" stroke="none"/><text fill="#000000" stroke="none" font-family="Arial" font-size="13px" font-style="normal" font-weight="normal" text-decoration="none" x="53" y="120.5">+title = Architectural Blueprints — The 4+1 View Model of Software Architecture.</text></g></g><g transform="translate(-14,2) scale(1,1)"><g><path fill="none" stroke="none"/><text fill="#000000" stroke="none" font-family="Arial" font-size="13px" font-style="normal" font-weight="normal" text-decoration="none" x="53" y="135.5">+url = https://www.cs.ubc.ca/~gregor/teaching/papers/4+1view-architecture.pdf</text></g></g><g transform="translate(-14,2) scale(1,1)"><rect fill="#C0C0C0" stroke="none" x="55" y="191" width="670.9716796875" height="105" opacity="0.2"/></g><g transform="translate(-14,2) scale(1,1)"><rect fill="#ffffff" stroke="none" x="48" y="184" width="670.9716796875" height="105"/></g><g transform="translate(-14,2) scale(1,1)"><path fill="none" stroke="#000000" d="M 48 184 L 718.9716796875 184 L 718.9716796875 289 L 48 289 L 48 184 Z Z" stroke-miterlimit="10"/></g><g transform="translate(-14,2) scale(1,1)"><rect fill="#ffffff" stroke="none" x="48" y="184" width="670.9716796875" height="105"/></g><g transform="translate(-14,2) scale(1,1)"><path fill="none" stroke="#000000" d="M 48 184 L 718.9716796875 184 L 718.9716796875 289 L 48 289 L 48 184 Z Z" stroke-miterlimit="10"/></g><g transform="translate(-14,2) scale(1,1)"><path fill="none" stroke="#000000" d="M 48 209 L 718.9716796875 209" stroke-miterlimit="10"/></g><g transform="translate(-14,2) scale(1,1)"><g><path fill="none" stroke="none"/><text fill="#000000" stroke="none" font-family="Arial" font-size="13px" font-style="normal" font-weight="bold" text-decoration="none" x="313.75048828125" y="203.5">Parnas2000: BiblioEntry</text><path fill="none" stroke="#000000" d="M 458.264404296875 203.5 L 308.707275390625 203.5" stroke-miterlimit="10"/></g></g><g transform="translate(-14,2) scale(1,1)"><g><path fill="none" stroke="none"/><text fill="#000000" stroke="none" font-family="Arial" font-size="13px" font-style="normal" font-weight="normal" text-decoration="none" x="53" y="226.5">+authors = David Lorge Parnas</text></g></g><g transform="translate(-14,2) scale(1,1)"><g><path fill="none" stroke="none"/><text fill="#000000" stroke="none" font-family="Arial" font-size="13px" font-style="normal" font-weight="normal" text-decoration="none" x="53" y="241.5">+year = 2010</text></g></g><g transform="translate(-14,2) scale(1,1)"><g><path fill="none" stroke="none"/><text fill="#000000" stroke="none" font-family="Arial" font-size="13px" font-style="normal" font-weight="normal" text-decoration="none" x="53" y="256.5">+title = Precise Documentation: The Key To Better Software</text></g></g><g transform="translate(-14,2) scale(1,1)"><g><path fill="none" stroke="none"/><text fill="#000000" stroke="none" font-family="Arial" font-size="13px" font-style="normal" font-weight="normal" text-decoration="none" x="53" y="271.5">+url = https://www.researchgate.net/publication/221349970_Precise_Documentation_The_Key_to_Better_Software</text></g></g><g transform="translate(-14,2) scale(1,1)"><rect fill="#C0C0C0" stroke="none" x="55" y="311" width="670.9716796875" height="92" opacity="0.2"/></g><g transform="translate(-14,2) scale(1,1)"><rect fill="#ffffff" stroke="none" x="48" y="304" width="670.9716796875" height="92"/></g><g transform="translate(-14,2) scale(1,1)"><path fill="none" stroke="#000000" d="M 48 304 L 718.9716796875 304 L 718.9716796875 396 L 48 396 L 48 304 Z Z" stroke-miterlimit="10"/></g><g transform="translate(-14,2) scale(1,1)"><rect fill="#ffffff" stroke="none" x="48" y="304" width="670.9716796875" height="92"/></g><g transform="translate(-14,2) scale(1,1)"><path fill="none" stroke="#000000" d="M 48 304 L 718.9716796875 304 L 718.9716796875 396 L 48 396 L 48 304 Z Z" stroke-miterlimit="10"/></g><g transform="translate(-14,2) scale(1,1)"><path fill="none" stroke="#000000" d="M 48 329 L 718.9716796875 329" stroke-miterlimit="10"/></g><g transform="translate(-14,2) scale(1,1)"><g><path fill="none" stroke="none"/><text fill="#000000" stroke="none" font-family="Arial" font-size="13px" font-style="normal" font-weight="bold" text-decoration="none" x="295.681884765625" y="323.5">Randelshofer2020: BiblioEntry</text><path fill="none" stroke="#000000" d="M 478.119873046875 323.5 L 288.851806640625 323.5" stroke-miterlimit="10"/></g></g><g transform="translate(-14,2) scale(1,1)"><g><path fill="none" stroke="none"/><text fill="#000000" stroke="none" font-family="Arial" font-size="13px" font-style="normal" font-weight="normal" text-decoration="none" x="53" y="346.5">+authors = Werner Randelshofer</text></g></g><g transform="translate(-14,2) scale(1,1)"><g><path fill="none" stroke="none"/><text fill="#000000" stroke="none" font-family="Arial" font-size="13px" font-style="normal" font-weight="normal" text-decoration="none" x="53" y="361.5">+year = 2020</text></g></g><g transform="translate(-14,2) scale(1,1)"><g><path fill="none" stroke="none"/><text fill="#000000" stroke="none" font-family="Arial" font-size="13px" font-style="normal" font-weight="normal" text-decoration="none" x="53" y="376.5">+title = JHotDraw 8 Design Specification</text></g></g><g transform="translate(-14,2) scale(1,1)"><g><path fill="none" stroke="none"/><text fill="#000000" stroke="none" font-family="Arial" font-size="13px" font-style="normal" font-weight="normal" text-decoration="none" x="53" y="391.5">+url = https://github.com/wrandelshofer/jhotdraw</text></g></g><g transform="translate(-14,2) scale(1,1)"><rect fill="#ffffff" stroke="none" x="48" y="152" width="123.34619140625" height="22"/></g><g transform="translate(-14,2) scale(1,1)"><path fill="none" stroke="#000000" d="M 48 152 L 171.34619140625 152 L 171.34619140625 174 L 48 174 L 48 152 Z Z" stroke-miterlimit="10"/></g><g transform="translate(-14,2) scale(1,1)"><path fill="none" stroke="#000000" d="M 80.39453125 152 L 80.39453125 174" stroke-miterlimit="10"/></g><g transform="translate(-14,2) scale(1,1)"><g><path fill="none" stroke="none"/><text fill="#000000" stroke="none" font-family="Arial" font-size="13px" font-style="normal" font-weight="normal" text-decoration="none" x="84.89453125" y="169.5">Kruchten1995</text></g></g><g transform="translate(-14,2) scale(1,1)"><g><path fill="none" stroke="none"/><text fill="#000000" stroke="none" font-family="Arial" font-size="13px" font-style="normal" font-weight="bold" text-decoration="none" x="54.444091796875" y="169.5">link</text></g></g></g></svg>