<svg version="1.1" xmlns="http://www.w3.org/2000/svg" width="738.96875" height="579"><defs/><g><g transform="translate(-14,2) scale(1,1)"><path fill="none" stroke="#000000" d="M 24 8 L 736 8 L 736 567 L 24 567 L 24 8" stroke-miterlimit="10"/></g><g transform="translate(-14,2) scale(1,1)"><path fill="#ffffff" stroke="none" d="M 24 8 L 24 30 L 193.89892578125 30 L 204.89892578125 19 L 204.89892578125 8 L 24 8"/></g><g transform="translate(-14,2) scale(1,1)"><path fill="none" stroke="#000000" d="M 24 8 L 24 30 L 193.89892578125 30 L 204.89892578125 19 L 204.89892578125 8 L 24 8 L 24 8" stroke-miterlimit="10"/></g><g transform="translate(-14,2) scale(1,1)"><g><path fill="none" stroke="none"/><text fill="#000000" stroke="none" font-family="Arial" font-size="13px" font-style="normal" font-weight="normal" text-decoration="none" x="64.6181640625" y="25.5">Bibliography Diagram</text></g></g><g transform="translate(-14,2) scale(1,1)"><g><path fill="none" stroke="none"/><text fill="#000000" stroke="none" font-family="Arial" font-size="13px" font-style="normal" font-weight="bold" text-decoration="none" x="29" y="25.5">class</text></g></g><g transform="translate(-14,2) scale(1,1)"><rect fill="#C0C0C0" stroke="none" x="55" y="55" width="473.9658203125" height="92" opacity="0.2"/></g><g transform="translate(-14,2) scale(1,1)"><rect fill="#ffffff" stroke="none" x="48" y="48" width="473.9658203125" height="92"/></g><g transform="translate(-14,2) scale(1,1)"><path fill="none" stroke="#000000" d="M 48 48 L 521.9658203125 48 L 521.9658203125 140 L 48 140 L 48 48 Z Z" stroke-miterlimit="10"/></g><g transform="translate(-14,2) scale(1,1)"><rect fill="#ffffff" stroke="none" x="48" y="48" width="473.9658203125" height="92"/></g><g transform="translate(-14,2) scale(1,1)"><path fill="none" stroke="#000000" d="M 48 48 L 521.9658203125 48 L 521.9658203125 140 L 48 140 L 48 48 Z Z" stroke-miterlimit="10"/></g><g transform="translate(-14,2) scale(1,1)"><path fill="none" stroke="#000000" d="M 48 73 L 521.9658203125 73" stroke-miterlimit="10"/></g><g transform="translate(-14,2) scale(1,1)"><g><path fill="none" stroke="none"/><text fill="#000000" stroke="none" font-family="Arial" font-size="13px" font-style="normal" font-weight="bold" text-decoration="none" x="209.82666015625" y="67.5">Kruchten1995: BiblioEntry</text><path fill="none" stroke="#000000" d="M 366.610595703125 67.5 L 203.355224609375 67.5" stroke-miterlimit="10"/></g></g><g transform="translate(-14,2) scale(1,1)"><g><path fill="none" stroke="none"/><text fill="#000000" stroke="none" font-family="Arial" font-size="13px" font-style="normal" font-weight="normal" text-decoration="none" x="53" y="90.5">+authors = Philippe Kruchten</text></g></g><g transform="translate(-14,2) scale(1,1)"><g><path fill="none" stroke="none"/><text fill="#000000" stroke="none" font-family="Arial" font-size="13px" font-style="normal" font-weight="normal" text-decoration="none" x="53" y="105.5">+year = 1995</text></g></g><g transform="translate(-14,2) scale(1,1)"><g><path fill="none" stroke="none"/><text fill="#000000" stroke="none" font-family="Arial" font-size="13px" font-style="normal" font-weight="normal" text-decoration="none" x="53" y="120.5">+title = Architectural Blueprints — The 4+1 View Model of Software Architecture.</text></g></g><g transform="translate(-14,2) scale(1,1)"><g><path fill="none" stroke="none"/><text fill="#000000" stroke="none" font-family="Arial" font-size="13px" font-style="normal" font-weight="normal" text-decoration="none" x="53" y="135.5">+url = https://www.cs.ubc.ca/~gregor/teaching/papers/4+1view-architecture.pdf</text></g></g><g transform="translate(-14,2) scale(1,1)"><rect fill="#C0C0C0" stroke="none" x="55" y="159" width="670.9716796875" height="105" opacity="0.2"/></g><g transform="translate(-14,2) scale(1,1)"><rect fill="#ffffff" stroke="none" x="48" y="152" width="670.9716796875" height="105"/></g><g transform="translate(-14,2) scale(1,1)"><path fill="none" stroke="#000000" d="M 48 152 L 718.9716796875 152 L 718.9716796875 257 L 48 257 L 48 152 Z Z" stroke-miterlimit="10"/></g><g transform="translate(-14,2) scale(1,1)"><rect fill="#ffffff" stroke="none" x="48" y="152" width="670.9716796875" height="105"/></g><g transform="translate(-14,2) scale(1,1)"><path fill="none" stroke="#000000" d="M 48 152 L 718.9716796875 152 L 718.9716796875 257 L 48 257 L 48 152 Z Z" stroke-miterlimit="10"/></g><g transform="translate(-14,2) scale(1,1)"><path fill="none" stroke="#000000" d="M 48 177 L 718.9716796875 177" stroke-miterlimit="10"/></g><g transform="translate(-14,2) scale(1,1)"><g><path fill="none" stroke="none"/><text fill="#000000" stroke="none" font-family="Arial" font-size="13px" font-style="normal" font-weight="bold" text-decoration="none" x="313.75048828125" y="171.5">Parnas2000: BiblioEntry</text><path fill="none" stroke="#000000" d="M 458.264404296875 171.5 L 308.707275390625 171.5" stroke-miterlimit="10"/></g></g><g transform="translate(-14,2) scale(1,1)"><g><path fill="none" stroke="none"/><text fill="#000000" stroke="none" font-family="Arial" font-size="13px" font-style="normal" font-weight="normal" text-decoration="none" x="53" y="194.5">+authors = David Lorge Parnas</text></g></g><g transform="translate(-14,2) scale(1,1)"><g><path fill="none" stroke="none"/><text fill="#000000" stroke="none" font-family="Arial" font-size="13px" font-style="normal" font-weight="normal" text-decoration="none" x="53" y="209.5">+year = 2010</text></g></g><g transform="translate(-14,2) scale(1,1)"><g><path fill="none" stroke="none"/><text fill="#000000" stroke="none" font-family="Arial" font-size="13px" font-style="normal" font-weight="normal" text-decoration="none" x="53" y="224.5">+title = Precise Documentation: The Key To Better Software</text></g></g><g transform="translate(-14,2) scale(1,1)"><g><path fill="none" stroke="none"/><text fill="#000000" stroke="none" font-family="Arial" font-size="13px" font-style="normal" font-weight="normal" text-decoration="none" x="53" y="239.5">+url = https://www.researchgate.net/publication/221349970_Precise_Documentation_The_Key_to_Better_Software</text></g></g><g transform="translate(-14,2) scale(1,1)"><rect fill="#C0C0C0" stroke="none" x="55" y="279" width="286.4814453125" height="92" opacity="0.2"/></g><g transform="translate(-14,2) scale(1,1)"><rect fill="#ffffff" stroke="none" x="48" y="272" width="286.4814453125" height="92"/></g><g transform="translate(-14,2) scale(1,1)"><path fill="none" stroke="#000000" d="M 48 272 L 334.4814453125 272 L 334.4814453125 364 L 48 364 L 48 272 Z Z" stroke-miterlimit="10"/></g><g transform="translate(-14,2) scale(1,1)"><rect fill="#ffffff" stroke="none" x="48" y="272" width="286.4814453125" height="92"/></g><g transform="translate(-14,2) scale(1,1)"><path fill="none" stroke="#000000" d="M 48 272 L 334.4814453125 272 L 334.4814453125 364 L 48 364 L 48 272 Z Z" stroke-miterlimit="10"/></g><g transform="translate(-14,2) scale(1,1)"><path fill="none" stroke="#000000" d="M 48 297 L 334.4814453125 297" stroke-miterlimit="10"/></g><g transform="translate(-14,2) scale(1,1)"><g><path fill="none" stroke="none"/><text fill="#000000" stroke="none" font-family="Arial" font-size="13px" font-style="normal" font-weight="bold" text-decoration="none" x="103.436767578125" y="291.5">Randelshofer2020: BiblioEntry</text><path fill="none" stroke="#000000" d="M 285.874755859375 291.5 L 96.606689453125 291.5" stroke-miterlimit="10"/></g></g><g transform="translate(-14,2) scale(1,1)"><g><path fill="none" stroke="none"/><text fill="#000000" stroke="none" font-family="Arial" font-size="13px" font-style="normal" font-weight="normal" text-decoration="none" x="53" y="314.5">+authors = Werner Randelshofer</text></g></g><g transform="translate(-14,2) scale(1,1)"><g><path fill="none" stroke="none"/><text fill="#000000" stroke="none" font-family="Arial" font-size="13px" font-style="normal" font-weight="normal" text-decoration="none" x="53" y="329.5">+year = 2020</text></g></g><g transform="translate(-14,2) scale(1,1)"><g><path fill="none" stroke="none"/><text fill="#000000" stroke="none" font-family="Arial" font-size="13px" font-style="normal" font-weight="normal" text-decoration="none" x="53" y="344.5">+title = JHotDraw 8 Design Specification</text></g></g><g transform="translate(-14,2) scale(1,1)"><g><path fill="none" stroke="none"/><text fill="#000000" stroke="none" font-family="Arial" font-size="13px" font-style="normal" font-weight="normal" text-decoration="none" x="53" y="359.5">+url = https://github.com/wrandelshofer/jhotdraw</text></g></g><g transform="translate(-14,2) scale(1,1)"><rect fill="#C0C0C0" stroke="none" x="55" y="383" width="340.626953125" height="122" opacity="0.2"/></g><g transform="translate(-14,2) scale(1,1)"><rect fill="#ffffff" stroke="none" x="48" y="376" width="340.626953125" height="122"/></g><g transform="translate(-14,2) scale(1,1)"><path fill="none" stroke="#000000" d="M 48 376 L 388.626953125 376 L 388.626953125 498 L 48 498 L 48 376 Z Z" stroke-miterlimit="10"/></g><g transform="translate(-14,2) scale(1,1)"><rect fill="#ffffff" stroke="none" x="48" y="376" width="340.626953125" height="122"/></g><g transform="translate(-14,2) scale(1,1)"><path fill="none" stroke="#000000" d="M 48 376 L 388.626953125 376 L 388.626953125 498 L 48 498 L 48 376 Z Z" stroke-miterlimit="10"/></g><g transform="translate(-14,2) scale(1,1)"><path fill="none" stroke="#000000" d="M 48 401 L 388.626953125 401" stroke-miterlimit="10"/></g><g transform="translate(-14,2) scale(1,1)"><g><path fill="none" stroke="none"/><text fill="#000000" stroke="none" font-family="Arial" font-size="13px" font-style="normal" font-weight="bold" text-decoration="none" x="163.76806640625" y="395.5">SysML: BiblioEntry</text><path fill="none" stroke="#000000" d="M 277.902099609375 395.5 L 158.724853515625 395.5" stroke-miterlimit="10"/></g></g><g transform="translate(-14,2) scale(1,1)"><g><path fill="none" stroke="none"/><text fill="#000000" stroke="none" font-family="Arial" font-size="13px" font-style="normal" font-weight="normal" text-decoration="none" x="53" y="418.5">+authors = OMG</text></g></g><g transform="translate(-14,2) scale(1,1)"><g><path fill="none" stroke="none"/><text fill="#000000" stroke="none" font-family="Arial" font-size="13px" font-style="normal" font-weight="normal" text-decoration="none" x="53" y="433.5">+date = December 2017</text></g></g><g transform="translate(-14,2) scale(1,1)"><g><path fill="none" stroke="none"/><text fill="#000000" stroke="none" font-family="Arial" font-size="13px" font-style="normal" font-weight="normal" text-decoration="none" x="53" y="448.5">+title = OMG Systems Modeling Language (OMG SysML)</text></g></g><g transform="translate(-14,2) scale(1,1)"><g><path fill="none" stroke="none"/><text fill="#000000" stroke="none" font-family="Arial" font-size="13px" font-style="normal" font-weight="normal" text-decoration="none" x="53" y="463.5">+url = https://www.omg.org/spec/SysML</text></g></g><g transform="translate(-14,2) scale(1,1)"><g><path fill="none" stroke="none"/><text fill="#000000" stroke="none" font-family="Arial" font-size="13px" font-style="normal" font-weight="normal" text-decoration="none" x="53" y="478.5">+omgDocumentNumber = formal/19-11-01</text></g></g><g transform="translate(-14,2) scale(1,1)"><g><path fill="none" stroke="none"/><text fill="#000000" stroke="none" font-family="Arial" font-size="13px" font-style="normal" font-weight="normal" text-decoration="none" x="53" y="493.5">+version = 1.6</text></g></g><g transform="translate(-14,2) scale(1,1)"><rect fill="#C0C0C0" stroke="none" x="431" y="383" width="318.96875" height="122" opacity="0.2"/></g><g transform="translate(-14,2) scale(1,1)"><rect fill="#ffffff" stroke="none" x="424" y="376" width="318.96875" height="122"/></g><g transform="translate(-14,2) scale(1,1)"><path fill="none" stroke="#000000" d="M 424 376 L 742.96875 376 L 742.96875 498 L 424 498 L 424 376 Z Z" stroke-miterlimit="10"/></g><g transform="translate(-14,2) scale(1,1)"><rect fill="#ffffff" stroke="none" x="424" y="376" width="318.96875" height="122"/></g><g transform="translate(-14,2) scale(1,1)"><path fill="none" stroke="#000000" d="M 424 376 L 742.96875 376 L 742.96875 498 L 424 498 L 424 376 Z Z" stroke-miterlimit="10"/></g><g transform="translate(-14,2) scale(1,1)"><path fill="none" stroke="#000000" d="M 424 401 L 742.96875 401" stroke-miterlimit="10"/></g><g transform="translate(-14,2) scale(1,1)"><g><path fill="none" stroke="none"/><text fill="#000000" stroke="none" font-family="Arial" font-size="13px" font-style="normal" font-weight="bold" text-decoration="none" x="535.080322265625" y="395.5">UML: BiblioEntry</text><path fill="none" stroke="#000000" d="M 636.20166015625 395.5 L 530.76708984375 395.5" stroke-miterlimit="10"/></g></g><g transform="translate(-14,2) scale(1,1)"><g><path fill="none" stroke="none"/><text fill="#000000" stroke="none" font-family="Arial" font-size="13px" font-style="normal" font-weight="normal" text-decoration="none" x="429" y="418.5">+authors = OMG</text></g></g><g transform="translate(-14,2) scale(1,1)"><g><path fill="none" stroke="none"/><text fill="#000000" stroke="none" font-family="Arial" font-size="13px" font-style="normal" font-weight="normal" text-decoration="none" x="429" y="433.5">+date = December 2017</text></g></g><g transform="translate(-14,2) scale(1,1)"><g><path fill="none" stroke="none"/><text fill="#000000" stroke="none" font-family="Arial" font-size="13px" font-style="normal" font-weight="normal" text-decoration="none" x="429" y="448.5">+title = OMG Unified Modeling Language (OMG UML)</text></g></g><g transform="translate(-14,2) scale(1,1)"><g><path fill="none" stroke="none"/><text fill="#000000" stroke="none" font-family="Arial" font-size="13px" font-style="normal" font-weight="normal" text-decoration="none" x="429" y="463.5">+url = https://www.omg.org/spec/UML</text></g></g><g transform="translate(-14,2) scale(1,1)"><g><path fill="none" stroke="none"/><text fill="#000000" stroke="none" font-family="Arial" font-size="13px" font-style="normal" font-weight="normal" text-decoration="none" x="429" y="478.5">+omgDocumentNumber = formal/2017-12-05</text></g></g><g transform="translate(-14,2) scale(1,1)"><g><path fill="none" stroke="none"/><text fill="#000000" stroke="none" font-family="Arial" font-size="13px" font-style="normal" font-weight="normal" text-decoration="none" x="429" y="493.5">+version = 2.5.1</text></g></g></g></svg>