<svg version="1.1" xmlns="http://www.w3.org/2000/svg" width="785" height="612"><defs/><g><g transform="translate(2,2) scale(1,1)"><path fill="none" stroke="#000000" d="M 8 8 L 768 8 L 768 600 L 8 600 L 8 8" stroke-miterlimit="10"/></g><g transform="translate(2,2) scale(1,1)"><path fill="#ffffff" stroke="none" d="M 8 8 L 8 30 L 250.13525390625 30 L 261.13525390625 19 L 261.13525390625 8 L 8 8"/></g><g transform="translate(2,2) scale(1,1)"><path fill="none" stroke="#000000" d="M 8 8 L 8 30 L 250.13525390625 30 L 261.13525390625 19 L 261.13525390625 8 L 8 8 L 8 8" stroke-miterlimit="10"/></g><g transform="translate(2,2) scale(1,1)"><g><path fill="none" stroke="none"/><text fill="#000000" stroke="none" font-family="Arial" font-size="13px" font-style="normal" font-weight="normal" text-decoration="none" x="48.6181640625" y="25.5">Abstract Factory Pattern Structure</text></g></g><g transform="translate(2,2) scale(1,1)"><g><path fill="none" stroke="none"/><text fill="#000000" stroke="none" font-family="Arial" font-size="13px" font-style="normal" font-weight="bold" text-decoration="none" x="13" y="25.5">class</text></g></g><g transform="translate(2,2) scale(1,1)"><rect fill="#C0C0C0" stroke="none" x="519" y="383" width="114.4599609375" height="24" opacity="0.2"/></g><g transform="translate(2,2) scale(1,1)"><rect fill="#ffffff" stroke="none" x="512" y="376" width="114.4599609375" height="24"/></g><g transform="translate(2,2) scale(1,1)"><path fill="none" stroke="#000000" d="M 512 376 L 626.4599609375 376 L 626.4599609375 400 L 512 400 L 512 376 Z Z" stroke-miterlimit="10"/></g><g transform="translate(2,2) scale(1,1)"><g><path fill="none" stroke="none"/><text fill="#000000" stroke="none" font-family="Arial" font-size="13px" font-style="normal" font-weight="bold" text-decoration="none" x="520.45458984375" y="395.5">ConcreteProduct</text></g></g><g transform="translate(2,2) scale(1,1)"><rect fill="#C0C0C0" stroke="none" x="151" y="375" width="205.8916015625" height="47" opacity="0.2"/></g><g transform="translate(2,2) scale(1,1)"><rect fill="#ffffff" stroke="none" x="144" y="368" width="205.8916015625" height="47"/></g><g transform="translate(2,2) scale(1,1)"><path fill="none" stroke="#000000" d="M 144 368 L 349.8916015625 368 L 349.8916015625 415 L 144 415 L 144 368 Z Z" stroke-miterlimit="10"/></g><g transform="translate(2,2) scale(1,1)"><path fill="none" stroke="#000000" d="M 144 393 L 349.8916015625 393" stroke-miterlimit="10"/></g><g transform="translate(2,2) scale(1,1)"><g><path fill="none" stroke="none"/><text fill="#000000" stroke="none" font-family="Arial" font-size="13px" font-style="normal" font-weight="bold" text-decoration="none" x="198.900390625" y="387.5">ConcreteFactory</text></g></g><g transform="translate(2,2) scale(1,1)"><g><path fill="none" stroke="none"/><text fill="#000000" stroke="none" font-family="Arial" font-size="13px" font-style="normal" font-weight="normal" text-decoration="none" x="149" y="410.5">+createProduct(): AbstractProduct</text></g></g><g transform="translate(2,2) scale(1,1)"><path fill="none" stroke="#000000" d="M 351 390 L 511 389" stroke-miterlimit="10" stroke-dasharray="3"/></g><g transform="translate(2,2) scale(1,1)"><path fill="none" stroke="#000000" d="M 500.8638325984372 393.27295101861654 L 511 389 L 500.81121465417124 384.85407993605463" stroke-miterlimit="10"/></g><g transform="translate(2,2) scale(1,1)"><g><path fill="none" stroke="none"/><text fill="#000000" stroke="none" font-family="Arial" font-size="13px" font-style="normal" font-weight="normal" text-decoration="none" x="405.5" y="380.5">+creates</text></g></g><g transform="translate(2,2) scale(1,1)"><rect fill="#C0C0C0" stroke="none" x="151" y="207" width="205.8916015625" height="60" opacity="0.2"/></g><g transform="translate(2,2) scale(1,1)"><rect fill="#ffffff" stroke="none" x="144" y="200" width="205.8916015625" height="60"/></g><g transform="translate(2,2) scale(1,1)"><path fill="none" stroke="#000000" d="M 144 200 L 349.8916015625 200 L 349.8916015625 260 L 144 260 L 144 200 Z Z" stroke-miterlimit="10"/></g><g transform="translate(2,2) scale(1,1)"><path fill="none" stroke="#000000" d="M 144 238 L 349.8916015625 238" stroke-miterlimit="10"/></g><g transform="translate(2,2) scale(1,1)"><g><path fill="none" stroke="none"/><text fill="#000000" stroke="none" font-family="Arial" font-size="13px" font-style="normal" font-weight="normal" text-decoration="none" x="214.785400390625" y="217.5">«interface»</text></g></g><g transform="translate(2,2) scale(1,1)"><g><path fill="none" stroke="none"/><text fill="#000000" stroke="none" font-family="Arial" font-size="13px" font-style="normal" font-weight="bold" text-decoration="none" x="201.43310546875" y="232.5">AbstractFactory</text></g></g><g transform="translate(2,2) scale(1,1)"><g><path fill="none" stroke="none"/><text fill="#000000" stroke="none" font-family="Arial" font-size="13px" font-style="italic" font-weight="normal" text-decoration="none" x="149" y="255.5">+createProduct(): AbstractProduct</text></g></g><g transform="translate(2,2) scale(1,1)"><path fill="none" stroke="#000000" d="M 246 367 L 246 261" stroke-miterlimit="10" stroke-dasharray="3"/></g><g transform="translate(2,2) scale(1,1)"><path fill="#FFFFFF" stroke="none" d="M 254.41903551203197 281.3253497152483 L 246 261 L 237.58096448796803 281.3253497152483"/></g><g transform="translate(2,2) scale(1,1)"><path fill="none" stroke="#000000" d="M 254.41903551203197 281.3253497152483 L 246 261 L 237.58096448796803 281.3253497152483 L 254.41903551203197 281.3253497152483" stroke-miterlimit="10"/></g><g transform="translate(2,2) scale(1,1)"><rect fill="#ffffff" stroke="none" x="8" y="32" width="99" height="22"/></g><g transform="translate(2,2) scale(1,1)"><path fill="none" stroke="#000000" d="M 8 32 L 107 32 L 107 54 L 8 54 L 8 32 Z Z" stroke-miterlimit="10"/></g><g transform="translate(2,2) scale(1,1)"><path fill="none" stroke="#000000" d="M 40.39453125 32 L 40.39453125 54" stroke-miterlimit="10"/></g><g transform="translate(2,2) scale(1,1)"><g><path fill="none" stroke="none"/><text fill="#000000" stroke="none" font-family="Arial" font-size="13px" font-style="normal" font-weight="normal" text-decoration="none" x="44.89453125" y="49.5">GoF1995</text></g></g><g transform="translate(2,2) scale(1,1)"><g><path fill="none" stroke="none"/><text fill="#000000" stroke="none" font-family="Arial" font-size="13px" font-style="normal" font-weight="bold" text-decoration="none" x="14.444091796875" y="49.5">link</text></g></g><g transform="translate(2,2) scale(1,1)"><path fill="#C0C0C0" stroke="none" d="M 431 568 C 431 558.6111584 509.1263024 551 605.5 551 C 701.8736976 551 780 558.6111584 780 568 C 780 577.3888416 701.8736976 585 605.5 585 C 509.1263024 585 431 577.3888416 431 568 Z" opacity="0.2"/></g><g transform="translate(2,2) scale(1,1)"><path fill="#ffffff" stroke="none" d="M 424 561 C 424 551.6111584 502.1263024 544 598.5 544 C 694.8736976 544 773 551.6111584 773 561 C 773 570.3888416 694.8736976 578 598.5 578 C 502.1263024 578 424 570.3888416 424 561 Z"/></g><g transform="translate(2,2) scale(1,1)"><path fill="none" stroke="#000000" d="M 424 561 C 424 551.6111584 502.1263024 544 598.5 544 C 694.8736976 544 773 551.6111584 773 561 C 773 570.3888416 694.8736976 578 598.5 578 C 502.1263024 578 424 570.3888416 424 561 Z" stroke-miterlimit="10" stroke-dasharray="5"/></g><g transform="translate(2,2) scale(1,1)"><g><path fill="none" stroke="none"/><text fill="#000000" stroke="none" font-family="Arial" font-size="13px" font-style="normal" font-weight="bold" text-decoration="none" x="487.952392578125" y="568">example use: Abstract Factory Pattern</text></g></g><g transform="translate(2,2) scale(1,1)"><rect fill="#C0C0C0" stroke="none" x="551" y="95" width="45.11181640625" height="24" opacity="0.2"/></g><g transform="translate(2,2) scale(1,1)"><rect fill="#ffffff" stroke="none" x="544" y="88" width="45.11181640625" height="24"/></g><g transform="translate(2,2) scale(1,1)"><path fill="none" stroke="#000000" d="M 544 88 L 589.11181640625 88 L 589.11181640625 112 L 544 112 L 544 88 Z Z" stroke-miterlimit="10"/></g><g transform="translate(2,2) scale(1,1)"><g><path fill="none" stroke="none"/><text fill="#000000" stroke="none" font-family="Arial" font-size="13px" font-style="normal" font-weight="bold" text-decoration="none" x="549.937744140625" y="107.5">Client</text></g></g><g transform="translate(2,2) scale(1,1)"><path fill="none" stroke="#000000" d="M 543 109 L 322 199" stroke-miterlimit="10" stroke-dasharray="3"/></g><g transform="translate(2,2) scale(1,1)"><path fill="none" stroke="#000000" d="M 329.82444901928415 191.26837678461865 L 322 199 L 332.9998041657597 199.06563775540874" stroke-miterlimit="10"/></g><g transform="translate(2,2) scale(1,1)"><g><path fill="none" stroke="none"/><text fill="#000000" stroke="none" font-family="Arial" font-size="13px" font-style="normal" font-weight="normal" text-decoration="none" x="419.812255859375" y="173.5">+calls</text></g></g><g transform="translate(2,2) scale(1,1)"><path fill="none" stroke="#000000" d="M 566 113 L 567 207" stroke-miterlimit="10" stroke-dasharray="3"/></g><g transform="translate(2,2) scale(1,1)"><path fill="none" stroke="#000000" d="M 562.6826129814013 196.8826797356397 L 567 207 L 571.1011721285073 196.79312059577686" stroke-miterlimit="10"/></g><g transform="translate(2,2) scale(1,1)"><g><path fill="none" stroke="none"/><text fill="#000000" stroke="none" font-family="Arial" font-size="13px" font-style="normal" font-weight="normal" text-decoration="none" x="562.5" y="165.5">+uses</text></g></g><g transform="translate(2,2) scale(1,1)"><rect fill="#C0C0C0" stroke="none" x="519" y="215" width="110.84814453125" height="37" opacity="0.2"/></g><g transform="translate(2,2) scale(1,1)"><rect fill="#ffffff" stroke="none" x="512" y="208" width="110.84814453125" height="37"/></g><g transform="translate(2,2) scale(1,1)"><path fill="none" stroke="#000000" d="M 512 208 L 622.84814453125 208 L 622.84814453125 245 L 512 245 L 512 208 Z Z" stroke-miterlimit="10"/></g><g transform="translate(2,2) scale(1,1)"><g><path fill="none" stroke="none"/><text fill="#000000" stroke="none" font-family="Arial" font-size="13px" font-style="normal" font-weight="normal" text-decoration="none" x="535.263671875" y="225.5">«interface»</text></g></g><g transform="translate(2,2) scale(1,1)"><g><path fill="none" stroke="none"/><text fill="#000000" stroke="none" font-family="Arial" font-size="13px" font-style="normal" font-weight="bold" text-decoration="none" x="521.181396484375" y="240.5">AbstractProduct</text></g></g><g transform="translate(2,2) scale(1,1)"><path fill="none" stroke="#000000" d="M 569 375 L 567 246" stroke-miterlimit="10" stroke-dasharray="3"/></g><g transform="translate(2,2) scale(1,1)"><path fill="#FFFFFF" stroke="none" d="M 575.7331076868186 266.1923953539552 L 567 246 L 558.8970599830003 266.45341934936323"/></g><g transform="translate(2,2) scale(1,1)"><path fill="none" stroke="#000000" d="M 575.7331076868186 266.1923953539552 L 567 246 L 558.8970599830003 266.45341934936323 L 575.7331076868186 266.1923953539552" stroke-miterlimit="10"/></g></g></svg>