<svg version="1.1" xmlns="http://www.w3.org/2000/svg" xmlns:xlink="http://www.w3.org/1999/xlink" width="631.3779296875" height="409"><defs/><g><g transform="translate(-46,-30) scale(1,1)"><path fill="none" stroke="#000000" d="M 56 40 L 667.3779296875 40 L 667.3779296875 429 L 56 429 L 56 40" stroke-miterlimit="10"/></g><g transform="translate(-46,-30) scale(1,1)"><path fill="#ffffff" stroke="none" d="M 56 40 L 56 62 L 285.8779296875 62 L 296.8779296875 51 L 296.8779296875 40 L 56 40"/></g><g transform="translate(-46,-30) scale(1,1)"><path fill="none" stroke="#000000" d="M 56 40 L 56 62 L 285.8779296875 62 L 296.8779296875 51 L 296.8779296875 40 L 56 40 L 56 40" stroke-miterlimit="10"/></g><g transform="translate(-46,-30) scale(1,1)"><g><path fill="none" stroke="none"/><text fill="#000000" stroke="none" font-family="Arial" font-size="13px" font-style="normal" font-weight="normal" text-decoration="none" x="87.9599609375" y="57.5">Application Framework Packages</text></g></g><g transform="translate(-46,-30) scale(1,1)"><g><path fill="none" stroke="none"/><text fill="#000000" stroke="none" font-family="Arial" font-size="13px" font-style="normal" font-weight="bold" text-decoration="none" x="61" y="57.5">pkg</text></g></g><g transform="translate(-46,-30) scale(1,1)"><rect fill="#C0C0C0" stroke="none" x="223" y="119" width="48.66835937500002" height="15" opacity="0.2"/></g><g transform="translate(-46,-30) scale(1,1)"><rect fill="#C0C0C0" stroke="none" x="223" y="133" width="121.6708984375" height="25" opacity="0.2"/></g><g transform="translate(-46,-30) scale(1,1)"><rect fill="#ffffff" stroke="none" x="216" y="127" width="121.6708984375" height="24"/></g><g transform="translate(-46,-30) scale(1,1)"><path fill="none" stroke="#000000" d="M 216 127 L 337.6708984375 127 L 337.6708984375 151 L 216 151 L 216 127 Z Z" stroke-miterlimit="10"/></g><g transform="translate(-46,-30) scale(1,1)"><rect fill="#ffffff" stroke="none" x="216" y="112" width="48.66835937500002" height="15"/></g><g transform="translate(-46,-30) scale(1,1)"><path fill="none" stroke="#000000" d="M 216 112 L 264.668359375 112 L 264.668359375 127 L 216 127 L 216 112 Z Z" stroke-miterlimit="10"/></g><g transform="translate(-46,-30) scale(1,1)"><rect fill="#ffffff" stroke="none" x="216" y="126" width="121.6708984375" height="25"/></g><g transform="translate(-46,-30) scale(1,1)"><path fill="none" stroke="#000000" d="M 216 126 L 337.6708984375 126 L 337.6708984375 151 L 216 151 L 216 126 Z Z" stroke-miterlimit="10"/></g><g transform="translate(-46,-30) scale(1,1)"><g><path fill="none" stroke="none"/><text fill="#000000" stroke="none" font-family="Arial" font-size="13px" font-style="normal" font-weight="bold" text-decoration="none" x="224.800537109375" y="146.5">org.jhotdraw8.app</text></g></g><g transform="translate(-46,-30) scale(1,1)"><rect fill="#C0C0C0" stroke="none" x="223" y="175" width="65.42617187500002" height="15" opacity="0.2"/></g><g transform="translate(-46,-30) scale(1,1)"><rect fill="#C0C0C0" stroke="none" x="223" y="189" width="163.5654296875" height="25" opacity="0.2"/></g><g transform="translate(-46,-30) scale(1,1)"><rect fill="#ffffff" stroke="none" x="216" y="183" width="163.5654296875" height="24"/></g><g transform="translate(-46,-30) scale(1,1)"><path fill="none" stroke="#000000" d="M 216 183 L 379.5654296875 183 L 379.5654296875 207 L 216 207 L 216 183 Z Z" stroke-miterlimit="10"/></g><g transform="translate(-46,-30) scale(1,1)"><rect fill="#ffffff" stroke="none" x="216" y="168" width="65.42617187500002" height="15"/></g><g transform="translate(-46,-30) scale(1,1)"><path fill="none" stroke="#000000" d="M 216 168 L 281.426171875 168 L 281.426171875 183 L 216 183 L 216 168 Z Z" stroke-miterlimit="10"/></g><g transform="translate(-46,-30) scale(1,1)"><rect fill="#ffffff" stroke="none" x="216" y="182" width="163.5654296875" height="25"/></g><g transform="translate(-46,-30) scale(1,1)"><path fill="none" stroke="#000000" d="M 216 182 L 379.5654296875 182 L 379.5654296875 207 L 216 207 L 216 182 Z Z" stroke-miterlimit="10"/></g><g transform="translate(-46,-30) scale(1,1)"><g><path fill="none" stroke="none"/><text fill="#000000" stroke="none" font-family="Arial" font-size="13px" font-style="normal" font-weight="bold" text-decoration="none" x="226.596923828125" y="202.5">org.jhotdraw8.app.action</text></g></g></g></svg>