<svg version="1.1" xmlns="http://www.w3.org/2000/svg" width="1116" height="636"><defs/><g><g transform="translate(-6,2) scale(1,1)"><path fill="none" stroke="#000000" d="M 16 8 L 1112 8 L 1112 624 L 16 624 L 16 8" stroke-miterlimit="10"/></g><g transform="translate(-6,2) scale(1,1)"><path fill="#ffffff" stroke="none" d="M 16 8 L 16 30 L 216.234375 30 L 227.234375 19 L 227.234375 8 L 16 8"/></g><g transform="translate(-6,2) scale(1,1)"><path fill="none" stroke="#000000" d="M 16 8 L 16 30 L 216.234375 30 L 227.234375 19 L 227.234375 8 L 16 8 L 16 8" stroke-miterlimit="10"/></g><g transform="translate(-6,2) scale(1,1)"><g><path fill="none" stroke="none"/><text fill="#000000" stroke="none" font-family="Arial" font-size="13px" font-style="normal" font-weight="normal" text-decoration="none" x="56.6181640625" y="25.5">Docking System Interfaces</text></g></g><g transform="translate(-6,2) scale(1,1)"><g><path fill="none" stroke="none"/><text fill="#000000" stroke="none" font-family="Arial" font-size="13px" font-style="normal" font-weight="bold" text-decoration="none" x="21" y="25.5">class</text></g></g><g transform="translate(-6,2) scale(1,1)"><rect fill="#C0C0C0" stroke="none" x="703" y="335" width="248.5478515625" height="90" opacity="0.2"/></g><g transform="translate(-6,2) scale(1,1)"><rect fill="#ffffff" stroke="none" x="696" y="328" width="248.5478515625" height="90"/></g><g transform="translate(-6,2) scale(1,1)"><path fill="none" stroke="#000000" d="M 696 328 L 944.5478515625 328 L 944.5478515625 418 L 696 418 L 696 328 Z Z" stroke-miterlimit="10"/></g><g transform="translate(-6,2) scale(1,1)"><path fill="none" stroke="#000000" d="M 696 366 L 944.5478515625 366" stroke-miterlimit="10"/></g><g transform="translate(-6,2) scale(1,1)"><g><path fill="none" stroke="none"/><text fill="#000000" stroke="none" font-family="Arial" font-size="13px" font-style="normal" font-weight="normal" text-decoration="none" x="788.113525390625" y="345.5">«interface»</text></g></g><g transform="translate(-6,2) scale(1,1)"><g><path fill="none" stroke="none"/><text fill="#000000" stroke="none" font-family="Arial" font-size="13px" font-style="normal" font-weight="bold" text-decoration="none" x="793.17578125" y="360.5">Dockable</text></g></g><g transform="translate(-6,2) scale(1,1)"><g><path fill="none" stroke="none"/><text fill="#000000" stroke="none" font-family="Arial" font-size="13px" font-style="normal" font-weight="normal" text-decoration="none" x="701" y="383.5">+textProperty: StringProperty</text></g></g><g transform="translate(-6,2) scale(1,1)"><g><path fill="none" stroke="none"/><text fill="#000000" stroke="none" font-family="Arial" font-size="13px" font-style="normal" font-weight="normal" text-decoration="none" x="701" y="398.5">+graphicProperty: ObjectProperty&lt;Node&gt;</text></g></g><g transform="translate(-6,2) scale(1,1)"><g><path fill="none" stroke="none"/><text fill="#000000" stroke="none" font-family="Arial" font-size="13px" font-style="normal" font-weight="normal" text-decoration="none" x="701" y="413.5">+idProperty: StringProperty</text></g></g><g transform="translate(-6,2) scale(1,1)"><rect fill="#C0C0C0" stroke="none" x="423" y="183" width="311.4150390625" height="113" opacity="0.2"/></g><g transform="translate(-6,2) scale(1,1)"><rect fill="#ffffff" stroke="none" x="416" y="176" width="311.4150390625" height="113"/></g><g transform="translate(-6,2) scale(1,1)"><path fill="none" stroke="#000000" d="M 416 176 L 727.4150390625 176 L 727.4150390625 289 L 416 289 L 416 176 Z Z" stroke-miterlimit="10"/></g><g transform="translate(-6,2) scale(1,1)"><path fill="none" stroke="#000000" d="M 416 214 L 727.4150390625 214" stroke-miterlimit="10"/></g><g transform="translate(-6,2) scale(1,1)"><path fill="none" stroke="#000000" d="M 416 267 L 727.4150390625 267" stroke-miterlimit="10"/></g><g transform="translate(-6,2) scale(1,1)"><g><path fill="none" stroke="none"/><text fill="#000000" stroke="none" font-family="Arial" font-size="13px" font-style="normal" font-weight="normal" text-decoration="none" x="539.547119140625" y="193.5">«interface»</text></g></g><g transform="translate(-6,2) scale(1,1)"><g><path fill="none" stroke="none"/><text fill="#000000" stroke="none" font-family="Arial" font-size="13px" font-style="normal" font-weight="bold" text-decoration="none" x="541.359375" y="208.5">DockNode</text></g></g><g transform="translate(-6,2) scale(1,1)"><g><path fill="none" stroke="none"/><text fill="#000000" stroke="none" font-family="Arial" font-size="13px" font-style="normal" font-weight="normal" text-decoration="none" x="421" y="231.5">+dockChildrenReadOnly: ReadOnlyList&lt;DockNode&gt;</text></g></g><g transform="translate(-6,2) scale(1,1)"><g><path fill="none" stroke="none"/><text fill="#000000" stroke="none" font-family="Arial" font-size="13px" font-style="normal" font-weight="normal" text-decoration="none" x="421" y="246.5">+dockParent: ObjectProperty&lt;Dock&gt;</text></g></g><g transform="translate(-6,2) scale(1,1)"><g><path fill="none" stroke="none"/><text fill="#000000" stroke="none" font-family="Arial" font-size="13px" font-style="normal" font-weight="normal" text-decoration="none" x="421" y="261.5">+node: ReadOnlyProperty&lt;Node&gt;</text></g></g><g transform="translate(-6,2) scale(1,1)"><g><path fill="none" stroke="none"/><text fill="#000000" stroke="none" font-family="Arial" font-size="13px" font-style="normal" font-weight="normal" text-decoration="none" x="421" y="284.5">+getDockPane(): DockPane</text></g></g><g transform="translate(-6,2) scale(1,1)"><rect fill="#C0C0C0" stroke="none" x="975" y="159" width="125.34619140625" height="90" opacity="0.2"/></g><g transform="translate(-6,2) scale(1,1)"><rect fill="#ffffff" stroke="none" x="968" y="152" width="125.34619140625" height="90"/></g><g transform="translate(-6,2) scale(1,1)"><path fill="none" stroke="#000000" d="M 968 152 L 1093.34619140625 152 L 1093.34619140625 242 L 968 242 L 968 152 Z Z" stroke-miterlimit="10"/></g><g transform="translate(-6,2) scale(1,1)"><path fill="none" stroke="#000000" d="M 968 190 L 1093.34619140625 190" stroke-miterlimit="10"/></g><g transform="translate(-6,2) scale(1,1)"><g><path fill="none" stroke="none"/><text fill="#000000" stroke="none" font-family="Arial" font-size="13px" font-style="normal" font-weight="normal" text-decoration="none" x="987.30908203125" y="169.5">«enumeration»</text></g></g><g transform="translate(-6,2) scale(1,1)"><g><path fill="none" stroke="none"/><text fill="#000000" stroke="none" font-family="Arial" font-size="13px" font-style="normal" font-weight="bold" text-decoration="none" x="1003.58447265625" y="184.5">DockAxis</text></g></g><g transform="translate(-6,2) scale(1,1)"><g><path fill="none" stroke="none"/><text fill="#000000" stroke="none" font-family="Arial" font-size="13px" font-style="normal" font-weight="normal" text-decoration="none" x="973" y="207.5">X</text></g></g><g transform="translate(-6,2) scale(1,1)"><g><path fill="none" stroke="none"/><text fill="#000000" stroke="none" font-family="Arial" font-size="13px" font-style="normal" font-weight="normal" text-decoration="none" x="973" y="222.5">Y</text></g></g><g transform="translate(-6,2) scale(1,1)"><g><path fill="none" stroke="none"/><text fill="#000000" stroke="none" font-family="Arial" font-size="13px" font-style="normal" font-weight="normal" text-decoration="none" x="973" y="237.5">Z</text></g></g><g transform="translate(-6,2) scale(1,1)"><path fill="none" stroke="#000000" d="M 739 327 L 673 290" stroke-miterlimit="10"/></g><g transform="translate(-6,2) scale(1,1)"><path fill="#FFFFFF" stroke="none" d="M 694.8463641769592 292.59545222411674 L 673 290 L 686.61245038588 307.2829741217174"/></g><g transform="translate(-6,2) scale(1,1)"><path fill="none" stroke="#000000" d="M 694.8463641769592 292.59545222411674 L 673 290 L 686.61245038588 307.2829741217174 L 694.8463641769592 292.59545222411674" stroke-miterlimit="10"/></g><g transform="translate(-6,2) scale(1,1)"><path fill="none" stroke="#000000" d="M 589 176 L 589 155 L 792 155 L 792 192 L 727 192" stroke-miterlimit="10"/></g><g transform="translate(-6,2) scale(1,1)"><path fill="#FFFFFF" stroke="none" d="M 737.1626748576241 187.790482243984 L 727 192 L 737.1626748576241 196.209517756016 L 749 192"/></g><g transform="translate(-6,2) scale(1,1)"><path fill="none" stroke="#000000" d="M 737.1626748576241 187.790482243984 L 727 192 L 737.1626748576241 196.209517756016 L 749 192 L 737.1626748576241 187.790482243984" stroke-miterlimit="10"/></g><g transform="translate(-6,2) scale(1,1)"><g><path fill="none" stroke="none"/><text fill="#000000" stroke="none" font-family="Arial" font-size="13px" font-style="normal" font-weight="normal" text-decoration="none" x="503.72998046875" y="144.5">+dockChildrenReadOnly</text></g></g><g transform="translate(-6,2) scale(1,1)"><rect fill="#C0C0C0" stroke="none" x="71" y="479" width="356.95947265625" height="100" opacity="0.2"/></g><g transform="translate(-6,2) scale(1,1)"><rect fill="#ffffff" stroke="none" x="64" y="472" width="356.95947265625" height="100"/></g><g transform="translate(-6,2) scale(1,1)"><path fill="none" stroke="#000000" d="M 64 472 L 420.95947265625 472 L 420.95947265625 572 L 64 572 L 64 472 Z Z" stroke-miterlimit="10"/></g><g transform="translate(-6,2) scale(1,1)"><path fill="none" stroke="#000000" d="M 64 510 L 420.95947265625 510" stroke-miterlimit="10"/></g><g transform="translate(-6,2) scale(1,1)"><path fill="none" stroke="#000000" d="M 64 548 L 420.95947265625 548" stroke-miterlimit="10"/></g><g transform="translate(-6,2) scale(1,1)"><g><path fill="none" stroke="none"/><text fill="#000000" stroke="none" font-family="Arial" font-size="13px" font-style="normal" font-weight="normal" text-decoration="none" x="210.3193359375" y="489.5">«interface»</text></g></g><g transform="translate(-6,2) scale(1,1)"><g><path fill="none" stroke="none"/><text fill="#000000" stroke="none" font-family="Arial" font-size="13px" font-style="normal" font-weight="bold" text-decoration="none" x="212.490234375" y="504.5">DockPane</text></g></g><g transform="translate(-6,2) scale(1,1)"><g><path fill="none" stroke="none"/><text fill="#000000" stroke="none" font-family="Arial" font-size="13px" font-style="normal" font-weight="normal" text-decoration="none" x="69" y="527.5">+draggedDockable: ObjectProperty&lt;Dockable&gt;</text><path fill="none" stroke="#000000" d="M 69 527.5 L 341.80322265625 527.5" stroke-miterlimit="10"/></g></g><g transform="translate(-6,2) scale(1,1)"><g><path fill="none" stroke="none"/><text fill="#000000" stroke="none" font-family="Arial" font-size="13px" font-style="normal" font-weight="normal" text-decoration="none" x="69" y="542.5">+dockablePredicate: ObjectProperty&lt;Predicate&lt;Dockable&gt;&gt;</text></g></g><g transform="translate(-6,2) scale(1,1)"><path fill="none" stroke="#000000" d="M 295 471 L 334 434" stroke-miterlimit="10"/></g><g transform="translate(-6,2) scale(1,1)"><path fill="#FFFFFF" stroke="none" d="M 325.0491856399352 454.09683861436065 L 334 434 L 313.46020760423016 441.8814293334824"/></g><g transform="translate(-6,2) scale(1,1)"><path fill="none" stroke="#000000" d="M 325.0491856399352 454.09683861436065 L 334 434 L 313.46020760423016 441.8814293334824 L 325.0491856399352 454.09683861436065" stroke-miterlimit="10"/></g><g transform="translate(-6,2) scale(1,1)"><rect fill="#C0C0C0" stroke="none" x="271" y="327" width="262.27783203125" height="113" opacity="0.2"/></g><g transform="translate(-6,2) scale(1,1)"><rect fill="#ffffff" stroke="none" x="264" y="320" width="262.27783203125" height="113"/></g><g transform="translate(-6,2) scale(1,1)"><path fill="none" stroke="#000000" d="M 264 320 L 526.27783203125 320 L 526.27783203125 433 L 264 433 L 264 320 Z Z" stroke-miterlimit="10"/></g><g transform="translate(-6,2) scale(1,1)"><path fill="none" stroke="#000000" d="M 264 358 L 526.27783203125 358" stroke-miterlimit="10"/></g><g transform="translate(-6,2) scale(1,1)"><path fill="none" stroke="#000000" d="M 264 381 L 526.27783203125 381" stroke-miterlimit="10"/></g><g transform="translate(-6,2) scale(1,1)"><g><path fill="none" stroke="none"/><text fill="#000000" stroke="none" font-family="Arial" font-size="13px" font-style="normal" font-weight="normal" text-decoration="none" x="362.978515625" y="337.5">«interface»</text></g></g><g transform="translate(-6,2) scale(1,1)"><g><path fill="none" stroke="none"/><text fill="#000000" stroke="none" font-family="Arial" font-size="13px" font-style="normal" font-weight="bold" text-decoration="none" x="380.329833984375" y="352.5">Dock</text></g></g><g transform="translate(-6,2) scale(1,1)"><g><path fill="none" stroke="none"/><text fill="#000000" stroke="none" font-family="Arial" font-size="13px" font-style="normal" font-weight="normal" text-decoration="none" x="269" y="375.5">+dockChildren: ObservableList&lt;DockNode&gt;</text></g></g><g transform="translate(-6,2) scale(1,1)"><g><path fill="none" stroke="none"/><text fill="#000000" stroke="none" font-family="Arial" font-size="13px" font-style="normal" font-weight="normal" text-decoration="none" x="269" y="398.5">+isResizesDockChildren(): boolean</text></g></g><g transform="translate(-6,2) scale(1,1)"><g><path fill="none" stroke="none"/><text fill="#000000" stroke="none" font-family="Arial" font-size="13px" font-style="normal" font-weight="normal" text-decoration="none" x="269" y="413.5">+getDockAxis(): DockAxis</text></g></g><g transform="translate(-6,2) scale(1,1)"><g><path fill="none" stroke="none"/><text fill="#000000" stroke="none" font-family="Arial" font-size="13px" font-style="normal" font-weight="normal" text-decoration="none" x="269" y="428.5">+isEditable(): boolean</text></g></g><g transform="translate(-6,2) scale(1,1)"><path fill="none" stroke="#000000" d="M 465 319 L 500 290" stroke-miterlimit="10"/></g><g transform="translate(-6,2) scale(1,1)"><path fill="#FFFFFF" stroke="none" d="M 489.72053754695685 309.45077509192055 L 500 290 L 478.9775474256693 296.4850973593321"/></g><g transform="translate(-6,2) scale(1,1)"><path fill="none" stroke="#000000" d="M 489.72053754695685 309.45077509192055 L 500 290 L 478.9775474256693 296.4850973593321 L 489.72053754695685 309.45077509192055" stroke-miterlimit="10"/></g></g></svg>