<svg version="1.1" xmlns="http://www.w3.org/2000/svg" xmlns:xlink="http://www.w3.org/1999/xlink" width="780" height="612"><defs/><g><g transform="translate(2,10) scale(1,1)"><path fill="none" stroke="#000000" d="M 8 0 L 768 0 L 768 592 L 8 592 L 8 0" stroke-miterlimit="10"/></g><g transform="translate(2,10) scale(1,1)"><path fill="#ffffff" stroke="none" d="M 8 0 L 8 22 L 215.470703125 22 L 226.470703125 11 L 226.470703125 0 L 8 0"/></g><g transform="translate(2,10) scale(1,1)"><path fill="none" stroke="#000000" d="M 8 0 L 8 22 L 215.470703125 22 L 226.470703125 11 L 226.470703125 0 L 8 0 L 8 0" stroke-miterlimit="10"/></g><g transform="translate(2,10) scale(1,1)"><g><path fill="none" stroke="none"/><text fill="#000000" stroke="none" font-family="Arial" font-size="13px" font-style="normal" font-weight="normal" text-decoration="none" x="48.6181640625" y="17.5">Interpreter Pattern Structure</text></g></g><g transform="translate(2,10) scale(1,1)"><g><path fill="none" stroke="none"/><text fill="#000000" stroke="none" font-family="Arial" font-size="13px" font-style="normal" font-weight="bold" text-decoration="none" x="13" y="17.5">class</text></g></g><g transform="translate(2,10) scale(1,1)"><rect fill="#C0C0C0" stroke="none" x="279" y="399" width="166.87890625" height="47" opacity="0.2"/></g><g transform="translate(2,10) scale(1,1)"><rect fill="#ffffff" stroke="none" x="272" y="392" width="166.87890625" height="47"/></g><g transform="translate(2,10) scale(1,1)"><path fill="none" stroke="#000000" d="M 272 392 L 438.87890625 392 L 438.87890625 439 L 272 439 L 272 392 Z Z" stroke-miterlimit="10"/></g><g transform="translate(2,10) scale(1,1)"><path fill="none" stroke="#000000" d="M 272 417 L 438.87890625 417" stroke-miterlimit="10"/></g><g transform="translate(2,10) scale(1,1)"><g><path fill="none" stroke="none"/><text fill="#000000" stroke="none" font-family="Arial" font-size="13px" font-style="normal" font-weight="bold" text-decoration="none" x="288.2431640625" y="411.5">NonterminalExpression</text></g></g><g transform="translate(2,10) scale(1,1)"><g><path fill="none" stroke="none"/><text fill="#000000" stroke="none" font-family="Arial" font-size="13px" font-style="normal" font-weight="normal" text-decoration="none" x="277" y="434.5">+interpret(context: Context)</text></g></g><g transform="translate(2,10) scale(1,1)"><rect fill="#C0C0C0" stroke="none" x="87" y="399" width="166.87890625" height="47" opacity="0.2"/></g><g transform="translate(2,10) scale(1,1)"><rect fill="#ffffff" stroke="none" x="80" y="392" width="166.87890625" height="47"/></g><g transform="translate(2,10) scale(1,1)"><path fill="none" stroke="#000000" d="M 80 392 L 246.87890625 392 L 246.87890625 439 L 80 439 L 80 392 Z Z" stroke-miterlimit="10"/></g><g transform="translate(2,10) scale(1,1)"><path fill="none" stroke="#000000" d="M 80 417 L 246.87890625 417" stroke-miterlimit="10"/></g><g transform="translate(2,10) scale(1,1)"><g><path fill="none" stroke="none"/><text fill="#000000" stroke="none" font-family="Arial" font-size="13px" font-style="normal" font-weight="bold" text-decoration="none" x="106.72314453125" y="411.5">TerminalExpression</text></g></g><g transform="translate(2,10) scale(1,1)"><g><path fill="none" stroke="none"/><text fill="#000000" stroke="none" font-family="Arial" font-size="13px" font-style="normal" font-weight="normal" text-decoration="none" x="85" y="434.5">+interpret(context: Context)</text></g></g><g transform="translate(2,10) scale(1,1)"><rect fill="#C0C0C0" stroke="none" x="151" y="207" width="252.13427734375" height="60" opacity="0.2"/></g><g transform="translate(2,10) scale(1,1)"><rect fill="#ffffff" stroke="none" x="144" y="200" width="252.13427734375" height="60"/></g><g transform="translate(2,10) scale(1,1)"><path fill="none" stroke="#000000" d="M 144 200 L 396.13427734375 200 L 396.13427734375 260 L 144 260 L 144 200 Z Z" stroke-miterlimit="10"/></g><g transform="translate(2,10) scale(1,1)"><path fill="none" stroke="#000000" d="M 144 238 L 396.13427734375 238" stroke-miterlimit="10"/></g><g transform="translate(2,10) scale(1,1)"><g><path fill="none" stroke="none"/><text fill="#000000" stroke="none" font-family="Arial" font-size="13px" font-style="normal" font-weight="normal" text-decoration="none" x="237.90673828125" y="217.5">«interface»</text></g></g><g transform="translate(2,10) scale(1,1)"><g><path fill="none" stroke="none"/><text fill="#000000" stroke="none" font-family="Arial" font-size="13px" font-style="normal" font-weight="bold" text-decoration="none" x="214.0712890625" y="232.5">AbstractExpression</text></g></g><g transform="translate(2,10) scale(1,1)"><g><path fill="none" stroke="none"/><text fill="#000000" stroke="none" font-family="Arial" font-size="13px" font-style="italic" font-weight="normal" text-decoration="none" x="149" y="255.5">+interpret(context: Context)</text></g></g><g transform="translate(2,10) scale(1,1)"><path fill="none" stroke="#000000" d="M 160 392 L 160 360 L 248 360 L 248 260" stroke-miterlimit="10" stroke-dasharray="3"/></g><g transform="translate(2,10) scale(1,1)"><path fill="#FFFFFF" stroke="none" d="M 256.419035512032 280.3253497152483 L 248 260 L 239.58096448796803 280.3253497152483"/></g><g transform="translate(2,10) scale(1,1)"><path fill="none" stroke="#000000" d="M 256.419035512032 280.3253497152483 L 248 260 L 239.58096448796803 280.3253497152483 L 256.419035512032 280.3253497152483" stroke-miterlimit="10"/></g><g transform="translate(2,10) scale(1,1)"><rect fill="#ffffff" stroke="none" x="8" y="32" width="99" height="22"/></g><g transform="translate(2,10) scale(1,1)"><path fill="none" stroke="#000000" d="M 8 32 L 107 32 L 107 54 L 8 54 L 8 32 Z Z" stroke-miterlimit="10"/></g><g transform="translate(2,10) scale(1,1)"><path fill="none" stroke="#000000" d="M 40.39453125 32 L 40.39453125 54" stroke-miterlimit="10"/></g><g transform="translate(2,10) scale(1,1)"><g><path fill="none" stroke="none"/><text fill="#000000" stroke="none" font-family="Arial" font-size="13px" font-style="normal" font-weight="normal" text-decoration="none" x="44.89453125" y="49.5">GoF1995</text></g></g><g transform="translate(2,10) scale(1,1)"><g><path fill="none" stroke="none"/><text fill="#000000" stroke="none" font-family="Arial" font-size="13px" font-style="normal" font-weight="bold" text-decoration="none" x="14.444091796875" y="49.5">link</text></g></g><g transform="translate(2,10) scale(1,1)"><path fill="#C0C0C0" stroke="none" d="M 407 552 C 407 542.6111584 485.1263024 535 581.5 535 C 677.8736976 535 756 542.6111584 756 552 C 756 561.3888416 677.8736976 569 581.5 569 C 485.1263024 569 407 561.3888416 407 552 Z" opacity="0.2"/></g><g transform="translate(2,10) scale(1,1)"><path fill="#e2e2e2" stroke="none" d="M 400 545 C 400 535.6111584 478.1263024 528 574.5 528 C 670.8736976 528 749 535.6111584 749 545 C 749 554.3888416 670.8736976 562 574.5 562 C 478.1263024 562 400 554.3888416 400 545 Z"/></g><g transform="translate(2,10) scale(1,1)"><path fill="none" stroke="#000000" d="M 400 545 C 400 535.6111584 478.1263024 528 574.5 528 C 670.8736976 528 749 535.6111584 749 545 C 749 554.3888416 670.8736976 562 574.5 562 C 478.1263024 562 400 554.3888416 400 545 Z" stroke-miterlimit="10" stroke-dasharray="5"/></g><g transform="translate(2,10) scale(1,1)"><g><path fill="none" stroke="none"/><text fill="#000000" stroke="none" font-family="Arial" font-size="13px" font-style="normal" font-weight="bold" text-decoration="none" x="481.28466796875" y="552">example use: Interpreter Pattern</text></g></g><g transform="translate(2,10) scale(1,1)"><rect fill="#C0C0C0" stroke="none" x="39" y="215" width="45.11181640625" height="24" opacity="0.2"/></g><g transform="translate(2,10) scale(1,1)"><rect fill="#ffffff" stroke="none" x="32" y="208" width="45.11181640625" height="24"/></g><g transform="translate(2,10) scale(1,1)"><path fill="none" stroke="#000000" d="M 32 208 L 77.11181640625 208 L 77.11181640625 232 L 32 232 L 32 208 Z Z" stroke-miterlimit="10"/></g><g transform="translate(2,10) scale(1,1)"><g><path fill="none" stroke="none"/><text fill="#000000" stroke="none" font-family="Arial" font-size="13px" font-style="normal" font-weight="bold" text-decoration="none" x="37.937744140625" y="227.5">Client</text></g></g><g transform="translate(2,10) scale(1,1)"><path fill="none" stroke="#000000" d="M 77 216 L 144 216" stroke-miterlimit="10" stroke-dasharray="3"/></g><g transform="translate(2,10) scale(1,1)"><path fill="none" stroke="#000000" d="M 133.83732514237585 220.209517756016 L 144 216 L 133.83732514237585 211.790482243984" stroke-miterlimit="10"/></g><g transform="translate(2,10) scale(1,1)"><g><path fill="none" stroke="none"/><text fill="#000000" stroke="none" font-family="Arial" font-size="13px" font-style="normal" font-weight="normal" text-decoration="none" x="86.08544921875" y="238.5">+uses</text></g></g><g transform="translate(2,10) scale(1,1)"><path fill="none" stroke="#000000" d="M 368 392 L 368 360 L 248 360 L 248 260" stroke-miterlimit="10" stroke-dasharray="3"/></g><g transform="translate(2,10) scale(1,1)"><path fill="#FFFFFF" stroke="none" d="M 256.419035512032 280.3253497152483 L 248 260 L 239.58096448796803 280.3253497152483"/></g><g transform="translate(2,10) scale(1,1)"><path fill="none" stroke="#000000" d="M 256.419035512032 280.3253497152483 L 248 260 L 239.58096448796803 280.3253497152483 L 256.419035512032 280.3253497152483" stroke-miterlimit="10"/></g><g transform="translate(2,10) scale(1,1)"><path fill="none" stroke="#000000" d="M 396 216 L 560 216 L 560 408 L 439 408" stroke-miterlimit="10"/></g><g transform="translate(2,10) scale(1,1)"><path fill="#FFFFFF" stroke="none" d="M 449.16267485762415 403.790482243984 L 439 408 L 449.16267485762415 412.209517756016 L 461 408"/></g><g transform="translate(2,10) scale(1,1)"><path fill="none" stroke="#000000" d="M 449.16267485762415 403.790482243984 L 439 408 L 449.16267485762415 412.209517756016 L 461 408 L 449.16267485762415 403.790482243984" stroke-miterlimit="10"/></g><g transform="translate(2,10) scale(1,1)"><g><path fill="none" stroke="none"/><text fill="#000000" stroke="none" font-family="Arial" font-size="13px" font-style="normal" font-weight="normal" text-decoration="none" x="412.5" y="207.5">+children</text></g></g><g transform="translate(2,10) scale(1,1)"><rect fill="#C0C0C0" stroke="none" x="159" y="143" width="57.38818359375" height="24" opacity="0.2"/></g><g transform="translate(2,10) scale(1,1)"><rect fill="#ffffff" stroke="none" x="152" y="136" width="57.38818359375" height="24"/></g><g transform="translate(2,10) scale(1,1)"><path fill="none" stroke="#000000" d="M 152 136 L 209.38818359375 136 L 209.38818359375 160 L 152 160 L 152 136 Z Z" stroke-miterlimit="10"/></g><g transform="translate(2,10) scale(1,1)"><g><path fill="none" stroke="none"/><text fill="#000000" stroke="none" font-family="Arial" font-size="13px" font-style="normal" font-weight="bold" text-decoration="none" x="158.293212890625" y="155.5">Context</text></g></g><g transform="translate(2,10) scale(1,1)"><path fill="none" stroke="#000000" d="M 72 208 L 72 152 L 152 152" stroke-miterlimit="10" stroke-dasharray="3"/></g><g transform="translate(2,10) scale(1,1)"><path fill="none" stroke="#000000" d="M 141.83732514237585 156.209517756016 L 152 152 L 141.83732514237585 147.790482243984" stroke-miterlimit="10"/></g></g></svg>