<svg version="1.1" xmlns="http://www.w3.org/2000/svg" xmlns:xlink="http://www.w3.org/1999/xlink" width="739" height="556"><defs/><g><g transform="translate(-6,-6) scale(1,1)"><path fill="none" stroke="#000000" d="M 16 16 L 735 16 L 735 552 L 16 552 L 16 16" stroke-miterlimit="10"/></g><g transform="translate(-6,-6) scale(1,1)"><path fill="#ffffff" stroke="none" d="M 16 16 L 16 38 L 271.1416015625 38 L 282.1416015625 27 L 282.1416015625 16 L 16 16"/></g><g transform="translate(-6,-6) scale(1,1)"><path fill="none" stroke="#000000" d="M 16 16 L 16 38 L 271.1416015625 38 L 282.1416015625 27 L 282.1416015625 16 L 16 16 L 16 16" stroke-miterlimit="10"/></g><g transform="translate(-6,-6) scale(1,1)"><g><path fill="none" stroke="none"/><text fill="#000000" stroke="none" font-family="Arial" font-size="13px" font-style="normal" font-weight="normal" text-decoration="none" x="56.6181640625" y="33.5">Dynamic Structure of the Controllers</text></g></g><g transform="translate(-6,-6) scale(1,1)"><g><path fill="none" stroke="none"/><text fill="#000000" stroke="none" font-family="Arial" font-size="13px" font-style="normal" font-weight="bold" text-decoration="none" x="21" y="33.5">class</text></g></g><g transform="translate(-6,-6) scale(1,1)"><rect fill="#C0C0C0" stroke="none" x="375" y="119" width="140.2060546875" height="24" opacity="0.2"/></g><g transform="translate(-6,-6) scale(1,1)"><rect fill="#ff8282" stroke="none" x="368" y="112" width="140.2060546875" height="24"/></g><g transform="translate(-6,-6) scale(1,1)"><path fill="none" stroke="#000000" d="M 368 112 L 508.2060546875 112 L 508.2060546875 136 L 368 136 L 368 112 Z Z" stroke-miterlimit="10"/></g><g transform="translate(-6,-6) scale(1,1)"><rect fill="#ff8282" stroke="none" x="368" y="112" width="140.2060546875" height="24"/></g><g transform="translate(-6,-6) scale(1,1)"><path fill="none" stroke="#000000" d="M 368 112 L 508.2060546875 112 L 508.2060546875 136 L 368 136 L 368 112 Z Z" stroke-miterlimit="10"/></g><g transform="translate(-6,-6) scale(1,1)"><g><path fill="none" stroke="none"/><text fill="#000000" stroke="none" font-family="Arial" font-size="13px" font-style="normal" font-weight="bold" text-decoration="none" x="378.11767578125" y="131.5">o1: TeddyApplication</text><path fill="none" stroke="#000000" d="M 503.7060546875 131.5 L 372.5 131.5" stroke-miterlimit="10"/></g></g><g transform="translate(-6,-6) scale(1,1)"><rect fill="#C0C0C0" stroke="none" x="519" y="191" width="151.05419921875" height="47" opacity="0.2"/></g><g transform="translate(-6,-6) scale(1,1)"><rect fill="#ffadad" stroke="none" x="512" y="184" width="151.05419921875" height="47"/></g><g transform="translate(-6,-6) scale(1,1)"><path fill="none" stroke="#000000" d="M 512 184 L 663.05419921875 184 L 663.05419921875 231 L 512 231 L 512 184 Z Z" stroke-miterlimit="10"/></g><g transform="translate(-6,-6) scale(1,1)"><rect fill="#ffadad" stroke="none" x="512" y="184" width="151.05419921875" height="47"/></g><g transform="translate(-6,-6) scale(1,1)"><path fill="none" stroke="#000000" d="M 512 184 L 663.05419921875 184 L 663.05419921875 231 L 512 231 L 512 184 Z Z" stroke-miterlimit="10"/></g><g transform="translate(-6,-6) scale(1,1)"><path fill="none" stroke="#000000" d="M 512 209 L 663.05419921875 209" stroke-miterlimit="10"/></g><g transform="translate(-6,-6) scale(1,1)"><g><path fill="none" stroke="none"/><text fill="#000000" stroke="none" font-family="Arial" font-size="13px" font-style="normal" font-weight="bold" text-decoration="none" x="538.7548828125" y="203.5">o2: TeddyActivity</text><path fill="none" stroke="#000000" d="M 641.221923828125 203.5 L 533.832275390625 203.5" stroke-miterlimit="10"/></g></g><g transform="translate(-6,-6) scale(1,1)"><g><path fill="none" stroke="none"/><text fill="#000000" stroke="none" font-family="Arial" font-size="13px" font-style="normal" font-weight="normal" text-decoration="none" x="517" y="226.5">+uri = license.txt</text></g></g><g transform="translate(-6,-6) scale(1,1)"><rect fill="#C0C0C0" stroke="none" x="215" y="239" width="121.67724609375" height="24" opacity="0.2"/></g><g transform="translate(-6,-6) scale(1,1)"><rect fill="#ffe2d8" stroke="none" x="208" y="232" width="121.67724609375" height="24"/></g><g transform="translate(-6,-6) scale(1,1)"><path fill="none" stroke="#000000" d="M 208 232 L 329.67724609375 232 L 329.67724609375 256 L 208 256 L 208 232 Z Z" stroke-miterlimit="10"/></g><g transform="translate(-6,-6) scale(1,1)"><rect fill="#ffe2d8" stroke="none" x="208" y="232" width="121.67724609375" height="24"/></g><g transform="translate(-6,-6) scale(1,1)"><path fill="none" stroke="#000000" d="M 208 232 L 329.67724609375 232 L 329.67724609375 256 L 208 256 L 208 232 Z Z" stroke-miterlimit="10"/></g><g transform="translate(-6,-6) scale(1,1)"><g><path fill="none" stroke="none"/><text fill="#000000" stroke="none" font-family="Arial" font-size="13px" font-style="normal" font-weight="bold" text-decoration="none" x="216.45458984375" y="251.5">o4: NewFileAction</text><path fill="none" stroke="#000000" d="M 325.17724609375 251.5 L 212.5 251.5" stroke-miterlimit="10"/></g></g><g transform="translate(-6,-6) scale(1,1)"><rect fill="#C0C0C0" stroke="none" x="215" y="271" width="128.1708984375" height="24" opacity="0.2"/></g><g transform="translate(-6,-6) scale(1,1)"><rect fill="#ffe2d8" stroke="none" x="208" y="264" width="128.1708984375" height="24"/></g><g transform="translate(-6,-6) scale(1,1)"><path fill="none" stroke="#000000" d="M 208 264 L 336.1708984375 264 L 336.1708984375 288 L 208 288 L 208 264 Z Z" stroke-miterlimit="10"/></g><g transform="translate(-6,-6) scale(1,1)"><rect fill="#ffe2d8" stroke="none" x="208" y="264" width="128.1708984375" height="24"/></g><g transform="translate(-6,-6) scale(1,1)"><path fill="none" stroke="#000000" d="M 208 264 L 336.1708984375 264 L 336.1708984375 288 L 208 288 L 208 264 Z Z" stroke-miterlimit="10"/></g><g transform="translate(-6,-6) scale(1,1)"><g><path fill="none" stroke="none"/><text fill="#000000" stroke="none" font-family="Arial" font-size="13px" font-style="normal" font-weight="bold" text-decoration="none" x="216.8037109375" y="283.5">o5: OpenFileAction</text><path fill="none" stroke="#000000" d="M 331.6708984375 283.5 L 212.5 283.5" stroke-miterlimit="10"/></g></g><g transform="translate(-6,-6) scale(1,1)"><rect fill="#C0C0C0" stroke="none" x="215" y="303" width="125.30810546875" height="24" opacity="0.2"/></g><g transform="translate(-6,-6) scale(1,1)"><rect fill="#ffe2d8" stroke="none" x="208" y="296" width="125.30810546875" height="24"/></g><g transform="translate(-6,-6) scale(1,1)"><path fill="none" stroke="#000000" d="M 208 296 L 333.30810546875 296 L 333.30810546875 320 L 208 320 L 208 296 Z Z" stroke-miterlimit="10"/></g><g transform="translate(-6,-6) scale(1,1)"><rect fill="#ffe2d8" stroke="none" x="208" y="296" width="125.30810546875" height="24"/></g><g transform="translate(-6,-6) scale(1,1)"><path fill="none" stroke="#000000" d="M 208 296 L 333.30810546875 296 L 333.30810546875 320 L 208 320 L 208 296 Z Z" stroke-miterlimit="10"/></g><g transform="translate(-6,-6) scale(1,1)"><g><path fill="none" stroke="none"/><text fill="#000000" stroke="none" font-family="Arial" font-size="13px" font-style="normal" font-weight="bold" text-decoration="none" x="216.457763671875" y="315.5">o6: SaveFileAction</text><path fill="none" stroke="#000000" d="M 328.80810546875 315.5 L 212.5 315.5" stroke-miterlimit="10"/></g></g><g transform="translate(-6,-6) scale(1,1)"><rect fill="#C0C0C0" stroke="none" x="215" y="335" width="130.34814453125" height="24" opacity="0.2"/></g><g transform="translate(-6,-6) scale(1,1)"><rect fill="#ffe2d8" stroke="none" x="208" y="328" width="130.34814453125" height="24"/></g><g transform="translate(-6,-6) scale(1,1)"><path fill="none" stroke="#000000" d="M 208 328 L 338.34814453125 328 L 338.34814453125 352 L 208 352 L 208 328 Z Z" stroke-miterlimit="10"/></g><g transform="translate(-6,-6) scale(1,1)"><rect fill="#ffe2d8" stroke="none" x="208" y="328" width="130.34814453125" height="24"/></g><g transform="translate(-6,-6) scale(1,1)"><path fill="none" stroke="#000000" d="M 208 328 L 338.34814453125 328 L 338.34814453125 352 L 208 352 L 208 328 Z Z" stroke-miterlimit="10"/></g><g transform="translate(-6,-6) scale(1,1)"><g><path fill="none" stroke="none"/><text fill="#000000" stroke="none" font-family="Arial" font-size="13px" font-style="normal" font-weight="bold" text-decoration="none" x="217.175048828125" y="347.5">o7: CloseFileAction</text><path fill="none" stroke="#000000" d="M 333.84814453125 347.5 L 212.5 347.5" stroke-miterlimit="10"/></g></g><g transform="translate(-6,-6) scale(1,1)"><path fill="none" stroke="#000000" d="M 330 244 L 415 244 L 415 136" stroke-miterlimit="10"/></g><g transform="translate(-6,-6) scale(1,1)"><path fill="none" stroke="#000000" d="M 336 276 L 419 276 L 419 136" stroke-miterlimit="10"/></g><g transform="translate(-6,-6) scale(1,1)"><path fill="none" stroke="#000000" d="M 333 308 L 422 308 L 422 136" stroke-miterlimit="10"/></g><g transform="translate(-6,-6) scale(1,1)"><path fill="none" stroke="#000000" d="M 338 340 L 424 340 L 424 136" stroke-miterlimit="10"/></g><g transform="translate(-6,-6) scale(1,1)"><rect fill="#C0C0C0" stroke="none" x="623" y="247" width="100.72998046875" height="24" opacity="0.2"/></g><g transform="translate(-6,-6) scale(1,1)"><rect fill="#ffe2d8" stroke="none" x="616" y="240" width="100.72998046875" height="24"/></g><g transform="translate(-6,-6) scale(1,1)"><path fill="none" stroke="#000000" d="M 616 240 L 716.72998046875 240 L 716.72998046875 264 L 616 264 L 616 240 Z Z" stroke-miterlimit="10"/></g><g transform="translate(-6,-6) scale(1,1)"><rect fill="#ffe2d8" stroke="none" x="616" y="240" width="100.72998046875" height="24"/></g><g transform="translate(-6,-6) scale(1,1)"><path fill="none" stroke="#000000" d="M 616 240 L 716.72998046875 240 L 716.72998046875 264 L 616 264 L 616 240 Z Z" stroke-miterlimit="10"/></g><g transform="translate(-6,-6) scale(1,1)"><g><path fill="none" stroke="none"/><text fill="#000000" stroke="none" font-family="Arial" font-size="13px" font-style="normal" font-weight="bold" text-decoration="none" x="627.3427734375" y="259.5">o8: CutAction</text><path fill="none" stroke="#000000" d="M 708.970458984375 259.5 L 623.759521484375 259.5" stroke-miterlimit="10"/></g></g><g transform="translate(-6,-6) scale(1,1)"><rect fill="#C0C0C0" stroke="none" x="623" y="279" width="105.052734375" height="24" opacity="0.2"/></g><g transform="translate(-6,-6) scale(1,1)"><rect fill="#ffe2d8" stroke="none" x="616" y="272" width="105.052734375" height="24"/></g><g transform="translate(-6,-6) scale(1,1)"><path fill="none" stroke="#000000" d="M 616 272 L 721.052734375 272 L 721.052734375 296 L 616 296 L 616 272 Z Z" stroke-miterlimit="10"/></g><g transform="translate(-6,-6) scale(1,1)"><rect fill="#ffe2d8" stroke="none" x="616" y="272" width="105.052734375" height="24"/></g><g transform="translate(-6,-6) scale(1,1)"><path fill="none" stroke="#000000" d="M 616 272 L 721.052734375 272 L 721.052734375 296 L 616 296 L 616 272 Z Z" stroke-miterlimit="10"/></g><g transform="translate(-6,-6) scale(1,1)"><g><path fill="none" stroke="none"/><text fill="#000000" stroke="none" font-family="Arial" font-size="13px" font-style="normal" font-weight="bold" text-decoration="none" x="624.445068359375" y="291.5">o9: CopyAction</text><path fill="none" stroke="#000000" d="M 716.552734375 291.5 L 620.5 291.5" stroke-miterlimit="10"/></g></g><g transform="translate(-6,-6) scale(1,1)"><rect fill="#C0C0C0" stroke="none" x="623" y="311" width="114.47265625" height="24" opacity="0.2"/></g><g transform="translate(-6,-6) scale(1,1)"><rect fill="#ffe2d8" stroke="none" x="616" y="304" width="114.47265625" height="24"/></g><g transform="translate(-6,-6) scale(1,1)"><path fill="none" stroke="#000000" d="M 616 304 L 730.47265625 304 L 730.47265625 328 L 616 328 L 616 304 Z Z" stroke-miterlimit="10"/></g><g transform="translate(-6,-6) scale(1,1)"><rect fill="#ffe2d8" stroke="none" x="616" y="304" width="114.47265625" height="24"/></g><g transform="translate(-6,-6) scale(1,1)"><path fill="none" stroke="#000000" d="M 616 304 L 730.47265625 304 L 730.47265625 328 L 616 328 L 616 304 Z Z" stroke-miterlimit="10"/></g><g transform="translate(-6,-6) scale(1,1)"><g><path fill="none" stroke="none"/><text fill="#000000" stroke="none" font-family="Arial" font-size="13px" font-style="normal" font-weight="bold" text-decoration="none" x="624.0927734375" y="323.5">o10: PasteAction</text><path fill="none" stroke="#000000" d="M 725.97265625 323.5 L 620.5 323.5" stroke-miterlimit="10"/></g></g><g transform="translate(-6,-6) scale(1,1)"><path fill="none" stroke="#000000" d="M 616 252 L 601 252 L 601 231" stroke-miterlimit="10"/></g><g transform="translate(-6,-6) scale(1,1)"><path fill="none" stroke="#000000" d="M 616 284 L 600 284 L 600 231" stroke-miterlimit="10"/></g><g transform="translate(-6,-6) scale(1,1)"><path fill="none" stroke="#000000" d="M 616 316 L 600 316 L 600 231" stroke-miterlimit="10"/></g><g transform="translate(-6,-6) scale(1,1)"><path fill="none" stroke="#000000" d="M 512 200 L 456 200 L 456 136" stroke-miterlimit="10"/></g><g transform="translate(-6,-6) scale(1,1)"><g><path fill="none" stroke="none"/><text fill="#000000" stroke="none" font-family="Arial" font-size="13px" font-style="normal" font-weight="normal" text-decoration="none" x="37" y="66">The dynamic structure</text><text fill="#000000" stroke="none" font-family="Arial" font-size="13px" font-style="normal" font-weight="normal" text-decoration="none" x="37" y="79">of the application</text><text fill="#000000" stroke="none" font-family="Arial" font-size="13px" font-style="normal" font-weight="normal" text-decoration="none" x="37" y="92">framework is:</text></g></g><g transform="translate(-6,-6) scale(1,1)"><g><path fill="none" stroke="none"/></g></g><g transform="translate(-6,-6) scale(1,1)"><g><path fill="none" stroke="none"/><text fill="#000000" stroke="none" font-family="Arial" font-size="13px" font-style="normal" font-weight="normal" text-decoration="none" x="37" y="109">- one global Application</text><text fill="#000000" stroke="none" font-family="Arial" font-size="13px" font-style="normal" font-weight="normal" text-decoration="none" x="37" y="122">object.</text></g></g><g transform="translate(-6,-6) scale(1,1)"><g><path fill="none" stroke="none"/><text fill="#000000" stroke="none" font-family="Arial" font-size="13px" font-style="normal" font-weight="normal" text-decoration="none" x="37" y="137">- a set of per-application</text><text fill="#000000" stroke="none" font-family="Arial" font-size="13px" font-style="normal" font-weight="normal" text-decoration="none" x="37" y="150">Action objects for the</text><text fill="#000000" stroke="none" font-family="Arial" font-size="13px" font-style="normal" font-weight="normal" text-decoration="none" x="37" y="163">Application.</text></g></g><g transform="translate(-6,-6) scale(1,1)"><g><path fill="none" stroke="none"/><text fill="#000000" stroke="none" font-family="Arial" font-size="13px" font-style="normal" font-weight="normal" text-decoration="none" x="37" y="178">- an Activity instance for</text><text fill="#000000" stroke="none" font-family="Arial" font-size="13px" font-style="normal" font-weight="normal" text-decoration="none" x="37" y="191">each 'activity' that is</text><text fill="#000000" stroke="none" font-family="Arial" font-size="13px" font-style="normal" font-weight="normal" text-decoration="none" x="37" y="204">currently open. Each</text><text fill="#000000" stroke="none" font-family="Arial" font-size="13px" font-style="normal" font-weight="normal" text-decoration="none" x="37" y="217">Activity is tied to a URI.</text></g></g><g transform="translate(-6,-6) scale(1,1)"><g><path fill="none" stroke="none"/><text fill="#000000" stroke="none" font-family="Arial" font-size="13px" font-style="normal" font-weight="normal" text-decoration="none" x="37" y="232">- a set of per-activity</text><text fill="#000000" stroke="none" font-family="Arial" font-size="13px" font-style="normal" font-weight="normal" text-decoration="none" x="37" y="245">Actions. Note that there</text><text fill="#000000" stroke="none" font-family="Arial" font-size="13px" font-style="normal" font-weight="normal" text-decoration="none" x="37" y="258">are distinct Action</text><text fill="#000000" stroke="none" font-family="Arial" font-size="13px" font-style="normal" font-weight="normal" text-decoration="none" x="37" y="271">objects for each Activity</text><text fill="#000000" stroke="none" font-family="Arial" font-size="13px" font-style="normal" font-weight="normal" text-decoration="none" x="37" y="284">even if the Action</text><text fill="#000000" stroke="none" font-family="Arial" font-size="13px" font-style="normal" font-weight="normal" text-decoration="none" x="37" y="297">perform the same</text><text fill="#000000" stroke="none" font-family="Arial" font-size="13px" font-style="normal" font-weight="normal" text-decoration="none" x="37" y="310">command.</text></g></g><g transform="translate(-6,-6) scale(1,1)"><rect fill="#C0C0C0" stroke="none" x="495" y="367" width="120.0078125" height="47" opacity="0.2"/></g><g transform="translate(-6,-6) scale(1,1)"><rect fill="#ffadad" stroke="none" x="488" y="360" width="120.0078125" height="47"/></g><g transform="translate(-6,-6) scale(1,1)"><path fill="none" stroke="#000000" d="M 488 360 L 608.0078125 360 L 608.0078125 407 L 488 407 L 488 360 Z Z" stroke-miterlimit="10"/></g><g transform="translate(-6,-6) scale(1,1)"><rect fill="#ffadad" stroke="none" x="488" y="360" width="120.0078125" height="47"/></g><g transform="translate(-6,-6) scale(1,1)"><path fill="none" stroke="#000000" d="M 488 360 L 608.0078125 360 L 608.0078125 407 L 488 407 L 488 360 Z Z" stroke-miterlimit="10"/></g><g transform="translate(-6,-6) scale(1,1)"><path fill="none" stroke="#000000" d="M 488 385 L 608.0078125 385" stroke-miterlimit="10"/></g><g transform="translate(-6,-6) scale(1,1)"><g><path fill="none" stroke="none"/><text fill="#000000" stroke="none" font-family="Arial" font-size="13px" font-style="normal" font-weight="bold" text-decoration="none" x="499.231689453125" y="379.5">o3: TeddyActivity</text><path fill="none" stroke="#000000" d="M 601.69873046875 379.5 L 494.30908203125 379.5" stroke-miterlimit="10"/></g></g><g transform="translate(-6,-6) scale(1,1)"><g><path fill="none" stroke="none"/><text fill="#000000" stroke="none" font-family="Arial" font-size="13px" font-style="normal" font-weight="normal" text-decoration="none" x="493" y="402.5">+uri = about.txt</text></g></g><g transform="translate(-6,-6) scale(1,1)"><rect fill="#C0C0C0" stroke="none" x="607" y="431" width="100.72998046875" height="24" opacity="0.2"/></g><g transform="translate(-6,-6) scale(1,1)"><rect fill="#ffe2d8" stroke="none" x="600" y="424" width="100.72998046875" height="24"/></g><g transform="translate(-6,-6) scale(1,1)"><path fill="none" stroke="#000000" d="M 600 424 L 700.72998046875 424 L 700.72998046875 448 L 600 448 L 600 424 Z Z" stroke-miterlimit="10"/></g><g transform="translate(-6,-6) scale(1,1)"><rect fill="#ffe2d8" stroke="none" x="600" y="424" width="100.72998046875" height="24"/></g><g transform="translate(-6,-6) scale(1,1)"><path fill="none" stroke="#000000" d="M 600 424 L 700.72998046875 424 L 700.72998046875 448 L 600 448 L 600 424 Z Z" stroke-miterlimit="10"/></g><g transform="translate(-6,-6) scale(1,1)"><g><path fill="none" stroke="none"/><text fill="#000000" stroke="none" font-family="Arial" font-size="13px" font-style="normal" font-weight="bold" text-decoration="none" x="608.210205078125" y="443.5">o11: CutAction</text><path fill="none" stroke="#000000" d="M 696.226806640625 443.5 L 604.503173828125 443.5" stroke-miterlimit="10"/></g></g><g transform="translate(-6,-6) scale(1,1)"><rect fill="#C0C0C0" stroke="none" x="607" y="463" width="112.28271484375" height="24" opacity="0.2"/></g><g transform="translate(-6,-6) scale(1,1)"><rect fill="#ffe2d8" stroke="none" x="600" y="456" width="112.28271484375" height="24"/></g><g transform="translate(-6,-6) scale(1,1)"><path fill="none" stroke="#000000" d="M 600 456 L 712.28271484375 456 L 712.28271484375 480 L 600 480 L 600 456 Z Z" stroke-miterlimit="10"/></g><g transform="translate(-6,-6) scale(1,1)"><rect fill="#ffe2d8" stroke="none" x="600" y="456" width="112.28271484375" height="24"/></g><g transform="translate(-6,-6) scale(1,1)"><path fill="none" stroke="#000000" d="M 600 456 L 712.28271484375 456 L 712.28271484375 480 L 600 480 L 600 456 Z Z" stroke-miterlimit="10"/></g><g transform="translate(-6,-6) scale(1,1)"><g><path fill="none" stroke="none"/><text fill="#000000" stroke="none" font-family="Arial" font-size="13px" font-style="normal" font-weight="bold" text-decoration="none" x="608.445068359375" y="475.5">o12: CopyAction</text><path fill="none" stroke="#000000" d="M 707.78271484375 475.5 L 604.5 475.5" stroke-miterlimit="10"/></g></g><g transform="translate(-6,-6) scale(1,1)"><rect fill="#C0C0C0" stroke="none" x="607" y="495" width="114.47265625" height="24" opacity="0.2"/></g><g transform="translate(-6,-6) scale(1,1)"><rect fill="#ffe2d8" stroke="none" x="600" y="488" width="114.47265625" height="24"/></g><g transform="translate(-6,-6) scale(1,1)"><path fill="none" stroke="#000000" d="M 600 488 L 714.47265625 488 L 714.47265625 512 L 600 512 L 600 488 Z Z" stroke-miterlimit="10"/></g><g transform="translate(-6,-6) scale(1,1)"><rect fill="#ffe2d8" stroke="none" x="600" y="488" width="114.47265625" height="24"/></g><g transform="translate(-6,-6) scale(1,1)"><path fill="none" stroke="#000000" d="M 600 488 L 714.47265625 488 L 714.47265625 512 L 600 512 L 600 488 Z Z" stroke-miterlimit="10"/></g><g transform="translate(-6,-6) scale(1,1)"><g><path fill="none" stroke="none"/><text fill="#000000" stroke="none" font-family="Arial" font-size="13px" font-style="normal" font-weight="bold" text-decoration="none" x="608.0927734375" y="507.5">o13: PasteAction</text><path fill="none" stroke="#000000" d="M 709.97265625 507.5 L 604.5 507.5" stroke-miterlimit="10"/></g></g><g transform="translate(-6,-6) scale(1,1)"><path fill="none" stroke="#000000" d="M 600 440 L 576 440 L 576 407" stroke-miterlimit="10"/></g><g transform="translate(-6,-6) scale(1,1)"><path fill="none" stroke="#000000" d="M 600 500 L 576 500 L 576 407" stroke-miterlimit="10"/></g><g transform="translate(-6,-6) scale(1,1)"><path fill="none" stroke="#000000" d="M 488 367 L 448 367 L 448 136" stroke-miterlimit="10"/></g><g transform="translate(-6,-6) scale(1,1)"><path fill="none" stroke="#000000" d="M 600 476 L 576 476 L 576 407" stroke-miterlimit="10"/></g></g></svg>