<svg version="1.1" xmlns="http://www.w3.org/2000/svg" width="603" height="451"><defs/><g><g transform="translate(-6,-6) scale(1,1)"><path fill="none" stroke="#000000" d="M 16 16 L 599 16 L 599 447 L 16 447 L 16 16" stroke-miterlimit="10"/></g><g transform="translate(-6,-6) scale(1,1)"><path fill="#ffffff" stroke="none" d="M 16 16 L 16 38 L 185.16259765625 38 L 196.16259765625 27 L 196.16259765625 16 L 16 16"/></g><g transform="translate(-6,-6) scale(1,1)"><path fill="none" stroke="#000000" d="M 16 16 L 16 38 L 185.16259765625 38 L 196.16259765625 27 L 196.16259765625 16 L 16 16 L 16 16" stroke-miterlimit="10"/></g><g transform="translate(-6,-6) scale(1,1)"><g><path fill="none" stroke="none"/><text fill="#000000" stroke="none" font-family="Arial" font-size="13px" font-style="normal" font-weight="normal" text-decoration="none" x="56.6181640625" y="33.5">Teddy Class Diagram</text></g></g><g transform="translate(-6,-6) scale(1,1)"><g><path fill="none" stroke="none"/><text fill="#000000" stroke="none" font-family="Arial" font-size="13px" font-style="normal" font-weight="bold" text-decoration="none" x="21" y="33.5">class</text></g></g><g transform="translate(-6,-6) scale(1,1)"><rect fill="#C0C0C0" stroke="none" x="239" y="151" width="117.09423828125" height="44" opacity="0.2"/></g><g transform="translate(-6,-6) scale(1,1)"><rect fill="#ffffff" stroke="none" x="232" y="144" width="117.09423828125" height="44"/></g><g transform="translate(-6,-6) scale(1,1)"><path fill="none" stroke="#000000" d="M 232 144 L 349.09423828125 144 L 349.09423828125 188 L 232 188 L 232 144 Z Z" stroke-miterlimit="10"/></g><g transform="translate(-6,-6) scale(1,1)"><path fill="none" stroke="#000000" d="M 232 169 L 349.09423828125 169" stroke-miterlimit="10"/></g><g transform="translate(-6,-6) scale(1,1)"><path fill="none" stroke="#000000" d="M 232 179 L 349.09423828125 179" stroke-miterlimit="10"/></g><g transform="translate(-6,-6) scale(1,1)"><g><path fill="none" stroke="none"/><text fill="#000000" stroke="none" font-family="Arial" font-size="13px" font-style="normal" font-weight="bold" text-decoration="none" x="241.403564453125" y="163.5">TeddyApplication</text></g></g><g transform="translate(-6,-6) scale(1,1)"><rect fill="#C0C0C0" stroke="none" x="399" y="279" width="93.27783203125" height="44" opacity="0.2"/></g><g transform="translate(-6,-6) scale(1,1)"><rect fill="#ffffff" stroke="none" x="392" y="272" width="93.27783203125" height="44"/></g><g transform="translate(-6,-6) scale(1,1)"><path fill="none" stroke="#000000" d="M 392 272 L 485.27783203125 272 L 485.27783203125 316 L 392 316 L 392 272 Z Z" stroke-miterlimit="10"/></g><g transform="translate(-6,-6) scale(1,1)"><path fill="none" stroke="#000000" d="M 392 297 L 485.27783203125 297" stroke-miterlimit="10"/></g><g transform="translate(-6,-6) scale(1,1)"><path fill="none" stroke="#000000" d="M 392 307 L 485.27783203125 307" stroke-miterlimit="10"/></g><g transform="translate(-6,-6) scale(1,1)"><g><path fill="none" stroke="none"/><text fill="#000000" stroke="none" font-family="Arial" font-size="13px" font-style="normal" font-weight="bold" text-decoration="none" x="400.70849609375" y="291.5">TeddyActivity</text></g></g><g transform="translate(-6,-6) scale(1,1)"><rect fill="#C0C0C0" stroke="none" x="183" y="327" width="77.5927734375" height="44" opacity="0.2"/></g><g transform="translate(-6,-6) scale(1,1)"><rect fill="#ffffff" stroke="none" x="176" y="320" width="77.5927734375" height="44"/></g><g transform="translate(-6,-6) scale(1,1)"><path fill="none" stroke="#000000" d="M 176 320 L 253.5927734375 320 L 253.5927734375 364 L 176 364 L 176 320 Z Z" stroke-miterlimit="10"/></g><g transform="translate(-6,-6) scale(1,1)"><path fill="none" stroke="#000000" d="M 176 345 L 253.5927734375 345" stroke-miterlimit="10"/></g><g transform="translate(-6,-6) scale(1,1)"><path fill="none" stroke="#000000" d="M 176 355 L 253.5927734375 355" stroke-miterlimit="10"/></g><g transform="translate(-6,-6) scale(1,1)"><g><path fill="none" stroke="none"/><text fill="#000000" stroke="none" font-family="Arial" font-size="13px" font-style="normal" font-weight="bold" text-decoration="none" x="183.724609375" y="339.5">FontAction</text></g></g><g transform="translate(-6,-6) scale(1,1)"><path fill="#C0C0C0" stroke="none" d="M 210.32080078125 242.5 C 210.32080078125 236.1487248 215.46952558125 231 221.82080078125 231 C 228.17207598125 231 233.32080078125 236.1487248 233.32080078125 242.5 C 233.32080078125 248.8512752 228.17207598125 254 221.82080078125 254 C 215.46952558125 254 210.32080078125 248.8512752 210.32080078125 242.5 Z" opacity="0.2"/></g><g transform="translate(-6,-6) scale(1,1)"><path fill="#ffffff" stroke="none" d="M 203.32080078125 235.5 C 203.32080078125 229.1487248 208.46952558125 224 214.82080078125 224 C 221.17207598125 224 226.32080078125 229.1487248 226.32080078125 235.5 C 226.32080078125 241.8512752 221.17207598125 247 214.82080078125 247 C 208.46952558125 247 203.32080078125 241.8512752 203.32080078125 235.5 Z"/></g><g transform="translate(-6,-6) scale(1,1)"><path fill="none" stroke="#000000" d="M 203.32080078125 235.5 C 203.32080078125 229.1487248 208.46952558125 224 214.82080078125 224 C 221.17207598125 224 226.32080078125 229.1487248 226.32080078125 235.5 C 226.32080078125 241.8512752 221.17207598125 247 214.82080078125 247 C 208.46952558125 247 203.32080078125 241.8512752 203.32080078125 235.5 Z" stroke-miterlimit="10"/></g><g transform="translate(-6,-6) scale(1,1)"><g><path fill="none" stroke="none"/><text fill="#000000" stroke="none" font-family="Arial" font-size="13px" font-style="normal" font-weight="bold" text-decoration="none" x="196.75537109375" y="266.5">Action</text></g></g><g transform="translate(-6,-6) scale(1,1)"><g><path fill="none" stroke="none"/><text fill="#000000" stroke="none" font-family="Arial" font-size="13px" font-style="normal" font-weight="normal" text-decoration="none" x="124.5" y="281.5">(from org.jhotdraw8.app.action)</text></g></g><g transform="translate(-6,-6) scale(1,1)"><rect fill="#C0C0C0" stroke="none" x="215" y="55" width="193.92626953125" height="59" opacity="0.2"/></g><g transform="translate(-6,-6) scale(1,1)"><rect fill="#ffffff" stroke="none" x="208" y="48" width="193.92626953125" height="59"/></g><g transform="translate(-6,-6) scale(1,1)"><path fill="none" stroke="#000000" d="M 208 48 L 401.92626953125 48 L 401.92626953125 107 L 208 107 L 208 48 Z Z" stroke-miterlimit="10"/></g><g transform="translate(-6,-6) scale(1,1)"><path fill="none" stroke="#000000" d="M 208 88 L 401.92626953125 88" stroke-miterlimit="10"/></g><g transform="translate(-6,-6) scale(1,1)"><path fill="none" stroke="#000000" d="M 208 98 L 401.92626953125 98" stroke-miterlimit="10"/></g><g transform="translate(-6,-6) scale(1,1)"><g><path fill="none" stroke="none"/><text fill="#000000" stroke="none" font-family="Arial" font-size="13px" font-style="italic" font-weight="bold" text-decoration="none" x="220.418701171875" y="67.5">AbstractFileBasedApplication</text></g></g><g transform="translate(-6,-6) scale(1,1)"><g><path fill="none" stroke="none"/><text fill="#000000" stroke="none" font-family="Arial" font-size="13px" font-style="normal" font-weight="normal" text-decoration="none" x="233.793212890625" y="82.5">(from org.jhotdraw8.app)</text></g></g><g transform="translate(-6,-6) scale(1,1)"><path fill="none" stroke="#000000" d="M 294 143 L 299 108" stroke-miterlimit="10"/></g><g transform="translate(-6,-6) scale(1,1)"><path fill="#FFFFFF" stroke="none" d="M 304.4599814195234 129.31170107941784 L 299 108 L 287.79114153502053 126.93043823877457"/></g><g transform="translate(-6,-6) scale(1,1)"><path fill="none" stroke="#000000" d="M 304.4599814195234 129.31170107941784 L 299 108 L 287.79114153502053 126.93043823877457 L 304.4599814195234 129.31170107941784" stroke-miterlimit="10"/></g><g transform="translate(-6,-6) scale(1,1)"><rect fill="#C0C0C0" stroke="none" x="399" y="167" width="170.10986328125" height="59" opacity="0.2"/></g><g transform="translate(-6,-6) scale(1,1)"><rect fill="#ffffff" stroke="none" x="392" y="160" width="170.10986328125" height="59"/></g><g transform="translate(-6,-6) scale(1,1)"><path fill="none" stroke="#000000" d="M 392 160 L 562.10986328125 160 L 562.10986328125 219 L 392 219 L 392 160 Z Z" stroke-miterlimit="10"/></g><g transform="translate(-6,-6) scale(1,1)"><path fill="none" stroke="#000000" d="M 392 200 L 562.10986328125 200" stroke-miterlimit="10"/></g><g transform="translate(-6,-6) scale(1,1)"><path fill="none" stroke="#000000" d="M 392 210 L 562.10986328125 210" stroke-miterlimit="10"/></g><g transform="translate(-6,-6) scale(1,1)"><g><path fill="none" stroke="none"/><text fill="#000000" stroke="none" font-family="Arial" font-size="13px" font-style="normal" font-weight="bold" text-decoration="none" x="403.7236328125" y="179.5">AbstractFileBasedActivity</text></g></g><g transform="translate(-6,-6) scale(1,1)"><g><path fill="none" stroke="none"/><text fill="#000000" stroke="none" font-family="Arial" font-size="13px" font-style="normal" font-weight="normal" text-decoration="none" x="405.885009765625" y="194.5">(from org.jhotdraw8.app)</text></g></g><g transform="translate(-6,-6) scale(1,1)"><path fill="none" stroke="#000000" d="M 447 271 L 465 220" stroke-miterlimit="10"/></g><g transform="translate(-6,-6) scale(1,1)"><path fill="#FFFFFF" stroke="none" d="M 466.1743838207004 241.96863269850166 L 465 220 L 450.296245608826 236.36458391784012"/></g><g transform="translate(-6,-6) scale(1,1)"><path fill="none" stroke="#000000" d="M 466.1743838207004 241.96863269850166 L 465 220 L 450.296245608826 236.36458391784012 L 466.1743838207004 241.96863269850166" stroke-miterlimit="10"/></g></g></svg>