<svg version="1.1" xmlns="http://www.w3.org/2000/svg" width="115.6708984375" height="75"><defs/><g><g transform="translate(-206,-382) scale(1,1)"><path fill="#C0C0C0" stroke="none" d="M 233 399 L 308.6708984375 399 Q 318.6708984375 399 318.6708984375 409 L 318.6708984375 444 Q 318.6708984375 454 308.6708984375 454 L 233 454 Q 223 454 223 444 L 223 409 Q 223 399 233 399 Z" opacity="0.2"/></g><g transform="translate(-206,-382) scale(1,1)"><path fill="#ffffff" stroke="none" d="M 226 392 L 301.6708984375 392 Q 311.6708984375 392 311.6708984375 402 L 311.6708984375 437 Q 311.6708984375 447 301.6708984375 447 L 226 447 Q 216 447 216 437 L 216 402 Q 216 392 226 392 Z"/></g><g transform="translate(-206,-382) scale(1,1)"><path fill="none" stroke="#000000" d="M 226 392 L 301.6708984375 392 Q 311.6708984375 392 311.6708984375 402 L 311.6708984375 437 Q 311.6708984375 447 301.6708984375 447 L 226 447 Q 216 447 216 437 L 216 402 Q 216 392 226 392 Z" stroke-miterlimit="10"/></g><g transform="translate(-206,-382) scale(1,1)"><g><path fill="none" stroke="none"/><text fill="#000000" stroke="none" font-family="Arial" font-size="13px" font-style="normal" font-weight="bold" text-decoration="none" x="238.8955078125" y="411.5">changed</text></g></g></g></svg>