<svg version="1.1" xmlns="http://www.w3.org/2000/svg" xmlns:xlink="http://www.w3.org/1999/xlink" width="776.9072265625" height="684"><defs/><g><g transform="translate(-6,-14) scale(1,1)"><path fill="none" stroke="#000000" d="M 16 24 L 735 24 L 735 679 L 16 679 L 16 24" stroke-miterlimit="10"/></g><g transform="translate(-6,-14) scale(1,1)"><path fill="#ffffff" stroke="none" d="M 16 24 L 16 46 L 188.05712890625 46 L 199.05712890625 35 L 199.05712890625 24 L 16 24"/></g><g transform="translate(-6,-14) scale(1,1)"><path fill="none" stroke="#000000" d="M 16 24 L 16 46 L 188.05712890625 46 L 199.05712890625 35 L 199.05712890625 24 L 16 24 L 16 24" stroke-miterlimit="10"/></g><g transform="translate(-6,-14) scale(1,1)"><g><path fill="none" stroke="none"/><text fill="#000000" stroke="none" font-family="Arial" font-size="13px" font-style="normal" font-weight="normal" text-decoration="none" x="56.6181640625" y="41.5">Handle ClassDiagram</text></g></g><g transform="translate(-6,-14) scale(1,1)"><g><path fill="none" stroke="none"/><text fill="#000000" stroke="none" font-family="Arial" font-size="13px" font-style="normal" font-weight="bold" text-decoration="none" x="21" y="41.5">class</text></g></g><g transform="translate(-6,-14) scale(1,1)"><path fill="#C0C0C0" stroke="none" d="M 382.7099609375 98.5 C 382.7099609375 92.1487248 387.8586857375 87 394.2099609375 87 C 400.5612361375 87 405.7099609375 92.1487248 405.7099609375 98.5 C 405.7099609375 104.8512752 400.5612361375 110 394.2099609375 110 C 387.8586857375 110 382.7099609375 104.8512752 382.7099609375 98.5 Z" opacity="0.2"/></g><g transform="translate(-6,-14) scale(1,1)"><path fill="#ffffff" stroke="none" d="M 375.7099609375 91.5 C 375.7099609375 85.1487248 380.8586857375 80 387.2099609375 80 C 393.5612361375 80 398.7099609375 85.1487248 398.7099609375 91.5 C 398.7099609375 97.8512752 393.5612361375 103 387.2099609375 103 C 380.8586857375 103 375.7099609375 97.8512752 375.7099609375 91.5 Z"/></g><g transform="translate(-6,-14) scale(1,1)"><path fill="none" stroke="#000000" d="M 375.7099609375 91.5 C 375.7099609375 85.1487248 380.8586857375 80 387.2099609375 80 C 393.5612361375 80 398.7099609375 85.1487248 398.7099609375 91.5 C 398.7099609375 97.8512752 393.5612361375 103 387.2099609375 103 C 380.8586857375 103 375.7099609375 97.8512752 375.7099609375 91.5 Z" stroke-miterlimit="10"/></g><g transform="translate(-6,-14) scale(1,1)"><g><path fill="none" stroke="none"/><text fill="#000000" stroke="none" font-family="Arial" font-size="13px" font-style="normal" font-weight="bold" text-decoration="none" x="366.61181640625" y="122.5">Handle</text></g></g><g transform="translate(-6,-14) scale(1,1)"><rect fill="#C0C0C0" stroke="none" x="167" y="343" width="170.078125" height="24" opacity="0.2"/></g><g transform="translate(-6,-14) scale(1,1)"><rect fill="#ffffff" stroke="none" x="160" y="336" width="170.078125" height="24"/></g><g transform="translate(-6,-14) scale(1,1)"><path fill="none" stroke="#000000" d="M 160 336 L 330.078125 336 L 330.078125 360 L 160 360 L 160 336 Z Z" stroke-miterlimit="10"/></g><g transform="translate(-6,-14) scale(1,1)"><g><path fill="none" stroke="none"/><text fill="#000000" stroke="none" font-family="Arial" font-size="13px" font-style="normal" font-weight="bold" text-decoration="none" x="170.609619140625" y="355.5">AbstractConnectorHandle</text></g></g><g transform="translate(-6,-14) scale(1,1)"><rect fill="#C0C0C0" stroke="none" x="351" y="375" width="105.078125" height="24" opacity="0.2"/></g><g transform="translate(-6,-14) scale(1,1)"><rect fill="#ffffff" stroke="none" x="344" y="368" width="105.078125" height="24"/></g><g transform="translate(-6,-14) scale(1,1)"><path fill="none" stroke="#000000" d="M 344 368 L 449.078125 368 L 449.078125 392 L 344 392 L 344 368 Z Z" stroke-miterlimit="10"/></g><g transform="translate(-6,-14) scale(1,1)"><g><path fill="none" stroke="none"/><text fill="#000000" stroke="none" font-family="Arial" font-size="13px" font-style="normal" font-weight="bold" text-decoration="none" x="352.09912109375" y="387.5">AbstractHandle</text></g></g><g transform="translate(-6,-14) scale(1,1)"><rect fill="#C0C0C0" stroke="none" x="471" y="391" width="209.83984375" height="24" opacity="0.2"/></g><g transform="translate(-6,-14) scale(1,1)"><rect fill="#ffffff" stroke="none" x="464" y="384" width="209.83984375" height="24"/></g><g transform="translate(-6,-14) scale(1,1)"><path fill="none" stroke="#000000" d="M 464 384 L 673.83984375 384 L 673.83984375 408 L 464 408 L 464 384 Z Z" stroke-miterlimit="10"/></g><g transform="translate(-6,-14) scale(1,1)"><g><path fill="none" stroke="none"/><text fill="#000000" stroke="none" font-family="Arial" font-size="13px" font-style="normal" font-weight="bold" text-decoration="none" x="475.238037109375" y="403.5">AbstractResizeTransformHandle</text></g></g><g transform="translate(-6,-14) scale(1,1)"><rect fill="#C0C0C0" stroke="none" x="263" y="455" width="168.64990234375" height="24" opacity="0.2"/></g><g transform="translate(-6,-14) scale(1,1)"><rect fill="#ffffff" stroke="none" x="256" y="448" width="168.64990234375" height="24"/></g><g transform="translate(-6,-14) scale(1,1)"><path fill="none" stroke="#000000" d="M 256 448 L 424.64990234375 448 L 424.64990234375 472 L 256 472 L 256 448 Z Z" stroke-miterlimit="10"/></g><g transform="translate(-6,-14) scale(1,1)"><g><path fill="none" stroke="none"/><text fill="#000000" stroke="none" font-family="Arial" font-size="13px" font-style="normal" font-weight="bold" text-decoration="none" x="266.51123046875" y="467.5">AbstractTransformHandle</text></g></g><g transform="translate(-6,-14) scale(1,1)"><rect fill="#C0C0C0" stroke="none" x="415" y="503" width="142.6181640625" height="24" opacity="0.2"/></g><g transform="translate(-6,-14) scale(1,1)"><rect fill="#ffffff" stroke="none" x="408" y="496" width="142.6181640625" height="24"/></g><g transform="translate(-6,-14) scale(1,1)"><path fill="none" stroke="#000000" d="M 408 496 L 550.6181640625 496 L 550.6181640625 520 L 408 520 L 408 496 Z Z" stroke-miterlimit="10"/></g><g transform="translate(-6,-14) scale(1,1)"><g><path fill="none" stroke="none"/><text fill="#000000" stroke="none" font-family="Arial" font-size="13px" font-style="normal" font-weight="bold" text-decoration="none" x="417.52099609375" y="515.5">AnchorOutlineHandle</text></g></g><g transform="translate(-6,-14) scale(1,1)"><rect fill="#C0C0C0" stroke="none" x="543" y="487" width="194.6181640625" height="24" opacity="0.2"/></g><g transform="translate(-6,-14) scale(1,1)"><rect fill="#ffffff" stroke="none" x="536" y="480" width="194.6181640625" height="24"/></g><g transform="translate(-6,-14) scale(1,1)"><path fill="none" stroke="#000000" d="M 536 480 L 730.6181640625 480 L 730.6181640625 504 L 536 504 L 536 480 Z Z" stroke-miterlimit="10"/></g><g transform="translate(-6,-14) scale(1,1)"><g><path fill="none" stroke="none"/><text fill="#000000" stroke="none" font-family="Arial" font-size="13px" font-style="normal" font-weight="bold" text-decoration="none" x="547.3173828125" y="499.5">BezierControlPointEditHandle</text></g></g><g transform="translate(-6,-14) scale(1,1)"><rect fill="#C0C0C0" stroke="none" x="103" y="543" width="148.41357421875" height="24" opacity="0.2"/></g><g transform="translate(-6,-14) scale(1,1)"><rect fill="#ffffff" stroke="none" x="96" y="536" width="148.41357421875" height="24"/></g><g transform="translate(-6,-14) scale(1,1)"><path fill="none" stroke="#000000" d="M 96 536 L 244.41357421875 536 L 244.41357421875 560 L 96 560 L 96 536 Z Z" stroke-miterlimit="10"/></g><g transform="translate(-6,-14) scale(1,1)"><g><path fill="none" stroke="none"/><text fill="#000000" stroke="none" font-family="Arial" font-size="13px" font-style="normal" font-weight="bold" text-decoration="none" x="104.445068359375" y="555.5">BezierNodeEditHandle</text></g></g><g transform="translate(-6,-14) scale(1,1)"><rect fill="#C0C0C0" stroke="none" x="271" y="543" width="157.0908203125" height="24" opacity="0.2"/></g><g transform="translate(-6,-14) scale(1,1)"><rect fill="#ffffff" stroke="none" x="264" y="536" width="157.0908203125" height="24"/></g><g transform="translate(-6,-14) scale(1,1)"><path fill="none" stroke="#000000" d="M 264 536 L 421.0908203125 536 L 421.0908203125 560 L 264 560 L 264 536 Z Z" stroke-miterlimit="10"/></g><g transform="translate(-6,-14) scale(1,1)"><g><path fill="none" stroke="none"/><text fill="#000000" stroke="none" font-family="Arial" font-size="13px" font-style="normal" font-weight="bold" text-decoration="none" x="272.089599609375" y="555.5">BezierNodeMoveHandle</text></g></g><g transform="translate(-6,-14) scale(1,1)"><rect fill="#C0C0C0" stroke="none" x="399" y="607" width="173.44873046875" height="24" opacity="0.2"/></g><g transform="translate(-6,-14) scale(1,1)"><rect fill="#ffffff" stroke="none" x="392" y="600" width="173.44873046875" height="24"/></g><g transform="translate(-6,-14) scale(1,1)"><path fill="none" stroke="#000000" d="M 392 600 L 565.44873046875 600 L 565.44873046875 624 L 392 624 L 392 600 Z Z" stroke-miterlimit="10"/></g><g transform="translate(-6,-14) scale(1,1)"><g><path fill="none" stroke="none"/><text fill="#000000" stroke="none" font-family="Arial" font-size="13px" font-style="normal" font-weight="bold" text-decoration="none" x="401.0322265625" y="619.5">BezierNodeTangentHandle</text></g></g><g transform="translate(-6,-14) scale(1,1)"><rect fill="#C0C0C0" stroke="none" x="591" y="583" width="144.08447265625" height="24" opacity="0.2"/></g><g transform="translate(-6,-14) scale(1,1)"><rect fill="#ffffff" stroke="none" x="584" y="576" width="144.08447265625" height="24"/></g><g transform="translate(-6,-14) scale(1,1)"><path fill="none" stroke="#000000" d="M 584 576 L 728.08447265625 576 L 728.08447265625 600 L 584 600 L 584 576 Z Z" stroke-miterlimit="10"/></g><g transform="translate(-6,-14) scale(1,1)"><g><path fill="none" stroke="none"/><text fill="#000000" stroke="none" font-family="Arial" font-size="13px" font-style="normal" font-weight="bold" text-decoration="none" x="592.4482421875" y="595.5">BezierPathEditHandle</text></g></g><g transform="translate(-6,-14) scale(1,1)"><rect fill="#C0C0C0" stroke="none" x="479" y="319" width="191.00634765625" height="24" opacity="0.2"/></g><g transform="translate(-6,-14) scale(1,1)"><rect fill="#ffffff" stroke="none" x="472" y="312" width="191.00634765625" height="24"/></g><g transform="translate(-6,-14) scale(1,1)"><path fill="none" stroke="#000000" d="M 472 312 L 663.00634765625 312 L 663.00634765625 336 L 472 336 L 472 312 Z Z" stroke-miterlimit="10"/></g><g transform="translate(-6,-14) scale(1,1)"><g><path fill="none" stroke="none"/><text fill="#000000" stroke="none" font-family="Arial" font-size="13px" font-style="normal" font-weight="bold" text-decoration="none" x="483.3046875" y="331.5">BoundsInLocalOutlineHandle</text></g></g><g transform="translate(-6,-14) scale(1,1)"><rect fill="#C0C0C0" stroke="none" x="511" y="247" width="197.5126953125" height="24" opacity="0.2"/></g><g transform="translate(-6,-14) scale(1,1)"><rect fill="#ffffff" stroke="none" x="504" y="240" width="197.5126953125" height="24"/></g><g transform="translate(-6,-14) scale(1,1)"><path fill="none" stroke="#000000" d="M 504 240 L 701.5126953125 240 L 701.5126953125 264 L 504 264 L 504 240 Z Z" stroke-miterlimit="10"/></g><g transform="translate(-6,-14) scale(1,1)"><g><path fill="none" stroke="none"/><text fill="#000000" stroke="none" font-family="Arial" font-size="13px" font-style="normal" font-weight="bold" text-decoration="none" x="514.946044921875" y="259.5">BoundsInParentOutlineHandle</text></g></g><g transform="translate(-6,-14) scale(1,1)"><rect fill="#C0C0C0" stroke="none" x="143" y="159" width="226.40087890625" height="24" opacity="0.2"/></g><g transform="translate(-6,-14) scale(1,1)"><rect fill="#ffffff" stroke="none" x="136" y="152" width="226.40087890625" height="24"/></g><g transform="translate(-6,-14) scale(1,1)"><path fill="none" stroke="#000000" d="M 136 152 L 362.40087890625 152 L 362.40087890625 176 L 136 176 L 136 152 Z Z" stroke-miterlimit="10"/></g><g transform="translate(-6,-14) scale(1,1)"><g><path fill="none" stroke="none"/><text fill="#000000" stroke="none" font-family="Arial" font-size="13px" font-style="normal" font-weight="bold" text-decoration="none" x="148.628173828125" y="171.5">BoundsInTranslationOutlineHandle</text></g></g><g transform="translate(-6,-14) scale(1,1)"><rect fill="#C0C0C0" stroke="none" x="239" y="279" width="151.29541015625" height="24" opacity="0.2"/></g><g transform="translate(-6,-14) scale(1,1)"><rect fill="#ffffff" stroke="none" x="232" y="272" width="151.29541015625" height="24"/></g><g transform="translate(-6,-14) scale(1,1)"><path fill="none" stroke="#000000" d="M 232 272 L 383.29541015625 272 L 383.29541015625 296 L 232 296 L 232 272 Z Z" stroke-miterlimit="10"/></g><g transform="translate(-6,-14) scale(1,1)"><g><path fill="none" stroke="none"/><text fill="#000000" stroke="none" font-family="Arial" font-size="13px" font-style="normal" font-weight="bold" text-decoration="none" x="241.156005859375" y="291.5">LabelConnectorHandle</text></g></g><g transform="translate(-6,-14) scale(1,1)"><rect fill="#C0C0C0" stroke="none" x="559" y="183" width="144.0654296875" height="24" opacity="0.2"/></g><g transform="translate(-6,-14) scale(1,1)"><rect fill="#ffffff" stroke="none" x="552" y="176" width="144.0654296875" height="24"/></g><g transform="translate(-6,-14) scale(1,1)"><path fill="none" stroke="#000000" d="M 552 176 L 696.0654296875 176 L 696.0654296875 200 L 552 200 L 552 176 Z Z" stroke-miterlimit="10"/></g><g transform="translate(-6,-14) scale(1,1)"><g><path fill="none" stroke="none"/><text fill="#000000" stroke="none" font-family="Arial" font-size="13px" font-style="normal" font-weight="bold" text-decoration="none" x="561.156005859375" y="195.5">LineConnectorHandle</text></g></g><g transform="translate(-6,-14) scale(1,1)"><rect fill="#C0C0C0" stroke="none" x="543" y="135" width="123.841796875" height="24" opacity="0.2"/></g><g transform="translate(-6,-14) scale(1,1)"><rect fill="#ffffff" stroke="none" x="536" y="128" width="123.841796875" height="24"/></g><g transform="translate(-6,-14) scale(1,1)"><path fill="none" stroke="#000000" d="M 536 128 L 659.841796875 128 L 659.841796875 152 L 536 152 L 536 128 Z Z" stroke-miterlimit="10"/></g><g transform="translate(-6,-14) scale(1,1)"><g><path fill="none" stroke="none"/><text fill="#000000" stroke="none" font-family="Arial" font-size="13px" font-style="normal" font-weight="bold" text-decoration="none" x="544.438720703125" y="147.5">LineOutlineHandle</text></g></g><g transform="translate(-6,-14) scale(1,1)"><rect fill="#C0C0C0" stroke="none" x="103" y="279" width="100.0126953125" height="24" opacity="0.2"/></g><g transform="translate(-6,-14) scale(1,1)"><rect fill="#ffffff" stroke="none" x="96" y="272" width="100.0126953125" height="24"/></g><g transform="translate(-6,-14) scale(1,1)"><path fill="none" stroke="#000000" d="M 96 272 L 196.0126953125 272 L 196.0126953125 296 L 96 296 L 96 272 Z Z" stroke-miterlimit="10"/></g><g transform="translate(-6,-14) scale(1,1)"><g><path fill="none" stroke="none"/><text fill="#000000" stroke="none" font-family="Arial" font-size="13px" font-style="normal" font-weight="bold" text-decoration="none" x="103.727783203125" y="291.5">LocatorHandle</text></g></g><g transform="translate(-6,-14) scale(1,1)"><rect fill="#C0C0C0" stroke="none" x="143" y="407" width="85.57177734375" height="24" opacity="0.2"/></g><g transform="translate(-6,-14) scale(1,1)"><rect fill="#ffffff" stroke="none" x="136" y="400" width="85.57177734375" height="24"/></g><g transform="translate(-6,-14) scale(1,1)"><path fill="none" stroke="#000000" d="M 136 400 L 221.57177734375 400 L 221.57177734375 424 L 136 424 L 136 400 Z Z" stroke-miterlimit="10"/></g><g transform="translate(-6,-14) scale(1,1)"><g><path fill="none" stroke="none"/><text fill="#000000" stroke="none" font-family="Arial" font-size="13px" font-style="normal" font-weight="bold" text-decoration="none" x="142.293212890625" y="419.5">MoveHandle</text></g></g><g transform="translate(-6,-14) scale(1,1)"><rect fill="#C0C0C0" stroke="none" x="71" y="455" width="192.47265625" height="24" opacity="0.2"/></g><g transform="translate(-6,-14) scale(1,1)"><rect fill="#ffffff" stroke="none" x="64" y="448" width="192.47265625" height="24"/></g><g transform="translate(-6,-14) scale(1,1)"><path fill="none" stroke="#000000" d="M 64 448 L 256.47265625 448 L 256.47265625 472 L 64 472 L 64 448 Z Z" stroke-miterlimit="10"/></g><g transform="translate(-6,-14) scale(1,1)"><g><path fill="none" stroke="none"/><text fill="#000000" stroke="none" font-family="Arial" font-size="13px" font-style="normal" font-weight="bold" text-decoration="none" x="74.6064453125" y="467.5">MultipleSelectionMoveHandle</text></g></g><g transform="translate(-6,-14) scale(1,1)"><rect fill="#C0C0C0" stroke="none" x="79" y="503" width="204.01904296875" height="24" opacity="0.2"/></g><g transform="translate(-6,-14) scale(1,1)"><rect fill="#ffffff" stroke="none" x="72" y="496" width="204.01904296875" height="24"/></g><g transform="translate(-6,-14) scale(1,1)"><path fill="none" stroke="#000000" d="M 72 496 L 276.01904296875 496 L 276.01904296875 520 L 72 520 L 72 496 Z Z" stroke-miterlimit="10"/></g><g transform="translate(-6,-14) scale(1,1)"><g><path fill="none" stroke="none"/><text fill="#000000" stroke="none" font-family="Arial" font-size="13px" font-style="normal" font-weight="bold" text-decoration="none" x="83.67919921875" y="515.5">MultipleSelectionOutlineHandle</text></g></g><g transform="translate(-6,-14) scale(1,1)"><rect fill="#C0C0C0" stroke="none" x="143" y="591" width="171.53173828125" height="24" opacity="0.2"/></g><g transform="translate(-6,-14) scale(1,1)"><rect fill="#ffffff" stroke="none" x="136" y="584" width="171.53173828125" height="24"/></g><g transform="translate(-6,-14) scale(1,1)"><path fill="none" stroke="#000000" d="M 136 584 L 307.53173828125 584 L 307.53173828125 608 L 136 608 L 136 584 Z Z" stroke-miterlimit="10"/></g><g transform="translate(-6,-14) scale(1,1)"><g><path fill="none" stroke="none"/><text fill="#000000" stroke="none" font-family="Arial" font-size="13px" font-style="normal" font-weight="bold" text-decoration="none" x="145.52099609375" y="603.5">PathIterableOutlineHandle</text></g></g><g transform="translate(-6,-14) scale(1,1)"><rect fill="#C0C0C0" stroke="none" x="279" y="607" width="166.47900390625" height="24" opacity="0.2"/></g><g transform="translate(-6,-14) scale(1,1)"><rect fill="#ffffff" stroke="none" x="272" y="600" width="166.47900390625" height="24"/></g><g transform="translate(-6,-14) scale(1,1)"><path fill="none" stroke="#000000" d="M 272 600 L 438.47900390625 600 L 438.47900390625 624 L 272 624 L 272 600 Z Z" stroke-miterlimit="10"/></g><g transform="translate(-6,-14) scale(1,1)"><g><path fill="none" stroke="none"/><text fill="#000000" stroke="none" font-family="Arial" font-size="13px" font-style="normal" font-weight="bold" text-decoration="none" x="281.524169921875" y="619.5">PathIterablePointsHandle</text></g></g><g transform="translate(-6,-14) scale(1,1)"><rect fill="#C0C0C0" stroke="none" x="63" y="591" width="84.83544921875" height="24" opacity="0.2"/></g><g transform="translate(-6,-14) scale(1,1)"><rect fill="#ffffff" stroke="none" x="56" y="584" width="84.83544921875" height="24"/></g><g transform="translate(-6,-14) scale(1,1)"><path fill="none" stroke="#000000" d="M 56 584 L 140.83544921875 584 L 140.83544921875 608 L 56 608 L 56 584 Z Z" stroke-miterlimit="10"/></g><g transform="translate(-6,-14) scale(1,1)"><g><path fill="none" stroke="none"/><text fill="#000000" stroke="none" font-family="Arial" font-size="13px" font-style="normal" font-weight="bold" text-decoration="none" x="63.004150390625" y="603.5">PointHandle</text></g></g><g transform="translate(-6,-14) scale(1,1)"><rect fill="#C0C0C0" stroke="none" x="351" y="671" width="136.841796875" height="24" opacity="0.2"/></g><g transform="translate(-6,-14) scale(1,1)"><rect fill="#ffffff" stroke="none" x="344" y="664" width="136.841796875" height="24"/></g><g transform="translate(-6,-14) scale(1,1)"><path fill="none" stroke="#000000" d="M 344 664 L 480.841796875 664 L 480.841796875 688 L 344 688 L 344 664 Z Z" stroke-miterlimit="10"/></g><g transform="translate(-6,-14) scale(1,1)"><g><path fill="none" stroke="none"/><text fill="#000000" stroke="none" font-family="Arial" font-size="13px" font-style="normal" font-weight="bold" text-decoration="none" x="353.162353515625" y="683.5">PolyPointEditHandle</text></g></g><g transform="translate(-6,-14) scale(1,1)"><rect fill="#C0C0C0" stroke="none" x="495" y="559" width="145.51904296875" height="24" opacity="0.2"/></g><g transform="translate(-6,-14) scale(1,1)"><rect fill="#ffffff" stroke="none" x="488" y="552" width="145.51904296875" height="24"/></g><g transform="translate(-6,-14) scale(1,1)"><path fill="none" stroke="#000000" d="M 488 552 L 633.51904296875 552 L 633.51904296875 576 L 488 576 L 488 552 Z Z" stroke-miterlimit="10"/></g><g transform="translate(-6,-14) scale(1,1)"><g><path fill="none" stroke="none"/><text fill="#000000" stroke="none" font-family="Arial" font-size="13px" font-style="normal" font-weight="bold" text-decoration="none" x="496.806884765625" y="571.5">PolyPointMoveHandle</text></g></g><g transform="translate(-6,-14) scale(1,1)"><rect fill="#C0C0C0" stroke="none" x="599" y="647" width="180.9072265625" height="24" opacity="0.2"/></g><g transform="translate(-6,-14) scale(1,1)"><rect fill="#ffffff" stroke="none" x="592" y="640" width="180.9072265625" height="24"/></g><g transform="translate(-6,-14) scale(1,1)"><path fill="none" stroke="#000000" d="M 592 640 L 772.9072265625 640 L 772.9072265625 664 L 592 664 L 592 640 Z Z" stroke-miterlimit="10"/></g><g transform="translate(-6,-14) scale(1,1)"><g><path fill="none" stroke="none"/><text fill="#000000" stroke="none" font-family="Arial" font-size="13px" font-style="normal" font-weight="bold" text-decoration="none" x="602.603271484375" y="659.5">RelativeControlPointHandle</text></g></g><g transform="translate(-6,-14) scale(1,1)"><rect fill="#C0C0C0" stroke="none" x="527" y="439" width="134.6962890625" height="24" opacity="0.2"/></g><g transform="translate(-6,-14) scale(1,1)"><rect fill="#ffffff" stroke="none" x="520" y="432" width="134.6962890625" height="24"/></g><g transform="translate(-6,-14) scale(1,1)"><path fill="none" stroke="#000000" d="M 520 432 L 654.6962890625 432 L 654.6962890625 456 L 520 456 L 520 432 Z Z" stroke-miterlimit="10"/></g><g transform="translate(-6,-14) scale(1,1)"><g><path fill="none" stroke="none"/><text fill="#000000" stroke="none" font-family="Arial" font-size="13px" font-style="normal" font-weight="bold" text-decoration="none" x="528.451416015625" y="451.5">RelativePointHandle</text></g></g><g transform="translate(-6,-14) scale(1,1)"><rect fill="#C0C0C0" stroke="none" x="575" y="375" width="92.7890625" height="24" opacity="0.2"/></g><g transform="translate(-6,-14) scale(1,1)"><rect fill="#ffffff" stroke="none" x="568" y="368" width="92.7890625" height="24"/></g><g transform="translate(-6,-14) scale(1,1)"><path fill="none" stroke="#000000" d="M 568 368 L 660.7890625 368 L 660.7890625 392 L 568 392 L 568 368 Z Z" stroke-miterlimit="10"/></g><g transform="translate(-6,-14) scale(1,1)"><g><path fill="none" stroke="none"/><text fill="#000000" stroke="none" font-family="Arial" font-size="13px" font-style="normal" font-weight="bold" text-decoration="none" x="574.6455078125" y="387.5">RotateHandle</text></g></g><g transform="translate(-6,-14) scale(1,1)"><rect fill="#C0C0C0" stroke="none" x="431" y="359" width="110.13720703125" height="24" opacity="0.2"/></g><g transform="translate(-6,-14) scale(1,1)"><rect fill="#ffffff" stroke="none" x="424" y="352" width="110.13720703125" height="24"/></g><g transform="translate(-6,-14) scale(1,1)"><path fill="none" stroke="#000000" d="M 424 352 L 534.13720703125 352 L 534.13720703125 376 L 424 376 L 424 352 Z Z" stroke-miterlimit="10"/></g><g transform="translate(-6,-14) scale(1,1)"><g><path fill="none" stroke="none"/><text fill="#000000" stroke="none" font-family="Arial" font-size="13px" font-style="normal" font-weight="bold" text-decoration="none" x="431.73095703125" y="371.5">SelectionHandle</text></g></g></g></svg>