<svg version="1.1" xmlns="http://www.w3.org/2000/svg" xmlns:xlink="http://www.w3.org/1999/xlink" width="780" height="612"><defs/><g><g transform="translate(2,2) scale(1,1)"><path fill="none" stroke="#000000" d="M 8 8 L 768 8 L 768 600 L 8 600 L 8 8" stroke-miterlimit="10"/></g><g transform="translate(2,2) scale(1,1)"><path fill="#ffffff" stroke="none" d="M 8 8 L 8 30 L 245.8125 30 L 256.8125 19 L 256.8125 8 L 8 8"/></g><g transform="translate(2,2) scale(1,1)"><path fill="none" stroke="#000000" d="M 8 8 L 8 30 L 245.8125 30 L 256.8125 19 L 256.8125 8 L 8 8 L 8 8" stroke-miterlimit="10"/></g><g transform="translate(2,2) scale(1,1)"><g><path fill="none" stroke="none"/><text fill="#000000" stroke="none" font-family="Arial" font-size="13px" font-style="normal" font-weight="normal" text-decoration="none" x="48.6181640625" y="25.5">Factory Method Pattern Structure</text></g></g><g transform="translate(2,2) scale(1,1)"><g><path fill="none" stroke="none"/><text fill="#000000" stroke="none" font-family="Arial" font-size="13px" font-style="normal" font-weight="bold" text-decoration="none" x="13" y="25.5">class</text></g></g><g transform="translate(2,2) scale(1,1)"><rect fill="#C0C0C0" stroke="none" x="510" y="383" width="114.4599609375" height="24" opacity="0.2"/></g><g transform="translate(2,2) scale(1,1)"><rect fill="#ffffff" stroke="none" x="503" y="376" width="114.4599609375" height="24"/></g><g transform="translate(2,2) scale(1,1)"><path fill="none" stroke="#000000" d="M 503 376 L 617.4599609375 376 L 617.4599609375 400 L 503 400 L 503 376 Z Z" stroke-miterlimit="10"/></g><g transform="translate(2,2) scale(1,1)"><g><path fill="none" stroke="none"/><text fill="#000000" stroke="none" font-family="Arial" font-size="13px" font-style="normal" font-weight="bold" text-decoration="none" x="511.45458984375" y="395.5">ConcreteProduct</text></g></g><g transform="translate(2,2) scale(1,1)"><rect fill="#C0C0C0" stroke="none" x="151" y="375" width="158.2080078125" height="47" opacity="0.2"/></g><g transform="translate(2,2) scale(1,1)"><rect fill="#ffffff" stroke="none" x="144" y="368" width="158.2080078125" height="47"/></g><g transform="translate(2,2) scale(1,1)"><path fill="none" stroke="#000000" d="M 144 368 L 302.2080078125 368 L 302.2080078125 415 L 144 415 L 144 368 Z Z" stroke-miterlimit="10"/></g><g transform="translate(2,2) scale(1,1)"><path fill="none" stroke="#000000" d="M 144 393 L 302.2080078125 393" stroke-miterlimit="10"/></g><g transform="translate(2,2) scale(1,1)"><g><path fill="none" stroke="none"/><text fill="#000000" stroke="none" font-family="Arial" font-size="13px" font-style="normal" font-weight="bold" text-decoration="none" x="175.055419921875" y="387.5">ConcreteCreator</text></g></g><g transform="translate(2,2) scale(1,1)"><g><path fill="none" stroke="none"/><text fill="#000000" stroke="none" font-family="Arial" font-size="13px" font-style="normal" font-weight="normal" text-decoration="none" x="149" y="410.5">+createProduct(): Product</text></g></g><g transform="translate(2,2) scale(1,1)"><path fill="none" stroke="#000000" d="M 303 390 L 502 389" stroke-miterlimit="10" stroke-dasharray="3"/></g><g transform="translate(2,2) scale(1,1)"><path fill="none" stroke="#000000" d="M 491.85860654178913 393.26053268098696 L 502 389 L 491.81630036482545 384.841603465211" stroke-miterlimit="10"/></g><g transform="translate(2,2) scale(1,1)"><g><path fill="none" stroke="none"/><text fill="#000000" stroke="none" font-family="Arial" font-size="13px" font-style="normal" font-weight="normal" text-decoration="none" x="376.5" y="380.5">+creates</text></g></g><g transform="translate(2,2) scale(1,1)"><rect fill="#C0C0C0" stroke="none" x="127" y="191" width="205.8916015625" height="60" opacity="0.2"/></g><g transform="translate(2,2) scale(1,1)"><rect fill="#ffffff" stroke="none" x="120" y="184" width="205.8916015625" height="60"/></g><g transform="translate(2,2) scale(1,1)"><path fill="none" stroke="#000000" d="M 120 184 L 325.8916015625 184 L 325.8916015625 244 L 120 244 L 120 184 Z Z" stroke-miterlimit="10"/></g><g transform="translate(2,2) scale(1,1)"><path fill="none" stroke="#000000" d="M 120 222 L 325.8916015625 222" stroke-miterlimit="10"/></g><g transform="translate(2,2) scale(1,1)"><g><path fill="none" stroke="none"/><text fill="#000000" stroke="none" font-family="Arial" font-size="13px" font-style="normal" font-weight="normal" text-decoration="none" x="190.785400390625" y="201.5">«interface»</text></g></g><g transform="translate(2,2) scale(1,1)"><g><path fill="none" stroke="none"/><text fill="#000000" stroke="none" font-family="Arial" font-size="13px" font-style="normal" font-weight="bold" text-decoration="none" x="201.271728515625" y="216.5">Creator</text></g></g><g transform="translate(2,2) scale(1,1)"><g><path fill="none" stroke="none"/><text fill="#000000" stroke="none" font-family="Arial" font-size="13px" font-style="italic" font-weight="normal" text-decoration="none" x="125" y="239.5">+createProduct(): Product</text></g></g><g transform="translate(2,2) scale(1,1)"><path fill="none" stroke="#000000" d="M 223 367 L 222 245" stroke-miterlimit="10" stroke-dasharray="3"/></g><g transform="translate(2,2) scale(1,1)"><path fill="#FFFFFF" stroke="none" d="M 230.58534833541228 265.25566078802746 L 222 245 L 213.74784292618997 265.3936731274473"/></g><g transform="translate(2,2) scale(1,1)"><path fill="none" stroke="#000000" d="M 230.58534833541228 265.25566078802746 L 222 245 L 213.74784292618997 265.3936731274473 L 230.58534833541228 265.25566078802746" stroke-miterlimit="10"/></g><g transform="translate(2,2) scale(1,1)"><rect fill="#ffffff" stroke="none" x="8" y="32" width="99" height="22"/></g><g transform="translate(2,2) scale(1,1)"><path fill="none" stroke="#000000" d="M 8 32 L 107 32 L 107 54 L 8 54 L 8 32 Z Z" stroke-miterlimit="10"/></g><g transform="translate(2,2) scale(1,1)"><path fill="none" stroke="#000000" d="M 40.39453125 32 L 40.39453125 54" stroke-miterlimit="10"/></g><g transform="translate(2,2) scale(1,1)"><g><path fill="none" stroke="none"/><text fill="#000000" stroke="none" font-family="Arial" font-size="13px" font-style="normal" font-weight="normal" text-decoration="none" x="44.89453125" y="49.5">GoF1995</text></g></g><g transform="translate(2,2) scale(1,1)"><g><path fill="none" stroke="none"/><text fill="#000000" stroke="none" font-family="Arial" font-size="13px" font-style="normal" font-weight="bold" text-decoration="none" x="14.444091796875" y="49.5">link</text></g></g><g transform="translate(2,2) scale(1,1)"><path fill="#C0C0C0" stroke="none" d="M 223 552 C 223 538.19288 299.111584 527 393 527 C 486.888416 527 563 538.19288 563 552 C 563 565.80712 486.888416 577 393 577 C 299.111584 577 223 565.80712 223 552 Z" opacity="0.2"/></g><g transform="translate(2,2) scale(1,1)"><path fill="#e2e2e2" stroke="none" d="M 216 545 C 216 531.19288 292.111584 520 386 520 C 479.888416 520 556 531.19288 556 545 C 556 558.80712 479.888416 570 386 570 C 292.111584 570 216 558.80712 216 545 Z"/></g><g transform="translate(2,2) scale(1,1)"><path fill="none" stroke="#000000" d="M 216 545 C 216 531.19288 292.111584 520 386 520 C 479.888416 520 556 531.19288 556 545 C 556 558.80712 479.888416 570 386 570 C 292.111584 570 216 558.80712 216 545 Z" stroke-miterlimit="10" stroke-dasharray="5"/></g><g transform="translate(2,2) scale(1,1)"><g><path fill="none" stroke="none"/><text fill="#000000" stroke="none" font-family="Arial" font-size="13px" font-style="normal" font-weight="bold" text-decoration="none" x="277.61376953125" y="552">example use: Factory Method Pattern</text></g></g><g transform="translate(2,2) scale(1,1)"><rect fill="#C0C0C0" stroke="none" x="531" y="215" width="73.32080078125" height="37" opacity="0.2"/></g><g transform="translate(2,2) scale(1,1)"><rect fill="#ffffff" stroke="none" x="524" y="208" width="73.32080078125" height="37"/></g><g transform="translate(2,2) scale(1,1)"><path fill="none" stroke="#000000" d="M 524 208 L 597.32080078125 208 L 597.32080078125 245 L 524 245 L 524 208 Z Z" stroke-miterlimit="10"/></g><g transform="translate(2,2) scale(1,1)"><g><path fill="none" stroke="none"/><text fill="#000000" stroke="none" font-family="Arial" font-size="13px" font-style="normal" font-weight="normal" text-decoration="none" x="528.5" y="225.5">«interface»</text></g></g><g transform="translate(2,2) scale(1,1)"><g><path fill="none" stroke="none"/><text fill="#000000" stroke="none" font-family="Arial" font-size="13px" font-style="normal" font-weight="bold" text-decoration="none" x="538.259521484375" y="240.5">Product</text></g></g><g transform="translate(2,2) scale(1,1)"><path fill="none" stroke="#000000" d="M 560 375 L 560 246" stroke-miterlimit="10" stroke-dasharray="3"/></g><g transform="translate(2,2) scale(1,1)"><path fill="#FFFFFF" stroke="none" d="M 568.419035512032 266.3253497152483 L 560 246 L 551.580964487968 266.3253497152483"/></g><g transform="translate(2,2) scale(1,1)"><path fill="none" stroke="#000000" d="M 568.419035512032 266.3253497152483 L 560 246 L 551.580964487968 266.3253497152483 L 568.419035512032 266.3253497152483" stroke-miterlimit="10"/></g></g></svg>