<svg version="1.1" xmlns="http://www.w3.org/2000/svg" xmlns:xlink="http://www.w3.org/1999/xlink" width="852" height="652"><defs/><g><g transform="translate(2,-6) scale(1,1)"><path fill="none" stroke="#000000" d="M 8 16 L 840 16 L 840 648 L 8 648 L 8 16" stroke-miterlimit="10"/></g><g transform="translate(2,-6) scale(1,1)"><path fill="#ffffff" stroke="none" d="M 8 16 L 8 38 L 258.83154296875 38 L 269.83154296875 27 L 269.83154296875 16 L 8 16"/></g><g transform="translate(2,-6) scale(1,1)"><path fill="none" stroke="#000000" d="M 8 16 L 8 38 L 258.83154296875 38 L 269.83154296875 27 L 269.83154296875 16 L 8 16 L 8 16" stroke-miterlimit="10"/></g><g transform="translate(2,-6) scale(1,1)"><g><path fill="none" stroke="none"/><text fill="#000000" stroke="none" font-family="Arial" font-size="13px" font-style="normal" font-weight="normal" text-decoration="none" x="19" y="33.5">Additions to SysML Requirements Model</text></g></g><g transform="translate(2,-6) scale(1,1)"><g><path fill="none" stroke="none"/><text fill="#000000" stroke="none" font-family="Arial" font-size="13px" font-style="normal" font-weight="bold" text-decoration="none" x="13" y="33.5"></text></g></g><g transform="translate(2,-6) scale(1,1)"><rect fill="#C0C0C0" stroke="none" x="335" y="183" width="95.68994140625" height="37" opacity="0.2"/></g><g transform="translate(2,-6) scale(1,1)"><rect fill="#e2e2e2" stroke="none" x="328" y="176" width="95.68994140625" height="37"/></g><g transform="translate(2,-6) scale(1,1)"><path fill="none" stroke="#000000" d="M 328 176 L 423.68994140625 176 L 423.68994140625 213 L 328 213 L 328 176 Z Z" stroke-miterlimit="10"/></g><g transform="translate(2,-6) scale(1,1)"><g><path fill="none" stroke="none"/><text fill="#000000" stroke="none" font-family="Arial" font-size="13px" font-style="normal" font-weight="normal" text-decoration="none" x="337.911376953125" y="193.5">«metaClass»</text></g></g><g transform="translate(2,-6) scale(1,1)"><g><path fill="none" stroke="none"/><text fill="#000000" stroke="none" font-family="Arial" font-size="13px" font-style="normal" font-weight="bold" text-decoration="none" x="335.39453125" y="208.5">UMLClassifier</text></g></g><g transform="translate(2,-6) scale(1,1)"><rect fill="#C0C0C0" stroke="none" x="327" y="327" width="133.97265625" height="85" opacity="0.2"/></g><g transform="translate(2,-6) scale(1,1)"><rect fill="#ffffff" stroke="none" x="320" y="320" width="133.97265625" height="85"/></g><g transform="translate(2,-6) scale(1,1)"><path fill="none" stroke="#000000" d="M 320 320 L 453.97265625 320 L 453.97265625 405 L 320 405 L 320 320 Z Z" stroke-miterlimit="10"/></g><g transform="translate(2,-6) scale(1,1)"><path fill="none" stroke="#000000" d="M 320 358 L 453.97265625 358" stroke-miterlimit="10"/></g><g transform="translate(2,-6) scale(1,1)"><path fill="none" stroke="#000000" d="M 320 396 L 453.97265625 396" stroke-miterlimit="10"/></g><g transform="translate(2,-6) scale(1,1)"><g><path fill="none" stroke="none"/><text fill="#000000" stroke="none" font-family="Arial" font-size="13px" font-style="normal" font-weight="normal" text-decoration="none" x="349.405029296875" y="337.5">«stereotype»</text></g></g><g transform="translate(2,-6) scale(1,1)"><g><path fill="none" stroke="none"/><text fill="#000000" stroke="none" font-family="Arial" font-size="13px" font-style="normal" font-weight="bold" text-decoration="none" x="342.17822265625" y="352.5">design decision</text></g></g><g transform="translate(2,-6) scale(1,1)"><g><path fill="none" stroke="none"/><text fill="#000000" stroke="none" font-family="Arial" font-size="13px" font-style="normal" font-weight="normal" text-decoration="none" x="325" y="375.5">+id</text></g></g><g transform="translate(2,-6) scale(1,1)"><g><path fill="none" stroke="none"/><text fill="#000000" stroke="none" font-family="Arial" font-size="13px" font-style="normal" font-weight="normal" text-decoration="none" x="325" y="390.5">+text</text></g></g><g transform="translate(2,-6) scale(1,1)"><path fill="none" stroke="#000000" d="M 383 319 L 376 214" stroke-miterlimit="10"/></g><g transform="translate(2,-6) scale(1,1)"><path fill="#000000" stroke="none" d="M 380.8762054144906 223.86015318114747 L 376 214 L 372.4758167371174 224.42017909297235"/></g><g transform="translate(2,-6) scale(1,1)"><path fill="none" stroke="#000000" d="M 380.8762054144906 223.86015318114747 L 376 214 L 372.4758167371174 224.42017909297235 L 380.8762054144906 223.86015318114747" stroke-miterlimit="10"/></g><g transform="translate(2,-6) scale(1,1)"><g><path fill="none" stroke="none"/><text fill="#000000" stroke="none" font-family="Arial" font-size="13px" font-style="normal" font-weight="normal" text-decoration="none" x="45" y="90">This diagram shows</text><text fill="#000000" stroke="none" font-family="Arial" font-size="13px" font-style="normal" font-weight="normal" text-decoration="none" x="45" y="103">our own additions to</text><text fill="#000000" stroke="none" font-family="Arial" font-size="13px" font-style="normal" font-weight="normal" text-decoration="none" x="45" y="116">the SysML</text><text fill="#000000" stroke="none" font-family="Arial" font-size="13px" font-style="normal" font-weight="normal" text-decoration="none" x="45" y="129">Requirements</text><text fill="#000000" stroke="none" font-family="Arial" font-size="13px" font-style="normal" font-weight="normal" text-decoration="none" x="45" y="142">Model.</text></g></g><g transform="translate(2,-6) scale(1,1)"><g><path fill="none" stroke="none"/><text fill="#000000" stroke="none" font-family="Arial" font-size="13px" font-style="normal" font-weight="normal" text-decoration="none" x="45" y="144">.</text></g></g><g transform="translate(2,-6) scale(1,1)"><g><path fill="none" stroke="none"/><text fill="#000000" stroke="none" font-family="Arial" font-size="13px" font-style="normal" font-weight="normal" text-decoration="none" x="45" y="159">Since StarUML</text><text fill="#000000" stroke="none" font-family="Arial" font-size="13px" font-style="normal" font-weight="normal" text-decoration="none" x="45" y="172">does not support</text><text fill="#000000" stroke="none" font-family="Arial" font-size="13px" font-style="normal" font-weight="normal" text-decoration="none" x="45" y="185">SysML, we are</text><text fill="#000000" stroke="none" font-family="Arial" font-size="13px" font-style="normal" font-weight="normal" text-decoration="none" x="45" y="198">mapping our</text><text fill="#000000" stroke="none" font-family="Arial" font-size="13px" font-style="normal" font-weight="normal" text-decoration="none" x="45" y="211">additions to the</text><text fill="#000000" stroke="none" font-family="Arial" font-size="13px" font-style="normal" font-weight="normal" text-decoration="none" x="45" y="224">UML Profile (as</text><text fill="#000000" stroke="none" font-family="Arial" font-size="13px" font-style="normal" font-weight="normal" text-decoration="none" x="45" y="237">shown here).</text></g></g><g transform="translate(2,-6) scale(1,1)"><rect fill="#C0C0C0" stroke="none" x="503" y="327" width="127.4599609375" height="85" opacity="0.2"/></g><g transform="translate(2,-6) scale(1,1)"><rect fill="#ffffff" stroke="none" x="496" y="320" width="127.4599609375" height="85"/></g><g transform="translate(2,-6) scale(1,1)"><path fill="none" stroke="#000000" d="M 496 320 L 623.4599609375 320 L 623.4599609375 405 L 496 405 L 496 320 Z Z" stroke-miterlimit="10"/></g><g transform="translate(2,-6) scale(1,1)"><path fill="none" stroke="#000000" d="M 496 358 L 623.4599609375 358" stroke-miterlimit="10"/></g><g transform="translate(2,-6) scale(1,1)"><path fill="none" stroke="#000000" d="M 496 396 L 623.4599609375 396" stroke-miterlimit="10"/></g><g transform="translate(2,-6) scale(1,1)"><g><path fill="none" stroke="none"/><text fill="#000000" stroke="none" font-family="Arial" font-size="13px" font-style="normal" font-weight="normal" text-decoration="none" x="522.148681640625" y="337.5">«stereotype»</text></g></g><g transform="translate(2,-6) scale(1,1)"><g><path fill="none" stroke="none"/><text fill="#000000" stroke="none" font-family="Arial" font-size="13px" font-style="normal" font-weight="bold" text-decoration="none" x="505.530517578125" y="352.5">design assumption</text></g></g><g transform="translate(2,-6) scale(1,1)"><g><path fill="none" stroke="none"/><text fill="#000000" stroke="none" font-family="Arial" font-size="13px" font-style="normal" font-weight="normal" text-decoration="none" x="501" y="375.5">+id</text></g></g><g transform="translate(2,-6) scale(1,1)"><g><path fill="none" stroke="none"/><text fill="#000000" stroke="none" font-family="Arial" font-size="13px" font-style="normal" font-weight="normal" text-decoration="none" x="501" y="390.5">+text</text></g></g><g transform="translate(2,-6) scale(1,1)"><path fill="none" stroke="#000000" d="M 512 319 L 397 214" stroke-miterlimit="10"/></g><g transform="translate(2,-6) scale(1,1)"><path fill="#000000" stroke="none" d="M 407.3433368220489 217.74371251375513 L 397 214 L 401.66663910167813 223.9610481122565"/></g><g transform="translate(2,-6) scale(1,1)"><path fill="none" stroke="#000000" d="M 407.3433368220489 217.74371251375513 L 397 214 L 401.66663910167813 223.9610481122565 L 407.3433368220489 217.74371251375513" stroke-miterlimit="10"/></g></g></svg>