<svg version="1.1" xmlns="http://www.w3.org/2000/svg" xmlns:xlink="http://www.w3.org/1999/xlink" width="931" height="563"><defs/><g><g transform="translate(-6,2) scale(1,1)"><path fill="none" stroke="#000000" d="M 16 8 L 927 8 L 927 551 L 16 551 L 16 8" stroke-miterlimit="10"/></g><g transform="translate(-6,2) scale(1,1)"><path fill="#ffffff" stroke="none" d="M 16 8 L 16 30 L 172.89892578125 30 L 183.89892578125 19 L 183.89892578125 8 L 16 8"/></g><g transform="translate(-6,2) scale(1,1)"><path fill="none" stroke="#000000" d="M 16 8 L 16 30 L 172.89892578125 30 L 183.89892578125 19 L 183.89892578125 8 L 16 8 L 16 8" stroke-miterlimit="10"/></g><g transform="translate(-6,2) scale(1,1)"><g><path fill="none" stroke="none"/><text fill="#000000" stroke="none" font-family="Arial" font-size="13px" font-style="normal" font-weight="normal" text-decoration="none" x="56.6181640625" y="25.5">Creational Patterns</text></g></g><g transform="translate(-6,2) scale(1,1)"><g><path fill="none" stroke="none"/><text fill="#000000" stroke="none" font-family="Arial" font-size="13px" font-style="normal" font-weight="bold" text-decoration="none" x="21" y="25.5">class</text></g></g><g transform="translate(-6,2) scale(1,1)"><path fill="#C0C0C0" stroke="none" d="M 75 202.5 C 75 191.7304464 116.9582158453125 183 168.71630859375 183 C 220.4744013421875 183 262.4326171875 191.7304464 262.4326171875 202.5 C 262.4326171875 213.2695536 220.4744013421875 222 168.71630859375 222 C 116.9582158453125 222 75 213.2695536 75 202.5 Z" opacity="0.2"/></g><g transform="translate(-6,2) scale(1,1)"><path fill="#ffffff" stroke="none" d="M 68 195.5 C 68 184.7304464 109.9582158453125 176 161.71630859375 176 C 213.4744013421875 176 255.4326171875 184.7304464 255.4326171875 195.5 C 255.4326171875 206.2695536 213.4744013421875 215 161.71630859375 215 C 109.9582158453125 215 68 206.2695536 68 195.5 Z"/></g><g transform="translate(-6,2) scale(1,1)"><path fill="none" stroke="#000000" d="M 68 195.5 C 68 184.7304464 109.9582158453125 176 161.71630859375 176 C 213.4744013421875 176 255.4326171875 184.7304464 255.4326171875 195.5 C 255.4326171875 206.2695536 213.4744013421875 215 161.71630859375 215 C 109.9582158453125 215 68 206.2695536 68 195.5 Z" stroke-miterlimit="10" stroke-dasharray="5"/></g><g transform="translate(-6,2) scale(1,1)"><g><path fill="none" stroke="none"/><text fill="#000000" stroke="none" font-family="Arial" font-size="13px" font-style="normal" font-weight="bold" text-decoration="none" x="118.720458984375" y="195.5">Builder Pattern</text></g></g><g transform="translate(-6,2) scale(1,1)"><path fill="#ffffff" stroke="none" d="M 304 164 L 821 164 L 831 174 L 831 227 L 304 227 L 304 164"/></g><g transform="translate(-6,2) scale(1,1)"><path fill="none" stroke="#000000" d="M 304 164 L 821 164 L 831 174 L 831 227 L 304 227 L 304 164 L 304 164" stroke-miterlimit="10"/></g><g transform="translate(-6,2) scale(1,1)"><path fill="none" stroke="#000000" d="M 821 164 L 821 174 L 831 174 L 821 164" stroke-miterlimit="10"/></g><g transform="translate(-6,2) scale(1,1)"><g><path fill="none" stroke="none"/><text fill="#000000" stroke="none" font-family="Arial" font-size="13px" font-style="normal" font-weight="normal" text-decoration="none" x="309" y="182">{Separate the construction of a complex object from its representation so that the same</text><text fill="#000000" stroke="none" font-family="Arial" font-size="13px" font-style="normal" font-weight="normal" text-decoration="none" x="309" y="195">construction process can create different representations.}</text></g></g><g transform="translate(-6,2) scale(1,1)"><path fill="none" stroke="#000000" d="M 303 195 L 256 195" stroke-miterlimit="10" stroke-dasharray="3"/></g><g transform="translate(-6,2) scale(1,1)"><rect fill="#ffffff" stroke="none" x="16" y="32" width="99" height="22"/></g><g transform="translate(-6,2) scale(1,1)"><path fill="none" stroke="#000000" d="M 16 32 L 115 32 L 115 54 L 16 54 L 16 32 Z Z" stroke-miterlimit="10"/></g><g transform="translate(-6,2) scale(1,1)"><path fill="none" stroke="#000000" d="M 48.39453125 32 L 48.39453125 54" stroke-miterlimit="10"/></g><g transform="translate(-6,2) scale(1,1)"><g><path fill="none" stroke="none"/><text fill="#000000" stroke="none" font-family="Arial" font-size="13px" font-style="normal" font-weight="normal" text-decoration="none" x="52.89453125" y="49.5">GoF1995</text></g></g><g transform="translate(-6,2) scale(1,1)"><g><path fill="none" stroke="none"/><text fill="#000000" stroke="none" font-family="Arial" font-size="13px" font-style="normal" font-weight="bold" text-decoration="none" x="22.444091796875" y="49.5">link</text></g></g><g transform="translate(-6,2) scale(1,1)"><path fill="#C0C0C0" stroke="none" d="M 75 122.5 C 75 111.7304464 116.9582158453125 103 168.71630859375 103 C 220.4744013421875 103 262.4326171875 111.7304464 262.4326171875 122.5 C 262.4326171875 133.2695536 220.4744013421875 142 168.71630859375 142 C 116.9582158453125 142 75 133.2695536 75 122.5 Z" opacity="0.2"/></g><g transform="translate(-6,2) scale(1,1)"><path fill="#ffffff" stroke="none" d="M 68 115.5 C 68 104.7304464 109.9582158453125 96 161.71630859375 96 C 213.4744013421875 96 255.4326171875 104.7304464 255.4326171875 115.5 C 255.4326171875 126.2695536 213.4744013421875 135 161.71630859375 135 C 109.9582158453125 135 68 126.2695536 68 115.5 Z"/></g><g transform="translate(-6,2) scale(1,1)"><path fill="none" stroke="#000000" d="M 68 115.5 C 68 104.7304464 109.9582158453125 96 161.71630859375 96 C 213.4744013421875 96 255.4326171875 104.7304464 255.4326171875 115.5 C 255.4326171875 126.2695536 213.4744013421875 135 161.71630859375 135 C 109.9582158453125 135 68 126.2695536 68 115.5 Z" stroke-miterlimit="10" stroke-dasharray="5"/></g><g transform="translate(-6,2) scale(1,1)"><g><path fill="none" stroke="none"/><text fill="#000000" stroke="none" font-family="Arial" font-size="13px" font-style="normal" font-weight="bold" text-decoration="none" x="91.635009765625" y="115.5">Abstract Factory Pattern</text></g></g><g transform="translate(-6,2) scale(1,1)"><path fill="#ffffff" stroke="none" d="M 304 88 L 821 88 L 831 98 L 831 151 L 304 151 L 304 88"/></g><g transform="translate(-6,2) scale(1,1)"><path fill="none" stroke="#000000" d="M 304 88 L 821 88 L 831 98 L 831 151 L 304 151 L 304 88 L 304 88" stroke-miterlimit="10"/></g><g transform="translate(-6,2) scale(1,1)"><path fill="none" stroke="#000000" d="M 821 88 L 821 98 L 831 98 L 821 88" stroke-miterlimit="10"/></g><g transform="translate(-6,2) scale(1,1)"><g><path fill="none" stroke="none"/><text fill="#000000" stroke="none" font-family="Arial" font-size="13px" font-style="normal" font-weight="normal" text-decoration="none" x="309" y="106">{Provide an interface for creating families of related or dependent objects without</text><text fill="#000000" stroke="none" font-family="Arial" font-size="13px" font-style="normal" font-weight="normal" text-decoration="none" x="309" y="119">specifying their concrete classes.}</text></g></g><g transform="translate(-6,2) scale(1,1)"><path fill="none" stroke="#000000" d="M 303 117 L 256 116" stroke-miterlimit="10" stroke-dasharray="3"/></g><g transform="translate(-6,2) scale(1,1)"><path fill="#C0C0C0" stroke="none" d="M 79 282.5 C 79 271.7304464 119.99053453046875 263 170.554931640625 263 C 221.11932875078125 263 262.10986328125 271.7304464 262.10986328125 282.5 C 262.10986328125 293.2695536 221.11932875078125 302 170.554931640625 302 C 119.99053453046875 302 79 293.2695536 79 282.5 Z" opacity="0.2"/></g><g transform="translate(-6,2) scale(1,1)"><path fill="#ffffff" stroke="none" d="M 72 275.5 C 72 264.7304464 112.99053453046875 256 163.554931640625 256 C 214.11932875078125 256 255.10986328125 264.7304464 255.10986328125 275.5 C 255.10986328125 286.2695536 214.11932875078125 295 163.554931640625 295 C 112.99053453046875 295 72 286.2695536 72 275.5 Z"/></g><g transform="translate(-6,2) scale(1,1)"><path fill="none" stroke="#000000" d="M 72 275.5 C 72 264.7304464 112.99053453046875 256 163.554931640625 256 C 214.11932875078125 256 255.10986328125 264.7304464 255.10986328125 275.5 C 255.10986328125 286.2695536 214.11932875078125 295 163.554931640625 295 C 112.99053453046875 295 72 286.2695536 72 275.5 Z" stroke-miterlimit="10" stroke-dasharray="5"/></g><g transform="translate(-6,2) scale(1,1)"><g><path fill="none" stroke="none"/><text fill="#000000" stroke="none" font-family="Arial" font-size="13px" font-style="normal" font-weight="bold" text-decoration="none" x="95.635009765625" y="275.5">Factory Method Pattern</text></g></g><g transform="translate(-6,2) scale(1,1)"><path fill="#ffffff" stroke="none" d="M 304 248 L 821 248 L 831 258 L 831 295 L 304 295 L 304 248"/></g><g transform="translate(-6,2) scale(1,1)"><path fill="none" stroke="#000000" d="M 304 248 L 821 248 L 831 258 L 831 295 L 304 295 L 304 248 L 304 248" stroke-miterlimit="10"/></g><g transform="translate(-6,2) scale(1,1)"><path fill="none" stroke="#000000" d="M 821 248 L 821 258 L 831 258 L 821 248" stroke-miterlimit="10"/></g><g transform="translate(-6,2) scale(1,1)"><g><path fill="none" stroke="none"/><text fill="#000000" stroke="none" font-family="Arial" font-size="13px" font-style="normal" font-weight="normal" text-decoration="none" x="309" y="266">{Define an interface for creating an object, but let subclasses decide which class to</text><text fill="#000000" stroke="none" font-family="Arial" font-size="13px" font-style="normal" font-weight="normal" text-decoration="none" x="309" y="279">instantiate. Factory Method lets a class defer instantiation to subclasses.}</text></g></g><g transform="translate(-6,2) scale(1,1)"><path fill="none" stroke="#000000" d="M 303 274 L 256 274" stroke-miterlimit="10" stroke-dasharray="3"/></g><g transform="translate(-6,2) scale(1,1)"><path fill="#C0C0C0" stroke="none" d="M 79 354.5 C 79 343.7304464 119.99053453046875 335 170.554931640625 335 C 221.11932875078125 335 262.10986328125 343.7304464 262.10986328125 354.5 C 262.10986328125 365.2695536 221.11932875078125 374 170.554931640625 374 C 119.99053453046875 374 79 365.2695536 79 354.5 Z" opacity="0.2"/></g><g transform="translate(-6,2) scale(1,1)"><path fill="#ffffff" stroke="none" d="M 72 347.5 C 72 336.7304464 112.99053453046875 328 163.554931640625 328 C 214.11932875078125 328 255.10986328125 336.7304464 255.10986328125 347.5 C 255.10986328125 358.2695536 214.11932875078125 367 163.554931640625 367 C 112.99053453046875 367 72 358.2695536 72 347.5 Z"/></g><g transform="translate(-6,2) scale(1,1)"><path fill="none" stroke="#000000" d="M 72 347.5 C 72 336.7304464 112.99053453046875 328 163.554931640625 328 C 214.11932875078125 328 255.10986328125 336.7304464 255.10986328125 347.5 C 255.10986328125 358.2695536 214.11932875078125 367 163.554931640625 367 C 112.99053453046875 367 72 358.2695536 72 347.5 Z" stroke-miterlimit="10" stroke-dasharray="5"/></g><g transform="translate(-6,2) scale(1,1)"><g><path fill="none" stroke="none"/><text fill="#000000" stroke="none" font-family="Arial" font-size="13px" font-style="normal" font-weight="bold" text-decoration="none" x="112.970458984375" y="347.5">Prototype Pattern</text></g></g><g transform="translate(-6,2) scale(1,1)"><path fill="#ffffff" stroke="none" d="M 304 320 L 821 320 L 831 330 L 831 367 L 304 367 L 304 320"/></g><g transform="translate(-6,2) scale(1,1)"><path fill="none" stroke="#000000" d="M 304 320 L 821 320 L 831 330 L 831 367 L 304 367 L 304 320 L 304 320" stroke-miterlimit="10"/></g><g transform="translate(-6,2) scale(1,1)"><path fill="none" stroke="#000000" d="M 821 320 L 821 330 L 831 330 L 821 320" stroke-miterlimit="10"/></g><g transform="translate(-6,2) scale(1,1)"><g><path fill="none" stroke="none"/><text fill="#000000" stroke="none" font-family="Arial" font-size="13px" font-style="normal" font-weight="normal" text-decoration="none" x="309" y="338">{Specify the kinds of objects to create using a prototypical instance, and create new</text><text fill="#000000" stroke="none" font-family="Arial" font-size="13px" font-style="normal" font-weight="normal" text-decoration="none" x="309" y="351">objects by copying this prototype.}</text></g></g><g transform="translate(-6,2) scale(1,1)"><path fill="none" stroke="#000000" d="M 303 346 L 256 346" stroke-miterlimit="10" stroke-dasharray="3"/></g><g transform="translate(-6,2) scale(1,1)"><path fill="#C0C0C0" stroke="none" d="M 79 440.5 C 79 429.7304464 119.99053453046875 421 170.554931640625 421 C 221.11932875078125 421 262.10986328125 429.7304464 262.10986328125 440.5 C 262.10986328125 451.2695536 221.11932875078125 460 170.554931640625 460 C 119.99053453046875 460 79 451.2695536 79 440.5 Z" opacity="0.2"/></g><g transform="translate(-6,2) scale(1,1)"><path fill="#ffffff" stroke="none" d="M 72 433.5 C 72 422.7304464 112.99053453046875 414 163.554931640625 414 C 214.11932875078125 414 255.10986328125 422.7304464 255.10986328125 433.5 C 255.10986328125 444.2695536 214.11932875078125 453 163.554931640625 453 C 112.99053453046875 453 72 444.2695536 72 433.5 Z"/></g><g transform="translate(-6,2) scale(1,1)"><path fill="none" stroke="#000000" d="M 72 433.5 C 72 422.7304464 112.99053453046875 414 163.554931640625 414 C 214.11932875078125 414 255.10986328125 422.7304464 255.10986328125 433.5 C 255.10986328125 444.2695536 214.11932875078125 453 163.554931640625 453 C 112.99053453046875 453 72 444.2695536 72 433.5 Z" stroke-miterlimit="10" stroke-dasharray="5"/></g><g transform="translate(-6,2) scale(1,1)"><g><path fill="none" stroke="none"/><text fill="#000000" stroke="none" font-family="Arial" font-size="13px" font-style="normal" font-weight="bold" text-decoration="none" x="113.687744140625" y="433.5">Singleton Pattern</text></g></g><g transform="translate(-6,2) scale(1,1)"><path fill="#ffffff" stroke="none" d="M 304 408 L 821 408 L 831 418 L 831 455 L 304 455 L 304 408"/></g><g transform="translate(-6,2) scale(1,1)"><path fill="none" stroke="#000000" d="M 304 408 L 821 408 L 831 418 L 831 455 L 304 455 L 304 408 L 304 408" stroke-miterlimit="10"/></g><g transform="translate(-6,2) scale(1,1)"><path fill="none" stroke="#000000" d="M 821 408 L 821 418 L 831 418 L 821 408" stroke-miterlimit="10"/></g><g transform="translate(-6,2) scale(1,1)"><g><path fill="none" stroke="none"/><text fill="#000000" stroke="none" font-family="Arial" font-size="13px" font-style="normal" font-weight="normal" text-decoration="none" x="309" y="426">{Ensure a class only has one instance, and provide a global point of access to it.}</text></g></g><g transform="translate(-6,2) scale(1,1)"><path fill="none" stroke="#000000" d="M 303 433 L 256 433" stroke-miterlimit="10" stroke-dasharray="3"/></g></g></svg>