<svg version="1.1" xmlns="http://www.w3.org/2000/svg" width="931" height="563"><defs/><g><g transform="translate(-6,2) scale(1,1)"><path fill="none" stroke="#000000" d="M 16 8 L 927 8 L 927 551 L 16 551 L 16 8" stroke-miterlimit="10"/></g><g transform="translate(-6,2) scale(1,1)"><path fill="#ffffff" stroke="none" d="M 16 8 L 16 30 L 172.89892578125 30 L 183.89892578125 19 L 183.89892578125 8 L 16 8"/></g><g transform="translate(-6,2) scale(1,1)"><path fill="none" stroke="#000000" d="M 16 8 L 16 30 L 172.89892578125 30 L 183.89892578125 19 L 183.89892578125 8 L 16 8 L 16 8" stroke-miterlimit="10"/></g><g transform="translate(-6,2) scale(1,1)"><g><path fill="none" stroke="none"/><text fill="#000000" stroke="none" font-family="Arial" font-size="13px" font-style="normal" font-weight="normal" text-decoration="none" x="56.6181640625" y="25.5">Creational Patterns</text></g></g><g transform="translate(-6,2) scale(1,1)"><g><path fill="none" stroke="none"/><text fill="#000000" stroke="none" font-family="Arial" font-size="13px" font-style="normal" font-weight="bold" text-decoration="none" x="21" y="25.5">class</text></g></g><g transform="translate(-6,2) scale(1,1)"><path fill="#C0C0C0" stroke="none" d="M 75 202.5 C 75 191.7304464 116.9582158453125 183 168.71630859375 183 C 220.4744013421875 183 262.4326171875 191.7304464 262.4326171875 202.5 C 262.4326171875 213.2695536 220.4744013421875 222 168.71630859375 222 C 116.9582158453125 222 75 213.2695536 75 202.5 Z" opacity="0.2"/></g><g transform="translate(-6,2) scale(1,1)"><path fill="#ffffff" stroke="none" d="M 68 195.5 C 68 184.7304464 109.9582158453125 176 161.71630859375 176 C 213.4744013421875 176 255.4326171875 184.7304464 255.4326171875 195.5 C 255.4326171875 206.2695536 213.4744013421875 215 161.71630859375 215 C 109.9582158453125 215 68 206.2695536 68 195.5 Z"/></g><g transform="translate(-6,2) scale(1,1)"><path fill="none" stroke="#000000" d="M 68 195.5 C 68 184.7304464 109.9582158453125 176 161.71630859375 176 C 213.4744013421875 176 255.4326171875 184.7304464 255.4326171875 195.5 C 255.4326171875 206.2695536 213.4744013421875 215 161.71630859375 215 C 109.9582158453125 215 68 206.2695536 68 195.5 Z" stroke-miterlimit="10" stroke-dasharray="5"/></g><g transform="translate(-6,2) scale(1,1)"><g><path fill="none" stroke="none"/><text fill="#000000" stroke="none" font-family="Arial" font-size="13px" font-style="normal" font-weight="bold" text-decoration="none" x="118.720458984375" y="195.5">Builder Pattern</text></g></g><g transform="translate(-6,2) scale(1,1)"><path fill="#ffffff" stroke="none" d="M 304 164 L 821 164 L 831 174 L 831 227 L 304 227 L 304 164"/></g><g transform="translate(-6,2) scale(1,1)"><path fill="none" stroke="#000000" d="M 304 164 L 821 164 L 831 174 L 831 227 L 304 227 L 304 164 L 304 164" stroke-miterlimit="10"/></g><g transform="translate(-6,2) scale(1,1)"><path fill="none" stroke="#000000" d="M 821 164 L 821 174 L 831 174 L 821 164" stroke-miterlimit="10"/></g><g transform="translate(-6,2) scale(1,1)"><g><path fill="none" stroke="none"/><text fill="#000000" stroke="none" font-family="Arial" font-size="13px" font-style="normal" font-weight="normal" text-decoration="none" x="309" y="182">{Separates the construction of a complex object from its representation so that the same</text><text fill="#000000" stroke="none" font-family="Arial" font-size="13px" font-style="normal" font-weight="normal" text-decoration="none" x="309" y="195">construction process can create different representations.}</text></g></g><g transform="translate(-6,2) scale(1,1)"><path fill="none" stroke="#000000" d="M 303 195 L 256 195" stroke-miterlimit="10" stroke-dasharray="3"/></g><g transform="translate(-6,2) scale(1,1)"><rect fill="#ffffff" stroke="none" x="16" y="32" width="99" height="22"/></g><g transform="translate(-6,2) scale(1,1)"><path fill="none" stroke="#000000" d="M 16 32 L 115 32 L 115 54 L 16 54 L 16 32 Z Z" stroke-miterlimit="10"/></g><g transform="translate(-6,2) scale(1,1)"><path fill="none" stroke="#000000" d="M 48.39453125 32 L 48.39453125 54" stroke-miterlimit="10"/></g><g transform="translate(-6,2) scale(1,1)"><g><path fill="none" stroke="none"/><text fill="#000000" stroke="none" font-family="Arial" font-size="13px" font-style="normal" font-weight="normal" text-decoration="none" x="52.89453125" y="49.5">GoF1995</text></g></g><g transform="translate(-6,2) scale(1,1)"><g><path fill="none" stroke="none"/><text fill="#000000" stroke="none" font-family="Arial" font-size="13px" font-style="normal" font-weight="bold" text-decoration="none" x="22.444091796875" y="49.5">link</text></g></g><g transform="translate(-6,2) scale(1,1)"><path fill="#C0C0C0" stroke="none" d="M 75 282.5 C 75 271.7304464 116.9582158453125 263 168.71630859375 263 C 220.4744013421875 263 262.4326171875 271.7304464 262.4326171875 282.5 C 262.4326171875 293.2695536 220.4744013421875 302 168.71630859375 302 C 116.9582158453125 302 75 293.2695536 75 282.5 Z" opacity="0.2"/></g><g transform="translate(-6,2) scale(1,1)"><path fill="#ffffff" stroke="none" d="M 68 275.5 C 68 264.7304464 109.9582158453125 256 161.71630859375 256 C 213.4744013421875 256 255.4326171875 264.7304464 255.4326171875 275.5 C 255.4326171875 286.2695536 213.4744013421875 295 161.71630859375 295 C 109.9582158453125 295 68 286.2695536 68 275.5 Z"/></g><g transform="translate(-6,2) scale(1,1)"><path fill="none" stroke="#000000" d="M 68 275.5 C 68 264.7304464 109.9582158453125 256 161.71630859375 256 C 213.4744013421875 256 255.4326171875 264.7304464 255.4326171875 275.5 C 255.4326171875 286.2695536 213.4744013421875 295 161.71630859375 295 C 109.9582158453125 295 68 286.2695536 68 275.5 Z" stroke-miterlimit="10" stroke-dasharray="5"/></g><g transform="translate(-6,2) scale(1,1)"><g><path fill="none" stroke="none"/><text fill="#000000" stroke="none" font-family="Arial" font-size="13px" font-style="normal" font-weight="bold" text-decoration="none" x="93.79638671875" y="275.5">Factory Method Pattern</text></g></g><g transform="translate(-6,2) scale(1,1)"><path fill="#C0C0C0" stroke="none" d="M 75 354.5 C 75 343.7304464 116.9582158453125 335 168.71630859375 335 C 220.4744013421875 335 262.4326171875 343.7304464 262.4326171875 354.5 C 262.4326171875 365.2695536 220.4744013421875 374 168.71630859375 374 C 116.9582158453125 374 75 365.2695536 75 354.5 Z" opacity="0.2"/></g><g transform="translate(-6,2) scale(1,1)"><path fill="#ffffff" stroke="none" d="M 68 347.5 C 68 336.7304464 109.9582158453125 328 161.71630859375 328 C 213.4744013421875 328 255.4326171875 336.7304464 255.4326171875 347.5 C 255.4326171875 358.2695536 213.4744013421875 367 161.71630859375 367 C 109.9582158453125 367 68 358.2695536 68 347.5 Z"/></g><g transform="translate(-6,2) scale(1,1)"><path fill="none" stroke="#000000" d="M 68 347.5 C 68 336.7304464 109.9582158453125 328 161.71630859375 328 C 213.4744013421875 328 255.4326171875 336.7304464 255.4326171875 347.5 C 255.4326171875 358.2695536 213.4744013421875 367 161.71630859375 367 C 109.9582158453125 367 68 358.2695536 68 347.5 Z" stroke-miterlimit="10" stroke-dasharray="5"/></g><g transform="translate(-6,2) scale(1,1)"><g><path fill="none" stroke="none"/><text fill="#000000" stroke="none" font-family="Arial" font-size="13px" font-style="normal" font-weight="bold" text-decoration="none" x="111.1318359375" y="347.5">Prototype Pattern</text></g></g><g transform="translate(-6,2) scale(1,1)"><path fill="#C0C0C0" stroke="none" d="M 75 434.5 C 75 423.7304464 116.9582158453125 415 168.71630859375 415 C 220.4744013421875 415 262.4326171875 423.7304464 262.4326171875 434.5 C 262.4326171875 445.2695536 220.4744013421875 454 168.71630859375 454 C 116.9582158453125 454 75 445.2695536 75 434.5 Z" opacity="0.2"/></g><g transform="translate(-6,2) scale(1,1)"><path fill="#ffffff" stroke="none" d="M 68 427.5 C 68 416.7304464 109.9582158453125 408 161.71630859375 408 C 213.4744013421875 408 255.4326171875 416.7304464 255.4326171875 427.5 C 255.4326171875 438.2695536 213.4744013421875 447 161.71630859375 447 C 109.9582158453125 447 68 438.2695536 68 427.5 Z"/></g><g transform="translate(-6,2) scale(1,1)"><path fill="none" stroke="#000000" d="M 68 427.5 C 68 416.7304464 109.9582158453125 408 161.71630859375 408 C 213.4744013421875 408 255.4326171875 416.7304464 255.4326171875 427.5 C 255.4326171875 438.2695536 213.4744013421875 447 161.71630859375 447 C 109.9582158453125 447 68 438.2695536 68 427.5 Z" stroke-miterlimit="10" stroke-dasharray="5"/></g><g transform="translate(-6,2) scale(1,1)"><g><path fill="none" stroke="none"/><text fill="#000000" stroke="none" font-family="Arial" font-size="13px" font-style="normal" font-weight="bold" text-decoration="none" x="111.84912109375" y="427.5">Singleton Pattern</text></g></g><g transform="translate(-6,2) scale(1,1)"><path fill="#ffffff" stroke="none" d="M 304 240 L 821 240 L 831 250 L 831 303 L 304 303 L 304 240"/></g><g transform="translate(-6,2) scale(1,1)"><path fill="none" stroke="#000000" d="M 304 240 L 821 240 L 831 250 L 831 303 L 304 303 L 304 240 L 304 240" stroke-miterlimit="10"/></g><g transform="translate(-6,2) scale(1,1)"><path fill="none" stroke="#000000" d="M 821 240 L 821 250 L 831 250 L 821 240" stroke-miterlimit="10"/></g><g transform="translate(-6,2) scale(1,1)"><g><path fill="none" stroke="none"/><text fill="#000000" stroke="none" font-family="Arial" font-size="13px" font-style="normal" font-weight="normal" text-decoration="none" x="309" y="258">{Define an interface for creating an object, but let subclasses decide which class to</text><text fill="#000000" stroke="none" font-family="Arial" font-size="13px" font-style="normal" font-weight="normal" text-decoration="none" x="309" y="271">instantiate. Factory Method lets a class defer instantiation to subclasses.}</text></g></g><g transform="translate(-6,2) scale(1,1)"><path fill="none" stroke="#000000" d="M 303 274 L 256 274" stroke-miterlimit="10" stroke-dasharray="3"/></g><g transform="translate(-6,2) scale(1,1)"><path fill="#ffffff" stroke="none" d="M 304 316 L 821 316 L 831 326 L 831 379 L 304 379 L 304 316"/></g><g transform="translate(-6,2) scale(1,1)"><path fill="none" stroke="#000000" d="M 304 316 L 821 316 L 831 326 L 831 379 L 304 379 L 304 316 L 304 316" stroke-miterlimit="10"/></g><g transform="translate(-6,2) scale(1,1)"><path fill="none" stroke="#000000" d="M 821 316 L 821 326 L 831 326 L 821 316" stroke-miterlimit="10"/></g><g transform="translate(-6,2) scale(1,1)"><g><path fill="none" stroke="none"/><text fill="#000000" stroke="none" font-family="Arial" font-size="13px" font-style="normal" font-weight="normal" text-decoration="none" x="309" y="334">{Specify the kinds of objects to create using a prototypical instance, and create new</text><text fill="#000000" stroke="none" font-family="Arial" font-size="13px" font-style="normal" font-weight="normal" text-decoration="none" x="309" y="347">objects by copying this prototype.}</text></g></g><g transform="translate(-6,2) scale(1,1)"><path fill="none" stroke="#000000" d="M 303 347 L 256 347" stroke-miterlimit="10" stroke-dasharray="3"/></g><g transform="translate(-6,2) scale(1,1)"><path fill="#ffffff" stroke="none" d="M 304 392 L 821 392 L 831 402 L 831 455 L 304 455 L 304 392"/></g><g transform="translate(-6,2) scale(1,1)"><path fill="none" stroke="#000000" d="M 304 392 L 821 392 L 831 402 L 831 455 L 304 455 L 304 392 L 304 392" stroke-miterlimit="10"/></g><g transform="translate(-6,2) scale(1,1)"><path fill="none" stroke="#000000" d="M 821 392 L 821 402 L 831 402 L 821 392" stroke-miterlimit="10"/></g><g transform="translate(-6,2) scale(1,1)"><g><path fill="none" stroke="none"/><text fill="#000000" stroke="none" font-family="Arial" font-size="13px" font-style="normal" font-weight="normal" text-decoration="none" x="309" y="410">{Ensure a class only has one instance, and provide a global point of access to it.}</text></g></g><g transform="translate(-6,2) scale(1,1)"><path fill="none" stroke="#000000" d="M 303 426 L 256 426" stroke-miterlimit="10" stroke-dasharray="3"/></g><g transform="translate(-6,2) scale(1,1)"><path fill="#C0C0C0" stroke="none" d="M 75 122.5 C 75 111.7304464 116.9582158453125 103 168.71630859375 103 C 220.4744013421875 103 262.4326171875 111.7304464 262.4326171875 122.5 C 262.4326171875 133.2695536 220.4744013421875 142 168.71630859375 142 C 116.9582158453125 142 75 133.2695536 75 122.5 Z" opacity="0.2"/></g><g transform="translate(-6,2) scale(1,1)"><path fill="#ffffff" stroke="none" d="M 68 115.5 C 68 104.7304464 109.9582158453125 96 161.71630859375 96 C 213.4744013421875 96 255.4326171875 104.7304464 255.4326171875 115.5 C 255.4326171875 126.2695536 213.4744013421875 135 161.71630859375 135 C 109.9582158453125 135 68 126.2695536 68 115.5 Z"/></g><g transform="translate(-6,2) scale(1,1)"><path fill="none" stroke="#000000" d="M 68 115.5 C 68 104.7304464 109.9582158453125 96 161.71630859375 96 C 213.4744013421875 96 255.4326171875 104.7304464 255.4326171875 115.5 C 255.4326171875 126.2695536 213.4744013421875 135 161.71630859375 135 C 109.9582158453125 135 68 126.2695536 68 115.5 Z" stroke-miterlimit="10" stroke-dasharray="5"/></g><g transform="translate(-6,2) scale(1,1)"><g><path fill="none" stroke="none"/><text fill="#000000" stroke="none" font-family="Arial" font-size="13px" font-style="normal" font-weight="bold" text-decoration="none" x="91.635009765625" y="115.5">Abstract Factory Pattern</text></g></g><g transform="translate(-6,2) scale(1,1)"><path fill="#ffffff" stroke="none" d="M 304 88 L 821 88 L 831 98 L 831 151 L 304 151 L 304 88"/></g><g transform="translate(-6,2) scale(1,1)"><path fill="none" stroke="#000000" d="M 304 88 L 821 88 L 831 98 L 831 151 L 304 151 L 304 88 L 304 88" stroke-miterlimit="10"/></g><g transform="translate(-6,2) scale(1,1)"><path fill="none" stroke="#000000" d="M 821 88 L 821 98 L 831 98 L 821 88" stroke-miterlimit="10"/></g><g transform="translate(-6,2) scale(1,1)"><g><path fill="none" stroke="none"/><text fill="#000000" stroke="none" font-family="Arial" font-size="13px" font-style="normal" font-weight="normal" text-decoration="none" x="309" y="106">{Provides an interface for creating families of related or dependent objects without</text><text fill="#000000" stroke="none" font-family="Arial" font-size="13px" font-style="normal" font-weight="normal" text-decoration="none" x="309" y="119">specifying their concrete classes.}</text></g></g><g transform="translate(-6,2) scale(1,1)"><path fill="none" stroke="#000000" d="M 303 117 L 256 116" stroke-miterlimit="10" stroke-dasharray="3"/></g></g></svg>