<svg version="1.1" xmlns="http://www.w3.org/2000/svg" xmlns:xlink="http://www.w3.org/1999/xlink" width="780" height="612"><defs/><g><g transform="translate(2,2) scale(1,1)"><path fill="none" stroke="#000000" d="M 8 8 L 768 8 L 768 600 L 8 600 L 8 8" stroke-miterlimit="10"/></g><g transform="translate(2,2) scale(1,1)"><path fill="#ffffff" stroke="none" d="M 8 8 L 8 30 L 195.96435546875 30 L 206.96435546875 19 L 206.96435546875 8 L 8 8"/></g><g transform="translate(2,2) scale(1,1)"><path fill="none" stroke="#000000" d="M 8 8 L 8 30 L 195.96435546875 30 L 206.96435546875 19 L 206.96435546875 8 L 8 8 L 8 8" stroke-miterlimit="10"/></g><g transform="translate(2,2) scale(1,1)"><g><path fill="none" stroke="none"/><text fill="#000000" stroke="none" font-family="Arial" font-size="13px" font-style="normal" font-weight="normal" text-decoration="none" x="48.6181640625" y="25.5">Builder Pattern Structure</text></g></g><g transform="translate(2,2) scale(1,1)"><g><path fill="none" stroke="none"/><text fill="#000000" stroke="none" font-family="Arial" font-size="13px" font-style="normal" font-weight="bold" text-decoration="none" x="13" y="25.5">class</text></g></g><g transform="translate(2,2) scale(1,1)"><rect fill="#C0C0C0" stroke="none" x="535" y="391" width="58.11181640625" height="24" opacity="0.2"/></g><g transform="translate(2,2) scale(1,1)"><rect fill="#ffffff" stroke="none" x="528" y="384" width="58.11181640625" height="24"/></g><g transform="translate(2,2) scale(1,1)"><path fill="none" stroke="#000000" d="M 528 384 L 586.11181640625 384 L 586.11181640625 408 L 528 408 L 528 384 Z Z" stroke-miterlimit="10"/></g><g transform="translate(2,2) scale(1,1)"><g><path fill="none" stroke="none"/><text fill="#000000" stroke="none" font-family="Arial" font-size="13px" font-style="normal" font-weight="bold" text-decoration="none" x="534.655029296875" y="403.5">Product</text></g></g><g transform="translate(2,2) scale(1,1)"><rect fill="#C0C0C0" stroke="none" x="55" y="235" width="80.880859375" height="47" opacity="0.2"/></g><g transform="translate(2,2) scale(1,1)"><rect fill="#ffffff" stroke="none" x="48" y="228" width="80.880859375" height="47"/></g><g transform="translate(2,2) scale(1,1)"><path fill="none" stroke="#000000" d="M 48 228 L 128.880859375 228 L 128.880859375 275 L 48 275 L 48 228 Z Z" stroke-miterlimit="10"/></g><g transform="translate(2,2) scale(1,1)"><path fill="none" stroke="#000000" d="M 48 253 L 128.880859375 253" stroke-miterlimit="10"/></g><g transform="translate(2,2) scale(1,1)"><g><path fill="none" stroke="none"/><text fill="#000000" stroke="none" font-family="Arial" font-size="13px" font-style="normal" font-weight="bold" text-decoration="none" x="65.687255859375" y="247.5">Director</text></g></g><g transform="translate(2,2) scale(1,1)"><g><path fill="none" stroke="none"/><text fill="#000000" stroke="none" font-family="Arial" font-size="13px" font-style="normal" font-weight="normal" text-decoration="none" x="53" y="270.5">+construct()</text></g></g><g transform="translate(2,2) scale(1,1)"><rect fill="#C0C0C0" stroke="none" x="294" y="357" width="132.1953125" height="92" opacity="0.2"/></g><g transform="translate(2,2) scale(1,1)"><rect fill="#ffffff" stroke="none" x="287" y="350" width="132.1953125" height="92"/></g><g transform="translate(2,2) scale(1,1)"><path fill="none" stroke="#000000" d="M 287 350 L 419.1953125 350 L 419.1953125 442 L 287 442 L 287 350 Z Z" stroke-miterlimit="10"/></g><g transform="translate(2,2) scale(1,1)"><path fill="none" stroke="#000000" d="M 287 375 L 419.1953125 375" stroke-miterlimit="10"/></g><g transform="translate(2,2) scale(1,1)"><g><path fill="none" stroke="none"/><text fill="#000000" stroke="none" font-family="Arial" font-size="13px" font-style="normal" font-weight="bold" text-decoration="none" x="306.489990234375" y="369.5">ConcreteBuilder</text></g></g><g transform="translate(2,2) scale(1,1)"><g><path fill="none" stroke="none"/><text fill="#000000" stroke="none" font-family="Arial" font-size="13px" font-style="normal" font-weight="normal" text-decoration="none" x="292" y="392.5">+buildPartA()</text></g></g><g transform="translate(2,2) scale(1,1)"><g><path fill="none" stroke="none"/><text fill="#000000" stroke="none" font-family="Arial" font-size="13px" font-style="normal" font-weight="normal" text-decoration="none" x="292" y="407.5">+buildPartB()</text></g></g><g transform="translate(2,2) scale(1,1)"><g><path fill="none" stroke="none"/><text fill="#000000" stroke="none" font-family="Arial" font-size="13px" font-style="normal" font-weight="normal" text-decoration="none" x="292" y="422.5">+buildPartC()</text></g></g><g transform="translate(2,2) scale(1,1)"><g><path fill="none" stroke="none"/><text fill="#000000" stroke="none" font-family="Arial" font-size="13px" font-style="normal" font-weight="normal" text-decoration="none" x="292" y="437.5">+getResult(): Product</text></g></g><g transform="translate(2,2) scale(1,1)"><path fill="none" stroke="#000000" d="M 420 396 L 527 396" stroke-miterlimit="10" stroke-dasharray="3"/></g><g transform="translate(2,2) scale(1,1)"><path fill="none" stroke="#000000" d="M 516.8373251423759 400.209517756016 L 527 396 L 516.8373251423758 391.790482243984" stroke-miterlimit="10"/></g><g transform="translate(2,2) scale(1,1)"><rect fill="#C0C0C0" stroke="none" x="311" y="213" width="89.57080078125" height="90" opacity="0.2"/></g><g transform="translate(2,2) scale(1,1)"><rect fill="#ffffff" stroke="none" x="304" y="206" width="89.57080078125" height="90"/></g><g transform="translate(2,2) scale(1,1)"><path fill="none" stroke="#000000" d="M 304 206 L 393.57080078125 206 L 393.57080078125 296 L 304 296 L 304 206 Z Z" stroke-miterlimit="10"/></g><g transform="translate(2,2) scale(1,1)"><path fill="none" stroke="#000000" d="M 304 244 L 393.57080078125 244" stroke-miterlimit="10"/></g><g transform="translate(2,2) scale(1,1)"><g><path fill="none" stroke="none"/><text fill="#000000" stroke="none" font-family="Arial" font-size="13px" font-style="normal" font-weight="normal" text-decoration="none" x="316.625" y="223.5">«interface»</text></g></g><g transform="translate(2,2) scale(1,1)"><g><path fill="none" stroke="none"/><text fill="#000000" stroke="none" font-family="Arial" font-size="13px" font-style="normal" font-weight="bold" text-decoration="none" x="328.55224609375" y="238.5">Builder</text></g></g><g transform="translate(2,2) scale(1,1)"><g><path fill="none" stroke="none"/><text fill="#000000" stroke="none" font-family="Arial" font-size="13px" font-style="italic" font-weight="normal" text-decoration="none" x="309" y="261.5">+buildPartA()</text></g></g><g transform="translate(2,2) scale(1,1)"><g><path fill="none" stroke="none"/><text fill="#000000" stroke="none" font-family="Arial" font-size="13px" font-style="italic" font-weight="normal" text-decoration="none" x="309" y="276.5">+buildPartB()</text></g></g><g transform="translate(2,2) scale(1,1)"><g><path fill="none" stroke="none"/><text fill="#000000" stroke="none" font-family="Arial" font-size="13px" font-style="italic" font-weight="normal" text-decoration="none" x="309" y="291.5">+buildPartC()</text></g></g><g transform="translate(2,2) scale(1,1)"><path fill="none" stroke="#000000" d="M 351 349 L 350 297" stroke-miterlimit="10" stroke-dasharray="3"/></g><g transform="translate(2,2) scale(1,1)"><path fill="#FFFFFF" stroke="none" d="M 358.80827902268055 317.1597177722955 L 350 297 L 341.97332068392353 317.4834669711177"/></g><g transform="translate(2,2) scale(1,1)"><path fill="none" stroke="#000000" d="M 358.80827902268055 317.1597177722955 L 350 297 L 341.97332068392353 317.4834669711177 L 358.80827902268055 317.1597177722955" stroke-miterlimit="10"/></g><g transform="translate(2,2) scale(1,1)"><path fill="none" stroke="#000000" d="M 303 251 L 130 251" stroke-miterlimit="10"/></g><g transform="translate(2,2) scale(1,1)"><path fill="#FFFFFF" stroke="none" d="M 140.16267485762415 246.790482243984 L 130 251 L 140.16267485762415 255.209517756016 L 152 251"/></g><g transform="translate(2,2) scale(1,1)"><path fill="none" stroke="#000000" d="M 140.16267485762415 246.790482243984 L 130 251 L 140.16267485762415 255.209517756016 L 152 251 L 140.16267485762415 246.790482243984" stroke-miterlimit="10"/></g><g transform="translate(2,2) scale(1,1)"><g><path fill="none" stroke="none"/><text fill="#000000" stroke="none" font-family="Arial" font-size="13px" font-style="normal" font-weight="normal" text-decoration="none" x="191.5" y="272.5">+builder</text></g></g><g transform="translate(2,2) scale(1,1)"><rect fill="#ffffff" stroke="none" x="8" y="32" width="99" height="22"/></g><g transform="translate(2,2) scale(1,1)"><path fill="none" stroke="#000000" d="M 8 32 L 107 32 L 107 54 L 8 54 L 8 32 Z Z" stroke-miterlimit="10"/></g><g transform="translate(2,2) scale(1,1)"><path fill="none" stroke="#000000" d="M 40.39453125 32 L 40.39453125 54" stroke-miterlimit="10"/></g><g transform="translate(2,2) scale(1,1)"><g><path fill="none" stroke="none"/><text fill="#000000" stroke="none" font-family="Arial" font-size="13px" font-style="normal" font-weight="normal" text-decoration="none" x="44.89453125" y="49.5">GoF1995</text></g></g><g transform="translate(2,2) scale(1,1)"><g><path fill="none" stroke="none"/><text fill="#000000" stroke="none" font-family="Arial" font-size="13px" font-style="normal" font-weight="bold" text-decoration="none" x="14.444091796875" y="49.5">link</text></g></g><g transform="translate(2,2) scale(1,1)"><path fill="#C0C0C0" stroke="none" d="M 223 560 C 223 550.6111584 282.5461216 543 356 543 C 429.4538784 543 489 550.6111584 489 560 C 489 569.3888416 429.4538784 577 356 577 C 282.5461216 577 223 569.3888416 223 560 Z" opacity="0.2"/></g><g transform="translate(2,2) scale(1,1)"><path fill="#e2e2e2" stroke="none" d="M 216 553 C 216 543.6111584 275.5461216 536 349 536 C 422.4538784 536 482 543.6111584 482 553 C 482 562.3888416 422.4538784 570 349 570 C 275.5461216 570 216 562.3888416 216 553 Z"/></g><g transform="translate(2,2) scale(1,1)"><path fill="none" stroke="#000000" d="M 216 553 C 216 543.6111584 275.5461216 536 349 536 C 422.4538784 536 482 543.6111584 482 553 C 482 562.3888416 422.4538784 570 349 570 C 275.5461216 570 216 562.3888416 216 553 Z" stroke-miterlimit="10" stroke-dasharray="5"/></g><g transform="translate(2,2) scale(1,1)"><g><path fill="none" stroke="none"/><text fill="#000000" stroke="none" font-family="Arial" font-size="13px" font-style="normal" font-weight="bold" text-decoration="none" x="265.537841796875" y="560">example use: Builder Pattern</text></g></g><g transform="translate(2,2) scale(1,1)"><rect fill="#C0C0C0" stroke="none" x="543" y="95" width="45.11181640625" height="24" opacity="0.2"/></g><g transform="translate(2,2) scale(1,1)"><rect fill="#ffffff" stroke="none" x="536" y="88" width="45.11181640625" height="24"/></g><g transform="translate(2,2) scale(1,1)"><path fill="none" stroke="#000000" d="M 536 88 L 581.11181640625 88 L 581.11181640625 112 L 536 112 L 536 88 Z Z" stroke-miterlimit="10"/></g><g transform="translate(2,2) scale(1,1)"><g><path fill="none" stroke="none"/><text fill="#000000" stroke="none" font-family="Arial" font-size="13px" font-style="normal" font-weight="bold" text-decoration="none" x="541.937744140625" y="107.5">Client</text></g></g><g transform="translate(2,2) scale(1,1)"><path fill="none" stroke="#000000" d="M 535 107 L 130 238" stroke-miterlimit="10" stroke-dasharray="3"/></g><g transform="translate(2,2) scale(1,1)"><path fill="none" stroke="#000000" d="M 138.37391527518116 230.8671504316937 L 130 238 L 140.96493857509515 238.8775659772293" stroke-miterlimit="10"/></g><g transform="translate(2,2) scale(1,1)"><g><path fill="none" stroke="none"/><text fill="#000000" stroke="none" font-family="Arial" font-size="13px" font-style="normal" font-weight="normal" text-decoration="none" x="310.5" y="192.5">+creates</text></g></g><g transform="translate(2,2) scale(1,1)"><path fill="none" stroke="#000000" d="M 549 113 L 386 349" stroke-miterlimit="10" stroke-dasharray="3"/></g><g transform="translate(2,2) scale(1,1)"><path fill="none" stroke="#000000" d="M 388.31180769262596 338.24567318739497 L 386 349 L 395.2391523125444 343.0302374799657" stroke-miterlimit="10"/></g><g transform="translate(2,2) scale(1,1)"><g><path fill="none" stroke="none"/><text fill="#000000" stroke="none" font-family="Arial" font-size="13px" font-style="normal" font-weight="normal" text-decoration="none" x="453.5" y="245.5">+creates</text></g></g><g transform="translate(2,2) scale(1,1)"><path fill="none" stroke="#000000" d="M 558 113 L 557 383" stroke-miterlimit="10" stroke-dasharray="3"/></g><g transform="translate(2,2) scale(1,1)"><path fill="none" stroke="#000000" d="M 552.8281503939046 372.8218041449321 L 557 383 L 561.2471281628028 372.85298554407615" stroke-miterlimit="10"/></g><g transform="translate(2,2) scale(1,1)"><g><path fill="none" stroke="none"/><text fill="#000000" stroke="none" font-family="Arial" font-size="13px" font-style="normal" font-weight="normal" text-decoration="none" x="554.5" y="253.5">+uses</text></g></g></g></svg>