<svg version="1.1" xmlns="http://www.w3.org/2000/svg" width="612" height="427"><defs/><g><g transform="translate(-22,-14) scale(1,1)"><path fill="none" stroke="#000000" d="M 32 24 L 624 24 L 624 431 L 32 431 L 32 24" stroke-miterlimit="10"/></g><g transform="translate(-22,-14) scale(1,1)"><path fill="#ffffff" stroke="none" d="M 32 24 L 32 46 L 298.71337890625 46 L 309.71337890625 35 L 309.71337890625 24 L 32 24"/></g><g transform="translate(-22,-14) scale(1,1)"><path fill="none" stroke="#000000" d="M 32 24 L 32 46 L 298.71337890625 46 L 309.71337890625 35 L 309.71337890625 24 L 32 24 L 32 24" stroke-miterlimit="10"/></g><g transform="translate(-22,-14) scale(1,1)"><g><path fill="none" stroke="none"/><text fill="#000000" stroke="none" font-family="Arial" font-size="13px" font-style="normal" font-weight="normal" text-decoration="none" x="72.6181640625" y="41.5">UndirectedGraph Constraints Diagram</text></g></g><g transform="translate(-22,-14) scale(1,1)"><g><path fill="none" stroke="none"/><text fill="#000000" stroke="none" font-family="Arial" font-size="13px" font-style="normal" font-weight="bold" text-decoration="none" x="37" y="41.5">class</text></g></g><g transform="translate(-22,-14) scale(1,1)"><path fill="#C0C0C0" stroke="none" d="M 151.25634765625 106.5 C 151.25634765625 100.1487248 156.40507245625 95 162.75634765625 95 C 169.10762285625 95 174.25634765625 100.1487248 174.25634765625 106.5 C 174.25634765625 112.8512752 169.10762285625 118 162.75634765625 118 C 156.40507245625 118 151.25634765625 112.8512752 151.25634765625 106.5 Z" opacity="0.2"/></g><g transform="translate(-22,-14) scale(1,1)"><path fill="#ffffff" stroke="none" d="M 144.25634765625 99.5 C 144.25634765625 93.1487248 149.40507245625 88 155.75634765625 88 C 162.10762285625 88 167.25634765625 93.1487248 167.25634765625 99.5 C 167.25634765625 105.8512752 162.10762285625 111 155.75634765625 111 C 149.40507245625 111 144.25634765625 105.8512752 144.25634765625 99.5 Z"/></g><g transform="translate(-22,-14) scale(1,1)"><path fill="none" stroke="#000000" d="M 144.25634765625 99.5 C 144.25634765625 93.1487248 149.40507245625 88 155.75634765625 88 C 162.10762285625 88 167.25634765625 93.1487248 167.25634765625 99.5 C 167.25634765625 105.8512752 162.10762285625 111 155.75634765625 111 C 149.40507245625 111 144.25634765625 105.8512752 144.25634765625 99.5 Z" stroke-miterlimit="10"/></g><g transform="translate(-22,-14) scale(1,1)"><g><path fill="none" stroke="none"/><text fill="#000000" stroke="none" font-family="Arial" font-size="13px" font-style="normal" font-weight="bold" text-decoration="none" x="104.81640625" y="130.5">GraphConstraints</text></g></g><g transform="translate(-22,-14) scale(1,1)"><path fill="#C0C0C0" stroke="none" d="M 153.206787109375 250.5 C 153.206787109375 244.1487248 158.355511909375 239 164.706787109375 239 C 171.058062309375 239 176.206787109375 244.1487248 176.206787109375 250.5 C 176.206787109375 256.8512752 171.058062309375 262 164.706787109375 262 C 158.355511909375 262 153.206787109375 256.8512752 153.206787109375 250.5 Z" opacity="0.2"/></g><g transform="translate(-22,-14) scale(1,1)"><path fill="#ffffff" stroke="none" d="M 146.206787109375 243.5 C 146.206787109375 237.1487248 151.355511909375 232 157.706787109375 232 C 164.058062309375 232 169.206787109375 237.1487248 169.206787109375 243.5 C 169.206787109375 249.8512752 164.058062309375 255 157.706787109375 255 C 151.355511909375 255 146.206787109375 249.8512752 146.206787109375 243.5 Z"/></g><g transform="translate(-22,-14) scale(1,1)"><path fill="none" stroke="#000000" d="M 146.206787109375 243.5 C 146.206787109375 237.1487248 151.355511909375 232 157.706787109375 232 C 164.058062309375 232 169.206787109375 237.1487248 169.206787109375 243.5 C 169.206787109375 249.8512752 164.058062309375 255 157.706787109375 255 C 151.355511909375 255 146.206787109375 249.8512752 146.206787109375 243.5 Z" stroke-miterlimit="10"/></g><g transform="translate(-22,-14) scale(1,1)"><g><path fill="none" stroke="none"/><text fill="#000000" stroke="none" font-family="Arial" font-size="13px" font-style="normal" font-weight="bold" text-decoration="none" x="75.333251953125" y="274.5">UndirectedGraphConstraints</text></g></g><g transform="translate(-22,-14) scale(1,1)"><path fill="#ffffff" stroke="none" d="M 288 264 L 573 264 L 583 274 L 583 356 L 288 356 L 288 264"/></g><g transform="translate(-22,-14) scale(1,1)"><path fill="none" stroke="#000000" d="M 288 264 L 573 264 L 583 274 L 583 356 L 288 356 L 288 264 L 288 264" stroke-miterlimit="10"/></g><g transform="translate(-22,-14) scale(1,1)"><path fill="none" stroke="#000000" d="M 573 264 L 573 274 L 583 274 L 573 264" stroke-miterlimit="10"/></g><g transform="translate(-22,-14) scale(1,1)"><g><path fill="none" stroke="none"/><text fill="#000000" stroke="none" font-family="Arial" font-size="13px" font-style="normal" font-weight="normal" text-decoration="none" x="293" y="282">{The 'next vertices' of vertex 'v' are all</text></g></g><g transform="translate(-22,-14) scale(1,1)"><g><path fill="none" stroke="none"/><text fill="#000000" stroke="none" font-family="Arial" font-size="13px" font-style="normal" font-weight="normal" text-decoration="none" x="293" y="297">vertices 'u' in the edges set E of the graph</text><text fill="#000000" stroke="none" font-family="Arial" font-size="13px" font-style="normal" font-weight="normal" text-decoration="none" x="293" y="310">UG=(V,E), where</text></g></g><g transform="translate(-22,-14) scale(1,1)"><g><path fill="none" stroke="none"/><text fill="#000000" stroke="none" font-family="Arial" font-size="13px" font-style="normal" font-weight="normal" text-decoration="none" x="293" y="325">an unordered pair exists with {start=v,end=u} or</text><text fill="#000000" stroke="none" font-family="Arial" font-size="13px" font-style="normal" font-weight="normal" text-decoration="none" x="293" y="338">{start=u,end=v}.}</text></g></g><g transform="translate(-22,-14) scale(1,1)"><path fill="none" stroke="#000000" d="M 287 281 L 252 274" stroke-miterlimit="10" stroke-dasharray="3"/></g><g transform="translate(-22,-14) scale(1,1)"><path fill="none" stroke="#000000" d="M 157 231 L 155 137" stroke-miterlimit="10"/></g><g transform="translate(-22,-14) scale(1,1)"><path fill="#FFFFFF" stroke="none" d="M 163.8494869352094 157.14166281575476 L 155 137 L 147.0152258605152 157.49983858330145"/></g><g transform="translate(-22,-14) scale(1,1)"><path fill="none" stroke="#000000" d="M 163.8494869352094 157.14166281575476 L 155 137 L 147.0152258605152 157.49983858330145 L 163.8494869352094 157.14166281575476" stroke-miterlimit="10"/></g><g transform="translate(-22,-14) scale(1,1)"><path fill="#ffffff" stroke="none" d="M 288 112 L 581 112 L 591 122 L 591 212 L 288 212 L 288 112"/></g><g transform="translate(-22,-14) scale(1,1)"><path fill="none" stroke="#000000" d="M 288 112 L 581 112 L 591 122 L 591 212 L 288 212 L 288 112 L 288 112" stroke-miterlimit="10"/></g><g transform="translate(-22,-14) scale(1,1)"><path fill="none" stroke="#000000" d="M 581 112 L 581 122 L 591 122 L 581 112" stroke-miterlimit="10"/></g><g transform="translate(-22,-14) scale(1,1)"><g><path fill="none" stroke="none"/><text fill="#000000" stroke="none" font-family="Arial" font-size="13px" font-style="normal" font-weight="normal" text-decoration="none" x="293" y="130">{A undirected graph is a tuple UG=(V, E).</text></g></g><g transform="translate(-22,-14) scale(1,1)"><g><path fill="none" stroke="none"/><text fill="#000000" stroke="none" font-family="Arial" font-size="13px" font-style="normal" font-weight="normal" text-decoration="none" x="293" y="145">Where V is a set of vertices,</text></g></g><g transform="translate(-22,-14) scale(1,1)"><g><path fill="none" stroke="none"/><text fill="#000000" stroke="none" font-family="Arial" font-size="13px" font-style="normal" font-weight="normal" text-decoration="none" x="293" y="160">and E is a set of edges.</text></g></g><g transform="translate(-22,-14) scale(1,1)"><g><path fill="none" stroke="none"/></g></g><g transform="translate(-22,-14) scale(1,1)"><g><path fill="none" stroke="none"/><text fill="#000000" stroke="none" font-family="Arial" font-size="13px" font-style="normal" font-weight="normal" text-decoration="none" x="293" y="177">An edge is an unordered pair {a,b} where a and b</text><text fill="#000000" stroke="none" font-family="Arial" font-size="13px" font-style="normal" font-weight="normal" text-decoration="none" x="293" y="190">are vertices from the set V.</text></g></g><g transform="translate(-22,-14) scale(1,1)"><g><path fill="none" stroke="none"/></g></g><g transform="translate(-22,-14) scale(1,1)"><g><path fill="none" stroke="none"/><text fill="#000000" stroke="none" font-family="Arial" font-size="13px" font-style="normal" font-weight="normal" text-decoration="none" x="293" y="207">}</text></g></g><g transform="translate(-22,-14) scale(1,1)"><path fill="none" stroke="#000000" d="M 287 213 L 232 231" stroke-miterlimit="10" stroke-dasharray="3"/></g></g></svg>