<svg version="1.1" xmlns="http://www.w3.org/2000/svg" xmlns:xlink="http://www.w3.org/1999/xlink" width="780" height="612"><defs/><g><g transform="translate(2,2) scale(1,1)"><path fill="none" stroke="#000000" d="M 8 8 L 768 8 L 768 600 L 8 600 L 8 8" stroke-miterlimit="10"/></g><g transform="translate(2,2) scale(1,1)"><path fill="#ffffff" stroke="none" d="M 8 8 L 8 30 L 211.1416015625 30 L 222.1416015625 19 L 222.1416015625 8 L 8 8"/></g><g transform="translate(2,2) scale(1,1)"><path fill="none" stroke="#000000" d="M 8 8 L 8 30 L 211.1416015625 30 L 222.1416015625 19 L 222.1416015625 8 L 8 8 L 8 8" stroke-miterlimit="10"/></g><g transform="translate(2,2) scale(1,1)"><g><path fill="none" stroke="none"/><text fill="#000000" stroke="none" font-family="Arial" font-size="13px" font-style="normal" font-weight="normal" text-decoration="none" x="48.6181640625" y="25.5">Prototype Pattern Structure</text></g></g><g transform="translate(2,2) scale(1,1)"><g><path fill="none" stroke="none"/><text fill="#000000" stroke="none" font-family="Arial" font-size="13px" font-style="normal" font-weight="bold" text-decoration="none" x="13" y="25.5">class</text></g></g><g transform="translate(2,2) scale(1,1)"><rect fill="#C0C0C0" stroke="none" x="566" y="383" width="114.4599609375" height="24" opacity="0.2"/></g><g transform="translate(2,2) scale(1,1)"><rect fill="#ffffff" stroke="none" x="559" y="376" width="114.4599609375" height="24"/></g><g transform="translate(2,2) scale(1,1)"><path fill="none" stroke="#000000" d="M 559 376 L 673.4599609375 376 L 673.4599609375 400 L 559 400 L 559 376 Z Z" stroke-miterlimit="10"/></g><g transform="translate(2,2) scale(1,1)"><g><path fill="none" stroke="none"/><text fill="#000000" stroke="none" font-family="Arial" font-size="13px" font-style="normal" font-weight="bold" text-decoration="none" x="567.45458984375" y="395.5">ConcreteProduct</text></g></g><g transform="translate(2,2) scale(1,1)"><rect fill="#C0C0C0" stroke="none" x="151" y="375" width="158.2080078125" height="47" opacity="0.2"/></g><g transform="translate(2,2) scale(1,1)"><rect fill="#ffffff" stroke="none" x="144" y="368" width="158.2080078125" height="47"/></g><g transform="translate(2,2) scale(1,1)"><path fill="none" stroke="#000000" d="M 144 368 L 302.2080078125 368 L 302.2080078125 415 L 144 415 L 144 368 Z Z" stroke-miterlimit="10"/></g><g transform="translate(2,2) scale(1,1)"><path fill="none" stroke="#000000" d="M 144 393 L 302.2080078125 393" stroke-miterlimit="10"/></g><g transform="translate(2,2) scale(1,1)"><g><path fill="none" stroke="none"/><text fill="#000000" stroke="none" font-family="Arial" font-size="13px" font-style="normal" font-weight="bold" text-decoration="none" x="175.055419921875" y="387.5">ConcreteCreator</text></g></g><g transform="translate(2,2) scale(1,1)"><g><path fill="none" stroke="none"/><text fill="#000000" stroke="none" font-family="Arial" font-size="13px" font-style="normal" font-weight="normal" text-decoration="none" x="149" y="410.5">+createProduct(): Product</text></g></g><g transform="translate(2,2) scale(1,1)"><path fill="none" stroke="#000000" d="M 303 390 L 558 388" stroke-miterlimit="10" stroke-dasharray="3"/></g><g transform="translate(2,2) scale(1,1)"><path fill="none" stroke="#000000" d="M 547.8706525155245 392.2890930904739 L 558 388 L 547.8046228953181 383.87031651414696" stroke-miterlimit="10"/></g><g transform="translate(2,2) scale(1,1)"><g><path fill="none" stroke="none"/><text fill="#000000" stroke="none" font-family="Arial" font-size="13px" font-style="normal" font-weight="normal" text-decoration="none" x="403.5" y="380.5">+creates</text></g></g><g transform="translate(2,2) scale(1,1)"><rect fill="#C0C0C0" stroke="none" x="127" y="191" width="205.8916015625" height="60" opacity="0.2"/></g><g transform="translate(2,2) scale(1,1)"><rect fill="#ffffff" stroke="none" x="120" y="184" width="205.8916015625" height="60"/></g><g transform="translate(2,2) scale(1,1)"><path fill="none" stroke="#000000" d="M 120 184 L 325.8916015625 184 L 325.8916015625 244 L 120 244 L 120 184 Z Z" stroke-miterlimit="10"/></g><g transform="translate(2,2) scale(1,1)"><path fill="none" stroke="#000000" d="M 120 222 L 325.8916015625 222" stroke-miterlimit="10"/></g><g transform="translate(2,2) scale(1,1)"><g><path fill="none" stroke="none"/><text fill="#000000" stroke="none" font-family="Arial" font-size="13px" font-style="normal" font-weight="normal" text-decoration="none" x="190.785400390625" y="201.5">«interface»</text></g></g><g transform="translate(2,2) scale(1,1)"><g><path fill="none" stroke="none"/><text fill="#000000" stroke="none" font-family="Arial" font-size="13px" font-style="normal" font-weight="bold" text-decoration="none" x="201.271728515625" y="216.5">Creator</text></g></g><g transform="translate(2,2) scale(1,1)"><g><path fill="none" stroke="none"/><text fill="#000000" stroke="none" font-family="Arial" font-size="13px" font-style="italic" font-weight="normal" text-decoration="none" x="125" y="239.5">+createProduct(): Product</text></g></g><g transform="translate(2,2) scale(1,1)"><path fill="none" stroke="#000000" d="M 223 367 L 222 245" stroke-miterlimit="10" stroke-dasharray="3"/></g><g transform="translate(2,2) scale(1,1)"><path fill="#FFFFFF" stroke="none" d="M 230.58534833541228 265.25566078802746 L 222 245 L 213.74784292618997 265.3936731274473"/></g><g transform="translate(2,2) scale(1,1)"><path fill="none" stroke="#000000" d="M 230.58534833541228 265.25566078802746 L 222 245 L 213.74784292618997 265.3936731274473 L 230.58534833541228 265.25566078802746" stroke-miterlimit="10"/></g><g transform="translate(2,2) scale(1,1)"><rect fill="#ffffff" stroke="none" x="8" y="32" width="99" height="22"/></g><g transform="translate(2,2) scale(1,1)"><path fill="none" stroke="#000000" d="M 8 32 L 107 32 L 107 54 L 8 54 L 8 32 Z Z" stroke-miterlimit="10"/></g><g transform="translate(2,2) scale(1,1)"><path fill="none" stroke="#000000" d="M 40.39453125 32 L 40.39453125 54" stroke-miterlimit="10"/></g><g transform="translate(2,2) scale(1,1)"><g><path fill="none" stroke="none"/><text fill="#000000" stroke="none" font-family="Arial" font-size="13px" font-style="normal" font-weight="normal" text-decoration="none" x="44.89453125" y="49.5">GoF1995</text></g></g><g transform="translate(2,2) scale(1,1)"><g><path fill="none" stroke="none"/><text fill="#000000" stroke="none" font-family="Arial" font-size="13px" font-style="normal" font-weight="bold" text-decoration="none" x="14.444091796875" y="49.5">link</text></g></g><g transform="translate(2,2) scale(1,1)"><path fill="#C0C0C0" stroke="none" d="M 295 560 C 295 550.6111584 363.0527104 543 447 543 C 530.9472896 543 599 550.6111584 599 560 C 599 569.3888416 530.9472896 577 447 577 C 363.0527104 577 295 569.3888416 295 560 Z" opacity="0.2"/></g><g transform="translate(2,2) scale(1,1)"><path fill="#e2e2e2" stroke="none" d="M 288 553 C 288 543.6111584 356.0527104 536 440 536 C 523.9472896 536 592 543.6111584 592 553 C 592 562.3888416 523.9472896 570 440 570 C 356.0527104 570 288 562.3888416 288 553 Z"/></g><g transform="translate(2,2) scale(1,1)"><path fill="none" stroke="#000000" d="M 288 553 C 288 543.6111584 356.0527104 536 440 536 C 523.9472896 536 592 543.6111584 592 553 C 592 562.3888416 523.9472896 570 440 570 C 356.0527104 570 288 562.3888416 288 553 Z" stroke-miterlimit="10" stroke-dasharray="5"/></g><g transform="translate(2,2) scale(1,1)"><g><path fill="none" stroke="none"/><text fill="#000000" stroke="none" font-family="Arial" font-size="13px" font-style="normal" font-weight="bold" text-decoration="none" x="348.94921875" y="560">example use: Prototype Pattern</text></g></g><g transform="translate(2,2) scale(1,1)"><rect fill="#C0C0C0" stroke="none" x="587" y="215" width="73.32080078125" height="37" opacity="0.2"/></g><g transform="translate(2,2) scale(1,1)"><rect fill="#ffffff" stroke="none" x="580" y="208" width="73.32080078125" height="37"/></g><g transform="translate(2,2) scale(1,1)"><path fill="none" stroke="#000000" d="M 580 208 L 653.32080078125 208 L 653.32080078125 245 L 580 245 L 580 208 Z Z" stroke-miterlimit="10"/></g><g transform="translate(2,2) scale(1,1)"><g><path fill="none" stroke="none"/><text fill="#000000" stroke="none" font-family="Arial" font-size="13px" font-style="normal" font-weight="normal" text-decoration="none" x="584.5" y="225.5">«interface»</text></g></g><g transform="translate(2,2) scale(1,1)"><g><path fill="none" stroke="none"/><text fill="#000000" stroke="none" font-family="Arial" font-size="13px" font-style="normal" font-weight="bold" text-decoration="none" x="594.259521484375" y="240.5">Product</text></g></g><g transform="translate(2,2) scale(1,1)"><path fill="none" stroke="#000000" d="M 616 375 L 616 246" stroke-miterlimit="10" stroke-dasharray="3"/></g><g transform="translate(2,2) scale(1,1)"><path fill="#FFFFFF" stroke="none" d="M 624.419035512032 266.3253497152483 L 616 246 L 607.580964487968 266.3253497152483"/></g><g transform="translate(2,2) scale(1,1)"><path fill="none" stroke="#000000" d="M 624.419035512032 266.3253497152483 L 616 246 L 607.580964487968 266.3253497152483 L 624.419035512032 266.3253497152483" stroke-miterlimit="10"/></g><g transform="translate(2,2) scale(1,1)"><path fill="none" stroke="#8e8e8e" d="M 602 401 L 459 535" stroke-miterlimit="10" stroke-dasharray="3"/></g><g transform="translate(2,2) scale(1,1)"><path fill="#FFFFFF" stroke="none" d="M 468.0746373180332 514.9587685621327 L 459 535 L 479.58802823743474 527.2454469313449"/></g><g transform="translate(2,2) scale(1,1)"><path fill="none" stroke="#8e8e8e" d="M 468.0746373180332 514.9587685621327 L 459 535 L 479.58802823743474 527.2454469313449 L 468.0746373180332 514.9587685621327" stroke-miterlimit="10"/></g><g transform="translate(2,2) scale(1,1)"><g><path fill="none" stroke="none"/><text fill="#8e8e8e" stroke="none" font-family="Arial" font-size="13px" font-style="normal" font-weight="normal" text-decoration="none" x="550.5" y="484.5">+ConcreteProduct</text></g></g><g transform="translate(2,2) scale(1,1)"><path fill="none" stroke="#8e8e8e" d="M 242 245 L 428 535" stroke-miterlimit="10" stroke-dasharray="3"/></g><g transform="translate(2,2) scale(1,1)"><path fill="#FFFFFF" stroke="none" d="M 409.940137808633 522.436506153588 L 428 535 L 424.11348067138323 513.3460172829964"/></g><g transform="translate(2,2) scale(1,1)"><path fill="none" stroke="#8e8e8e" d="M 409.940137808633 522.436506153588 L 428 535 L 424.11348067138323 513.3460172829964 L 409.940137808633 522.436506153588" stroke-miterlimit="10"/></g><g transform="translate(2,2) scale(1,1)"><g><path fill="none" stroke="none"/><text fill="#8e8e8e" stroke="none" font-family="Arial" font-size="13px" font-style="normal" font-weight="normal" text-decoration="none" x="358.5" y="467.5">+Creator</text></g></g><g transform="translate(2,2) scale(1,1)"><path fill="none" stroke="#8e8e8e" d="M 256 416 L 416 535" stroke-miterlimit="10" stroke-dasharray="3"/></g><g transform="translate(2,2) scale(1,1)"><path fill="#FFFFFF" stroke="none" d="M 394.66656497339693 529.6255651491803 L 416 535 L 404.71528275474634 516.1146840986264"/></g><g transform="translate(2,2) scale(1,1)"><path fill="none" stroke="#8e8e8e" d="M 394.66656497339693 529.6255651491803 L 416 535 L 404.71528275474634 516.1146840986264 L 394.66656497339693 529.6255651491803" stroke-miterlimit="10"/></g><g transform="translate(2,2) scale(1,1)"><g><path fill="none" stroke="none"/><text fill="#8e8e8e" stroke="none" font-family="Arial" font-size="13px" font-style="normal" font-weight="normal" text-decoration="none" x="238.5" y="491.5">+ConcreteCreator</text></g></g><g transform="translate(2,2) scale(1,1)"><path fill="none" stroke="#8e8e8e" d="M 605 246 L 450 535" stroke-miterlimit="10" stroke-dasharray="3"/></g><g transform="translate(2,2) scale(1,1)"><path fill="#FFFFFF" stroke="none" d="M 452.18736177136805 513.1090098789215 L 450 535 L 467.0259659029449 521.0674307799402"/></g><g transform="translate(2,2) scale(1,1)"><path fill="none" stroke="#8e8e8e" d="M 452.18736177136805 513.1090098789215 L 450 535 L 467.0259659029449 521.0674307799402 L 452.18736177136805 513.1090098789215" stroke-miterlimit="10"/></g><g transform="translate(2,2) scale(1,1)"><g><path fill="none" stroke="none"/><text fill="#8e8e8e" stroke="none" font-family="Arial" font-size="13px" font-style="normal" font-weight="normal" text-decoration="none" x="470.5" y="460.5">+Product</text></g></g></g></svg>