<svg version="1.1" xmlns="http://www.w3.org/2000/svg" xmlns:xlink="http://www.w3.org/1999/xlink" width="692" height="443"><defs/><g><g transform="translate(-6,2) scale(1,1)"><path fill="none" stroke="#000000" d="M 16 8 L 688 8 L 688 431 L 16 431 L 16 8" stroke-miterlimit="10"/></g><g transform="translate(-6,2) scale(1,1)"><path fill="#ffffff" stroke="none" d="M 16 8 L 16 30 L 183.74072265625 30 L 194.74072265625 19 L 194.74072265625 8 L 16 8"/></g><g transform="translate(-6,2) scale(1,1)"><path fill="none" stroke="#000000" d="M 16 8 L 16 30 L 183.74072265625 30 L 194.74072265625 19 L 194.74072265625 8 L 16 8 L 16 8" stroke-miterlimit="10"/></g><g transform="translate(-6,2) scale(1,1)"><g><path fill="none" stroke="none"/><text fill="#000000" stroke="none" font-family="Arial" font-size="13px" font-style="normal" font-weight="normal" text-decoration="none" x="27" y="25.5">Structure of this document</text></g></g><g transform="translate(-6,2) scale(1,1)"><g><path fill="none" stroke="none"/><text fill="#000000" stroke="none" font-family="Arial" font-size="13px" font-style="normal" font-weight="bold" text-decoration="none" x="21" y="25.5"></text></g></g><g transform="translate(-6,2) scale(1,1)"><rect fill="#C0C0C0" stroke="none" x="551" y="199" width="51.4765625" height="15" opacity="0.2"/></g><g transform="translate(-6,2) scale(1,1)"><rect fill="#C0C0C0" stroke="none" x="551" y="213" width="128.69140625" height="25" opacity="0.2"/></g><g transform="translate(-6,2) scale(1,1)"><rect fill="#ffffff" stroke="none" x="544" y="207" width="128.69140625" height="24"/></g><g transform="translate(-6,2) scale(1,1)"><path fill="none" stroke="#000000" d="M 544 207 L 672.69140625 207 L 672.69140625 231 L 544 231 L 544 207 Z Z" stroke-miterlimit="10"/></g><g transform="translate(-6,2) scale(1,1)"><rect fill="#ffffff" stroke="none" x="544" y="192" width="51.4765625" height="15"/></g><g transform="translate(-6,2) scale(1,1)"><path fill="none" stroke="#000000" d="M 544 192 L 595.4765625 192 L 595.4765625 207 L 544 207 L 544 192 Z Z" stroke-miterlimit="10"/></g><g transform="translate(-6,2) scale(1,1)"><rect fill="#ffffff" stroke="none" x="544" y="206" width="128.69140625" height="25"/></g><g transform="translate(-6,2) scale(1,1)"><path fill="none" stroke="#000000" d="M 544 206 L 672.69140625 206 L 672.69140625 231 L 544 231 L 544 206 Z Z" stroke-miterlimit="10"/></g><g transform="translate(-6,2) scale(1,1)"><path fill="none" stroke="#000000" d="M 586.4765625 195 L 580.4765625 202 L 592.4765625 202 L 586.4765625 195" stroke-miterlimit="10"/></g><g transform="translate(-6,2) scale(1,1)"><g><path fill="none" stroke="none"/><text fill="#000000" stroke="none" font-family="Arial" font-size="13px" font-style="normal" font-weight="bold" text-decoration="none" x="554.27001953125" y="226.5">Development View</text></g></g><g transform="translate(-6,2) scale(1,1)"><rect fill="#C0C0C0" stroke="none" x="263" y="359" width="51.4765625" height="15" opacity="0.2"/></g><g transform="translate(-6,2) scale(1,1)"><rect fill="#C0C0C0" stroke="none" x="263" y="373" width="128.69140625" height="25" opacity="0.2"/></g><g transform="translate(-6,2) scale(1,1)"><rect fill="#ffffff" stroke="none" x="256" y="367" width="128.69140625" height="24"/></g><g transform="translate(-6,2) scale(1,1)"><path fill="none" stroke="#000000" d="M 256 367 L 384.69140625 367 L 384.69140625 391 L 256 391 L 256 367 Z Z" stroke-miterlimit="10"/></g><g transform="translate(-6,2) scale(1,1)"><rect fill="#ffffff" stroke="none" x="256" y="352" width="51.4765625" height="15"/></g><g transform="translate(-6,2) scale(1,1)"><path fill="none" stroke="#000000" d="M 256 352 L 307.4765625 352 L 307.4765625 367 L 256 367 L 256 352 Z Z" stroke-miterlimit="10"/></g><g transform="translate(-6,2) scale(1,1)"><rect fill="#ffffff" stroke="none" x="256" y="366" width="128.69140625" height="25"/></g><g transform="translate(-6,2) scale(1,1)"><path fill="none" stroke="#000000" d="M 256 366 L 384.69140625 366 L 384.69140625 391 L 256 391 L 256 366 Z Z" stroke-miterlimit="10"/></g><g transform="translate(-6,2) scale(1,1)"><path fill="none" stroke="#000000" d="M 298.4765625 355 L 292.4765625 362 L 304.4765625 362 L 298.4765625 355" stroke-miterlimit="10"/></g><g transform="translate(-6,2) scale(1,1)"><g><path fill="none" stroke="none"/><text fill="#000000" stroke="none" font-family="Arial" font-size="13px" font-style="normal" font-weight="bold" text-decoration="none" x="281.088623046875" y="386.5">Process View</text></g></g><g transform="translate(-6,2) scale(1,1)"><rect fill="#C0C0C0" stroke="none" x="551" y="359" width="51.4765625" height="15" opacity="0.2"/></g><g transform="translate(-6,2) scale(1,1)"><rect fill="#C0C0C0" stroke="none" x="551" y="373" width="128.69140625" height="25" opacity="0.2"/></g><g transform="translate(-6,2) scale(1,1)"><rect fill="#ffffff" stroke="none" x="544" y="367" width="128.69140625" height="24"/></g><g transform="translate(-6,2) scale(1,1)"><path fill="none" stroke="#000000" d="M 544 367 L 672.69140625 367 L 672.69140625 391 L 544 391 L 544 367 Z Z" stroke-miterlimit="10"/></g><g transform="translate(-6,2) scale(1,1)"><rect fill="#ffffff" stroke="none" x="544" y="352" width="51.4765625" height="15"/></g><g transform="translate(-6,2) scale(1,1)"><path fill="none" stroke="#000000" d="M 544 352 L 595.4765625 352 L 595.4765625 367 L 544 367 L 544 352 Z Z" stroke-miterlimit="10"/></g><g transform="translate(-6,2) scale(1,1)"><rect fill="#ffffff" stroke="none" x="544" y="366" width="128.69140625" height="25"/></g><g transform="translate(-6,2) scale(1,1)"><path fill="none" stroke="#000000" d="M 544 366 L 672.69140625 366 L 672.69140625 391 L 544 391 L 544 366 Z Z" stroke-miterlimit="10"/></g><g transform="translate(-6,2) scale(1,1)"><path fill="none" stroke="#000000" d="M 586.4765625 355 L 580.4765625 362 L 592.4765625 362 L 586.4765625 355" stroke-miterlimit="10"/></g><g transform="translate(-6,2) scale(1,1)"><g><path fill="none" stroke="none"/><text fill="#000000" stroke="none" font-family="Arial" font-size="13px" font-style="normal" font-weight="bold" text-decoration="none" x="568.364990234375" y="386.5">Physical View</text></g></g><g transform="translate(-6,2) scale(1,1)"><rect fill="#C0C0C0" stroke="none" x="407" y="271" width="51.4765625" height="15" opacity="0.2"/></g><g transform="translate(-6,2) scale(1,1)"><rect fill="#C0C0C0" stroke="none" x="407" y="285" width="128.69140625" height="25" opacity="0.2"/></g><g transform="translate(-6,2) scale(1,1)"><rect fill="#ffffff" stroke="none" x="400" y="279" width="128.69140625" height="24"/></g><g transform="translate(-6,2) scale(1,1)"><path fill="none" stroke="#000000" d="M 400 279 L 528.69140625 279 L 528.69140625 303 L 400 303 L 400 279 Z Z" stroke-miterlimit="10"/></g><g transform="translate(-6,2) scale(1,1)"><rect fill="#ffffff" stroke="none" x="400" y="264" width="51.4765625" height="15"/></g><g transform="translate(-6,2) scale(1,1)"><path fill="none" stroke="#000000" d="M 400 264 L 451.4765625 264 L 451.4765625 279 L 400 279 L 400 264 Z Z" stroke-miterlimit="10"/></g><g transform="translate(-6,2) scale(1,1)"><rect fill="#ffffff" stroke="none" x="400" y="278" width="128.69140625" height="25"/></g><g transform="translate(-6,2) scale(1,1)"><path fill="none" stroke="#000000" d="M 400 278 L 528.69140625 278 L 528.69140625 303 L 400 303 L 400 278 Z Z" stroke-miterlimit="10"/></g><g transform="translate(-6,2) scale(1,1)"><path fill="none" stroke="#000000" d="M 442.4765625 267 L 436.4765625 274 L 448.4765625 274 L 442.4765625 267" stroke-miterlimit="10"/></g><g transform="translate(-6,2) scale(1,1)"><g><path fill="none" stroke="none"/><text fill="#000000" stroke="none" font-family="Arial" font-size="13px" font-style="normal" font-weight="bold" text-decoration="none" x="435.441650390625" y="298.5">Scenarios</text></g></g><g transform="translate(-6,2) scale(1,1)"><rect fill="#C0C0C0" stroke="none" x="263" y="199" width="51.4765625" height="15" opacity="0.2"/></g><g transform="translate(-6,2) scale(1,1)"><rect fill="#C0C0C0" stroke="none" x="263" y="213" width="128.69140625" height="25" opacity="0.2"/></g><g transform="translate(-6,2) scale(1,1)"><rect fill="#ffffff" stroke="none" x="256" y="207" width="128.69140625" height="24"/></g><g transform="translate(-6,2) scale(1,1)"><path fill="none" stroke="#000000" d="M 256 207 L 384.69140625 207 L 384.69140625 231 L 256 231 L 256 207 Z Z" stroke-miterlimit="10"/></g><g transform="translate(-6,2) scale(1,1)"><rect fill="#ffffff" stroke="none" x="256" y="192" width="51.4765625" height="15"/></g><g transform="translate(-6,2) scale(1,1)"><path fill="none" stroke="#000000" d="M 256 192 L 307.4765625 192 L 307.4765625 207 L 256 207 L 256 192 Z Z" stroke-miterlimit="10"/></g><g transform="translate(-6,2) scale(1,1)"><rect fill="#ffffff" stroke="none" x="256" y="206" width="128.69140625" height="25"/></g><g transform="translate(-6,2) scale(1,1)"><path fill="none" stroke="#000000" d="M 256 206 L 384.69140625 206 L 384.69140625 231 L 256 231 L 256 206 Z Z" stroke-miterlimit="10"/></g><g transform="translate(-6,2) scale(1,1)"><path fill="none" stroke="#000000" d="M 298.4765625 195 L 292.4765625 202 L 304.4765625 202 L 298.4765625 195" stroke-miterlimit="10"/></g><g transform="translate(-6,2) scale(1,1)"><g><path fill="none" stroke="none"/><text fill="#000000" stroke="none" font-family="Arial" font-size="13px" font-style="normal" font-weight="bold" text-decoration="none" x="283.970458984375" y="226.5">Logical View</text></g></g><g transform="translate(-6,2) scale(1,1)"><path fill="none" stroke="#000000" d="M 504 263 L 566 232" stroke-miterlimit="10" stroke-dasharray="3"/></g><g transform="translate(-6,2) scale(1,1)"><path fill="none" stroke="#000000" d="M 558.7927808450386 240.30999350495279 L 566 232 L 555.0276737030609 232.77977922099748" stroke-miterlimit="10"/></g><g transform="translate(-6,2) scale(1,1)"><path fill="none" stroke="#000000" d="M 424 263 L 362 232" stroke-miterlimit="10" stroke-dasharray="3"/></g><g transform="translate(-6,2) scale(1,1)"><path fill="none" stroke="#000000" d="M 372.97232629693906 232.77977922099748 L 362 232 L 369.2072191549614 240.30999350495279" stroke-miterlimit="10"/></g><g transform="translate(-6,2) scale(1,1)"><path fill="none" stroke="#000000" d="M 430 304 L 353 351" stroke-miterlimit="10" stroke-dasharray="3"/></g><g transform="translate(-6,2) scale(1,1)"><path fill="none" stroke="#000000" d="M 359.48124408736544 342.1121726456917 L 353 351 L 363.867574636948 349.29828865245463" stroke-miterlimit="10"/></g><g transform="translate(-6,2) scale(1,1)"><path fill="none" stroke="#000000" d="M 498 304 L 575 351" stroke-miterlimit="10" stroke-dasharray="3"/></g><g transform="translate(-6,2) scale(1,1)"><path fill="none" stroke="#000000" d="M 564.132425363052 349.29828865245463 L 575 351 L 568.5187559126346 342.1121726456917" stroke-miterlimit="10"/></g><g transform="translate(-6,2) scale(1,1)"><rect fill="#C0C0C0" stroke="none" x="415" y="47" width="51.4765625" height="15" opacity="0.2"/></g><g transform="translate(-6,2) scale(1,1)"><rect fill="#C0C0C0" stroke="none" x="415" y="61" width="128.69140625" height="25" opacity="0.2"/></g><g transform="translate(-6,2) scale(1,1)"><rect fill="#ffffff" stroke="none" x="408" y="55" width="128.69140625" height="24"/></g><g transform="translate(-6,2) scale(1,1)"><path fill="none" stroke="#000000" d="M 408 55 L 536.69140625 55 L 536.69140625 79 L 408 79 L 408 55 Z Z" stroke-miterlimit="10"/></g><g transform="translate(-6,2) scale(1,1)"><rect fill="#ffffff" stroke="none" x="408" y="40" width="51.4765625" height="15"/></g><g transform="translate(-6,2) scale(1,1)"><path fill="none" stroke="#000000" d="M 408 40 L 459.4765625 40 L 459.4765625 55 L 408 55 L 408 40 Z Z" stroke-miterlimit="10"/></g><g transform="translate(-6,2) scale(1,1)"><rect fill="#ffffff" stroke="none" x="408" y="54" width="128.69140625" height="25"/></g><g transform="translate(-6,2) scale(1,1)"><path fill="none" stroke="#000000" d="M 408 54 L 536.69140625 54 L 536.69140625 79 L 408 79 L 408 54 Z Z" stroke-miterlimit="10"/></g><g transform="translate(-6,2) scale(1,1)"><path fill="none" stroke="#000000" d="M 450.4765625 43 L 444.4765625 50 L 456.4765625 50 L 450.4765625 43" stroke-miterlimit="10"/></g><g transform="translate(-6,2) scale(1,1)"><g><path fill="none" stroke="none"/><text fill="#000000" stroke="none" font-family="Arial" font-size="13px" font-style="normal" font-weight="bold" text-decoration="none" x="441.029541015625" y="74.5">Viewpoints</text></g></g><g transform="translate(-6,2) scale(1,1)"><rect fill="#C0C0C0" stroke="none" x="407" y="127" width="51.4765625" height="15" opacity="0.2"/></g><g transform="translate(-6,2) scale(1,1)"><rect fill="#C0C0C0" stroke="none" x="407" y="141" width="128.69140625" height="25" opacity="0.2"/></g><g transform="translate(-6,2) scale(1,1)"><rect fill="#ffffff" stroke="none" x="400" y="135" width="128.69140625" height="24"/></g><g transform="translate(-6,2) scale(1,1)"><path fill="none" stroke="#000000" d="M 400 135 L 528.69140625 135 L 528.69140625 159 L 400 159 L 400 135 Z Z" stroke-miterlimit="10"/></g><g transform="translate(-6,2) scale(1,1)"><rect fill="#ffffff" stroke="none" x="400" y="120" width="51.4765625" height="15"/></g><g transform="translate(-6,2) scale(1,1)"><path fill="none" stroke="#000000" d="M 400 120 L 451.4765625 120 L 451.4765625 135 L 400 135 L 400 120 Z Z" stroke-miterlimit="10"/></g><g transform="translate(-6,2) scale(1,1)"><rect fill="#ffffff" stroke="none" x="400" y="134" width="128.69140625" height="25"/></g><g transform="translate(-6,2) scale(1,1)"><path fill="none" stroke="#000000" d="M 400 134 L 528.69140625 134 L 528.69140625 159 L 400 159 L 400 134 Z Z" stroke-miterlimit="10"/></g><g transform="translate(-6,2) scale(1,1)"><path fill="none" stroke="#000000" d="M 442.4765625 123 L 436.4765625 130 L 448.4765625 130 L 442.4765625 123" stroke-miterlimit="10"/></g><g transform="translate(-6,2) scale(1,1)"><g><path fill="none" stroke="none"/><text fill="#000000" stroke="none" font-family="Arial" font-size="13px" font-style="normal" font-weight="bold" text-decoration="none" x="427.1357421875" y="154.5">Assumptions</text></g></g><g transform="translate(-6,2) scale(1,1)"><rect fill="#C0C0C0" stroke="none" x="551" y="127" width="51.4765625" height="15" opacity="0.2"/></g><g transform="translate(-6,2) scale(1,1)"><rect fill="#C0C0C0" stroke="none" x="551" y="141" width="128.69140625" height="25" opacity="0.2"/></g><g transform="translate(-6,2) scale(1,1)"><rect fill="#ffffff" stroke="none" x="544" y="135" width="128.69140625" height="24"/></g><g transform="translate(-6,2) scale(1,1)"><path fill="none" stroke="#000000" d="M 544 135 L 672.69140625 135 L 672.69140625 159 L 544 159 L 544 135 Z Z" stroke-miterlimit="10"/></g><g transform="translate(-6,2) scale(1,1)"><rect fill="#ffffff" stroke="none" x="544" y="120" width="51.4765625" height="15"/></g><g transform="translate(-6,2) scale(1,1)"><path fill="none" stroke="#000000" d="M 544 120 L 595.4765625 120 L 595.4765625 135 L 544 135 L 544 120 Z Z" stroke-miterlimit="10"/></g><g transform="translate(-6,2) scale(1,1)"><rect fill="#ffffff" stroke="none" x="544" y="134" width="128.69140625" height="25"/></g><g transform="translate(-6,2) scale(1,1)"><path fill="none" stroke="#000000" d="M 544 134 L 672.69140625 134 L 672.69140625 159 L 544 159 L 544 134 Z Z" stroke-miterlimit="10"/></g><g transform="translate(-6,2) scale(1,1)"><path fill="none" stroke="#000000" d="M 586.4765625 123 L 580.4765625 130 L 592.4765625 130 L 586.4765625 123" stroke-miterlimit="10"/></g><g transform="translate(-6,2) scale(1,1)"><g><path fill="none" stroke="none"/><text fill="#000000" stroke="none" font-family="Arial" font-size="13px" font-style="normal" font-weight="bold" text-decoration="none" x="580.16845703125" y="154.5">Decisions</text></g></g><g transform="translate(-6,2) scale(1,1)"><g><path fill="none" stroke="none"/><text fill="#000000" stroke="none" font-family="Arial" font-size="13px" font-style="normal" font-weight="normal" text-decoration="none" x="29" y="66">This model is structured in the</text><text fill="#000000" stroke="none" font-family="Arial" font-size="13px" font-style="normal" font-weight="normal" text-decoration="none" x="29" y="79">sub-models shown here. </text></g></g><g transform="translate(-6,2) scale(1,1)"><g><path fill="none" stroke="none"/></g></g><g transform="translate(-6,2) scale(1,1)"><g><path fill="none" stroke="none"/><text fill="#000000" stroke="none" font-family="Arial" font-size="13px" font-style="normal" font-weight="normal" text-decoration="none" x="29" y="96">You may want to start reading</text><text fill="#000000" stroke="none" font-family="Arial" font-size="13px" font-style="normal" font-weight="normal" text-decoration="none" x="29" y="109">with the Viewpoints model. </text></g></g><g transform="translate(-6,2) scale(1,1)"><g><path fill="none" stroke="none"/></g></g><g transform="translate(-6,2) scale(1,1)"><g><path fill="none" stroke="none"/><text fill="#000000" stroke="none" font-family="Arial" font-size="13px" font-style="normal" font-weight="normal" text-decoration="none" x="29" y="126">Then Requirements,</text><text fill="#000000" stroke="none" font-family="Arial" font-size="13px" font-style="normal" font-weight="normal" text-decoration="none" x="29" y="139">Assumptions, Decisions is a</text><text fill="#000000" stroke="none" font-family="Arial" font-size="13px" font-style="normal" font-weight="normal" text-decoration="none" x="29" y="152">good read, before you delve</text><text fill="#000000" stroke="none" font-family="Arial" font-size="13px" font-style="normal" font-weight="normal" text-decoration="none" x="29" y="165">into the details of the</text><text fill="#000000" stroke="none" font-family="Arial" font-size="13px" font-style="normal" font-weight="normal" text-decoration="none" x="29" y="178">specification. </text></g></g><g transform="translate(-6,2) scale(1,1)"><g><path fill="none" stroke="none"/><text fill="#000000" stroke="none" font-family="Arial" font-size="13px" font-style="normal" font-weight="normal" text-decoration="none" x="29" y="180">.</text></g></g><g transform="translate(-6,2) scale(1,1)"><g><path fill="none" stroke="none"/><text fill="#000000" stroke="none" font-family="Arial" font-size="13px" font-style="normal" font-weight="normal" text-decoration="none" x="29" y="195">The details of the specification</text><text fill="#000000" stroke="none" font-family="Arial" font-size="13px" font-style="normal" font-weight="normal" text-decoration="none" x="29" y="208">are given from 4+1 different</text><text fill="#000000" stroke="none" font-family="Arial" font-size="13px" font-style="normal" font-weight="normal" text-decoration="none" x="29" y="221">viewpoints - see Kruchten1995</text><text fill="#000000" stroke="none" font-family="Arial" font-size="13px" font-style="normal" font-weight="normal" text-decoration="none" x="29" y="234">for a description of these</text><text fill="#000000" stroke="none" font-family="Arial" font-size="13px" font-style="normal" font-weight="normal" text-decoration="none" x="29" y="247">viewpoints. </text></g></g><g transform="translate(-6,2) scale(1,1)"><rect fill="#ffffff" stroke="none" x="48" y="320" width="123.34619140625" height="22"/></g><g transform="translate(-6,2) scale(1,1)"><path fill="none" stroke="#000000" d="M 48 320 L 171.34619140625 320 L 171.34619140625 342 L 48 342 L 48 320 Z Z" stroke-miterlimit="10"/></g><g transform="translate(-6,2) scale(1,1)"><path fill="none" stroke="#000000" d="M 80.39453125 320 L 80.39453125 342" stroke-miterlimit="10"/></g><g transform="translate(-6,2) scale(1,1)"><g><path fill="none" stroke="none"/><text fill="#000000" stroke="none" font-family="Arial" font-size="13px" font-style="normal" font-weight="normal" text-decoration="none" x="84.89453125" y="337.5">Kruchten1995</text></g></g><g transform="translate(-6,2) scale(1,1)"><g><path fill="none" stroke="none"/><text fill="#000000" stroke="none" font-family="Arial" font-size="13px" font-style="normal" font-weight="bold" text-decoration="none" x="54.444091796875" y="337.5">link</text></g></g><g transform="translate(-6,2) scale(1,1)"><rect fill="#C0C0C0" stroke="none" x="271" y="127" width="38.27597656249998" height="15" opacity="0.2"/></g><g transform="translate(-6,2) scale(1,1)"><rect fill="#C0C0C0" stroke="none" x="271" y="141" width="95.68994140625" height="25" opacity="0.2"/></g><g transform="translate(-6,2) scale(1,1)"><rect fill="#ffffff" stroke="none" x="264" y="135" width="95.68994140625" height="24"/></g><g transform="translate(-6,2) scale(1,1)"><path fill="none" stroke="#000000" d="M 264 135 L 359.68994140625 135 L 359.68994140625 159 L 264 159 L 264 135 Z Z" stroke-miterlimit="10"/></g><g transform="translate(-6,2) scale(1,1)"><rect fill="#ffffff" stroke="none" x="264" y="120" width="38.27597656249998" height="15"/></g><g transform="translate(-6,2) scale(1,1)"><path fill="none" stroke="#000000" d="M 264 120 L 302.2759765625 120 L 302.2759765625 135 L 264 135 L 264 120 Z Z" stroke-miterlimit="10"/></g><g transform="translate(-6,2) scale(1,1)"><rect fill="#ffffff" stroke="none" x="264" y="134" width="95.68994140625" height="25"/></g><g transform="translate(-6,2) scale(1,1)"><path fill="none" stroke="#000000" d="M 264 134 L 359.68994140625 134 L 359.68994140625 159 L 264 159 L 264 134 Z Z" stroke-miterlimit="10"/></g><g transform="translate(-6,2) scale(1,1)"><path fill="none" stroke="#000000" d="M 293.2759765625 123 L 287.2759765625 130 L 299.2759765625 130 L 293.2759765625 123" stroke-miterlimit="10"/></g><g transform="translate(-6,2) scale(1,1)"><g><path fill="none" stroke="none"/><text fill="#000000" stroke="none" font-family="Arial" font-size="13px" font-style="normal" font-weight="bold" text-decoration="none" x="271.3818359375" y="154.5">Requirements</text></g></g></g></svg>