<svg version="1.1" xmlns="http://www.w3.org/2000/svg" xmlns:xlink="http://www.w3.org/1999/xlink" width="740" height="387"><defs/><g><g transform="translate(2,2) scale(1,1)"><path fill="none" stroke="#000000" d="M 8 8 L 728 8 L 728 375 L 8 375 L 8 8" stroke-miterlimit="10"/></g><g transform="translate(2,2) scale(1,1)"><path fill="#ffffff" stroke="none" d="M 8 8 L 8 30 L 400.4794921875 30 L 411.4794921875 19 L 411.4794921875 8 L 8 8"/></g><g transform="translate(2,2) scale(1,1)"><path fill="none" stroke="#000000" d="M 8 8 L 8 30 L 400.4794921875 30 L 411.4794921875 19 L 411.4794921875 8 L 8 8 L 8 8" stroke-miterlimit="10"/></g><g transform="translate(2,2) scale(1,1)"><g><path fill="none" stroke="none"/><text fill="#000000" stroke="none" font-family="Arial" font-size="13px" font-style="normal" font-weight="normal" text-decoration="none" x="48.6181640625" y="25.5">JHotDraw 8 fosters the separation of visual design and code</text></g></g><g transform="translate(2,2) scale(1,1)"><g><path fill="none" stroke="none"/><text fill="#000000" stroke="none" font-family="Arial" font-size="13px" font-style="normal" font-weight="bold" text-decoration="none" x="13" y="25.5">class</text></g></g><g transform="translate(2,2) scale(1,1)"><rect fill="#C0C0C0" stroke="none" x="231" y="223" width="130.34814453125" height="24" opacity="0.2"/></g><g transform="translate(2,2) scale(1,1)"><rect fill="#d8f2ff" stroke="none" x="224" y="216" width="130.34814453125" height="24"/></g><g transform="translate(2,2) scale(1,1)"><path fill="none" stroke="#000000" d="M 224 216 L 354.34814453125 216 L 354.34814453125 240 L 224 240 L 224 216 Z Z" stroke-miterlimit="10"/></g><g transform="translate(2,2) scale(1,1)"><rect fill="#d8f2ff" stroke="none" x="224" y="216" width="130.34814453125" height="24"/></g><g transform="translate(2,2) scale(1,1)"><path fill="none" stroke="#000000" d="M 224 216 L 354.34814453125 216 L 354.34814453125 240 L 224 240 L 224 216 Z Z" stroke-miterlimit="10"/></g><g transform="translate(2,2) scale(1,1)"><g><path fill="none" stroke="none"/><text fill="#000000" stroke="none" font-family="Arial" font-size="13px" font-style="normal" font-weight="bold" text-decoration="none" x="233.187744140625" y="235.5">MyLayout.fxml: File</text><path fill="none" stroke="#000000" d="M 349.84814453125 235.5 L 228.5 235.5" stroke-miterlimit="10"/></g></g><g transform="translate(2,2) scale(1,1)"><rect fill="#C0C0C0" stroke="none" x="431" y="63" width="108.6708984375" height="39" opacity="0.2"/></g><g transform="translate(2,2) scale(1,1)"><rect fill="#ffd8d8" stroke="none" x="424" y="56" width="108.6708984375" height="39"/></g><g transform="translate(2,2) scale(1,1)"><path fill="none" stroke="#000000" d="M 424 56 L 532.6708984375 56 L 532.6708984375 95 L 424 95 L 424 56 Z Z" stroke-miterlimit="10"/></g><g transform="translate(2,2) scale(1,1)"><g><path fill="none" stroke="none"/><text fill="#000000" stroke="none" font-family="Arial" font-size="13px" font-style="normal" font-weight="bold" text-decoration="none" x="440.760498046875" y="75.5">FXMLLoader</text></g></g><g transform="translate(2,2) scale(1,1)"><g><path fill="none" stroke="none"/><text fill="#000000" stroke="none" font-family="Arial" font-size="13px" font-style="normal" font-weight="normal" text-decoration="none" x="428.5" y="90.5">(from javafx.fxml)</text></g></g><g transform="translate(2,2) scale(1,1)"><path fill="#C0C0C0" stroke="none" d="M 439 224 C 439 214.6111584 462.2811904 207 491 207 C 519.7188096 207 543 214.6111584 543 224 C 543 233.3888416 519.7188096 241 491 241 C 462.2811904 241 439 233.3888416 439 224 Z" opacity="0.2"/></g><g transform="translate(2,2) scale(1,1)"><path fill="#ffffff" stroke="none" d="M 432 217 C 432 207.6111584 455.2811904 200 484 200 C 512.7188096 200 536 207.6111584 536 217 C 536 226.3888416 512.7188096 234 484 234 C 455.2811904 234 432 226.3888416 432 217 Z"/></g><g transform="translate(2,2) scale(1,1)"><path fill="none" stroke="#000000" d="M 432 217 C 432 207.6111584 455.2811904 200 484 200 C 512.7188096 200 536 207.6111584 536 217 C 536 226.3888416 512.7188096 234 484 234 C 455.2811904 234 432 226.3888416 432 217 Z" stroke-miterlimit="10" stroke-dasharray="5"/></g><g transform="translate(2,2) scale(1,1)"><g><path fill="none" stroke="none"/><text fill="#000000" stroke="none" font-family="Arial" font-size="13px" font-style="normal" font-weight="bold" text-decoration="none" x="463.766845703125" y="224">Builder</text></g></g><g transform="translate(2,2) scale(1,1)"><g><path fill="none" stroke="none"/><text fill="#000000" stroke="none" font-family="Arial" font-size="13px" font-style="normal" font-weight="normal" text-decoration="none" x="21" y="58">JHotDraw 8 supports the</text><text fill="#000000" stroke="none" font-family="Arial" font-size="13px" font-style="normal" font-weight="normal" text-decoration="none" x="21" y="71">instantation of GUI</text><text fill="#000000" stroke="none" font-family="Arial" font-size="13px" font-style="normal" font-weight="normal" text-decoration="none" x="21" y="84">components from FXML files,</text><text fill="#000000" stroke="none" font-family="Arial" font-size="13px" font-style="normal" font-weight="normal" text-decoration="none" x="21" y="97">CSS files and Properties files.</text></g></g><g transform="translate(2,2) scale(1,1)"><g><path fill="none" stroke="none"/></g></g><g transform="translate(2,2) scale(1,1)"><g><path fill="none" stroke="none"/><text fill="#000000" stroke="none" font-family="Arial" font-size="13px" font-style="normal" font-weight="normal" text-decoration="none" x="21" y="114">The idea is to foster the</text><text fill="#000000" stroke="none" font-family="Arial" font-size="13px" font-style="normal" font-weight="normal" text-decoration="none" x="21" y="127">separation of visual design</text><text fill="#000000" stroke="none" font-family="Arial" font-size="13px" font-style="normal" font-weight="normal" text-decoration="none" x="21" y="140">and code with the application</text><text fill="#000000" stroke="none" font-family="Arial" font-size="13px" font-style="normal" font-weight="normal" text-decoration="none" x="21" y="153">framewokr.</text></g></g><g transform="translate(2,2) scale(1,1)"><g><path fill="none" stroke="none"/></g></g><g transform="translate(2,2) scale(1,1)"><rect fill="#C0C0C0" stroke="none" x="255" y="279" width="113.76806640625" height="24" opacity="0.2"/></g><g transform="translate(2,2) scale(1,1)"><rect fill="#d8f2ff" stroke="none" x="248" y="272" width="113.76806640625" height="24"/></g><g transform="translate(2,2) scale(1,1)"><path fill="none" stroke="#000000" d="M 248 272 L 361.76806640625 272 L 361.76806640625 296 L 248 296 L 248 272 Z Z" stroke-miterlimit="10"/></g><g transform="translate(2,2) scale(1,1)"><rect fill="#d8f2ff" stroke="none" x="248" y="272" width="113.76806640625" height="24"/></g><g transform="translate(2,2) scale(1,1)"><path fill="none" stroke="#000000" d="M 248 272 L 361.76806640625 272 L 361.76806640625 296 L 248 296 L 248 272 Z Z" stroke-miterlimit="10"/></g><g transform="translate(2,2) scale(1,1)"><g><path fill="none" stroke="none"/><text fill="#000000" stroke="none" font-family="Arial" font-size="13px" font-style="normal" font-weight="bold" text-decoration="none" x="256.127685546875" y="291.5">MyStyle.css: File</text><path fill="none" stroke="#000000" d="M 357.26806640625 291.5 L 252.5 291.5" stroke-miterlimit="10"/></g></g><g transform="translate(2,2) scale(1,1)"><path fill="none" stroke="#000000" d="M 479 96 L 483 199" stroke-miterlimit="10" stroke-dasharray="3"/></g><g transform="translate(2,2) scale(1,1)"><path fill="#FFFFFF" stroke="none" d="M 473.7985664911682 179.0166664096666 L 483 199 L 490.6239546617055 178.36325327683022"/></g><g transform="translate(2,2) scale(1,1)"><path fill="none" stroke="#000000" d="M 473.7985664911682 179.0166664096666 L 483 199 L 490.6239546617055 178.36325327683022 L 473.7985664911682 179.0166664096666" stroke-miterlimit="10"/></g><g transform="translate(2,2) scale(1,1)"><path fill="none" stroke="#000000" d="M 355 224 L 431 220" stroke-miterlimit="10" stroke-dasharray="3"/></g><g transform="translate(2,2) scale(1,1)"><path fill="#FFFFFF" stroke="none" d="M 411.1452380694661 229.47567563194423 L 431 220 L 410.26024870440307 212.66087769574685"/></g><g transform="translate(2,2) scale(1,1)"><path fill="none" stroke="#000000" d="M 411.1452380694661 229.47567563194423 L 431 220 L 410.26024870440307 212.66087769574685 L 411.1452380694661 229.47567563194423" stroke-miterlimit="10"/></g><g transform="translate(2,2) scale(1,1)"><path fill="none" stroke="#000000" d="M 339 271 L 436 235" stroke-miterlimit="10" stroke-dasharray="3"/></g><g transform="translate(2,2) scale(1,1)"><path fill="#FFFFFF" stroke="none" d="M 419.8740237852618 249.9650556671767 L 436 235 L 414.0153205222108 234.17910520840047"/></g><g transform="translate(2,2) scale(1,1)"><path fill="none" stroke="#000000" d="M 419.8740237852618 249.9650556671767 L 436 235 L 414.0153205222108 234.17910520840047 L 419.8740237852618 249.9650556671767" stroke-miterlimit="10"/></g><g transform="translate(2,2) scale(1,1)"><rect fill="#C0C0C0" stroke="none" x="327" y="319" width="157.5732421875" height="24" opacity="0.2"/></g><g transform="translate(2,2) scale(1,1)"><rect fill="#d8f2ff" stroke="none" x="320" y="312" width="157.5732421875" height="24"/></g><g transform="translate(2,2) scale(1,1)"><path fill="none" stroke="#000000" d="M 320 312 L 477.5732421875 312 L 477.5732421875 336 L 320 336 L 320 312 Z Z" stroke-miterlimit="10"/></g><g transform="translate(2,2) scale(1,1)"><rect fill="#d8f2ff" stroke="none" x="320" y="312" width="157.5732421875" height="24"/></g><g transform="translate(2,2) scale(1,1)"><path fill="none" stroke="#000000" d="M 320 312 L 477.5732421875 312 L 477.5732421875 336 L 320 336 L 320 312 Z Z" stroke-miterlimit="10"/></g><g transform="translate(2,2) scale(1,1)"><g><path fill="none" stroke="none"/><text fill="#000000" stroke="none" font-family="Arial" font-size="13px" font-style="normal" font-weight="bold" text-decoration="none" x="330.15576171875" y="331.5">MyTexts.properties: File</text><path fill="none" stroke="#000000" d="M 473.0732421875 331.5 L 324.5 331.5" stroke-miterlimit="10"/></g></g><g transform="translate(2,2) scale(1,1)"><path fill="none" stroke="#000000" d="M 408 311 L 470 235" stroke-miterlimit="10" stroke-dasharray="3"/></g><g transform="translate(2,2) scale(1,1)"><path fill="#FFFFFF" stroke="none" d="M 463.67541932669013 256.0712998959911 L 470 235 L 450.6281870728705 245.42750516261194"/></g><g transform="translate(2,2) scale(1,1)"><path fill="none" stroke="#000000" d="M 463.67541932669013 256.0712998959911 L 470 235 L 450.6281870728705 245.42750516261194 L 463.67541932669013 256.0712998959911" stroke-miterlimit="10"/></g></g></svg>