<svg version="1.1" xmlns="http://www.w3.org/2000/svg" width="508" height="412"><defs/><g><g transform="translate(-22,-22) scale(1,1)"><path fill="none" stroke="#000000" d="M 32 32 L 520 32 L 520 424 L 32 424 L 32 32" stroke-miterlimit="10"/></g><g transform="translate(-22,-22) scale(1,1)"><path fill="#ffffff" stroke="none" d="M 32 32 L 32 54 L 195.38623046875 54 L 206.38623046875 43 L 206.38623046875 32 L 32 32"/></g><g transform="translate(-22,-22) scale(1,1)"><path fill="none" stroke="#000000" d="M 32 32 L 32 54 L 195.38623046875 54 L 206.38623046875 43 L 206.38623046875 32 L 32 32 L 32 32" stroke-miterlimit="10"/></g><g transform="translate(-22,-22) scale(1,1)"><g><path fill="none" stroke="none"/><text fill="#000000" stroke="none" font-family="Arial" font-size="13px" font-style="normal" font-weight="normal" text-decoration="none" x="72.6181640625" y="49.5">Meta Model Classes</text></g></g><g transform="translate(-22,-22) scale(1,1)"><g><path fill="none" stroke="none"/><text fill="#000000" stroke="none" font-family="Arial" font-size="13px" font-style="normal" font-weight="bold" text-decoration="none" x="37" y="49.5">class</text></g></g><g transform="translate(-22,-22) scale(1,1)"><rect fill="#C0C0C0" stroke="none" x="63" y="95" width="101.13623046875" height="102" opacity="0.2"/></g><g transform="translate(-22,-22) scale(1,1)"><rect fill="#ffffff" stroke="none" x="56" y="88" width="101.13623046875" height="102"/></g><g transform="translate(-22,-22) scale(1,1)"><path fill="none" stroke="#000000" d="M 56 88 L 157.13623046875 88 L 157.13623046875 190 L 56 190 L 56 88 Z Z" stroke-miterlimit="10"/></g><g transform="translate(-22,-22) scale(1,1)"><path fill="none" stroke="#000000" d="M 56 113 L 157.13623046875 113" stroke-miterlimit="10"/></g><g transform="translate(-22,-22) scale(1,1)"><g><path fill="none" stroke="none"/><text fill="#000000" stroke="none" font-family="Arial" font-size="13px" font-style="normal" font-weight="bold" text-decoration="none" x="75.49951171875" y="107.5">BiblioEntry</text></g></g><g transform="translate(-22,-22) scale(1,1)"><g><path fill="none" stroke="none"/><text fill="#000000" stroke="none" font-family="Arial" font-size="13px" font-style="normal" font-weight="normal" text-decoration="none" x="61" y="130.5">+title: String</text></g></g><g transform="translate(-22,-22) scale(1,1)"><g><path fill="none" stroke="none"/><text fill="#000000" stroke="none" font-family="Arial" font-size="13px" font-style="normal" font-weight="normal" text-decoration="none" x="61" y="145.5">+authors: String</text></g></g><g transform="translate(-22,-22) scale(1,1)"><g><path fill="none" stroke="none"/><text fill="#000000" stroke="none" font-family="Arial" font-size="13px" font-style="normal" font-weight="normal" text-decoration="none" x="61" y="160.5">+year: String</text></g></g><g transform="translate(-22,-22) scale(1,1)"><g><path fill="none" stroke="none"/><text fill="#000000" stroke="none" font-family="Arial" font-size="13px" font-style="normal" font-weight="normal" text-decoration="none" x="61" y="175.5">+url: String</text></g></g><g transform="translate(-22,-22) scale(1,1)"><rect fill="#C0C0C0" stroke="none" x="175" y="95" width="78.72900390625" height="47" opacity="0.2"/></g><g transform="translate(-22,-22) scale(1,1)"><rect fill="#ffffff" stroke="none" x="168" y="88" width="78.72900390625" height="47"/></g><g transform="translate(-22,-22) scale(1,1)"><path fill="none" stroke="#000000" d="M 168 88 L 246.72900390625 88 L 246.72900390625 135 L 168 135 L 168 88 Z Z" stroke-miterlimit="10"/></g><g transform="translate(-22,-22) scale(1,1)"><path fill="none" stroke="#000000" d="M 168 113 L 246.72900390625 113" stroke-miterlimit="10"/></g><g transform="translate(-22,-22) scale(1,1)"><g><path fill="none" stroke="none"/><text fill="#000000" stroke="none" font-family="Arial" font-size="13px" font-style="normal" font-weight="bold" text-decoration="none" x="179.9013671875" y="107.5">Rationale</text></g></g><g transform="translate(-22,-22) scale(1,1)"><g><path fill="none" stroke="none"/><text fill="#000000" stroke="none" font-family="Arial" font-size="13px" font-style="normal" font-weight="normal" text-decoration="none" x="173" y="130.5">+text: String</text></g></g><g transform="translate(-22,-22) scale(1,1)"><rect fill="#C0C0C0" stroke="none" x="63" y="207" width="78.72900390625" height="47" opacity="0.2"/></g><g transform="translate(-22,-22) scale(1,1)"><rect fill="#ffffff" stroke="none" x="56" y="200" width="78.72900390625" height="47"/></g><g transform="translate(-22,-22) scale(1,1)"><path fill="none" stroke="#000000" d="M 56 200 L 134.72900390625 200 L 134.72900390625 247 L 56 247 L 56 200 Z Z" stroke-miterlimit="10"/></g><g transform="translate(-22,-22) scale(1,1)"><path fill="none" stroke="#000000" d="M 56 225 L 134.72900390625 225" stroke-miterlimit="10"/></g><g transform="translate(-22,-22) scale(1,1)"><g><path fill="none" stroke="none"/><text fill="#000000" stroke="none" font-family="Arial" font-size="13px" font-style="normal" font-weight="bold" text-decoration="none" x="65.73046875" y="219.5">LegalNote</text></g></g><g transform="translate(-22,-22) scale(1,1)"><g><path fill="none" stroke="none"/><text fill="#000000" stroke="none" font-family="Arial" font-size="13px" font-style="normal" font-weight="normal" text-decoration="none" x="61" y="242.5">+text: String</text></g></g><g transform="translate(-22,-22) scale(1,1)"><rect fill="#C0C0C0" stroke="none" x="151" y="207" width="120.642578125" height="62" opacity="0.2"/></g><g transform="translate(-22,-22) scale(1,1)"><rect fill="#ffffff" stroke="none" x="144" y="200" width="120.642578125" height="62"/></g><g transform="translate(-22,-22) scale(1,1)"><path fill="none" stroke="#000000" d="M 144 200 L 264.642578125 200 L 264.642578125 262 L 144 262 L 144 200 Z Z" stroke-miterlimit="10"/></g><g transform="translate(-22,-22) scale(1,1)"><path fill="none" stroke="#000000" d="M 144 225 L 264.642578125 225" stroke-miterlimit="10"/></g><g transform="translate(-22,-22) scale(1,1)"><g><path fill="none" stroke="none"/><text fill="#000000" stroke="none" font-family="Arial" font-size="13px" font-style="normal" font-weight="bold" text-decoration="none" x="177.22314453125" y="219.5">Definition</text></g></g><g transform="translate(-22,-22) scale(1,1)"><g><path fill="none" stroke="none"/><text fill="#000000" stroke="none" font-family="Arial" font-size="13px" font-style="normal" font-weight="normal" text-decoration="none" x="149" y="242.5">+term: String</text></g></g><g transform="translate(-22,-22) scale(1,1)"><g><path fill="none" stroke="none"/><text fill="#000000" stroke="none" font-family="Arial" font-size="13px" font-style="normal" font-weight="normal" text-decoration="none" x="149" y="257.5">+description: String</text></g></g></g></svg>