<svg version="1.1" xmlns="http://www.w3.org/2000/svg" width="435" height="411"><defs/><g><g transform="translate(-14,-14) scale(1,1)"><path fill="none" stroke="#000000" d="M 24 24 L 439 24 L 439 415 L 24 415 L 24 24" stroke-miterlimit="10"/></g><g transform="translate(-14,-14) scale(1,1)"><path fill="#ffffff" stroke="none" d="M 24 24 L 24 46 L 136.83349609375 46 L 147.83349609375 35 L 147.83349609375 24 L 24 24"/></g><g transform="translate(-14,-14) scale(1,1)"><path fill="none" stroke="#000000" d="M 24 24 L 24 46 L 136.83349609375 46 L 147.83349609375 35 L 147.83349609375 24 L 24 24 L 24 24" stroke-miterlimit="10"/></g><g transform="translate(-14,-14) scale(1,1)"><g><path fill="none" stroke="none"/><text fill="#000000" stroke="none" font-family="Arial" font-size="13px" font-style="normal" font-weight="normal" text-decoration="none" x="35" y="41.5">About this model</text></g></g><g transform="translate(-14,-14) scale(1,1)"><g><path fill="none" stroke="none"/><text fill="#000000" stroke="none" font-family="Arial" font-size="13px" font-style="normal" font-weight="bold" text-decoration="none" x="29" y="41.5"></text></g></g><g transform="translate(-14,-14) scale(1,1)"><g><path fill="none" stroke="none"/><text fill="#000000" stroke="none" font-family="Arial" font-size="13px" font-style="normal" font-weight="normal" text-decoration="none" x="45" y="82">This is the meta model</text><text fill="#000000" stroke="none" font-family="Arial" font-size="13px" font-style="normal" font-weight="normal" text-decoration="none" x="45" y="95">of this documentation.</text><text fill="#000000" stroke="none" font-family="Arial" font-size="13px" font-style="normal" font-weight="normal" text-decoration="none" x="45" y="108">All projects should</text><text fill="#000000" stroke="none" font-family="Arial" font-size="13px" font-style="normal" font-weight="normal" text-decoration="none" x="45" y="121">agree on the same meta</text><text fill="#000000" stroke="none" font-family="Arial" font-size="13px" font-style="normal" font-weight="normal" text-decoration="none" x="45" y="134">model so that we can</text></g></g><g transform="translate(-14,-14) scale(1,1)"><g><path fill="none" stroke="none"/><text fill="#000000" stroke="none" font-family="Arial" font-size="13px" font-style="normal" font-weight="normal" text-decoration="none" x="45" y="149">share models between</text><text fill="#000000" stroke="none" font-family="Arial" font-size="13px" font-style="normal" font-weight="normal" text-decoration="none" x="45" y="162">projects.</text></g></g><g transform="translate(-14,-14) scale(1,1)"><g><path fill="none" stroke="none"/></g></g><g transform="translate(-14,-14) scale(1,1)"><g><path fill="none" stroke="none"/><text fill="#000000" stroke="none" font-family="Arial" font-size="30px" font-style="normal" font-weight="normal" text-decoration="none" x="237" y="91">Meta Model </text></g></g></g></svg>