<svg version="1.1" xmlns="http://www.w3.org/2000/svg" xmlns:xlink="http://www.w3.org/1999/xlink" width="683" height="507"><defs/><g><g transform="translate(-14,-150) scale(1,1)"><path fill="none" stroke="#000000" d="M 24 160 L 687 160 L 687 647 L 24 647 L 24 160" stroke-miterlimit="10"/></g><g transform="translate(-14,-150) scale(1,1)"><path fill="#ffffff" stroke="none" d="M 24 160 L 24 182 L 201.12255859375 182 L 212.12255859375 171 L 212.12255859375 160 L 24 160"/></g><g transform="translate(-14,-150) scale(1,1)"><path fill="none" stroke="#000000" d="M 24 160 L 24 182 L 201.12255859375 182 L 212.12255859375 171 L 212.12255859375 160 L 24 160 L 24 160" stroke-miterlimit="10"/></g><g transform="translate(-14,-150) scale(1,1)"><g><path fill="none" stroke="none"/><text fill="#000000" stroke="none" font-family="Arial" font-size="13px" font-style="normal" font-weight="normal" text-decoration="none" x="64.6181640625" y="177.5">CSS Styleable Objects</text></g></g><g transform="translate(-14,-150) scale(1,1)"><g><path fill="none" stroke="none"/><text fill="#000000" stroke="none" font-family="Arial" font-size="13px" font-style="normal" font-weight="bold" text-decoration="none" x="29" y="177.5">class</text></g></g></g></svg>