<svg version="1.1" xmlns="http://www.w3.org/2000/svg" xmlns:xlink="http://www.w3.org/1999/xlink" width="852" height="652"><defs/><g><g transform="translate(-14,-22) scale(1,1)"><path fill="none" stroke="#000000" d="M 24 32 L 856 32 L 856 664 L 24 664 L 24 32" stroke-miterlimit="10"/></g><g transform="translate(-14,-22) scale(1,1)"><path fill="#ffffff" stroke="none" d="M 24 32 L 24 54 L 471.35498046875 54 L 482.35498046875 43 L 482.35498046875 32 L 24 32"/></g><g transform="translate(-14,-22) scale(1,1)"><path fill="none" stroke="#000000" d="M 24 32 L 24 54 L 471.35498046875 54 L 482.35498046875 43 L 482.35498046875 32 L 24 32 L 24 32" stroke-miterlimit="10"/></g><g transform="translate(-14,-22) scale(1,1)"><g><path fill="none" stroke="none"/><text fill="#000000" stroke="none" font-family="Arial" font-size="13px" font-style="normal" font-weight="normal" text-decoration="none" x="35" y="49.5">Mapping of SysML Requirements Model Elements to UML Model Elements</text></g></g><g transform="translate(-14,-22) scale(1,1)"><g><path fill="none" stroke="none"/><text fill="#000000" stroke="none" font-family="Arial" font-size="13px" font-style="normal" font-weight="bold" text-decoration="none" x="29" y="49.5"></text></g></g><g transform="translate(-14,-22) scale(1,1)"><rect fill="#C0C0C0" stroke="none" x="295" y="167" width="95.68994140625" height="37" opacity="0.2"/></g><g transform="translate(-14,-22) scale(1,1)"><rect fill="#e2e2e2" stroke="none" x="288" y="160" width="95.68994140625" height="37"/></g><g transform="translate(-14,-22) scale(1,1)"><path fill="none" stroke="#000000" d="M 288 160 L 383.68994140625 160 L 383.68994140625 197 L 288 197 L 288 160 Z Z" stroke-miterlimit="10"/></g><g transform="translate(-14,-22) scale(1,1)"><g><path fill="none" stroke="none"/><text fill="#000000" stroke="none" font-family="Arial" font-size="13px" font-style="normal" font-weight="normal" text-decoration="none" x="297.911376953125" y="177.5">«metaClass»</text></g></g><g transform="translate(-14,-22) scale(1,1)"><g><path fill="none" stroke="none"/><text fill="#000000" stroke="none" font-family="Arial" font-size="13px" font-style="normal" font-weight="bold" text-decoration="none" x="295.39453125" y="192.5">UMLClassifier</text></g></g><g transform="translate(-14,-22) scale(1,1)"><rect fill="#C0C0C0" stroke="none" x="295" y="263" width="84.16259765625" height="85" opacity="0.2"/></g><g transform="translate(-14,-22) scale(1,1)"><rect fill="#ffffff" stroke="none" x="288" y="256" width="84.16259765625" height="85"/></g><g transform="translate(-14,-22) scale(1,1)"><path fill="none" stroke="#000000" d="M 288 256 L 372.16259765625 256 L 372.16259765625 341 L 288 341 L 288 256 Z Z" stroke-miterlimit="10"/></g><g transform="translate(-14,-22) scale(1,1)"><path fill="none" stroke="#000000" d="M 288 294 L 372.16259765625 294" stroke-miterlimit="10"/></g><g transform="translate(-14,-22) scale(1,1)"><path fill="none" stroke="#000000" d="M 288 332 L 372.16259765625 332" stroke-miterlimit="10"/></g><g transform="translate(-14,-22) scale(1,1)"><g><path fill="none" stroke="none"/><text fill="#000000" stroke="none" font-family="Arial" font-size="13px" font-style="normal" font-weight="normal" text-decoration="none" x="292.5" y="273.5">«stereotype»</text></g></g><g transform="translate(-14,-22) scale(1,1)"><g><path fill="none" stroke="none"/><text fill="#000000" stroke="none" font-family="Arial" font-size="13px" font-style="normal" font-weight="bold" text-decoration="none" x="295.397705078125" y="288.5">requirement</text></g></g><g transform="translate(-14,-22) scale(1,1)"><g><path fill="none" stroke="none"/><text fill="#000000" stroke="none" font-family="Arial" font-size="13px" font-style="normal" font-weight="normal" text-decoration="none" x="293" y="311.5">+id</text></g></g><g transform="translate(-14,-22) scale(1,1)"><g><path fill="none" stroke="none"/><text fill="#000000" stroke="none" font-family="Arial" font-size="13px" font-style="normal" font-weight="normal" text-decoration="none" x="293" y="326.5">+text</text></g></g><g transform="translate(-14,-22) scale(1,1)"><path fill="none" stroke="#000000" d="M 332 255 L 334 198" stroke-miterlimit="10"/></g><g transform="translate(-14,-22) scale(1,1)"><path fill="#000000" stroke="none" d="M 337.85056309577834 208.30403628901945 L 334 198 L 329.4367053428536 208.00881320996947"/></g><g transform="translate(-14,-22) scale(1,1)"><path fill="none" stroke="#000000" d="M 337.85056309577834 208.30403628901945 L 334 198 L 329.4367053428536 208.00881320996947 L 337.85056309577834 208.30403628901945" stroke-miterlimit="10"/></g><g transform="translate(-14,-22) scale(1,1)"><rect fill="#C0C0C0" stroke="none" x="567" y="175" width="114.4599609375" height="37" opacity="0.2"/></g><g transform="translate(-14,-22) scale(1,1)"><rect fill="#e2e2e2" stroke="none" x="560" y="168" width="114.4599609375" height="37"/></g><g transform="translate(-14,-22) scale(1,1)"><path fill="none" stroke="#000000" d="M 560 168 L 674.4599609375 168 L 674.4599609375 205 L 560 205 L 560 168 Z Z" stroke-miterlimit="10"/></g><g transform="translate(-14,-22) scale(1,1)"><g><path fill="none" stroke="none"/><text fill="#000000" stroke="none" font-family="Arial" font-size="13px" font-style="normal" font-weight="normal" text-decoration="none" x="579.29638671875" y="185.5">«metaClass»</text></g></g><g transform="translate(-14,-22) scale(1,1)"><g><path fill="none" stroke="none"/><text fill="#000000" stroke="none" font-family="Arial" font-size="13px" font-style="normal" font-weight="bold" text-decoration="none" x="567.00732421875" y="200.5">UMLDependency</text></g></g><g transform="translate(-14,-22) scale(1,1)"><rect fill="#C0C0C0" stroke="none" x="519" y="271" width="84.16259765625" height="57" opacity="0.2"/></g><g transform="translate(-14,-22) scale(1,1)"><rect fill="#ffffff" stroke="none" x="512" y="264" width="84.16259765625" height="57"/></g><g transform="translate(-14,-22) scale(1,1)"><path fill="none" stroke="#000000" d="M 512 264 L 596.16259765625 264 L 596.16259765625 321 L 512 321 L 512 264 Z Z" stroke-miterlimit="10"/></g><g transform="translate(-14,-22) scale(1,1)"><path fill="none" stroke="#000000" d="M 512 302 L 596.16259765625 302" stroke-miterlimit="10"/></g><g transform="translate(-14,-22) scale(1,1)"><path fill="none" stroke="#000000" d="M 512 312 L 596.16259765625 312" stroke-miterlimit="10"/></g><g transform="translate(-14,-22) scale(1,1)"><g><path fill="none" stroke="none"/><text fill="#000000" stroke="none" font-family="Arial" font-size="13px" font-style="normal" font-weight="normal" text-decoration="none" x="516.5" y="281.5">«stereotype»</text></g></g><g transform="translate(-14,-22) scale(1,1)"><g><path fill="none" stroke="none"/><text fill="#000000" stroke="none" font-family="Arial" font-size="13px" font-style="normal" font-weight="bold" text-decoration="none" x="535.660400390625" y="296.5">satisfy</text></g></g><g transform="translate(-14,-22) scale(1,1)"><rect fill="#C0C0C0" stroke="none" x="697" y="298" width="84.16259765625" height="57" opacity="0.2"/></g><g transform="translate(-14,-22) scale(1,1)"><rect fill="#ffffff" stroke="none" x="690" y="291" width="84.16259765625" height="57"/></g><g transform="translate(-14,-22) scale(1,1)"><path fill="none" stroke="#000000" d="M 690 291 L 774.16259765625 291 L 774.16259765625 348 L 690 348 L 690 291 Z Z" stroke-miterlimit="10"/></g><g transform="translate(-14,-22) scale(1,1)"><path fill="none" stroke="#000000" d="M 690 329 L 774.16259765625 329" stroke-miterlimit="10"/></g><g transform="translate(-14,-22) scale(1,1)"><path fill="none" stroke="#000000" d="M 690 339 L 774.16259765625 339" stroke-miterlimit="10"/></g><g transform="translate(-14,-22) scale(1,1)"><g><path fill="none" stroke="none"/><text fill="#000000" stroke="none" font-family="Arial" font-size="13px" font-style="normal" font-weight="normal" text-decoration="none" x="694.5" y="308.5">«stereotype»</text></g></g><g transform="translate(-14,-22) scale(1,1)"><g><path fill="none" stroke="none"/><text fill="#000000" stroke="none" font-family="Arial" font-size="13px" font-style="normal" font-weight="bold" text-decoration="none" x="716.5517578125" y="323.5">verify</text></g></g><g transform="translate(-14,-22) scale(1,1)"><path fill="none" stroke="#000000" d="M 571 263 L 605 206" stroke-miterlimit="10"/></g><g transform="translate(-14,-22) scale(1,1)"><path fill="#000000" stroke="none" d="M 603.4090981435752 216.88434799531987 L 605 206 L 596.1786662328349 212.57145878540462"/></g><g transform="translate(-14,-22) scale(1,1)"><path fill="none" stroke="#000000" d="M 603.4090981435752 216.88434799531987 L 605 206 L 596.1786662328349 212.57145878540462 L 603.4090981435752 216.88434799531987" stroke-miterlimit="10"/></g><g transform="translate(-14,-22) scale(1,1)"><path fill="none" stroke="#000000" d="M 707 290 L 634 206" stroke-miterlimit="10"/></g><g transform="translate(-14,-22) scale(1,1)"><path fill="#000000" stroke="none" d="M 643.8436093193015 210.9095168366102 L 634 206 L 637.4889302535126 216.43203554854585"/></g><g transform="translate(-14,-22) scale(1,1)"><path fill="none" stroke="#000000" d="M 643.8436093193015 210.9095168366102 L 634 206 L 637.4889302535126 216.43203554854585 L 643.8436093193015 210.9095168366102" stroke-miterlimit="10"/></g><g transform="translate(-14,-22) scale(1,1)"><rect fill="#C0C0C0" stroke="none" x="575" y="367" width="84.16259765625" height="57" opacity="0.2"/></g><g transform="translate(-14,-22) scale(1,1)"><rect fill="#ffffff" stroke="none" x="568" y="360" width="84.16259765625" height="57"/></g><g transform="translate(-14,-22) scale(1,1)"><path fill="none" stroke="#000000" d="M 568 360 L 652.16259765625 360 L 652.16259765625 417 L 568 417 L 568 360 Z Z" stroke-miterlimit="10"/></g><g transform="translate(-14,-22) scale(1,1)"><path fill="none" stroke="#000000" d="M 568 398 L 652.16259765625 398" stroke-miterlimit="10"/></g><g transform="translate(-14,-22) scale(1,1)"><path fill="none" stroke="#000000" d="M 568 408 L 652.16259765625 408" stroke-miterlimit="10"/></g><g transform="translate(-14,-22) scale(1,1)"><g><path fill="none" stroke="none"/><text fill="#000000" stroke="none" font-family="Arial" font-size="13px" font-style="normal" font-weight="normal" text-decoration="none" x="572.5" y="377.5">«stereotype»</text></g></g><g transform="translate(-14,-22) scale(1,1)"><g><path fill="none" stroke="none"/><text fill="#000000" stroke="none" font-family="Arial" font-size="13px" font-style="normal" font-weight="bold" text-decoration="none" x="578.647705078125" y="392.5">deriveReqt</text></g></g><g transform="translate(-14,-22) scale(1,1)"><path fill="none" stroke="#000000" d="M 611 359 L 616 206" stroke-miterlimit="10"/></g><g transform="translate(-14,-22) scale(1,1)"><path fill="#000000" stroke="none" d="M 619.8753353888993 216.29474504898224 L 616 206 L 611.460791898141 216.01975996758492"/></g><g transform="translate(-14,-22) scale(1,1)"><path fill="none" stroke="#000000" d="M 619.8753353888993 216.29474504898224 L 616 206 L 611.460791898141 216.01975996758492 L 619.8753353888993 216.29474504898224" stroke-miterlimit="10"/></g><g transform="translate(-14,-22) scale(1,1)"><g><path fill="none" stroke="none"/><text fill="#000000" stroke="none" font-family="Arial" font-size="13px" font-style="normal" font-weight="normal" text-decoration="none" x="45" y="90">This diagram shows</text><text fill="#000000" stroke="none" font-family="Arial" font-size="13px" font-style="normal" font-weight="normal" text-decoration="none" x="45" y="103">the mapping of</text><text fill="#000000" stroke="none" font-family="Arial" font-size="13px" font-style="normal" font-weight="normal" text-decoration="none" x="45" y="116">SysML</text><text fill="#000000" stroke="none" font-family="Arial" font-size="13px" font-style="normal" font-weight="normal" text-decoration="none" x="45" y="129">"Requirements"</text><text fill="#000000" stroke="none" font-family="Arial" font-size="13px" font-style="normal" font-weight="normal" text-decoration="none" x="45" y="142">model elements to</text><text fill="#000000" stroke="none" font-family="Arial" font-size="13px" font-style="normal" font-weight="normal" text-decoration="none" x="45" y="155">UML.</text></g></g><g transform="translate(-14,-22) scale(1,1)"><g><path fill="none" stroke="none"/></g></g><g transform="translate(-14,-22) scale(1,1)"><g><path fill="none" stroke="none"/><text fill="#000000" stroke="none" font-family="Arial" font-size="13px" font-style="normal" font-weight="normal" text-decoration="none" x="45" y="172">This mapping allows</text><text fill="#000000" stroke="none" font-family="Arial" font-size="13px" font-style="normal" font-weight="normal" text-decoration="none" x="45" y="185">to define SysML</text><text fill="#000000" stroke="none" font-family="Arial" font-size="13px" font-style="normal" font-weight="normal" text-decoration="none" x="45" y="198">requirements</text><text fill="#000000" stroke="none" font-family="Arial" font-size="13px" font-style="normal" font-weight="normal" text-decoration="none" x="45" y="211">models with UML.</text></g></g><g transform="translate(-14,-22) scale(1,1)"><g><path fill="none" stroke="none"/><text fill="#000000" stroke="none" font-family="Arial" font-size="13px" font-style="normal" font-weight="normal" text-decoration="none" x="45" y="226">(StarUML only</text><text fill="#000000" stroke="none" font-family="Arial" font-size="13px" font-style="normal" font-weight="normal" text-decoration="none" x="45" y="239">supports UML.)</text></g></g><g transform="translate(-14,-22) scale(1,1)"><g><path fill="none" stroke="none"/></g></g><g transform="translate(-14,-22) scale(1,1)"><rect fill="#ffffff" stroke="none" x="48" y="360" width="99" height="22"/></g><g transform="translate(-14,-22) scale(1,1)"><path fill="none" stroke="#000000" d="M 48 360 L 147 360 L 147 382 L 48 382 L 48 360 Z Z" stroke-miterlimit="10"/></g><g transform="translate(-14,-22) scale(1,1)"><path fill="none" stroke="#000000" d="M 80.39453125 360 L 80.39453125 382" stroke-miterlimit="10"/></g><g transform="translate(-14,-22) scale(1,1)"><g><path fill="none" stroke="none"/><text fill="#000000" stroke="none" font-family="Arial" font-size="13px" font-style="normal" font-weight="normal" text-decoration="none" x="84.89453125" y="377.5">SysML</text></g></g><g transform="translate(-14,-22) scale(1,1)"><g><path fill="none" stroke="none"/><text fill="#000000" stroke="none" font-family="Arial" font-size="13px" font-style="normal" font-weight="bold" text-decoration="none" x="54.444091796875" y="377.5">link</text></g></g></g></svg>