<svg version="1.1" xmlns="http://www.w3.org/2000/svg" width="612" height="427"><defs/><g><g transform="translate(-22,-14) scale(1,1)"><path fill="none" stroke="#000000" d="M 32 24 L 624 24 L 624 431 L 32 431 L 32 24" stroke-miterlimit="10"/></g><g transform="translate(-22,-14) scale(1,1)"><path fill="#ffffff" stroke="none" d="M 32 24 L 32 46 L 284.25341796875 46 L 295.25341796875 35 L 295.25341796875 24 L 32 24"/></g><g transform="translate(-22,-14) scale(1,1)"><path fill="none" stroke="#000000" d="M 32 24 L 32 46 L 284.25341796875 46 L 295.25341796875 35 L 295.25341796875 24 L 32 24 L 32 24" stroke-miterlimit="10"/></g><g transform="translate(-22,-14) scale(1,1)"><g><path fill="none" stroke="none"/><text fill="#000000" stroke="none" font-family="Arial" font-size="13px" font-style="normal" font-weight="normal" text-decoration="none" x="72.6181640625" y="41.5">DirectedGraph Constraints Diagram</text></g></g><g transform="translate(-22,-14) scale(1,1)"><g><path fill="none" stroke="none"/><text fill="#000000" stroke="none" font-family="Arial" font-size="13px" font-style="normal" font-weight="bold" text-decoration="none" x="37" y="41.5">class</text></g></g><g transform="translate(-22,-14) scale(1,1)"><path fill="#C0C0C0" stroke="none" d="M 169.265869140625 218.5 C 169.265869140625 212.1487248 174.414593940625 207 180.765869140625 207 C 187.117144340625 207 192.265869140625 212.1487248 192.265869140625 218.5 C 192.265869140625 224.8512752 187.117144340625 230 180.765869140625 230 C 174.414593940625 230 169.265869140625 224.8512752 169.265869140625 218.5 Z" opacity="0.2"/></g><g transform="translate(-22,-14) scale(1,1)"><path fill="#ffffff" stroke="none" d="M 162.265869140625 211.5 C 162.265869140625 205.1487248 167.414593940625 200 173.765869140625 200 C 180.117144340625 200 185.265869140625 205.1487248 185.265869140625 211.5 C 185.265869140625 217.8512752 180.117144340625 223 173.765869140625 223 C 167.414593940625 223 162.265869140625 217.8512752 162.265869140625 211.5 Z"/></g><g transform="translate(-22,-14) scale(1,1)"><path fill="none" stroke="#000000" d="M 162.265869140625 211.5 C 162.265869140625 205.1487248 167.414593940625 200 173.765869140625 200 C 180.117144340625 200 185.265869140625 205.1487248 185.265869140625 211.5 C 185.265869140625 217.8512752 180.117144340625 223 173.765869140625 223 C 167.414593940625 223 162.265869140625 217.8512752 162.265869140625 211.5 Z" stroke-miterlimit="10"/></g><g transform="translate(-22,-14) scale(1,1)"><g><path fill="none" stroke="none"/><text fill="#000000" stroke="none" font-family="Arial" font-size="13px" font-style="normal" font-weight="bold" text-decoration="none" x="98.622314453125" y="242.5">DirectedGraphConstraints</text></g></g><g transform="translate(-22,-14) scale(1,1)"><path fill="#ffffff" stroke="none" d="M 328 168 L 587 168 L 597 178 L 597 247 L 328 247 L 328 168"/></g><g transform="translate(-22,-14) scale(1,1)"><path fill="none" stroke="#000000" d="M 328 168 L 587 168 L 597 178 L 597 247 L 328 247 L 328 168 L 328 168" stroke-miterlimit="10"/></g><g transform="translate(-22,-14) scale(1,1)"><path fill="none" stroke="#000000" d="M 587 168 L 587 178 L 597 178 L 587 168" stroke-miterlimit="10"/></g><g transform="translate(-22,-14) scale(1,1)"><g><path fill="none" stroke="none"/><text fill="#000000" stroke="none" font-family="Arial" font-size="13px" font-style="normal" font-weight="normal" text-decoration="none" x="333" y="186">{The 'previous vertices' of vertex 'v' are all</text></g></g><g transform="translate(-22,-14) scale(1,1)"><g><path fill="none" stroke="none"/><text fill="#000000" stroke="none" font-family="Arial" font-size="13px" font-style="normal" font-weight="normal" text-decoration="none" x="333" y="201">vertices 'u' in the arrows set A of the directed</text><text fill="#000000" stroke="none" font-family="Arial" font-size="13px" font-style="normal" font-weight="normal" text-decoration="none" x="333" y="214">graph DG=(V,A), where</text></g></g><g transform="translate(-22,-14) scale(1,1)"><g><path fill="none" stroke="none"/><text fill="#000000" stroke="none" font-family="Arial" font-size="13px" font-style="normal" font-weight="normal" text-decoration="none" x="333" y="229">an ordered pair exists with (start=u, end=v).}</text></g></g><g transform="translate(-22,-14) scale(1,1)"><path fill="none" stroke="#000000" d="M 327 216 L 261 219" stroke-miterlimit="10" stroke-dasharray="3"/></g><g transform="translate(-22,-14) scale(1,1)"><path fill="#ffffff" stroke="none" d="M 328 256 L 582 256 L 592 266 L 592 335 L 328 335 L 328 256"/></g><g transform="translate(-22,-14) scale(1,1)"><path fill="none" stroke="#000000" d="M 328 256 L 582 256 L 592 266 L 592 335 L 328 335 L 328 256 L 328 256" stroke-miterlimit="10"/></g><g transform="translate(-22,-14) scale(1,1)"><path fill="none" stroke="#000000" d="M 582 256 L 582 266 L 592 266 L 582 256" stroke-miterlimit="10"/></g><g transform="translate(-22,-14) scale(1,1)"><g><path fill="none" stroke="none"/><text fill="#000000" stroke="none" font-family="Arial" font-size="13px" font-style="normal" font-weight="normal" text-decoration="none" x="333" y="274">{The 'next vertices' of vertex 'v' are all</text></g></g><g transform="translate(-22,-14) scale(1,1)"><g><path fill="none" stroke="none"/><text fill="#000000" stroke="none" font-family="Arial" font-size="13px" font-style="normal" font-weight="normal" text-decoration="none" x="333" y="289">vertices 'u' in the arrows set A of the</text><text fill="#000000" stroke="none" font-family="Arial" font-size="13px" font-style="normal" font-weight="normal" text-decoration="none" x="333" y="302">directed graph DG=(V,A), where</text></g></g><g transform="translate(-22,-14) scale(1,1)"><g><path fill="none" stroke="none"/><text fill="#000000" stroke="none" font-family="Arial" font-size="13px" font-style="normal" font-weight="normal" text-decoration="none" x="333" y="317">an ordered pair exists with (start=v,end=u).}</text></g></g><g transform="translate(-22,-14) scale(1,1)"><path fill="none" stroke="#000000" d="M 327 263 L 261 246" stroke-miterlimit="10" stroke-dasharray="3"/></g><g transform="translate(-22,-14) scale(1,1)"><path fill="#C0C0C0" stroke="none" d="M 167.25634765625 106.5 C 167.25634765625 100.1487248 172.40507245625 95 178.75634765625 95 C 185.10762285625 95 190.25634765625 100.1487248 190.25634765625 106.5 C 190.25634765625 112.8512752 185.10762285625 118 178.75634765625 118 C 172.40507245625 118 167.25634765625 112.8512752 167.25634765625 106.5 Z" opacity="0.2"/></g><g transform="translate(-22,-14) scale(1,1)"><path fill="#ffffff" stroke="none" d="M 160.25634765625 99.5 C 160.25634765625 93.1487248 165.40507245625 88 171.75634765625 88 C 178.10762285625 88 183.25634765625 93.1487248 183.25634765625 99.5 C 183.25634765625 105.8512752 178.10762285625 111 171.75634765625 111 C 165.40507245625 111 160.25634765625 105.8512752 160.25634765625 99.5 Z"/></g><g transform="translate(-22,-14) scale(1,1)"><path fill="none" stroke="#000000" d="M 160.25634765625 99.5 C 160.25634765625 93.1487248 165.40507245625 88 171.75634765625 88 C 178.10762285625 88 183.25634765625 93.1487248 183.25634765625 99.5 C 183.25634765625 105.8512752 178.10762285625 111 171.75634765625 111 C 165.40507245625 111 160.25634765625 105.8512752 160.25634765625 99.5 Z" stroke-miterlimit="10"/></g><g transform="translate(-22,-14) scale(1,1)"><g><path fill="none" stroke="none"/><text fill="#000000" stroke="none" font-family="Arial" font-size="13px" font-style="normal" font-weight="bold" text-decoration="none" x="120.81640625" y="130.5">GraphConstraints</text></g></g><g transform="translate(-22,-14) scale(1,1)"><path fill="none" stroke="#000000" d="M 173 199 L 171 137" stroke-miterlimit="10"/></g><g transform="translate(-22,-14) scale(1,1)"><path fill="#FFFFFF" stroke="none" d="M 180.06997415224058 157.04334225815865 L 171 137 L 163.24065699984916 157.5862234566229"/></g><g transform="translate(-22,-14) scale(1,1)"><path fill="none" stroke="#000000" d="M 180.06997415224058 157.04334225815865 L 171 137 L 163.24065699984916 157.5862234566229 L 180.06997415224058 157.04334225815865" stroke-miterlimit="10"/></g><g transform="translate(-22,-14) scale(1,1)"><path fill="#ffffff" stroke="none" d="M 328 48 L 589 48 L 599 58 L 599 143 L 328 143 L 328 48"/></g><g transform="translate(-22,-14) scale(1,1)"><path fill="none" stroke="#000000" d="M 328 48 L 589 48 L 599 58 L 599 143 L 328 143 L 328 48 L 328 48" stroke-miterlimit="10"/></g><g transform="translate(-22,-14) scale(1,1)"><path fill="none" stroke="#000000" d="M 589 48 L 589 58 L 599 58 L 589 48" stroke-miterlimit="10"/></g><g transform="translate(-22,-14) scale(1,1)"><g><path fill="none" stroke="none"/><text fill="#000000" stroke="none" font-family="Arial" font-size="13px" font-style="normal" font-weight="normal" text-decoration="none" x="333" y="66">{A directed graph is a tuple DG=(V, A).</text></g></g><g transform="translate(-22,-14) scale(1,1)"><g><path fill="none" stroke="none"/><text fill="#000000" stroke="none" font-family="Arial" font-size="13px" font-style="normal" font-weight="normal" text-decoration="none" x="333" y="81">Where V is a set of vertices,</text></g></g><g transform="translate(-22,-14) scale(1,1)"><g><path fill="none" stroke="none"/><text fill="#000000" stroke="none" font-family="Arial" font-size="13px" font-style="normal" font-weight="normal" text-decoration="none" x="333" y="96">and A is a set of arrows.</text></g></g><g transform="translate(-22,-14) scale(1,1)"><g><path fill="none" stroke="none"/></g></g><g transform="translate(-22,-14) scale(1,1)"><g><path fill="none" stroke="none"/><text fill="#000000" stroke="none" font-family="Arial" font-size="13px" font-style="normal" font-weight="normal" text-decoration="none" x="333" y="113">An arrow is a ordered pair (a,b) where a and</text><text fill="#000000" stroke="none" font-family="Arial" font-size="13px" font-style="normal" font-weight="normal" text-decoration="none" x="333" y="126">b are vertices from the set V.}</text></g></g><g transform="translate(-22,-14) scale(1,1)"><path fill="none" stroke="#000000" d="M 353 145 L 230 199" stroke-miterlimit="10" stroke-dasharray="3"/></g></g></svg>