<svg version="1.1" xmlns="http://www.w3.org/2000/svg" xmlns:xlink="http://www.w3.org/1999/xlink" width="675" height="595"><defs/><g><g transform="translate(2,-6) scale(1,1)"><path fill="none" stroke="#000000" d="M 8 16 L 663 16 L 663 591 L 8 591 L 8 16" stroke-miterlimit="10"/></g><g transform="translate(2,-6) scale(1,1)"><path fill="#ffffff" stroke="none" d="M 8 16 L 8 38 L 133.09716796875 38 L 144.09716796875 27 L 144.09716796875 16 L 8 16"/></g><g transform="translate(2,-6) scale(1,1)"><path fill="none" stroke="#000000" d="M 8 16 L 8 38 L 133.09716796875 38 L 144.09716796875 27 L 144.09716796875 16 L 8 16 L 8 16" stroke-miterlimit="10"/></g><g transform="translate(2,-6) scale(1,1)"><g><path fill="none" stroke="none"/><text fill="#000000" stroke="none" font-family="Arial" font-size="13px" font-style="normal" font-weight="normal" text-decoration="none" x="48.6181640625" y="33.5">Base Classes</text></g></g><g transform="translate(2,-6) scale(1,1)"><g><path fill="none" stroke="none"/><text fill="#000000" stroke="none" font-family="Arial" font-size="13px" font-style="normal" font-weight="bold" text-decoration="none" x="13" y="33.5">class</text></g></g><g transform="translate(2,-6) scale(1,1)"><rect fill="#C0C0C0" stroke="none" x="311" y="487" width="189.6416015625" height="59" opacity="0.2"/></g><g transform="translate(2,-6) scale(1,1)"><rect fill="#ffffff" stroke="none" x="304" y="480" width="189.6416015625" height="59"/></g><g transform="translate(2,-6) scale(1,1)"><path fill="none" stroke="#000000" d="M 304 480 L 493.6416015625 480 L 493.6416015625 539 L 304 539 L 304 480 Z Z" stroke-miterlimit="10"/></g><g transform="translate(2,-6) scale(1,1)"><path fill="none" stroke="#000000" d="M 304 520 L 493.6416015625 520" stroke-miterlimit="10"/></g><g transform="translate(2,-6) scale(1,1)"><path fill="none" stroke="#000000" d="M 304 530 L 493.6416015625 530" stroke-miterlimit="10"/></g><g transform="translate(2,-6) scale(1,1)"><g><path fill="none" stroke="none"/><text fill="#000000" stroke="none" font-family="Arial" font-size="13px" font-style="normal" font-weight="bold" text-decoration="none" x="336.328125" y="499.5">AbstractActivityAction</text></g></g><g transform="translate(2,-6) scale(1,1)"><g><path fill="none" stroke="none"/><text fill="#000000" stroke="none" font-family="Arial" font-size="13px" font-style="normal" font-weight="normal" text-decoration="none" x="308.5" y="514.5">(from org.jhotdraw8.app.action)</text></g></g><g transform="translate(2,-6) scale(1,1)"><rect fill="#C0C0C0" stroke="none" x="455" y="103" width="189.6416015625" height="63" opacity="0.2"/></g><g transform="translate(2,-6) scale(1,1)"><rect fill="#ffffff" stroke="none" x="448" y="96" width="189.6416015625" height="63"/></g><g transform="translate(2,-6) scale(1,1)"><path fill="none" stroke="#000000" d="M 448 96 L 637.6416015625 96 L 637.6416015625 159 L 448 159 L 448 96 Z Z" stroke-miterlimit="10"/></g><g transform="translate(2,-6) scale(1,1)"><g><path fill="none" stroke="none"/><text fill="#000000" stroke="none" font-family="Arial" font-size="13px" font-style="normal" font-weight="normal" text-decoration="none" x="510.660400390625" y="113.5">«interface»</text></g></g><g transform="translate(2,-6) scale(1,1)"><g><path fill="none" stroke="none"/><text fill="#000000" stroke="none" font-family="Arial" font-size="13px" font-style="normal" font-weight="bold" text-decoration="none" x="524.75537109375" y="128.5">Action</text></g></g><g transform="translate(2,-6) scale(1,1)"><g><path fill="none" stroke="none"/><text fill="#000000" stroke="none" font-family="Arial" font-size="13px" font-style="normal" font-weight="normal" text-decoration="none" x="452.5" y="143.5">(from org.jhotdraw8.app.action)</text></g></g><g transform="translate(2,-6) scale(1,1)"><rect fill="#C0C0C0" stroke="none" x="311" y="391" width="189.6416015625" height="59" opacity="0.2"/></g><g transform="translate(2,-6) scale(1,1)"><rect fill="#ffffff" stroke="none" x="304" y="384" width="189.6416015625" height="59"/></g><g transform="translate(2,-6) scale(1,1)"><path fill="none" stroke="#000000" d="M 304 384 L 493.6416015625 384 L 493.6416015625 443 L 304 443 L 304 384 Z Z" stroke-miterlimit="10"/></g><g transform="translate(2,-6) scale(1,1)"><path fill="none" stroke="#000000" d="M 304 424 L 493.6416015625 424" stroke-miterlimit="10"/></g><g transform="translate(2,-6) scale(1,1)"><path fill="none" stroke="#000000" d="M 304 434 L 493.6416015625 434" stroke-miterlimit="10"/></g><g transform="translate(2,-6) scale(1,1)"><g><path fill="none" stroke="none"/><text fill="#000000" stroke="none" font-family="Arial" font-size="13px" font-style="normal" font-weight="bold" text-decoration="none" x="325.114990234375" y="403.5">AbstractApplicationAction</text></g></g><g transform="translate(2,-6) scale(1,1)"><g><path fill="none" stroke="none"/><text fill="#000000" stroke="none" font-family="Arial" font-size="13px" font-style="normal" font-weight="normal" text-decoration="none" x="308.5" y="418.5">(from org.jhotdraw8.app.action)</text></g></g><g transform="translate(2,-6) scale(1,1)"><rect fill="#C0C0C0" stroke="none" x="311" y="287" width="189.6416015625" height="59" opacity="0.2"/></g><g transform="translate(2,-6) scale(1,1)"><rect fill="#ffffff" stroke="none" x="304" y="280" width="189.6416015625" height="59"/></g><g transform="translate(2,-6) scale(1,1)"><path fill="none" stroke="#000000" d="M 304 280 L 493.6416015625 280 L 493.6416015625 339 L 304 339 L 304 280 Z Z" stroke-miterlimit="10"/></g><g transform="translate(2,-6) scale(1,1)"><path fill="none" stroke="#000000" d="M 304 320 L 493.6416015625 320" stroke-miterlimit="10"/></g><g transform="translate(2,-6) scale(1,1)"><path fill="none" stroke="#000000" d="M 304 330 L 493.6416015625 330" stroke-miterlimit="10"/></g><g transform="translate(2,-6) scale(1,1)"><g><path fill="none" stroke="none"/><text fill="#000000" stroke="none" font-family="Arial" font-size="13px" font-style="normal" font-weight="bold" text-decoration="none" x="356.91357421875" y="299.5">AbstractAction</text></g></g><g transform="translate(2,-6) scale(1,1)"><g><path fill="none" stroke="none"/><text fill="#000000" stroke="none" font-family="Arial" font-size="13px" font-style="normal" font-weight="normal" text-decoration="none" x="308.5" y="314.5">(from org.jhotdraw8.app.action)</text></g></g><g transform="translate(2,-6) scale(1,1)"><rect fill="#C0C0C0" stroke="none" x="263" y="183" width="151.33984375" height="59" opacity="0.2"/></g><g transform="translate(2,-6) scale(1,1)"><rect fill="#ffffff" stroke="none" x="256" y="176" width="151.33984375" height="59"/></g><g transform="translate(2,-6) scale(1,1)"><path fill="none" stroke="#000000" d="M 256 176 L 407.33984375 176 L 407.33984375 235 L 256 235 L 256 176 Z Z" stroke-miterlimit="10"/></g><g transform="translate(2,-6) scale(1,1)"><path fill="none" stroke="#000000" d="M 256 216 L 407.33984375 216" stroke-miterlimit="10"/></g><g transform="translate(2,-6) scale(1,1)"><path fill="none" stroke="#000000" d="M 256 226 L 407.33984375 226" stroke-miterlimit="10"/></g><g transform="translate(2,-6) scale(1,1)"><g><path fill="none" stroke="none"/><text fill="#000000" stroke="none" font-family="Arial" font-size="13px" font-style="normal" font-weight="bold" text-decoration="none" x="273.86181640625" y="195.5">AbstractDisableable</text></g></g><g transform="translate(2,-6) scale(1,1)"><g><path fill="none" stroke="none"/><text fill="#000000" stroke="none" font-family="Arial" font-size="13px" font-style="normal" font-weight="normal" text-decoration="none" x="260.5" y="210.5">(from org.jhotdraw8.app)</text></g></g><g transform="translate(2,-6) scale(1,1)"><rect fill="#C0C0C0" stroke="none" x="135" y="71" width="151.33984375" height="63" opacity="0.2"/></g><g transform="translate(2,-6) scale(1,1)"><rect fill="#ffffff" stroke="none" x="128" y="64" width="151.33984375" height="63"/></g><g transform="translate(2,-6) scale(1,1)"><path fill="none" stroke="#000000" d="M 128 64 L 279.33984375 64 L 279.33984375 127 L 128 127 L 128 64 Z Z" stroke-miterlimit="10"/></g><g transform="translate(2,-6) scale(1,1)"><g><path fill="none" stroke="none"/><text fill="#000000" stroke="none" font-family="Arial" font-size="13px" font-style="normal" font-weight="normal" text-decoration="none" x="171.509521484375" y="81.5">«interface»</text></g></g><g transform="translate(2,-6) scale(1,1)"><g><path fill="none" stroke="none"/><text fill="#000000" stroke="none" font-family="Arial" font-size="13px" font-style="normal" font-weight="bold" text-decoration="none" x="169.70361328125" y="96.5">Disableable</text></g></g><g transform="translate(2,-6) scale(1,1)"><g><path fill="none" stroke="none"/><text fill="#000000" stroke="none" font-family="Arial" font-size="13px" font-style="normal" font-weight="normal" text-decoration="none" x="132.5" y="111.5">(from org.jhotdraw8.app)</text></g></g><g transform="translate(2,-6) scale(1,1)"><path fill="none" stroke="#000000" d="M 296 175 L 241 128" stroke-miterlimit="10" stroke-dasharray="3"/></g><g transform="translate(2,-6) scale(1,1)"><path fill="#FFFFFF" stroke="none" d="M 261.92141604466 134.80399520033947 L 241 128 L 250.98252401188338 147.60482630252488"/></g><g transform="translate(2,-6) scale(1,1)"><path fill="none" stroke="#000000" d="M 261.92141604466 134.80399520033947 L 241 128 L 250.98252401188338 147.60482630252488 L 261.92141604466 134.80399520033947" stroke-miterlimit="10"/></g><g transform="translate(2,-6) scale(1,1)"><path fill="none" stroke="#000000" d="M 422 279 L 516 160" stroke-miterlimit="10" stroke-dasharray="3"/></g><g transform="translate(2,-6) scale(1,1)"><path fill="#FFFFFF" stroke="none" d="M 510.0077024606343 181.1681924169191 L 516 160 L 496.7946333715619 170.73097817849217"/></g><g transform="translate(2,-6) scale(1,1)"><path fill="none" stroke="#000000" d="M 510.0077024606343 181.1681924169191 L 516 160 L 496.7946333715619 170.73097817849217 L 510.0077024606343 181.1681924169191" stroke-miterlimit="10"/></g><g transform="translate(2,-6) scale(1,1)"><path fill="none" stroke="#000000" d="M 379 279 L 351 236" stroke-miterlimit="10"/></g><g transform="translate(2,-6) scale(1,1)"><path fill="#FFFFFF" stroke="none" d="M 369.1461336738616 248.43856232409306 L 351 236 L 355.0358624055274 257.6266459406828"/></g><g transform="translate(2,-6) scale(1,1)"><path fill="none" stroke="#000000" d="M 369.1461336738616 248.43856232409306 L 351 236 L 355.0358624055274 257.6266459406828 L 369.1461336738616 248.43856232409306" stroke-miterlimit="10"/></g><g transform="translate(2,-6) scale(1,1)"><path fill="none" stroke="#000000" d="M 398 383 L 398 340" stroke-miterlimit="10"/></g><g transform="translate(2,-6) scale(1,1)"><path fill="#FFFFFF" stroke="none" d="M 406.419035512032 360.3253497152483 L 398 340 L 389.580964487968 360.3253497152483"/></g><g transform="translate(2,-6) scale(1,1)"><path fill="none" stroke="#000000" d="M 406.419035512032 360.3253497152483 L 398 340 L 389.580964487968 360.3253497152483 L 406.419035512032 360.3253497152483" stroke-miterlimit="10"/></g><g transform="translate(2,-6) scale(1,1)"><path fill="none" stroke="#000000" d="M 398 479 L 398 444" stroke-miterlimit="10"/></g><g transform="translate(2,-6) scale(1,1)"><path fill="#FFFFFF" stroke="none" d="M 406.419035512032 464.3253497152483 L 398 444 L 389.580964487968 464.3253497152483"/></g><g transform="translate(2,-6) scale(1,1)"><path fill="none" stroke="#000000" d="M 406.419035512032 464.3253497152483 L 398 444 L 389.580964487968 464.3253497152483 L 406.419035512032 464.3253497152483" stroke-miterlimit="10"/></g></g></svg>