<svg version="1.1" xmlns="http://www.w3.org/2000/svg" xmlns:xlink="http://www.w3.org/1999/xlink" width="1052" height="636"><defs/><g><g transform="translate(-14,-22) scale(1,1)"><path fill="none" stroke="#000000" d="M 24 32 L 1056 32 L 1056 648 L 24 648 L 24 32" stroke-miterlimit="10"/></g><g transform="translate(-14,-22) scale(1,1)"><path fill="#ffffff" stroke="none" d="M 24 32 L 24 54 L 182.33984375 54 L 193.33984375 43 L 193.33984375 32 L 24 32"/></g><g transform="translate(-14,-22) scale(1,1)"><path fill="none" stroke="#000000" d="M 24 32 L 24 54 L 182.33984375 54 L 193.33984375 43 L 193.33984375 32 L 24 32 L 24 32" stroke-miterlimit="10"/></g><g transform="translate(-14,-22) scale(1,1)"><g><path fill="none" stroke="none"/><text fill="#000000" stroke="none" font-family="Arial" font-size="13px" font-style="normal" font-weight="normal" text-decoration="none" x="64.6181640625" y="49.5">Support for Abilities</text></g></g><g transform="translate(-14,-22) scale(1,1)"><g><path fill="none" stroke="none"/><text fill="#000000" stroke="none" font-family="Arial" font-size="13px" font-style="normal" font-weight="bold" text-decoration="none" x="29" y="49.5">class</text></g></g><g transform="translate(-14,-22) scale(1,1)"><rect fill="#C0C0C0" stroke="none" x="575" y="95" width="73.32080078125" height="48" opacity="0.2"/></g><g transform="translate(-14,-22) scale(1,1)"><rect fill="#ffffff" stroke="none" x="568" y="88" width="73.32080078125" height="48"/></g><g transform="translate(-14,-22) scale(1,1)"><path fill="none" stroke="#000000" d="M 568 88 L 641.32080078125 88 L 641.32080078125 136 L 568 136 L 568 88 Z Z" stroke-miterlimit="10"/></g><g transform="translate(-14,-22) scale(1,1)"><g><path fill="none" stroke="none"/><text fill="#000000" stroke="none" font-family="Arial" font-size="13px" font-style="normal" font-weight="normal" text-decoration="none" x="572.5" y="105.5">«interface»</text></g></g><g transform="translate(-14,-22) scale(1,1)"><g><path fill="none" stroke="none"/><text fill="#000000" stroke="none" font-family="Arial" font-size="13px" font-style="normal" font-weight="bold" text-decoration="none" x="586.236328125" y="120.5">Figure</text></g></g><g transform="translate(-14,-22) scale(1,1)"><rect fill="#C0C0C0" stroke="none" x="543" y="567" width="110.8544921875" height="44" opacity="0.2"/></g><g transform="translate(-14,-22) scale(1,1)"><rect fill="#ffd8d8" stroke="none" x="536" y="560" width="110.8544921875" height="44"/></g><g transform="translate(-14,-22) scale(1,1)"><path fill="none" stroke="#000000" d="M 536 560 L 646.8544921875 560 L 646.8544921875 604 L 536 604 L 536 560 Z Z" stroke-miterlimit="10"/></g><g transform="translate(-14,-22) scale(1,1)"><g><path fill="none" stroke="none"/><text fill="#000000" stroke="none" font-family="Arial" font-size="13px" font-style="normal" font-weight="bold" text-decoration="none" x="543.734130859375" y="579.5">RectangleFigure</text></g></g><g transform="translate(-14,-22) scale(1,1)"><path fill="none" stroke="#000000" d="M 593 367 L 603 137" stroke-miterlimit="10" stroke-dasharray="3"/></g><g transform="translate(-14,-22) scale(1,1)"><path fill="#FFFFFF" stroke="none" d="M 610.5282125016299 157.6718653374654 L 603 137 L 593.7060339502189 156.94046627001276"/></g><g transform="translate(-14,-22) scale(1,1)"><path fill="none" stroke="#000000" d="M 610.5282125016299 157.6718653374654 L 603 137 L 593.7060339502189 156.94046627001276 L 610.5282125016299 157.6718653374654" stroke-miterlimit="10"/></g><g transform="translate(-14,-22) scale(1,1)"><rect fill="#C0C0C0" stroke="none" x="535" y="375" width="128.18994140625" height="44" opacity="0.2"/></g><g transform="translate(-14,-22) scale(1,1)"><rect fill="#ffffff" stroke="none" x="528" y="368" width="128.18994140625" height="44"/></g><g transform="translate(-14,-22) scale(1,1)"><path fill="none" stroke="#000000" d="M 528 368 L 656.18994140625 368 L 656.18994140625 412 L 528 412 L 528 368 Z Z" stroke-miterlimit="10"/></g><g transform="translate(-14,-22) scale(1,1)"><g><path fill="none" stroke="none"/><text fill="#000000" stroke="none" font-family="Arial" font-size="13px" font-style="normal" font-weight="bold" text-decoration="none" x="537.17822265625" y="387.5">AbstractLeafFigure</text></g></g><g transform="translate(-14,-22) scale(1,1)"><path fill="none" stroke="#000000" d="M 591 559 L 592 413" stroke-miterlimit="10"/></g><g transform="translate(-14,-22) scale(1,1)"><path fill="#FFFFFF" stroke="none" d="M 600.2796265786878 433.38253624349744 L 592 413 L 583.4419505039249 433.26720969504015"/></g><g transform="translate(-14,-22) scale(1,1)"><path fill="none" stroke="#000000" d="M 600.2796265786878 433.38253624349744 L 592 413 L 583.4419505039249 433.26720969504015 L 600.2796265786878 433.38253624349744" stroke-miterlimit="10"/></g><g transform="translate(-14,-22) scale(1,1)"><rect fill="#C0C0C0" stroke="none" x="303" y="111" width="107.96630859375" height="48" opacity="0.2"/></g><g transform="translate(-14,-22) scale(1,1)"><rect fill="#a3e0ff" stroke="none" x="296" y="104" width="107.96630859375" height="48"/></g><g transform="translate(-14,-22) scale(1,1)"><path fill="none" stroke="#000000" d="M 296 104 L 403.96630859375 104 L 403.96630859375 152 L 296 152 L 296 104 Z Z" stroke-miterlimit="10"/></g><g transform="translate(-14,-22) scale(1,1)"><g><path fill="none" stroke="none"/><text fill="#000000" stroke="none" font-family="Arial" font-size="13px" font-style="normal" font-weight="normal" text-decoration="none" x="317.82275390625" y="121.5">«interface»</text></g></g><g transform="translate(-14,-22) scale(1,1)"><g><path fill="none" stroke="none"/><text fill="#000000" stroke="none" font-family="Arial" font-size="13px" font-style="normal" font-weight="bold" text-decoration="none" x="304.09912109375" y="136.5">StrokableFigure</text></g></g><g transform="translate(-14,-22) scale(1,1)"><rect fill="#C0C0C0" stroke="none" x="311" y="183" width="93.5126953125" height="48" opacity="0.2"/></g><g transform="translate(-14,-22) scale(1,1)"><rect fill="#d8f2ff" stroke="none" x="304" y="176" width="93.5126953125" height="48"/></g><g transform="translate(-14,-22) scale(1,1)"><path fill="none" stroke="#000000" d="M 304 176 L 397.5126953125 176 L 397.5126953125 224 L 304 224 L 304 176 Z Z" stroke-miterlimit="10"/></g><g transform="translate(-14,-22) scale(1,1)"><g><path fill="none" stroke="none"/><text fill="#000000" stroke="none" font-family="Arial" font-size="13px" font-style="normal" font-weight="normal" text-decoration="none" x="318.595947265625" y="193.5">«interface»</text></g></g><g transform="translate(-14,-22) scale(1,1)"><g><path fill="none" stroke="none"/><text fill="#000000" stroke="none" font-family="Arial" font-size="13px" font-style="normal" font-weight="bold" text-decoration="none" x="311.740478515625" y="208.5">FillableFigure</text></g></g><g transform="translate(-14,-22) scale(1,1)"><rect fill="#C0C0C0" stroke="none" x="271" y="263" width="138.30810546875" height="48" opacity="0.2"/></g><g transform="translate(-14,-22) scale(1,1)"><rect fill="#d8f2ff" stroke="none" x="264" y="256" width="138.30810546875" height="48"/></g><g transform="translate(-14,-22) scale(1,1)"><path fill="none" stroke="#000000" d="M 264 256 L 402.30810546875 256 L 402.30810546875 304 L 264 304 L 264 256 Z Z" stroke-miterlimit="10"/></g><g transform="translate(-14,-22) scale(1,1)"><g><path fill="none" stroke="none"/><text fill="#000000" stroke="none" font-family="Arial" font-size="13px" font-style="normal" font-weight="normal" text-decoration="none" x="300.99365234375" y="273.5">«interface»</text></g></g><g transform="translate(-14,-22) scale(1,1)"><g><path fill="none" stroke="none"/><text fill="#000000" stroke="none" font-family="Arial" font-size="13px" font-style="normal" font-weight="bold" text-decoration="none" x="273.067138671875" y="288.5">TransformableFigure</text></g></g><g transform="translate(-14,-22) scale(1,1)"><rect fill="#C0C0C0" stroke="none" x="311" y="343" width="108.6962890625" height="48" opacity="0.2"/></g><g transform="translate(-14,-22) scale(1,1)"><rect fill="#d8f2ff" stroke="none" x="304" y="336" width="108.6962890625" height="48"/></g><g transform="translate(-14,-22) scale(1,1)"><path fill="none" stroke="#000000" d="M 304 336 L 412.6962890625 336 L 412.6962890625 384 L 304 384 L 304 336 Z Z" stroke-miterlimit="10"/></g><g transform="translate(-14,-22) scale(1,1)"><g><path fill="none" stroke="none"/><text fill="#000000" stroke="none" font-family="Arial" font-size="13px" font-style="normal" font-weight="normal" text-decoration="none" x="326.187744140625" y="353.5">«interface»</text></g></g><g transform="translate(-14,-22) scale(1,1)"><g><path fill="none" stroke="none"/><text fill="#000000" stroke="none" font-family="Arial" font-size="13px" font-style="normal" font-weight="bold" text-decoration="none" x="311.3818359375" y="368.5">ResizableFigure</text></g></g><g transform="translate(-14,-22) scale(1,1)"><rect fill="#C0C0C0" stroke="none" x="335" y="439" width="102.9072265625" height="48" opacity="0.2"/></g><g transform="translate(-14,-22) scale(1,1)"><rect fill="#d8f2ff" stroke="none" x="328" y="432" width="102.9072265625" height="48"/></g><g transform="translate(-14,-22) scale(1,1)"><path fill="none" stroke="#000000" d="M 328 432 L 430.9072265625 432 L 430.9072265625 480 L 328 480 L 328 432 Z Z" stroke-miterlimit="10"/></g><g transform="translate(-14,-22) scale(1,1)"><g><path fill="none" stroke="none"/><text fill="#000000" stroke="none" font-family="Arial" font-size="13px" font-style="normal" font-weight="normal" text-decoration="none" x="347.293212890625" y="449.5">«interface»</text></g></g><g transform="translate(-14,-22) scale(1,1)"><g><path fill="none" stroke="none"/><text fill="#000000" stroke="none" font-family="Arial" font-size="13px" font-style="normal" font-weight="bold" text-decoration="none" x="335.372314453125" y="464.5">HideableFigure</text></g></g><g transform="translate(-14,-22) scale(1,1)"><rect fill="#C0C0C0" stroke="none" x="775" y="463" width="105.80810546875" height="48" opacity="0.2"/></g><g transform="translate(-14,-22) scale(1,1)"><rect fill="#d8f2ff" stroke="none" x="768" y="456" width="105.80810546875" height="48"/></g><g transform="translate(-14,-22) scale(1,1)"><path fill="none" stroke="#000000" d="M 768 456 L 873.80810546875 456 L 873.80810546875 504 L 768 504 L 768 456 Z Z" stroke-miterlimit="10"/></g><g transform="translate(-14,-22) scale(1,1)"><g><path fill="none" stroke="none"/><text fill="#000000" stroke="none" font-family="Arial" font-size="13px" font-style="normal" font-weight="normal" text-decoration="none" x="788.74365234375" y="473.5">«interface»</text></g></g><g transform="translate(-14,-22) scale(1,1)"><g><path fill="none" stroke="none"/><text fill="#000000" stroke="none" font-family="Arial" font-size="13px" font-style="normal" font-weight="bold" text-decoration="none" x="775.740478515625" y="488.5">StyleableFigure</text></g></g><g transform="translate(-14,-22) scale(1,1)"><rect fill="#C0C0C0" stroke="none" x="839" y="383" width="105.078125" height="48" opacity="0.2"/></g><g transform="translate(-14,-22) scale(1,1)"><rect fill="#d8f2ff" stroke="none" x="832" y="376" width="105.078125" height="48"/></g><g transform="translate(-14,-22) scale(1,1)"><path fill="none" stroke="#000000" d="M 832 376 L 937.078125 376 L 937.078125 424 L 832 424 L 832 376 Z Z" stroke-miterlimit="10"/></g><g transform="translate(-14,-22) scale(1,1)"><g><path fill="none" stroke="none"/><text fill="#000000" stroke="none" font-family="Arial" font-size="13px" font-style="normal" font-weight="normal" text-decoration="none" x="852.378662109375" y="393.5">«interface»</text></g></g><g transform="translate(-14,-22) scale(1,1)"><g><path fill="none" stroke="none"/><text fill="#000000" stroke="none" font-family="Arial" font-size="13px" font-style="normal" font-weight="bold" text-decoration="none" x="840.095947265625" y="408.5">LockableFigure</text></g></g><g transform="translate(-14,-22) scale(1,1)"><rect fill="#C0C0C0" stroke="none" x="839" y="207" width="126.736328125" height="48" opacity="0.2"/></g><g transform="translate(-14,-22) scale(1,1)"><rect fill="#d8f2ff" stroke="none" x="832" y="200" width="126.736328125" height="48"/></g><g transform="translate(-14,-22) scale(1,1)"><path fill="none" stroke="#000000" d="M 832 200 L 958.736328125 200 L 958.736328125 248 L 832 248 L 832 200 Z Z" stroke-miterlimit="10"/></g><g transform="translate(-14,-22) scale(1,1)"><g><path fill="none" stroke="none"/><text fill="#000000" stroke="none" font-family="Arial" font-size="13px" font-style="normal" font-weight="normal" text-decoration="none" x="863.207763671875" y="217.5">«interface»</text></g></g><g transform="translate(-14,-22) scale(1,1)"><g><path fill="none" stroke="none"/><text fill="#000000" stroke="none" font-family="Arial" font-size="13px" font-style="normal" font-weight="bold" text-decoration="none" x="840.445068359375" y="232.5">ConnectableFigure</text></g></g><g transform="translate(-14,-22) scale(1,1)"><rect fill="#C0C0C0" stroke="none" x="831" y="295" width="123.13720703125" height="48" opacity="0.2"/></g><g transform="translate(-14,-22) scale(1,1)"><rect fill="#d8f2ff" stroke="none" x="824" y="288" width="123.13720703125" height="48"/></g><g transform="translate(-14,-22) scale(1,1)"><path fill="none" stroke="#000000" d="M 824 288 L 947.13720703125 288 L 947.13720703125 336 L 824 336 L 824 288 Z Z" stroke-miterlimit="10"/></g><g transform="translate(-14,-22) scale(1,1)"><g><path fill="none" stroke="none"/><text fill="#000000" stroke="none" font-family="Arial" font-size="13px" font-style="normal" font-weight="normal" text-decoration="none" x="853.408203125" y="305.5">«interface»</text></g></g><g transform="translate(-14,-22) scale(1,1)"><g><path fill="none" stroke="none"/><text fill="#000000" stroke="none" font-family="Arial" font-size="13px" font-style="normal" font-weight="bold" text-decoration="none" x="832.0927734375" y="320.5">PathIterableFigure</text></g></g><g transform="translate(-14,-22) scale(1,1)"><rect fill="#C0C0C0" stroke="none" x="839" y="119" width="123.8544921875" height="48" opacity="0.2"/></g><g transform="translate(-14,-22) scale(1,1)"><rect fill="#d8f2ff" stroke="none" x="832" y="112" width="123.8544921875" height="48"/></g><g transform="translate(-14,-22) scale(1,1)"><path fill="none" stroke="#000000" d="M 832 112 L 955.8544921875 112 L 955.8544921875 160 L 832 160 L 832 112 Z Z" stroke-miterlimit="10"/></g><g transform="translate(-14,-22) scale(1,1)"><g><path fill="none" stroke="none"/><text fill="#000000" stroke="none" font-family="Arial" font-size="13px" font-style="normal" font-weight="normal" text-decoration="none" x="861.766845703125" y="129.5">«interface»</text></g></g><g transform="translate(-14,-22) scale(1,1)"><g><path fill="none" stroke="none"/><text fill="#000000" stroke="none" font-family="Arial" font-size="13px" font-style="normal" font-weight="bold" text-decoration="none" x="840.45458984375" y="144.5">RectangularFigure</text></g></g><g transform="translate(-14,-22) scale(1,1)"><path fill="none" stroke="#000000" d="M 405 124 L 567 114" stroke-miterlimit="10"/></g><g transform="translate(-14,-22) scale(1,1)"><path fill="#FFFFFF" stroke="none" d="M 547.2319700251815 123.65530894972684 L 567 114 L 546.1945575213039 106.84922638690988"/></g><g transform="translate(-14,-22) scale(1,1)"><path fill="none" stroke="#000000" d="M 547.2319700251815 123.65530894972684 L 567 114 L 546.1945575213039 106.84922638690988 L 547.2319700251815 123.65530894972684" stroke-miterlimit="10"/></g><g transform="translate(-14,-22) scale(1,1)"><path fill="none" stroke="#000000" d="M 399 183 L 567 125" stroke-miterlimit="10"/></g><g transform="translate(-14,-22) scale(1,1)"><path fill="#FFFFFF" stroke="none" d="M 550.5348421157967 139.5910443714032 L 567 125 L 545.0399487871597 123.67480162638569"/></g><g transform="translate(-14,-22) scale(1,1)"><path fill="none" stroke="#000000" d="M 550.5348421157967 139.5910443714032 L 567 125 L 545.0399487871597 123.67480162638569 L 550.5348421157967 139.5910443714032" stroke-miterlimit="10"/></g><g transform="translate(-14,-22) scale(1,1)"><path fill="none" stroke="#000000" d="M 373 255 L 567 135" stroke-miterlimit="10"/></g><g transform="translate(-14,-22) scale(1,1)"><path fill="#FFFFFF" stroke="none" d="M 554.1431236195097 152.85219117466508 L 567 135 L 545.2854100878338 138.53222096512246"/></g><g transform="translate(-14,-22) scale(1,1)"><path fill="none" stroke="#000000" d="M 554.1431236195097 152.85219117466508 L 567 135 L 545.2854100878338 138.53222096512246 L 554.1431236195097 152.85219117466508" stroke-miterlimit="10"/></g><g transform="translate(-14,-22) scale(1,1)"><path fill="none" stroke="#000000" d="M 383 335 L 579 137" stroke-miterlimit="10"/></g><g transform="translate(-14,-22) scale(1,1)"><path fill="#FFFFFF" stroke="none" d="M 570.6842459882419 157.36782352672782 L 579 137 L 558.7176478138464 145.52210008136672"/></g><g transform="translate(-14,-22) scale(1,1)"><path fill="none" stroke="#000000" d="M 570.6842459882419 157.36782352672782 L 579 137 L 558.7176478138464 145.52210008136672 L 570.6842459882419 157.36782352672782" stroke-miterlimit="10"/></g><g transform="translate(-14,-22) scale(1,1)"><path fill="none" stroke="#000000" d="M 831 131 L 642 115" stroke-miterlimit="10"/></g><g transform="translate(-14,-22) scale(1,1)"><path fill="#FFFFFF" stroke="none" d="M 662.9630888153716 108.32550321605893 L 642 115 L 661.5427241928977 125.10356031903264"/></g><g transform="translate(-14,-22) scale(1,1)"><path fill="none" stroke="#000000" d="M 662.9630888153716 108.32550321605893 L 642 115 L 661.5427241928977 125.10356031903264 L 662.9630888153716 108.32550321605893" stroke-miterlimit="10"/></g><g transform="translate(-14,-22) scale(1,1)"><path fill="none" stroke="#000000" d="M 831 199 L 642 127" stroke-miterlimit="10"/></g><g transform="translate(-14,-22) scale(1,1)"><path fill="#FFFFFF" stroke="none" d="M 663.9909273221559 126.36824410437623 L 642 127 L 657.9966527119271 142.10321495622685"/></g><g transform="translate(-14,-22) scale(1,1)"><path fill="none" stroke="#000000" d="M 663.9909273221559 126.36824410437623 L 642 127 L 657.9966527119271 142.10321495622685 L 663.9909273221559 126.36824410437623" stroke-miterlimit="10"/></g><g transform="translate(-14,-22) scale(1,1)"><path fill="none" stroke="#000000" d="M 850 287 L 639 137" stroke-miterlimit="10"/></g><g transform="translate(-14,-22) scale(1,1)"><path fill="#FFFFFF" stroke="none" d="M 660.4439711584939 141.91488565011232 L 639 137 L 650.687828449789 155.63852639369068"/></g><g transform="translate(-14,-22) scale(1,1)"><path fill="none" stroke="#000000" d="M 660.4439711584939 141.91488565011232 L 639 137 L 650.687828449789 155.63852639369068 L 660.4439711584939 141.91488565011232" stroke-miterlimit="10"/></g><g transform="translate(-14,-22) scale(1,1)"><path fill="none" stroke="#000000" d="M 805 455 L 619 137" stroke-miterlimit="10"/></g><g transform="translate(-14,-22) scale(1,1)"><path fill="#FFFFFF" stroke="none" d="M 636.5291370278325 150.29395934473516 L 619 137 L 621.9947228592481 158.79522046220907"/></g><g transform="translate(-14,-22) scale(1,1)"><path fill="none" stroke="#000000" d="M 636.5291370278325 150.29395934473516 L 619 137 L 621.9947228592481 158.79522046220907 L 636.5291370278325 150.29395934473516" stroke-miterlimit="10"/></g><g transform="translate(-14,-22) scale(1,1)"><path fill="none" stroke="#000000" d="M 395 431 L 588 137" stroke-miterlimit="10"/></g><g transform="translate(-14,-22) scale(1,1)"><path fill="#FFFFFF" stroke="none" d="M 583.8838719771719 158.611512906312 L 588 137 L 569.8078106350724 149.37110529058006"/></g><g transform="translate(-14,-22) scale(1,1)"><path fill="none" stroke="#000000" d="M 583.8838719771719 158.611512906312 L 588 137 L 569.8078106350724 149.37110529058006 L 583.8838719771719 158.611512906312" stroke-miterlimit="10"/></g><g transform="translate(-14,-22) scale(1,1)"><path fill="none" stroke="#000000" d="M 860 375 L 628 137" stroke-miterlimit="10"/></g><g transform="translate(-14,-22) scale(1,1)"><path fill="#FFFFFF" stroke="none" d="M 648.2162254174809 145.67780098121622 L 628 137 L 636.1588981630913 157.4311620023019"/></g><g transform="translate(-14,-22) scale(1,1)"><path fill="none" stroke="#000000" d="M 648.2162254174809 145.67780098121622 L 628 137 L 636.1588981630913 157.4311620023019 L 648.2162254174809 145.67780098121622" stroke-miterlimit="10"/></g><g transform="translate(-14,-22) scale(1,1)"><path fill="none" stroke="#000000" d="M 643 559 L 767 504" stroke-miterlimit="10" stroke-dasharray="3"/></g><g transform="translate(-14,-22) scale(1,1)"><path fill="#FFFFFF" stroke="none" d="M 751.8338217534949 519.9369707722402 L 767 504 L 745.0067524125895 504.5450326218352"/></g><g transform="translate(-14,-22) scale(1,1)"><path fill="none" stroke="#000000" d="M 751.8338217534949 519.9369707722402 L 767 504 L 745.0067524125895 504.5450326218352 L 751.8338217534949 519.9369707722402" stroke-miterlimit="10"/></g><g transform="translate(-14,-22) scale(1,1)"><path fill="none" stroke="#000000" d="M 628 559 L 844 425" stroke-miterlimit="10" stroke-dasharray="3"/></g><g transform="translate(-14,-22) scale(1,1)"><path fill="#FFFFFF" stroke="none" d="M 831.1665336243981 442.8690274157911 L 844 425 L 822.2900584407681 428.56067935859653"/></g><g transform="translate(-14,-22) scale(1,1)"><path fill="none" stroke="#000000" d="M 831.1665336243981 442.8690274157911 L 844 425 L 822.2900584407681 428.56067935859653 L 831.1665336243981 442.8690274157911" stroke-miterlimit="10"/></g><g transform="translate(-14,-22) scale(1,1)"><path fill="none" stroke="#000000" d="M 616 559 L 858 337" stroke-miterlimit="10" stroke-dasharray="3"/></g><g transform="translate(-14,-22) scale(1,1)"><path fill="#FFFFFF" stroke="none" d="M 848.7134945575381 356.94394185378417 L 858 337 L 837.3309524997084 344.5359455565104"/></g><g transform="translate(-14,-22) scale(1,1)"><path fill="none" stroke="#000000" d="M 848.7134945575381 356.94394185378417 L 858 337 L 837.3309524997084 344.5359455565104 L 848.7134945575381 356.94394185378417" stroke-miterlimit="10"/></g><g transform="translate(-14,-22) scale(1,1)"><path fill="none" stroke="#000000" d="M 611 559 L 874 249" stroke-miterlimit="10" stroke-dasharray="3"/></g><g transform="translate(-14,-22) scale(1,1)"><path fill="#FFFFFF" stroke="none" d="M 867.2707390808883 269.9455734579533 L 874 249 L 854.4309369437628 259.05245099968226"/></g><g transform="translate(-14,-22) scale(1,1)"><path fill="none" stroke="#000000" d="M 867.2707390808883 269.9455734579533 L 874 249 L 854.4309369437628 259.05245099968226 L 867.2707390808883 269.9455734579533" stroke-miterlimit="10"/></g><g transform="translate(-14,-22) scale(1,1)"><path fill="none" stroke="#000000" d="M 607 559 L 876 161" stroke-miterlimit="10" stroke-dasharray="3"/></g><g transform="translate(-14,-22) scale(1,1)"><path fill="#FFFFFF" stroke="none" d="M 871.5936078008839 182.5542039469698 L 876 161 L 857.6430864214573 173.12533396941765"/></g><g transform="translate(-14,-22) scale(1,1)"><path fill="none" stroke="#000000" d="M 871.5936078008839 182.5542039469698 L 876 161 L 857.6430864214573 173.12533396941765 L 871.5936078008839 182.5542039469698" stroke-miterlimit="10"/></g><g transform="translate(-14,-22) scale(1,1)"><path fill="none" stroke="#000000" d="M 552 559 L 421 481" stroke-miterlimit="10" stroke-dasharray="3"/></g><g transform="translate(-14,-22) scale(1,1)"><path fill="#FFFFFF" stroke="none" d="M 442.7712046951715 484.16459256792143 L 421 481 L 434.15686161008637 498.632271339026"/></g><g transform="translate(-14,-22) scale(1,1)"><path fill="none" stroke="#000000" d="M 442.7712046951715 484.16459256792143 L 421 481 L 434.15686161008637 498.632271339026 L 442.7712046951715 484.16459256792143" stroke-miterlimit="10"/></g><g transform="translate(-14,-22) scale(1,1)"><path fill="none" stroke="#000000" d="M 567 559 L 384 385" stroke-miterlimit="10" stroke-dasharray="3"/></g><g transform="translate(-14,-22) scale(1,1)"><path fill="#FFFFFF" stroke="none" d="M 404.53107110023035 392.90412041136057 L 384 385 L 392.928602457808 405.10671674218406"/></g><g transform="translate(-14,-22) scale(1,1)"><path fill="none" stroke="#000000" d="M 404.53107110023035 392.90412041136057 L 384 385 L 392.928602457808 405.10671674218406 L 404.53107110023035 392.90412041136057" stroke-miterlimit="10"/></g><g transform="translate(-14,-22) scale(1,1)"><path fill="none" stroke="#000000" d="M 571 559 L 354 305" stroke-miterlimit="10" stroke-dasharray="3"/></g><g transform="translate(-14,-22) scale(1,1)"><path fill="#FFFFFF" stroke="none" d="M 373.60358706126516 314.984957402583 L 354 305 L 360.8013982573762 325.92226043582673"/></g><g transform="translate(-14,-22) scale(1,1)"><path fill="none" stroke="#000000" d="M 373.60358706126516 314.984957402583 L 354 305 L 360.8013982573762 325.92226043582673 L 373.60358706126516 314.984957402583" stroke-miterlimit="10"/></g><g transform="translate(-14,-22) scale(1,1)"><path fill="none" stroke="#000000" d="M 576 559 L 366 225" stroke-miterlimit="10" stroke-dasharray="3"/></g><g transform="translate(-14,-22) scale(1,1)"><path fill="#FFFFFF" stroke="none" d="M 383.94599654104985 237.72561228973393 L 366 225 L 369.69136910450493 246.6881025941484"/></g><g transform="translate(-14,-22) scale(1,1)"><path fill="none" stroke="#000000" d="M 383.94599654104985 237.72561228973393 L 366 225 L 369.69136910450493 246.6881025941484 L 383.94599654104985 237.72561228973393" stroke-miterlimit="10"/></g><g transform="translate(-14,-22) scale(1,1)"><path fill="none" stroke="#000000" d="M 579 559 L 362 153" stroke-miterlimit="10" stroke-dasharray="3"/></g><g transform="translate(-14,-22) scale(1,1)"><path fill="#FFFFFF" stroke="none" d="M 379.00592192244204 166.95702760503843 L 362 153 L 364.1558938469572 174.89411157641825"/></g><g transform="translate(-14,-22) scale(1,1)"><path fill="none" stroke="#000000" d="M 379.00592192244204 166.95702760503843 L 362 153 L 364.1558938469572 174.89411157641825 L 379.00592192244204 166.95702760503843" stroke-miterlimit="10"/></g><g transform="translate(-14,-22) scale(1,1)"><g><path fill="none" stroke="none"/><text fill="#000000" stroke="none" font-family="Arial" font-size="13px" font-style="normal" font-weight="normal" text-decoration="none" x="53" y="90">Even - apparently simple figures -</text><text fill="#000000" stroke="none" font-family="Arial" font-size="13px" font-style="normal" font-weight="normal" text-decoration="none" x="53" y="103">like a RectangleFigure (shown in</text><text fill="#000000" stroke="none" font-family="Arial" font-size="13px" font-style="normal" font-weight="normal" text-decoration="none" x="53" y="116">red) can have a large number of</text><text fill="#000000" stroke="none" font-family="Arial" font-size="13px" font-style="normal" font-weight="normal" text-decoration="none" x="53" y="129">abilities (shown in blue).</text></g></g><g transform="translate(-14,-22) scale(1,1)"><g><path fill="none" stroke="none"/><text fill="#000000" stroke="none" font-family="Arial" font-size="13px" font-style="normal" font-weight="normal" text-decoration="none" x="53" y="144">.</text></g></g><g transform="translate(-14,-22) scale(1,1)"><g><path fill="none" stroke="none"/><text fill="#000000" stroke="none" font-family="Arial" font-size="13px" font-style="normal" font-weight="normal" text-decoration="none" x="53" y="159">For some drawings (like UML</text><text fill="#000000" stroke="none" font-family="Arial" font-size="13px" font-style="normal" font-weight="normal" text-decoration="none" x="53" y="172">diagrams) we may want to have a</text><text fill="#000000" stroke="none" font-family="Arial" font-size="13px" font-style="normal" font-weight="normal" text-decoration="none" x="53" y="185">different set of abilities than for</text><text fill="#000000" stroke="none" font-family="Arial" font-size="13px" font-style="normal" font-weight="normal" text-decoration="none" x="53" y="198">other drawings (such as SVG</text><text fill="#000000" stroke="none" font-family="Arial" font-size="13px" font-style="normal" font-weight="normal" text-decoration="none" x="53" y="211">images).</text></g></g><g transform="translate(-14,-22) scale(1,1)"><g><path fill="none" stroke="none"/><text fill="#000000" stroke="none" font-family="Arial" font-size="13px" font-style="normal" font-weight="normal" text-decoration="none" x="53" y="226">.</text></g></g><g transform="translate(-14,-22) scale(1,1)"><g><path fill="none" stroke="none"/><text fill="#000000" stroke="none" font-family="Arial" font-size="13px" font-style="normal" font-weight="normal" text-decoration="none" x="53" y="241">We want to make adding and</text><text fill="#000000" stroke="none" font-family="Arial" font-size="13px" font-style="normal" font-weight="normal" text-decoration="none" x="53" y="254">removing of abilities easy.</text></g></g><g transform="translate(-14,-22) scale(1,1)"><g><path fill="none" stroke="none"/><text fill="#000000" stroke="none" font-family="Arial" font-size="13px" font-style="normal" font-weight="normal" text-decoration="none" x="53" y="269">So, we put them into interfaces</text><text fill="#000000" stroke="none" font-family="Arial" font-size="13px" font-style="normal" font-weight="normal" text-decoration="none" x="53" y="282">(shown in blue), which define the</text><text fill="#000000" stroke="none" font-family="Arial" font-size="13px" font-style="normal" font-weight="normal" text-decoration="none" x="53" y="295">set of properties for configuring</text><text fill="#000000" stroke="none" font-family="Arial" font-size="13px" font-style="normal" font-weight="normal" text-decoration="none" x="53" y="308">the ability and a set of default</text><text fill="#000000" stroke="none" font-family="Arial" font-size="13px" font-style="normal" font-weight="normal" text-decoration="none" x="53" y="321">methods for the ability.</text></g></g><g transform="translate(-14,-22) scale(1,1)"><g><path fill="none" stroke="none"/><text fill="#000000" stroke="none" font-family="Arial" font-size="13px" font-style="normal" font-weight="normal" text-decoration="none" x="53" y="336">.</text></g></g><g transform="translate(-14,-22) scale(1,1)"><g><path fill="none" stroke="none"/><text fill="#000000" stroke="none" font-family="Arial" font-size="13px" font-style="normal" font-weight="normal" text-decoration="none" x="53" y="351">For example, the StrokableFigure</text><text fill="#000000" stroke="none" font-family="Arial" font-size="13px" font-style="normal" font-weight="normal" text-decoration="none" x="53" y="364">interface (dark blue) may define</text><text fill="#000000" stroke="none" font-family="Arial" font-size="13px" font-style="normal" font-weight="normal" text-decoration="none" x="53" y="377">the properties for the stroke color</text><text fill="#000000" stroke="none" font-family="Arial" font-size="13px" font-style="normal" font-weight="normal" text-decoration="none" x="53" y="390">and stroke width, and may provide</text><text fill="#000000" stroke="none" font-family="Arial" font-size="13px" font-style="normal" font-weight="normal" text-decoration="none" x="53" y="403">default methods for updating</text><text fill="#000000" stroke="none" font-family="Arial" font-size="13px" font-style="normal" font-weight="normal" text-decoration="none" x="53" y="416">these property values on the</text><text fill="#000000" stroke="none" font-family="Arial" font-size="13px" font-style="normal" font-weight="normal" text-decoration="none" x="53" y="429">JavaFX Node, that is used for</text><text fill="#000000" stroke="none" font-family="Arial" font-size="13px" font-style="normal" font-weight="normal" text-decoration="none" x="53" y="442">rendering the figure.</text></g></g><g transform="translate(-14,-22) scale(1,1)"><g><path fill="none" stroke="none"/></g></g><g transform="translate(-14,-22) scale(1,1)"><g><path fill="none" stroke="none"/></g></g><g transform="translate(-14,-22) scale(1,1)"><g><path fill="none" stroke="none"/></g></g></g></svg>