<svg version="1.1" xmlns="http://www.w3.org/2000/svg" xmlns:xlink="http://www.w3.org/1999/xlink" width="740" height="387"><defs/><g><g transform="translate(10,2) scale(1,1)"><path fill="none" stroke="#000000" d="M 0 8 L 720 8 L 720 375 L 0 375 L 0 8" stroke-miterlimit="10"/></g><g transform="translate(10,2) scale(1,1)"><path fill="#ffffff" stroke="none" d="M 0 8 L 0 30 L 199.498046875 30 L 210.498046875 19 L 210.498046875 8 L 0 8"/></g><g transform="translate(10,2) scale(1,1)"><path fill="none" stroke="#000000" d="M 0 8 L 0 30 L 199.498046875 30 L 210.498046875 19 L 210.498046875 8 L 0 8 L 0 8" stroke-miterlimit="10"/></g><g transform="translate(10,2) scale(1,1)"><g><path fill="none" stroke="none"/><text fill="#000000" stroke="none" font-family="Arial" font-size="13px" font-style="normal" font-weight="normal" text-decoration="none" x="40.6181640625" y="25.5">JHotDraw 8 supports MVC</text></g></g><g transform="translate(10,2) scale(1,1)"><g><path fill="none" stroke="none"/><text fill="#000000" stroke="none" font-family="Arial" font-size="13px" font-style="normal" font-weight="bold" text-decoration="none" x="5" y="25.5">class</text></g></g><g transform="translate(10,2) scale(1,1)"><path fill="#C0C0C0" stroke="none" d="M 511 287 C 511 269.3268864 554.652232 255 608.5 255 C 662.347768 255 706 269.3268864 706 287 C 706 304.6731136 662.347768 319 608.5 319 C 554.652232 319 511 304.6731136 511 287 Z" opacity="0.2"/></g><g transform="translate(10,2) scale(1,1)"><path fill="#e2e2e2" stroke="none" d="M 504 280 C 504 262.3268864 547.652232 248 601.5 248 C 655.347768 248 699 262.3268864 699 280 C 699 297.6731136 655.347768 312 601.5 312 C 547.652232 312 504 297.6731136 504 280 Z"/></g><g transform="translate(10,2) scale(1,1)"><path fill="none" stroke="#000000" d="M 504 280 C 504 262.3268864 547.652232 248 601.5 248 C 655.347768 248 699 262.3268864 699 280 C 699 297.6731136 655.347768 312 601.5 312 C 547.652232 312 504 297.6731136 504 280 Z" stroke-miterlimit="10" stroke-dasharray="5"/></g><g transform="translate(10,2) scale(1,1)"><g><path fill="none" stroke="none"/><text fill="#000000" stroke="none" font-family="Arial" font-size="13px" font-style="normal" font-weight="bold" text-decoration="none" x="541.64794921875" y="287">ModelViewController</text></g></g><g transform="translate(10,2) scale(1,1)"><rect fill="#C0C0C0" stroke="none" x="535" y="111" width="119.53173828125" height="39" opacity="0.2"/></g><g transform="translate(10,2) scale(1,1)"><rect fill="#ffffd8" stroke="none" x="528" y="104" width="119.53173828125" height="39"/></g><g transform="translate(10,2) scale(1,1)"><path fill="none" stroke="#000000" d="M 528 104 L 647.53173828125 104 L 647.53173828125 143 L 528 143 L 528 104 Z Z" stroke-miterlimit="10"/></g><g transform="translate(10,2) scale(1,1)"><g><path fill="none" stroke="none"/><text fill="#000000" stroke="none" font-family="Arial" font-size="13px" font-style="normal" font-weight="bold" text-decoration="none" x="572.226806640625" y="123.5">Node</text></g></g><g transform="translate(10,2) scale(1,1)"><g><path fill="none" stroke="none"/><text fill="#000000" stroke="none" font-family="Arial" font-size="13px" font-style="normal" font-weight="normal" text-decoration="none" x="532.5" y="138.5">(from javafx.scene)</text></g></g><g transform="translate(10,2) scale(1,1)"><g><path fill="none" stroke="none"/><text fill="#000000" stroke="none" font-family="Arial" font-size="13px" font-style="normal" font-weight="normal" text-decoration="none" x="21" y="58">JHotDraw 8 supports the</text><text fill="#000000" stroke="none" font-family="Arial" font-size="13px" font-style="normal" font-weight="normal" text-decoration="none" x="21" y="71">separation of components into</text><text fill="#000000" stroke="none" font-family="Arial" font-size="13px" font-style="normal" font-weight="normal" text-decoration="none" x="21" y="84">a model, a view and a</text><text fill="#000000" stroke="none" font-family="Arial" font-size="13px" font-style="normal" font-weight="normal" text-decoration="none" x="21" y="97">controller.</text></g></g><g transform="translate(10,2) scale(1,1)"><rect fill="#C0C0C0" stroke="none" x="311" y="135" width="71.11181640625" height="72" opacity="0.2"/></g><g transform="translate(10,2) scale(1,1)"><rect fill="#ffd8d8" stroke="none" x="304" y="128" width="71.11181640625" height="72"/></g><g transform="translate(10,2) scale(1,1)"><path fill="none" stroke="#000000" d="M 304 128 L 375.11181640625 128 L 375.11181640625 200 L 304 200 L 304 128 Z Z" stroke-miterlimit="10"/></g><g transform="translate(10,2) scale(1,1)"><path fill="none" stroke="#000000" d="M 304 153 L 375.11181640625 153" stroke-miterlimit="10"/></g><g transform="translate(10,2) scale(1,1)"><path fill="none" stroke="#000000" d="M 304 191 L 375.11181640625 191" stroke-miterlimit="10"/></g><g transform="translate(10,2) scale(1,1)"><g><path fill="none" stroke="none"/><text fill="#000000" stroke="none" font-family="Arial" font-size="13px" font-style="normal" font-weight="bold" text-decoration="none" x="311.378662109375" y="147.5">Controller</text></g></g><g transform="translate(10,2) scale(1,1)"><g><path fill="none" stroke="none"/><text fill="#000000" stroke="none" font-family="Arial" font-size="13px" font-style="normal" font-weight="normal" text-decoration="none" x="309" y="170.5">+view</text></g></g><g transform="translate(10,2) scale(1,1)"><g><path fill="none" stroke="none"/><text fill="#000000" stroke="none" font-family="Arial" font-size="13px" font-style="normal" font-weight="normal" text-decoration="none" x="309" y="185.5">+model</text></g></g><g transform="translate(10,2) scale(1,1)"><rect fill="#C0C0C0" stroke="none" x="375" y="287" width="46.552734375" height="24" opacity="0.2"/></g><g transform="translate(10,2) scale(1,1)"><rect fill="#ebffd8" stroke="none" x="368" y="280" width="46.552734375" height="24"/></g><g transform="translate(10,2) scale(1,1)"><path fill="none" stroke="#000000" d="M 368 280 L 414.552734375 280 L 414.552734375 304 L 368 304 L 368 280 Z Z" stroke-miterlimit="10"/></g><g transform="translate(10,2) scale(1,1)"><g><path fill="none" stroke="none"/><text fill="#000000" stroke="none" font-family="Arial" font-size="13px" font-style="normal" font-weight="bold" text-decoration="none" x="373.57275390625" y="299.5">Model</text></g></g><g transform="translate(10,2) scale(1,1)"><path fill="none" stroke="#000000" d="M 416 291 L 503 286" stroke-miterlimit="10" stroke-dasharray="3"/></g><g transform="translate(10,2) scale(1,1)"><path fill="#FFFFFF" stroke="none" d="M 483.1911896497065 295.5713652373162 L 503 286 L 482.2250786095497 278.76103313858863"/></g><g transform="translate(10,2) scale(1,1)"><path fill="none" stroke="#000000" d="M 483.1911896497065 295.5713652373162 L 503 286 L 482.2250786095497 278.76103313858863 L 483.1911896497065 295.5713652373162" stroke-miterlimit="10"/></g><g transform="translate(10,2) scale(1,1)"><g><path fill="none" stroke="none"/><text fill="#000000" stroke="none" font-family="Arial" font-size="13px" font-style="normal" font-weight="normal" text-decoration="none" x="436.5" y="279.5">+Model</text></g></g><g transform="translate(10,2) scale(1,1)"><path fill="none" stroke="#000000" d="M 376 180 L 526 247" stroke-miterlimit="10" stroke-dasharray="3"/></g><g transform="translate(10,2) scale(1,1)"><path fill="#FFFFFF" stroke="none" d="M 504.00824542385436 246.39772874667932 L 526 247 L 510.87535129635387 231.02361112168035"/></g><g transform="translate(10,2) scale(1,1)"><path fill="none" stroke="#000000" d="M 504.00824542385436 246.39772874667932 L 526 247 L 510.87535129635387 231.02361112168035 L 504.00824542385436 246.39772874667932" stroke-miterlimit="10"/></g><g transform="translate(10,2) scale(1,1)"><g><path fill="none" stroke="none"/><text fill="#000000" stroke="none" font-family="Arial" font-size="13px" font-style="normal" font-weight="normal" text-decoration="none" x="425.5" y="205.5">+Controller</text></g></g><g transform="translate(10,2) scale(1,1)"><path fill="none" stroke="#000000" d="M 589 144 L 598 247" stroke-miterlimit="10" stroke-dasharray="3"/></g><g transform="translate(10,2) scale(1,1)"><path fill="#FFFFFF" stroke="none" d="M 587.8436612909212 227.48465260297766 L 598 247 L 604.6178185084287 226.0189495451372"/></g><g transform="translate(10,2) scale(1,1)"><path fill="none" stroke="#000000" d="M 587.8436612909212 227.48465260297766 L 598 247 L 604.6178185084287 226.0189495451372 L 587.8436612909212 227.48465260297766" stroke-miterlimit="10"/></g><g transform="translate(10,2) scale(1,1)"><g><path fill="none" stroke="none"/><text fill="#000000" stroke="none" font-family="Arial" font-size="13px" font-style="normal" font-weight="normal" text-decoration="none" x="589.5" y="199.5">+View</text></g></g><g transform="translate(10,2) scale(1,1)"><path fill="none" stroke="#000000" d="M 527 133 L 376 158" stroke-miterlimit="10"/></g><g transform="translate(10,2) scale(1,1)"><path fill="#FFFFFF" stroke="none" d="M 385.33860942564894 152.18705117903303 L 376 158 L 386.71376958172505 160.49301852173286 L 397.70453863488854 154.4065333385946"/></g><g transform="translate(10,2) scale(1,1)"><path fill="none" stroke="#000000" d="M 385.33860942564894 152.18705117903303 L 376 158 L 386.71376958172505 160.49301852173286 L 397.70453863488854 154.4065333385946 L 385.33860942564894 152.18705117903303" stroke-miterlimit="10"/></g><g transform="translate(10,2) scale(1,1)"><path fill="none" stroke="#000000" d="M 386 279 L 354 201" stroke-miterlimit="10"/></g><g transform="translate(10,2) scale(1,1)"><path fill="#FFFFFF" stroke="none" d="M 361.75182156513466 208.80443863595025 L 354 201 L 353.9627941124201 211.99993707808954 L 362.35023983763875 221.35370960424441"/></g><g transform="translate(10,2) scale(1,1)"><path fill="none" stroke="#000000" d="M 361.75182156513466 208.80443863595025 L 354 201 L 353.9627941124201 211.99993707808954 L 362.35023983763875 221.35370960424441 L 361.75182156513466 208.80443863595025" stroke-miterlimit="10"/></g></g></svg>