<svg version="1.1" xmlns="http://www.w3.org/2000/svg" xmlns:xlink="http://www.w3.org/1999/xlink" width="828" height="444"><defs/><g><g transform="translate(10,2) scale(1,1)"><path fill="none" stroke="#000000" d="M 0 8 L 808 8 L 808 432 L 0 432 L 0 8" stroke-miterlimit="10"/></g><g transform="translate(10,2) scale(1,1)"><path fill="#ffffff" stroke="none" d="M 0 8 L 0 30 L 199.498046875 30 L 210.498046875 19 L 210.498046875 8 L 0 8"/></g><g transform="translate(10,2) scale(1,1)"><path fill="none" stroke="#000000" d="M 0 8 L 0 30 L 199.498046875 30 L 210.498046875 19 L 210.498046875 8 L 0 8 L 0 8" stroke-miterlimit="10"/></g><g transform="translate(10,2) scale(1,1)"><g><path fill="none" stroke="none"/><text fill="#000000" stroke="none" font-family="Arial" font-size="13px" font-style="normal" font-weight="normal" text-decoration="none" x="40.6181640625" y="25.5">JHotDraw 8 supports MVC</text></g></g><g transform="translate(10,2) scale(1,1)"><g><path fill="none" stroke="none"/><text fill="#000000" stroke="none" font-family="Arial" font-size="13px" font-style="normal" font-weight="bold" text-decoration="none" x="5" y="25.5">class</text></g></g><g transform="translate(10,2) scale(1,1)"><path fill="#C0C0C0" stroke="none" d="M 338 367 C 338 349.3268864 432.91562239999996 335 550 335 C 667.0843776 335 762 349.3268864 762 367 C 762 384.6731136 667.0843776 399 550 399 C 432.91562239999996 399 338 384.6731136 338 367 Z" opacity="0.2"/></g><g transform="translate(10,2) scale(1,1)"><path fill="#e2e2e2" stroke="none" d="M 331 360 C 331 342.3268864 425.91562239999996 328 543 328 C 660.0843776 328 755 342.3268864 755 360 C 755 377.6731136 660.0843776 392 543 392 C 425.91562239999996 392 331 377.6731136 331 360 Z"/></g><g transform="translate(10,2) scale(1,1)"><path fill="none" stroke="#000000" d="M 331 360 C 331 342.3268864 425.91562239999996 328 543 328 C 660.0843776 328 755 342.3268864 755 360 C 755 377.6731136 660.0843776 392 543 392 C 425.91562239999996 392 331 377.6731136 331 360 Z" stroke-miterlimit="10" stroke-dasharray="5"/></g><g transform="translate(10,2) scale(1,1)"><g><path fill="none" stroke="none"/><text fill="#000000" stroke="none" font-family="Arial" font-size="13px" font-style="normal" font-weight="bold" text-decoration="none" x="407.290283203125" y="367">mvcInJHotDraw8: ModelViewController Pattern</text></g></g><g transform="translate(10,2) scale(1,1)"><rect fill="#C0C0C0" stroke="none" x="439" y="103" width="119.53173828125" height="39" opacity="0.2"/></g><g transform="translate(10,2) scale(1,1)"><rect fill="#ffffd8" stroke="none" x="432" y="96" width="119.53173828125" height="39"/></g><g transform="translate(10,2) scale(1,1)"><path fill="none" stroke="#000000" d="M 432 96 L 551.53173828125 96 L 551.53173828125 135 L 432 135 L 432 96 Z Z" stroke-miterlimit="10"/></g><g transform="translate(10,2) scale(1,1)"><g><path fill="none" stroke="none"/><text fill="#000000" stroke="none" font-family="Arial" font-size="13px" font-style="normal" font-weight="bold" text-decoration="none" x="476.226806640625" y="115.5">Node</text></g></g><g transform="translate(10,2) scale(1,1)"><g><path fill="none" stroke="none"/><text fill="#000000" stroke="none" font-family="Arial" font-size="13px" font-style="normal" font-weight="normal" text-decoration="none" x="436.5" y="130.5">(from javafx.scene)</text></g></g><g transform="translate(10,2) scale(1,1)"><g><path fill="none" stroke="none"/><text fill="#000000" stroke="none" font-family="Arial" font-size="13px" font-style="normal" font-weight="normal" text-decoration="none" x="21" y="58">JHotDraw 8 supports the</text><text fill="#000000" stroke="none" font-family="Arial" font-size="13px" font-style="normal" font-weight="normal" text-decoration="none" x="21" y="71">separation of components into</text><text fill="#000000" stroke="none" font-family="Arial" font-size="13px" font-style="normal" font-weight="normal" text-decoration="none" x="21" y="84">a model, a view and a</text><text fill="#000000" stroke="none" font-family="Arial" font-size="13px" font-style="normal" font-weight="normal" text-decoration="none" x="21" y="97">controller.</text></g></g><g transform="translate(10,2) scale(1,1)"><rect fill="#C0C0C0" stroke="none" x="207" y="87" width="107.642578125" height="62" opacity="0.2"/></g><g transform="translate(10,2) scale(1,1)"><rect fill="#ffd8d8" stroke="none" x="200" y="80" width="107.642578125" height="62"/></g><g transform="translate(10,2) scale(1,1)"><path fill="none" stroke="#000000" d="M 200 80 L 307.642578125 80 L 307.642578125 142 L 200 142 L 200 80 Z Z" stroke-miterlimit="10"/></g><g transform="translate(10,2) scale(1,1)"><path fill="none" stroke="#000000" d="M 200 105 L 307.642578125 105" stroke-miterlimit="10"/></g><g transform="translate(10,2) scale(1,1)"><g><path fill="none" stroke="none"/><text fill="#000000" stroke="none" font-family="Arial" font-size="13px" font-style="normal" font-weight="bold" text-decoration="none" x="225.64404296875" y="99.5">Controller</text></g></g><g transform="translate(10,2) scale(1,1)"><g><path fill="none" stroke="none"/><text fill="#000000" stroke="none" font-family="Arial" font-size="13px" font-style="normal" font-weight="normal" text-decoration="none" x="205" y="122.5">+view {readOnly}</text></g></g><g transform="translate(10,2) scale(1,1)"><g><path fill="none" stroke="none"/><text fill="#000000" stroke="none" font-family="Arial" font-size="13px" font-style="normal" font-weight="normal" text-decoration="none" x="205" y="137.5">+model</text></g></g><g transform="translate(10,2) scale(1,1)"><rect fill="#C0C0C0" stroke="none" x="239" y="263" width="46.552734375" height="24" opacity="0.2"/></g><g transform="translate(10,2) scale(1,1)"><rect fill="#ebffd8" stroke="none" x="232" y="256" width="46.552734375" height="24"/></g><g transform="translate(10,2) scale(1,1)"><path fill="none" stroke="#000000" d="M 232 256 L 278.552734375 256 L 278.552734375 280 L 232 280 L 232 256 Z Z" stroke-miterlimit="10"/></g><g transform="translate(10,2) scale(1,1)"><g><path fill="none" stroke="none"/><text fill="#000000" stroke="none" font-family="Arial" font-size="13px" font-style="normal" font-weight="bold" text-decoration="none" x="237.57275390625" y="275.5">Model</text></g></g><g transform="translate(10,2) scale(1,1)"><path fill="none" stroke="#000000" d="M 280 276 L 440 327" stroke-miterlimit="10" stroke-dasharray="3"/></g><g transform="translate(10,2) scale(1,1)"><path fill="#FFFFFF" stroke="none" d="M 418.0778113249583 328.8486870194474 L 440 327 L 423.19145260168426 312.8058908571699"/></g><g transform="translate(10,2) scale(1,1)"><path fill="none" stroke="#000000" d="M 418.0778113249583 328.8486870194474 L 440 327 L 423.19145260168426 312.8058908571699 L 418.0778113249583 328.8486870194474" stroke-miterlimit="10"/></g><g transform="translate(10,2) scale(1,1)"><g><path fill="none" stroke="none"/><text fill="#000000" stroke="none" font-family="Arial" font-size="13px" font-style="normal" font-weight="normal" text-decoration="none" x="342.5" y="292.5">+Model</text></g></g><g transform="translate(10,2) scale(1,1)"><path fill="none" stroke="#000000" d="M 290 143 L 505 327" stroke-miterlimit="10" stroke-dasharray="3"/></g><g transform="translate(10,2) scale(1,1)"><path fill="#FFFFFF" stroke="none" d="M 484.08357466821207 320.1806780879811 L 505 327 L 495.0318425767932 307.3878650426281"/></g><g transform="translate(10,2) scale(1,1)"><path fill="none" stroke="#000000" d="M 484.08357466821207 320.1806780879811 L 505 327 L 495.0318425767932 307.3878650426281 L 484.08357466821207 320.1806780879811" stroke-miterlimit="10"/></g><g transform="translate(10,2) scale(1,1)"><g><path fill="none" stroke="none"/><text fill="#000000" stroke="none" font-family="Arial" font-size="13px" font-style="normal" font-weight="normal" text-decoration="none" x="374.5" y="229.5">+Controller</text></g></g><g transform="translate(10,2) scale(1,1)"><path fill="none" stroke="#000000" d="M 255 255 L 253 143" stroke-miterlimit="10"/></g><g transform="translate(10,2) scale(1,1)"><path fill="#FFFFFF" stroke="none" d="M 257.3902941654267 153.0858969428118 L 253 143 L 248.9726006531661 153.23621289838786 L 253.39279452117142 164.99649318559977"/></g><g transform="translate(10,2) scale(1,1)"><path fill="none" stroke="#000000" d="M 257.3902941654267 153.0858969428118 L 253 143 L 248.9726006531661 153.23621289838786 L 253.39279452117142 164.99649318559977 L 257.3902941654267 153.0858969428118" stroke-miterlimit="10"/></g><g transform="translate(10,2) scale(1,1)"><path fill="none" stroke="#000000" d="M 495 136 L 536 327" stroke-miterlimit="10" stroke-dasharray="3"/></g><g transform="translate(10,2) scale(1,1)"><path fill="#FFFFFF" stroke="none" d="M 523.5026207012837 308.89432379986823 L 536 327 L 539.9656647698984 305.36037193173627"/></g><g transform="translate(10,2) scale(1,1)"><path fill="none" stroke="#000000" d="M 523.5026207012837 308.89432379986823 L 536 327 L 539.9656647698984 305.36037193173627 L 523.5026207012837 308.89432379986823" stroke-miterlimit="10"/></g><g transform="translate(10,2) scale(1,1)"><g><path fill="none" stroke="none"/><text fill="#000000" stroke="none" font-family="Arial" font-size="13px" font-style="normal" font-weight="normal" text-decoration="none" x="511.5" y="233.5">+View</text></g></g><g transform="translate(10,2) scale(1,1)"><path fill="none" stroke="#000000" d="M 431 114 L 309 112" stroke-miterlimit="10"/></g><g transform="translate(10,2) scale(1,1)"><path fill="#000000" stroke="none" d="M 319.230308765809 107.95762661840706 L 309 112 L 319.0923103321481 116.37553107172337 L 330.99704440114203 112.36060728526462"/></g><g transform="translate(10,2) scale(1,1)"><path fill="none" stroke="#000000" d="M 319.230308765809 107.95762661840706 L 309 112 L 319.0923103321481 116.37553107172337 L 330.99704440114203 112.36060728526462 L 319.230308765809 107.95762661840706" stroke-miterlimit="10"/></g></g></svg>