<svg version="1.1" xmlns="http://www.w3.org/2000/svg" xmlns:xlink="http://www.w3.org/1999/xlink" width="828" height="444"><defs/><g><g transform="translate(10,2) scale(1,1)"><path fill="none" stroke="#000000" d="M 0 8 L 808 8 L 808 432 L 0 432 L 0 8" stroke-miterlimit="10"/></g><g transform="translate(10,2) scale(1,1)"><path fill="#ffffff" stroke="none" d="M 0 8 L 0 30 L 199.498046875 30 L 210.498046875 19 L 210.498046875 8 L 0 8"/></g><g transform="translate(10,2) scale(1,1)"><path fill="none" stroke="#000000" d="M 0 8 L 0 30 L 199.498046875 30 L 210.498046875 19 L 210.498046875 8 L 0 8 L 0 8" stroke-miterlimit="10"/></g><g transform="translate(10,2) scale(1,1)"><g><path fill="none" stroke="none"/><text fill="#000000" stroke="none" font-family="Arial" font-size="13px" font-style="normal" font-weight="normal" text-decoration="none" x="40.6181640625" y="25.5">JHotDraw 8 supports MVC</text></g></g><g transform="translate(10,2) scale(1,1)"><g><path fill="none" stroke="none"/><text fill="#000000" stroke="none" font-family="Arial" font-size="13px" font-style="normal" font-weight="bold" text-decoration="none" x="5" y="25.5">class</text></g></g><g transform="translate(10,2) scale(1,1)"><path fill="#C0C0C0" stroke="none" d="M 338 367 C 338 349.3268864 435.6019136 335 556 335 C 676.3980864 335 774 349.3268864 774 367 C 774 384.6731136 676.3980864 399 556 399 C 435.6019136 399 338 384.6731136 338 367 Z" opacity="0.2"/></g><g transform="translate(10,2) scale(1,1)"><path fill="#e2e2e2" stroke="none" d="M 331 360 C 331 342.3268864 428.6019136 328 549 328 C 669.3980864 328 767 342.3268864 767 360 C 767 377.6731136 669.3980864 392 549 392 C 428.6019136 392 331 377.6731136 331 360 Z"/></g><g transform="translate(10,2) scale(1,1)"><path fill="none" stroke="#000000" d="M 331 360 C 331 342.3268864 428.6019136 328 549 328 C 669.3980864 328 767 342.3268864 767 360 C 767 377.6731136 669.3980864 392 549 392 C 428.6019136 392 331 377.6731136 331 360 Z" stroke-miterlimit="10" stroke-dasharray="5"/></g><g transform="translate(10,2) scale(1,1)"><g><path fill="none" stroke="none"/><text fill="#000000" stroke="none" font-family="Arial" font-size="13px" font-style="normal" font-weight="bold" text-decoration="none" x="408.961181640625" y="367">mvcInJHotDraw8: Model-View-Controller Pattern</text></g></g><g transform="translate(10,2) scale(1,1)"><rect fill="#C0C0C0" stroke="none" x="439" y="103" width="119.53173828125" height="39" opacity="0.2"/></g><g transform="translate(10,2) scale(1,1)"><rect fill="#ffffd8" stroke="none" x="432" y="96" width="119.53173828125" height="39"/></g><g transform="translate(10,2) scale(1,1)"><path fill="none" stroke="#000000" d="M 432 96 L 551.53173828125 96 L 551.53173828125 135 L 432 135 L 432 96 Z Z" stroke-miterlimit="10"/></g><g transform="translate(10,2) scale(1,1)"><g><path fill="none" stroke="none"/><text fill="#000000" stroke="none" font-family="Arial" font-size="13px" font-style="normal" font-weight="bold" text-decoration="none" x="476.226806640625" y="115.5">Node</text></g></g><g transform="translate(10,2) scale(1,1)"><g><path fill="none" stroke="none"/><text fill="#000000" stroke="none" font-family="Arial" font-size="13px" font-style="normal" font-weight="normal" text-decoration="none" x="436.5" y="130.5">(from javafx.scene)</text></g></g><g transform="translate(10,2) scale(1,1)"><g><path fill="none" stroke="none"/><text fill="#000000" stroke="none" font-family="Arial" font-size="13px" font-style="normal" font-weight="normal" text-decoration="none" x="21" y="58">JHotDraw 8 supports the</text><text fill="#000000" stroke="none" font-family="Arial" font-size="13px" font-style="normal" font-weight="normal" text-decoration="none" x="21" y="71">separation of components into</text><text fill="#000000" stroke="none" font-family="Arial" font-size="13px" font-style="normal" font-weight="normal" text-decoration="none" x="21" y="84">a model, a view and a</text><text fill="#000000" stroke="none" font-family="Arial" font-size="13px" font-style="normal" font-weight="normal" text-decoration="none" x="21" y="97">controller.</text></g></g><g transform="translate(10,2) scale(1,1)"><rect fill="#C0C0C0" stroke="none" x="207" y="87" width="107.642578125" height="62" opacity="0.2"/></g><g transform="translate(10,2) scale(1,1)"><rect fill="#ffd8d8" stroke="none" x="200" y="80" width="107.642578125" height="62"/></g><g transform="translate(10,2) scale(1,1)"><path fill="none" stroke="#000000" d="M 200 80 L 307.642578125 80 L 307.642578125 142 L 200 142 L 200 80 Z Z" stroke-miterlimit="10"/></g><g transform="translate(10,2) scale(1,1)"><path fill="none" stroke="#000000" d="M 200 105 L 307.642578125 105" stroke-miterlimit="10"/></g><g transform="translate(10,2) scale(1,1)"><g><path fill="none" stroke="none"/><text fill="#000000" stroke="none" font-family="Arial" font-size="13px" font-style="normal" font-weight="bold" text-decoration="none" x="225.64404296875" y="99.5">Controller</text></g></g><g transform="translate(10,2) scale(1,1)"><g><path fill="none" stroke="none"/><text fill="#000000" stroke="none" font-family="Arial" font-size="13px" font-style="normal" font-weight="normal" text-decoration="none" x="205" y="122.5">+view {readOnly}</text></g></g><g transform="translate(10,2) scale(1,1)"><g><path fill="none" stroke="none"/><text fill="#000000" stroke="none" font-family="Arial" font-size="13px" font-style="normal" font-weight="normal" text-decoration="none" x="205" y="137.5">+model</text></g></g><g transform="translate(10,2) scale(1,1)"><rect fill="#C0C0C0" stroke="none" x="239" y="263" width="46.552734375" height="24" opacity="0.2"/></g><g transform="translate(10,2) scale(1,1)"><rect fill="#ebffd8" stroke="none" x="232" y="256" width="46.552734375" height="24"/></g><g transform="translate(10,2) scale(1,1)"><path fill="none" stroke="#000000" d="M 232 256 L 278.552734375 256 L 278.552734375 280 L 232 280 L 232 256 Z Z" stroke-miterlimit="10"/></g><g transform="translate(10,2) scale(1,1)"><g><path fill="none" stroke="none"/><text fill="#000000" stroke="none" font-family="Arial" font-size="13px" font-style="normal" font-weight="bold" text-decoration="none" x="237.57275390625" y="275.5">Model</text></g></g><g transform="translate(10,2) scale(1,1)"><path fill="none" stroke="#000000" d="M 280 276 L 444 327" stroke-miterlimit="10" stroke-dasharray="3"/></g><g transform="translate(10,2) scale(1,1)"><path fill="#FFFFFF" stroke="none" d="M 422.0914356233465 329.00369831911615 L 444 327 L 427.09147689430716 312.9251342321054"/></g><g transform="translate(10,2) scale(1,1)"><path fill="none" stroke="#000000" d="M 422.0914356233465 329.00369831911615 L 444 327 L 427.09147689430716 312.9251342321054 L 422.0914356233465 329.00369831911615" stroke-miterlimit="10"/></g><g transform="translate(10,2) scale(1,1)"><g><path fill="none" stroke="none"/><text fill="#000000" stroke="none" font-family="Arial" font-size="13px" font-style="normal" font-weight="normal" text-decoration="none" x="344.5" y="292.5">+Model</text></g></g><g transform="translate(10,2) scale(1,1)"><path fill="none" stroke="#000000" d="M 291 143 L 510 327" stroke-miterlimit="10" stroke-dasharray="3"/></g><g transform="translate(10,2) scale(1,1)"><path fill="#FFFFFF" stroke="none" d="M 489.02243351095956 320.3711460871515 L 510 327 L 499.853928036078 307.4793129295376"/></g><g transform="translate(10,2) scale(1,1)"><path fill="none" stroke="#000000" d="M 489.02243351095956 320.3711460871515 L 510 327 L 499.853928036078 307.4793129295376 L 489.02243351095956 320.3711460871515" stroke-miterlimit="10"/></g><g transform="translate(10,2) scale(1,1)"><g><path fill="none" stroke="none"/><text fill="#000000" stroke="none" font-family="Arial" font-size="13px" font-style="normal" font-weight="normal" text-decoration="none" x="377.5" y="229.5">+Controller</text></g></g><g transform="translate(10,2) scale(1,1)"><path fill="none" stroke="#000000" d="M 255 255 L 253 143" stroke-miterlimit="10"/></g><g transform="translate(10,2) scale(1,1)"><path fill="#FFFFFF" stroke="none" d="M 257.3902941654267 153.0858969428118 L 253 143 L 248.9726006531661 153.23621289838786 L 253.39279452117142 164.99649318559977"/></g><g transform="translate(10,2) scale(1,1)"><path fill="none" stroke="#000000" d="M 257.3902941654267 153.0858969428118 L 253 143 L 248.9726006531661 153.23621289838786 L 253.39279452117142 164.99649318559977 L 257.3902941654267 153.0858969428118" stroke-miterlimit="10"/></g><g transform="translate(10,2) scale(1,1)"><path fill="none" stroke="#000000" d="M 496 136 L 541 327" stroke-miterlimit="10" stroke-dasharray="3"/></g><g transform="translate(10,2) scale(1,1)"><path fill="#FFFFFF" stroke="none" d="M 528.1442516744404 309.14699647146534 L 541 327 L 544.5335930413435 305.285633322195"/></g><g transform="translate(10,2) scale(1,1)"><path fill="none" stroke="#000000" d="M 528.1442516744404 309.14699647146534 L 541 327 L 544.5335930413435 305.285633322195 L 528.1442516744404 309.14699647146534" stroke-miterlimit="10"/></g><g transform="translate(10,2) scale(1,1)"><g><path fill="none" stroke="none"/><text fill="#000000" stroke="none" font-family="Arial" font-size="13px" font-style="normal" font-weight="normal" text-decoration="none" x="514.5" y="233.5">+View</text></g></g><g transform="translate(10,2) scale(1,1)"><path fill="none" stroke="#000000" d="M 431 114 L 309 112" stroke-miterlimit="10"/></g><g transform="translate(10,2) scale(1,1)"><path fill="#000000" stroke="none" d="M 319.230308765809 107.95762661840706 L 309 112 L 319.0923103321481 116.37553107172337 L 330.99704440114203 112.36060728526462"/></g><g transform="translate(10,2) scale(1,1)"><path fill="none" stroke="#000000" d="M 319.230308765809 107.95762661840706 L 309 112 L 319.0923103321481 116.37553107172337 L 330.99704440114203 112.36060728526462 L 319.230308765809 107.95762661840706" stroke-miterlimit="10"/></g></g></svg>