<svg version="1.1" xmlns="http://www.w3.org/2000/svg" xmlns:xlink="http://www.w3.org/1999/xlink" width="716" height="468"><defs/><g><g transform="translate(-14,-14) scale(1,1)"><path fill="none" stroke="#000000" d="M 24 24 L 720 24 L 720 472 L 24 472 L 24 24" stroke-miterlimit="10"/></g><g transform="translate(-14,-14) scale(1,1)"><path fill="#ffffff" stroke="none" d="M 24 24 L 24 46 L 248.78076171875 46 L 259.78076171875 35 L 259.78076171875 24 L 24 24"/></g><g transform="translate(-14,-14) scale(1,1)"><path fill="none" stroke="#000000" d="M 24 24 L 24 46 L 248.78076171875 46 L 259.78076171875 35 L 259.78076171875 24 L 24 24 L 24 24" stroke-miterlimit="10"/></g><g transform="translate(-14,-14) scale(1,1)"><g><path fill="none" stroke="none"/><text fill="#000000" stroke="none" font-family="Arial" font-size="13px" font-style="normal" font-weight="normal" text-decoration="none" x="55.9599609375" y="41.5">JHotDraw 8 Drawing Framework</text></g></g><g transform="translate(-14,-14) scale(1,1)"><g><path fill="none" stroke="none"/><text fill="#000000" stroke="none" font-family="Arial" font-size="13px" font-style="normal" font-weight="bold" text-decoration="none" x="29" y="41.5">pkg</text></g></g><g transform="translate(-14,-14) scale(1,1)"><rect fill="#C0C0C0" stroke="none" x="407" y="71" width="38.27597656249998" height="15" opacity="0.2"/></g><g transform="translate(-14,-14) scale(1,1)"><rect fill="#C0C0C0" stroke="none" x="407" y="85" width="95.68994140625" height="25" opacity="0.2"/></g><g transform="translate(-14,-14) scale(1,1)"><rect fill="#ebffd8" stroke="none" x="400" y="79" width="95.68994140625" height="24"/></g><g transform="translate(-14,-14) scale(1,1)"><path fill="none" stroke="#000000" d="M 400 79 L 495.68994140625 79 L 495.68994140625 103 L 400 103 L 400 79 Z Z" stroke-miterlimit="10"/></g><g transform="translate(-14,-14) scale(1,1)"><rect fill="#ebffd8" stroke="none" x="400" y="64" width="38.27597656249998" height="15"/></g><g transform="translate(-14,-14) scale(1,1)"><path fill="none" stroke="#000000" d="M 400 64 L 438.2759765625 64 L 438.2759765625 79 L 400 79 L 400 64 Z Z" stroke-miterlimit="10"/></g><g transform="translate(-14,-14) scale(1,1)"><rect fill="#ebffd8" stroke="none" x="400" y="78" width="95.68994140625" height="25"/></g><g transform="translate(-14,-14) scale(1,1)"><path fill="none" stroke="#000000" d="M 400 78 L 495.68994140625 78 L 495.68994140625 103 L 400 103 L 400 78 Z Z" stroke-miterlimit="10"/></g><g transform="translate(-14,-14) scale(1,1)"><path fill="none" stroke="#000000" d="M 429.2759765625 67 L 423.2759765625 74 L 435.2759765625 74 L 429.2759765625 67" stroke-miterlimit="10"/></g><g transform="translate(-14,-14) scale(1,1)"><g><path fill="none" stroke="none"/><text fill="#000000" stroke="none" font-family="Arial" font-size="13px" font-style="normal" font-weight="bold" text-decoration="none" x="407.3818359375" y="98.5">Requirements</text></g></g><g transform="translate(-14,-14) scale(1,1)"><rect fill="#C0C0C0" stroke="none" x="559" y="143" width="49.452929687500045" height="15" opacity="0.2"/></g><g transform="translate(-14,-14) scale(1,1)"><rect fill="#C0C0C0" stroke="none" x="559" y="157" width="123.63232421875" height="25" opacity="0.2"/></g><g transform="translate(-14,-14) scale(1,1)"><rect fill="#d8e5ff" stroke="none" x="552" y="151" width="123.63232421875" height="24"/></g><g transform="translate(-14,-14) scale(1,1)"><path fill="none" stroke="#000000" d="M 552 151 L 675.63232421875 151 L 675.63232421875 175 L 552 175 L 552 151 Z Z" stroke-miterlimit="10"/></g><g transform="translate(-14,-14) scale(1,1)"><rect fill="#d8e5ff" stroke="none" x="552" y="136" width="49.452929687500045" height="15"/></g><g transform="translate(-14,-14) scale(1,1)"><path fill="none" stroke="#000000" d="M 552 136 L 601.4529296875 136 L 601.4529296875 151 L 552 151 L 552 136 Z Z" stroke-miterlimit="10"/></g><g transform="translate(-14,-14) scale(1,1)"><rect fill="#d8e5ff" stroke="none" x="552" y="150" width="123.63232421875" height="25"/></g><g transform="translate(-14,-14) scale(1,1)"><path fill="none" stroke="#000000" d="M 552 150 L 675.63232421875 150 L 675.63232421875 175 L 552 175 L 552 150 Z Z" stroke-miterlimit="10"/></g><g transform="translate(-14,-14) scale(1,1)"><path fill="none" stroke="#000000" d="M 592.4529296875 139 L 586.4529296875 146 L 598.4529296875 146 L 592.4529296875 139" stroke-miterlimit="10"/></g><g transform="translate(-14,-14) scale(1,1)"><g><path fill="none" stroke="none"/><text fill="#000000" stroke="none" font-family="Arial" font-size="13px" font-style="normal" font-weight="bold" text-decoration="none" x="559.740478515625" y="170.5">Development View</text></g></g><g transform="translate(-14,-14) scale(1,1)"><rect fill="#C0C0C0" stroke="none" x="319" y="303" width="37.03691406249999" height="15" opacity="0.2"/></g><g transform="translate(-14,-14) scale(1,1)"><rect fill="#C0C0C0" stroke="none" x="319" y="317" width="92.59228515625" height="25" opacity="0.2"/></g><g transform="translate(-14,-14) scale(1,1)"><rect fill="#d8e5ff" stroke="none" x="312" y="311" width="92.59228515625" height="24"/></g><g transform="translate(-14,-14) scale(1,1)"><path fill="none" stroke="#000000" d="M 312 311 L 404.59228515625 311 L 404.59228515625 335 L 312 335 L 312 311 Z Z" stroke-miterlimit="10"/></g><g transform="translate(-14,-14) scale(1,1)"><rect fill="#d8e5ff" stroke="none" x="312" y="296" width="37.03691406249999" height="15"/></g><g transform="translate(-14,-14) scale(1,1)"><path fill="none" stroke="#000000" d="M 312 296 L 349.0369140625 296 L 349.0369140625 311 L 312 311 L 312 296 Z Z" stroke-miterlimit="10"/></g><g transform="translate(-14,-14) scale(1,1)"><rect fill="#d8e5ff" stroke="none" x="312" y="310" width="92.59228515625" height="25"/></g><g transform="translate(-14,-14) scale(1,1)"><path fill="none" stroke="#000000" d="M 312 310 L 404.59228515625 310 L 404.59228515625 335 L 312 335 L 312 310 Z Z" stroke-miterlimit="10"/></g><g transform="translate(-14,-14) scale(1,1)"><path fill="none" stroke="#000000" d="M 340.0369140625 299 L 334.0369140625 306 L 346.0369140625 306 L 340.0369140625 299" stroke-miterlimit="10"/></g><g transform="translate(-14,-14) scale(1,1)"><g><path fill="none" stroke="none"/><text fill="#000000" stroke="none" font-family="Arial" font-size="13px" font-style="normal" font-weight="bold" text-decoration="none" x="319.0390625" y="330.5">Process View</text></g></g><g transform="translate(-14,-14) scale(1,1)"><rect fill="#C0C0C0" stroke="none" x="575" y="303" width="37.90273437500002" height="15" opacity="0.2"/></g><g transform="translate(-14,-14) scale(1,1)"><rect fill="#C0C0C0" stroke="none" x="575" y="317" width="94.7568359375" height="25" opacity="0.2"/></g><g transform="translate(-14,-14) scale(1,1)"><rect fill="#d8e5ff" stroke="none" x="568" y="311" width="94.7568359375" height="24"/></g><g transform="translate(-14,-14) scale(1,1)"><path fill="none" stroke="#000000" d="M 568 311 L 662.7568359375 311 L 662.7568359375 335 L 568 335 L 568 311 Z Z" stroke-miterlimit="10"/></g><g transform="translate(-14,-14) scale(1,1)"><rect fill="#d8e5ff" stroke="none" x="568" y="296" width="37.90273437500002" height="15"/></g><g transform="translate(-14,-14) scale(1,1)"><path fill="none" stroke="#000000" d="M 568 296 L 605.902734375 296 L 605.902734375 311 L 568 311 L 568 296 Z Z" stroke-miterlimit="10"/></g><g transform="translate(-14,-14) scale(1,1)"><rect fill="#d8e5ff" stroke="none" x="568" y="310" width="94.7568359375" height="25"/></g><g transform="translate(-14,-14) scale(1,1)"><path fill="none" stroke="#000000" d="M 568 310 L 662.7568359375 310 L 662.7568359375 335 L 568 335 L 568 310 Z Z" stroke-miterlimit="10"/></g><g transform="translate(-14,-14) scale(1,1)"><path fill="none" stroke="#000000" d="M 596.902734375 299 L 590.902734375 306 L 602.902734375 306 L 596.902734375 299" stroke-miterlimit="10"/></g><g transform="translate(-14,-14) scale(1,1)"><g><path fill="none" stroke="none"/><text fill="#000000" stroke="none" font-family="Arial" font-size="13px" font-style="normal" font-weight="bold" text-decoration="none" x="575.397705078125" y="330.5">Physical View</text></g></g><g transform="translate(-14,-14) scale(1,1)"><rect fill="#C0C0C0" stroke="none" x="455" y="215" width="41.65800781249999" height="15" opacity="0.2"/></g><g transform="translate(-14,-14) scale(1,1)"><rect fill="#C0C0C0" stroke="none" x="455" y="229" width="104.14501953125" height="25" opacity="0.2"/></g><g transform="translate(-14,-14) scale(1,1)"><rect fill="#d8e5ff" stroke="none" x="448" y="223" width="104.14501953125" height="24"/></g><g transform="translate(-14,-14) scale(1,1)"><path fill="none" stroke="#000000" d="M 448 223 L 552.14501953125 223 L 552.14501953125 247 L 448 247 L 448 223 Z Z" stroke-miterlimit="10"/></g><g transform="translate(-14,-14) scale(1,1)"><rect fill="#d8e5ff" stroke="none" x="448" y="208" width="41.65800781249999" height="15"/></g><g transform="translate(-14,-14) scale(1,1)"><path fill="none" stroke="#000000" d="M 448 208 L 489.6580078125 208 L 489.6580078125 223 L 448 223 L 448 208 Z Z" stroke-miterlimit="10"/></g><g transform="translate(-14,-14) scale(1,1)"><rect fill="#d8e5ff" stroke="none" x="448" y="222" width="104.14501953125" height="25"/></g><g transform="translate(-14,-14) scale(1,1)"><path fill="none" stroke="#000000" d="M 448 222 L 552.14501953125 222 L 552.14501953125 247 L 448 247 L 448 222 Z Z" stroke-miterlimit="10"/></g><g transform="translate(-14,-14) scale(1,1)"><path fill="none" stroke="#000000" d="M 480.6580078125 211 L 474.6580078125 218 L 486.6580078125 218 L 480.6580078125 211" stroke-miterlimit="10"/></g><g transform="translate(-14,-14) scale(1,1)"><g><path fill="none" stroke="none"/><text fill="#000000" stroke="none" font-family="Arial" font-size="13px" font-style="normal" font-weight="bold" text-decoration="none" x="471.16845703125" y="242.5">Scenarios</text></g></g><g transform="translate(-14,-14) scale(1,1)"><rect fill="#C0C0C0" stroke="none" x="319" y="143" width="35.00312500000001" height="15" opacity="0.2"/></g><g transform="translate(-14,-14) scale(1,1)"><rect fill="#C0C0C0" stroke="none" x="319" y="157" width="87.5078125" height="25" opacity="0.2"/></g><g transform="translate(-14,-14) scale(1,1)"><rect fill="#d8e5ff" stroke="none" x="312" y="151" width="87.5078125" height="24"/></g><g transform="translate(-14,-14) scale(1,1)"><path fill="none" stroke="#000000" d="M 312 151 L 399.5078125 151 L 399.5078125 175 L 312 175 L 312 151 Z Z" stroke-miterlimit="10"/></g><g transform="translate(-14,-14) scale(1,1)"><rect fill="#d8e5ff" stroke="none" x="312" y="136" width="35.00312500000001" height="15"/></g><g transform="translate(-14,-14) scale(1,1)"><path fill="none" stroke="#000000" d="M 312 136 L 347.003125 136 L 347.003125 151 L 312 151 L 312 136 Z Z" stroke-miterlimit="10"/></g><g transform="translate(-14,-14) scale(1,1)"><rect fill="#d8e5ff" stroke="none" x="312" y="150" width="87.5078125" height="25"/></g><g transform="translate(-14,-14) scale(1,1)"><path fill="none" stroke="#000000" d="M 312 150 L 399.5078125 150 L 399.5078125 175 L 312 175 L 312 150 Z Z" stroke-miterlimit="10"/></g><g transform="translate(-14,-14) scale(1,1)"><path fill="none" stroke="#000000" d="M 338.003125 139 L 332.003125 146 L 344.003125 146 L 338.003125 139" stroke-miterlimit="10"/></g><g transform="translate(-14,-14) scale(1,1)"><g><path fill="none" stroke="none"/><text fill="#000000" stroke="none" font-family="Arial" font-size="13px" font-style="normal" font-weight="bold" text-decoration="none" x="319.378662109375" y="170.5">Logical View</text></g></g><g transform="translate(-14,-14) scale(1,1)"><path fill="none" stroke="#000000" d="M 531 207 L 580 176" stroke-miterlimit="10" stroke-dasharray="3"/></g><g transform="translate(-14,-14) scale(1,1)"><path fill="none" stroke="#000000" d="M 573.6623223424572 184.99076425611761 L 580 176 L 569.1611547778266 177.87601552492737" stroke-miterlimit="10"/></g><g transform="translate(-14,-14) scale(1,1)"><path fill="none" stroke="#000000" d="M 460 207 L 397 176" stroke-miterlimit="10" stroke-dasharray="3"/></g><g transform="translate(-14,-14) scale(1,1)"><path fill="none" stroke="#000000" d="M 407.97707037816645 176.70987739278067 L 397 176 L 404.2600017837172 184.2639200202097" stroke-miterlimit="10"/></g><g transform="translate(-14,-14) scale(1,1)"><path fill="none" stroke="#000000" d="M 466 248 L 390 295" stroke-miterlimit="10" stroke-dasharray="3"/></g><g transform="translate(-14,-14) scale(1,1)"><path fill="none" stroke="#000000" d="M 396.42931395360637 286.0745351893606 L 390 295 L 400.8574681878174 293.23495480212733" stroke-miterlimit="10"/></g><g transform="translate(-14,-14) scale(1,1)"><path fill="none" stroke="#000000" d="M 527 248 L 589 295" stroke-miterlimit="10" stroke-dasharray="3"/></g><g transform="translate(-14,-14) scale(1,1)"><path fill="none" stroke="#000000" d="M 578.3583260516396 292.2152602317655 L 589 295 L 583.4443085618966 285.50609181397965" stroke-miterlimit="10"/></g><g transform="translate(-14,-14) scale(1,1)"><rect fill="#C0C0C0" stroke="none" x="319" y="71" width="30.95332031250001" height="15" opacity="0.2"/></g><g transform="translate(-14,-14) scale(1,1)"><rect fill="#C0C0C0" stroke="none" x="319" y="85" width="77.38330078125" height="25" opacity="0.2"/></g><g transform="translate(-14,-14) scale(1,1)"><rect fill="#ffffd8" stroke="none" x="312" y="79" width="77.38330078125" height="24"/></g><g transform="translate(-14,-14) scale(1,1)"><path fill="none" stroke="#000000" d="M 312 79 L 389.38330078125 79 L 389.38330078125 103 L 312 103 L 312 79 Z Z" stroke-miterlimit="10"/></g><g transform="translate(-14,-14) scale(1,1)"><rect fill="#ffffd8" stroke="none" x="312" y="64" width="30.95332031250001" height="15"/></g><g transform="translate(-14,-14) scale(1,1)"><path fill="none" stroke="#000000" d="M 312 64 L 342.9533203125 64 L 342.9533203125 79 L 312 79 L 312 64 Z Z" stroke-miterlimit="10"/></g><g transform="translate(-14,-14) scale(1,1)"><rect fill="#ffffd8" stroke="none" x="312" y="78" width="77.38330078125" height="25"/></g><g transform="translate(-14,-14) scale(1,1)"><path fill="none" stroke="#000000" d="M 312 78 L 389.38330078125 78 L 389.38330078125 103 L 312 103 L 312 78 Z Z" stroke-miterlimit="10"/></g><g transform="translate(-14,-14) scale(1,1)"><path fill="none" stroke="#000000" d="M 333.9533203125 67 L 327.9533203125 74 L 339.9533203125 74 L 333.9533203125 67" stroke-miterlimit="10"/></g><g transform="translate(-14,-14) scale(1,1)"><g><path fill="none" stroke="none"/><text fill="#000000" stroke="none" font-family="Arial" font-size="13px" font-style="normal" font-weight="bold" text-decoration="none" x="319.37548828125" y="98.5">Viewpoints</text></g></g><g transform="translate(-14,-14) scale(1,1)"><rect fill="#C0C0C0" stroke="none" x="521" y="71" width="36.53671874999998" height="15" opacity="0.2"/></g><g transform="translate(-14,-14) scale(1,1)"><rect fill="#C0C0C0" stroke="none" x="521" y="85" width="91.341796875" height="25" opacity="0.2"/></g><g transform="translate(-14,-14) scale(1,1)"><rect fill="#ebffd8" stroke="none" x="514" y="79" width="91.341796875" height="24"/></g><g transform="translate(-14,-14) scale(1,1)"><path fill="none" stroke="#000000" d="M 514 79 L 605.341796875 79 L 605.341796875 103 L 514 103 L 514 79 Z Z" stroke-miterlimit="10"/></g><g transform="translate(-14,-14) scale(1,1)"><rect fill="#ebffd8" stroke="none" x="514" y="64" width="36.53671874999998" height="15"/></g><g transform="translate(-14,-14) scale(1,1)"><path fill="none" stroke="#000000" d="M 514 64 L 550.53671875 64 L 550.53671875 79 L 514 79 L 514 64 Z Z" stroke-miterlimit="10"/></g><g transform="translate(-14,-14) scale(1,1)"><rect fill="#ebffd8" stroke="none" x="514" y="78" width="91.341796875" height="25"/></g><g transform="translate(-14,-14) scale(1,1)"><path fill="none" stroke="#000000" d="M 514 78 L 605.341796875 78 L 605.341796875 103 L 514 103 L 514 78 Z Z" stroke-miterlimit="10"/></g><g transform="translate(-14,-14) scale(1,1)"><path fill="none" stroke="#000000" d="M 541.53671875 67 L 535.53671875 74 L 547.53671875 74 L 541.53671875 67" stroke-miterlimit="10"/></g><g transform="translate(-14,-14) scale(1,1)"><g><path fill="none" stroke="none"/><text fill="#000000" stroke="none" font-family="Arial" font-size="13px" font-style="normal" font-weight="bold" text-decoration="none" x="522.4609375" y="98.5">Assumptions</text></g></g><g transform="translate(-14,-14) scale(1,1)"><rect fill="#C0C0C0" stroke="none" x="639" y="71" width="28.165429687500023" height="15" opacity="0.2"/></g><g transform="translate(-14,-14) scale(1,1)"><rect fill="#C0C0C0" stroke="none" x="639" y="85" width="70.41357421875" height="25" opacity="0.2"/></g><g transform="translate(-14,-14) scale(1,1)"><rect fill="#ebffd8" stroke="none" x="632" y="79" width="70.41357421875" height="24"/></g><g transform="translate(-14,-14) scale(1,1)"><path fill="none" stroke="#000000" d="M 632 79 L 702.41357421875 79 L 702.41357421875 103 L 632 103 L 632 79 Z Z" stroke-miterlimit="10"/></g><g transform="translate(-14,-14) scale(1,1)"><rect fill="#ebffd8" stroke="none" x="632" y="64" width="28.165429687500023" height="15"/></g><g transform="translate(-14,-14) scale(1,1)"><path fill="none" stroke="#000000" d="M 632 64 L 660.1654296875 64 L 660.1654296875 79 L 632 79 L 632 64 Z Z" stroke-miterlimit="10"/></g><g transform="translate(-14,-14) scale(1,1)"><rect fill="#ebffd8" stroke="none" x="632" y="78" width="70.41357421875" height="25"/></g><g transform="translate(-14,-14) scale(1,1)"><path fill="none" stroke="#000000" d="M 632 78 L 702.41357421875 78 L 702.41357421875 103 L 632 103 L 632 78 Z Z" stroke-miterlimit="10"/></g><g transform="translate(-14,-14) scale(1,1)"><path fill="none" stroke="#000000" d="M 651.1654296875 67 L 645.1654296875 74 L 657.1654296875 74 L 651.1654296875 67" stroke-miterlimit="10"/></g><g transform="translate(-14,-14) scale(1,1)"><g><path fill="none" stroke="none"/><text fill="#000000" stroke="none" font-family="Arial" font-size="13px" font-style="normal" font-weight="bold" text-decoration="none" x="639.029541015625" y="98.5">Decisions</text></g></g><g transform="translate(-14,-14) scale(1,1)"><g><path fill="none" stroke="none"/><text fill="#000000" stroke="none" font-family="Arial" font-size="13px" font-style="normal" font-weight="normal" text-decoration="none" x="37" y="74">This model is structured in the</text><text fill="#000000" stroke="none" font-family="Arial" font-size="13px" font-style="normal" font-weight="normal" text-decoration="none" x="37" y="87">sub-models shown here. </text></g></g><g transform="translate(-14,-14) scale(1,1)"><g><path fill="none" stroke="none"/></g></g><g transform="translate(-14,-14) scale(1,1)"><g><path fill="none" stroke="none"/><text fill="#000000" stroke="none" font-family="Arial" font-size="13px" font-style="normal" font-weight="normal" text-decoration="none" x="37" y="104">You may want to start reading with the</text><text fill="#000000" stroke="none" font-family="Arial" font-size="13px" font-style="normal" font-weight="normal" text-decoration="none" x="37" y="117">Viewpoints model. </text></g></g><g transform="translate(-14,-14) scale(1,1)"><g><path fill="none" stroke="none"/></g></g><g transform="translate(-14,-14) scale(1,1)"><g><path fill="none" stroke="none"/><text fill="#000000" stroke="none" font-family="Arial" font-size="13px" font-style="normal" font-weight="normal" text-decoration="none" x="37" y="134">Then Requirements, Assumptions,</text><text fill="#000000" stroke="none" font-family="Arial" font-size="13px" font-style="normal" font-weight="normal" text-decoration="none" x="37" y="147">Decisions is a good read, before you</text><text fill="#000000" stroke="none" font-family="Arial" font-size="13px" font-style="normal" font-weight="normal" text-decoration="none" x="37" y="160">delve into the details of the</text><text fill="#000000" stroke="none" font-family="Arial" font-size="13px" font-style="normal" font-weight="normal" text-decoration="none" x="37" y="173">specification. </text></g></g><g transform="translate(-14,-14) scale(1,1)"><g><path fill="none" stroke="none"/><text fill="#000000" stroke="none" font-family="Arial" font-size="13px" font-style="normal" font-weight="normal" text-decoration="none" x="37" y="188">The details of the specification are</text><text fill="#000000" stroke="none" font-family="Arial" font-size="13px" font-style="normal" font-weight="normal" text-decoration="none" x="37" y="201">given from 4+1 different viewpoints -</text><text fill="#000000" stroke="none" font-family="Arial" font-size="13px" font-style="normal" font-weight="normal" text-decoration="none" x="37" y="214">see Kruchten1995 for a description of</text><text fill="#000000" stroke="none" font-family="Arial" font-size="13px" font-style="normal" font-weight="normal" text-decoration="none" x="37" y="227">these viewpoints. </text></g></g><g transform="translate(-14,-14) scale(1,1)"><rect fill="#ffffff" stroke="none" x="48" y="312" width="123.34619140625" height="22"/></g><g transform="translate(-14,-14) scale(1,1)"><path fill="none" stroke="#000000" d="M 48 312 L 171.34619140625 312 L 171.34619140625 334 L 48 334 L 48 312 Z Z" stroke-miterlimit="10"/></g><g transform="translate(-14,-14) scale(1,1)"><path fill="none" stroke="#000000" d="M 80.39453125 312 L 80.39453125 334" stroke-miterlimit="10"/></g><g transform="translate(-14,-14) scale(1,1)"><g><path fill="none" stroke="none"/><text fill="#000000" stroke="none" font-family="Arial" font-size="13px" font-style="normal" font-weight="normal" text-decoration="none" x="84.89453125" y="329.5">Kruchten1995</text></g></g><g transform="translate(-14,-14) scale(1,1)"><g><path fill="none" stroke="none"/><text fill="#000000" stroke="none" font-family="Arial" font-size="13px" font-style="normal" font-weight="bold" text-decoration="none" x="54.444091796875" y="329.5">link</text></g></g></g></svg>