<svg version="1.1" xmlns="http://www.w3.org/2000/svg" width="931" height="563"><defs/><g><g transform="translate(-6,2) scale(1,1)"><path fill="none" stroke="#000000" d="M 16 8 L 927 8 L 927 551 L 16 551 L 16 8" stroke-miterlimit="10"/></g><g transform="translate(-6,2) scale(1,1)"><path fill="#ffffff" stroke="none" d="M 16 8 L 16 30 L 169.2744140625 30 L 180.2744140625 19 L 180.2744140625 8 L 16 8"/></g><g transform="translate(-6,2) scale(1,1)"><path fill="none" stroke="#000000" d="M 16 8 L 16 30 L 169.2744140625 30 L 180.2744140625 19 L 180.2744140625 8 L 16 8 L 16 8" stroke-miterlimit="10"/></g><g transform="translate(-6,2) scale(1,1)"><g><path fill="none" stroke="none"/><text fill="#000000" stroke="none" font-family="Arial" font-size="13px" font-style="normal" font-weight="normal" text-decoration="none" x="56.6181640625" y="25.5">Structural Patterns</text></g></g><g transform="translate(-6,2) scale(1,1)"><g><path fill="none" stroke="none"/><text fill="#000000" stroke="none" font-family="Arial" font-size="13px" font-style="normal" font-weight="bold" text-decoration="none" x="21" y="25.5">class</text></g></g><g transform="translate(-6,2) scale(1,1)"><rect fill="#ffffff" stroke="none" x="16" y="32" width="99" height="22"/></g><g transform="translate(-6,2) scale(1,1)"><path fill="none" stroke="#000000" d="M 16 32 L 115 32 L 115 54 L 16 54 L 16 32 Z Z" stroke-miterlimit="10"/></g><g transform="translate(-6,2) scale(1,1)"><path fill="none" stroke="#000000" d="M 48.39453125 32 L 48.39453125 54" stroke-miterlimit="10"/></g><g transform="translate(-6,2) scale(1,1)"><g><path fill="none" stroke="none"/><text fill="#000000" stroke="none" font-family="Arial" font-size="13px" font-style="normal" font-weight="normal" text-decoration="none" x="52.89453125" y="49.5">GoF1995</text></g></g><g transform="translate(-6,2) scale(1,1)"><g><path fill="none" stroke="none"/><text fill="#000000" stroke="none" font-family="Arial" font-size="13px" font-style="normal" font-weight="bold" text-decoration="none" x="22.444091796875" y="49.5">link</text></g></g><g transform="translate(-6,2) scale(1,1)"><path fill="#C0C0C0" stroke="none" d="M 90 118.5 C 90 107.7304464 124.6828438453125 99 167.46630859375 99 C 210.2497733421875 99 244.9326171875 107.7304464 244.9326171875 118.5 C 244.9326171875 129.2695536 210.2497733421875 138 167.46630859375 138 C 124.6828438453125 138 90 129.2695536 90 118.5 Z" opacity="0.2"/></g><g transform="translate(-6,2) scale(1,1)"><path fill="#ffffff" stroke="none" d="M 83 111.5 C 83 100.7304464 117.6828438453125 92 160.46630859375 92 C 203.2497733421875 92 237.9326171875 100.7304464 237.9326171875 111.5 C 237.9326171875 122.2695536 203.2497733421875 131 160.46630859375 131 C 117.6828438453125 131 83 122.2695536 83 111.5 Z"/></g><g transform="translate(-6,2) scale(1,1)"><path fill="none" stroke="#000000" d="M 83 111.5 C 83 100.7304464 117.6828438453125 92 160.46630859375 92 C 203.2497733421875 92 237.9326171875 100.7304464 237.9326171875 111.5 C 237.9326171875 122.2695536 203.2497733421875 131 160.46630859375 131 C 117.6828438453125 131 83 122.2695536 83 111.5 Z" stroke-miterlimit="10" stroke-dasharray="5"/></g><g transform="translate(-6,2) scale(1,1)"><g><path fill="none" stroke="none"/><text fill="#000000" stroke="none" font-family="Arial" font-size="13px" font-style="normal" font-weight="bold" text-decoration="none" x="114.937744140625" y="111.5">Adapter Pattern</text></g></g><g transform="translate(-6,2) scale(1,1)"><path fill="#C0C0C0" stroke="none" d="M 90 177.5 C 90 166.7304464 124.6828438453125 158 167.46630859375 158 C 210.2497733421875 158 244.9326171875 166.7304464 244.9326171875 177.5 C 244.9326171875 188.2695536 210.2497733421875 197 167.46630859375 197 C 124.6828438453125 197 90 188.2695536 90 177.5 Z" opacity="0.2"/></g><g transform="translate(-6,2) scale(1,1)"><path fill="#ffffff" stroke="none" d="M 83 170.5 C 83 159.7304464 117.6828438453125 151 160.46630859375 151 C 203.2497733421875 151 237.9326171875 159.7304464 237.9326171875 170.5 C 237.9326171875 181.2695536 203.2497733421875 190 160.46630859375 190 C 117.6828438453125 190 83 181.2695536 83 170.5 Z"/></g><g transform="translate(-6,2) scale(1,1)"><path fill="none" stroke="#000000" d="M 83 170.5 C 83 159.7304464 117.6828438453125 151 160.46630859375 151 C 203.2497733421875 151 237.9326171875 159.7304464 237.9326171875 170.5 C 237.9326171875 181.2695536 203.2497733421875 190 160.46630859375 190 C 117.6828438453125 190 83 181.2695536 83 170.5 Z" stroke-miterlimit="10" stroke-dasharray="5"/></g><g transform="translate(-6,2) scale(1,1)"><g><path fill="none" stroke="none"/><text fill="#000000" stroke="none" font-family="Arial" font-size="13px" font-style="normal" font-weight="bold" text-decoration="none" x="118.91455078125" y="170.5">Bridge Pattern</text></g></g><g transform="translate(-6,2) scale(1,1)"><path fill="#C0C0C0" stroke="none" d="M 90 236.5 C 90 225.7304464 124.6828438453125 217 167.46630859375 217 C 210.2497733421875 217 244.9326171875 225.7304464 244.9326171875 236.5 C 244.9326171875 247.2695536 210.2497733421875 256 167.46630859375 256 C 124.6828438453125 256 90 247.2695536 90 236.5 Z" opacity="0.2"/></g><g transform="translate(-6,2) scale(1,1)"><path fill="#ffffff" stroke="none" d="M 83 229.5 C 83 218.7304464 117.6828438453125 210 160.46630859375 210 C 203.2497733421875 210 237.9326171875 218.7304464 237.9326171875 229.5 C 237.9326171875 240.2695536 203.2497733421875 249 160.46630859375 249 C 117.6828438453125 249 83 240.2695536 83 229.5 Z"/></g><g transform="translate(-6,2) scale(1,1)"><path fill="none" stroke="#000000" d="M 83 229.5 C 83 218.7304464 117.6828438453125 210 160.46630859375 210 C 203.2497733421875 210 237.9326171875 218.7304464 237.9326171875 229.5 C 237.9326171875 240.2695536 203.2497733421875 249 160.46630859375 249 C 117.6828438453125 249 83 240.2695536 83 229.5 Z" stroke-miterlimit="10" stroke-dasharray="5"/></g><g transform="translate(-6,2) scale(1,1)"><g><path fill="none" stroke="none"/><text fill="#000000" stroke="none" font-family="Arial" font-size="13px" font-style="normal" font-weight="bold" text-decoration="none" x="106.635009765625" y="229.5">Composite Pattern</text></g></g><g transform="translate(-6,2) scale(1,1)"><path fill="#C0C0C0" stroke="none" d="M 90 354.5 C 90 343.7304464 124.6828438453125 335 167.46630859375 335 C 210.2497733421875 335 244.9326171875 343.7304464 244.9326171875 354.5 C 244.9326171875 365.2695536 210.2497733421875 374 167.46630859375 374 C 124.6828438453125 374 90 365.2695536 90 354.5 Z" opacity="0.2"/></g><g transform="translate(-6,2) scale(1,1)"><path fill="#ffffff" stroke="none" d="M 83 347.5 C 83 336.7304464 117.6828438453125 328 160.46630859375 328 C 203.2497733421875 328 237.9326171875 336.7304464 237.9326171875 347.5 C 237.9326171875 358.2695536 203.2497733421875 367 160.46630859375 367 C 117.6828438453125 367 83 358.2695536 83 347.5 Z"/></g><g transform="translate(-6,2) scale(1,1)"><path fill="none" stroke="#000000" d="M 83 347.5 C 83 336.7304464 117.6828438453125 328 160.46630859375 328 C 203.2497733421875 328 237.9326171875 336.7304464 237.9326171875 347.5 C 237.9326171875 358.2695536 203.2497733421875 367 160.46630859375 367 C 117.6828438453125 367 83 358.2695536 83 347.5 Z" stroke-miterlimit="10" stroke-dasharray="5"/></g><g transform="translate(-6,2) scale(1,1)"><g><path fill="none" stroke="none"/><text fill="#000000" stroke="none" font-family="Arial" font-size="13px" font-style="normal" font-weight="bold" text-decoration="none" x="116.023193359375" y="347.5">Facade Pattern</text></g></g><g transform="translate(-6,2) scale(1,1)"><path fill="#C0C0C0" stroke="none" d="M 90 413.5 C 90 402.7304464 124.6828438453125 394 167.46630859375 394 C 210.2497733421875 394 244.9326171875 402.7304464 244.9326171875 413.5 C 244.9326171875 424.2695536 210.2497733421875 433 167.46630859375 433 C 124.6828438453125 433 90 424.2695536 90 413.5 Z" opacity="0.2"/></g><g transform="translate(-6,2) scale(1,1)"><path fill="#ffffff" stroke="none" d="M 83 406.5 C 83 395.7304464 117.6828438453125 387 160.46630859375 387 C 203.2497733421875 387 237.9326171875 395.7304464 237.9326171875 406.5 C 237.9326171875 417.2695536 203.2497733421875 426 160.46630859375 426 C 117.6828438453125 426 83 417.2695536 83 406.5 Z"/></g><g transform="translate(-6,2) scale(1,1)"><path fill="none" stroke="#000000" d="M 83 406.5 C 83 395.7304464 117.6828438453125 387 160.46630859375 387 C 203.2497733421875 387 237.9326171875 395.7304464 237.9326171875 406.5 C 237.9326171875 417.2695536 203.2497733421875 426 160.46630859375 426 C 117.6828438453125 426 83 417.2695536 83 406.5 Z" stroke-miterlimit="10" stroke-dasharray="5"/></g><g transform="translate(-6,2) scale(1,1)"><g><path fill="none" stroke="none"/><text fill="#000000" stroke="none" font-family="Arial" font-size="13px" font-style="normal" font-weight="bold" text-decoration="none" x="133.0126953125" y="406.5">Flyweight</text></g></g><g transform="translate(-6,2) scale(1,1)"><path fill="#C0C0C0" stroke="none" d="M 90 472.5 C 90 461.7304464 124.6828438453125 453 167.46630859375 453 C 210.2497733421875 453 244.9326171875 461.7304464 244.9326171875 472.5 C 244.9326171875 483.2695536 210.2497733421875 492 167.46630859375 492 C 124.6828438453125 492 90 483.2695536 90 472.5 Z" opacity="0.2"/></g><g transform="translate(-6,2) scale(1,1)"><path fill="#ffffff" stroke="none" d="M 83 465.5 C 83 454.7304464 117.6828438453125 446 160.46630859375 446 C 203.2497733421875 446 237.9326171875 454.7304464 237.9326171875 465.5 C 237.9326171875 476.2695536 203.2497733421875 485 160.46630859375 485 C 117.6828438453125 485 83 476.2695536 83 465.5 Z"/></g><g transform="translate(-6,2) scale(1,1)"><path fill="none" stroke="#000000" d="M 83 465.5 C 83 454.7304464 117.6828438453125 446 160.46630859375 446 C 203.2497733421875 446 237.9326171875 454.7304464 237.9326171875 465.5 C 237.9326171875 476.2695536 203.2497733421875 485 160.46630859375 485 C 117.6828438453125 485 83 476.2695536 83 465.5 Z" stroke-miterlimit="10" stroke-dasharray="5"/></g><g transform="translate(-6,2) scale(1,1)"><g><path fill="none" stroke="none"/><text fill="#000000" stroke="none" font-family="Arial" font-size="13px" font-style="normal" font-weight="bold" text-decoration="none" x="121.088623046875" y="465.5">Proxy Pattern</text></g></g><g transform="translate(-6,2) scale(1,1)"><path fill="#ffffff" stroke="none" d="M 368 86 L 781 86 L 791 96 L 791 135 L 368 135 L 368 86"/></g><g transform="translate(-6,2) scale(1,1)"><path fill="none" stroke="#000000" d="M 368 86 L 781 86 L 791 96 L 791 135 L 368 135 L 368 86 L 368 86" stroke-miterlimit="10"/></g><g transform="translate(-6,2) scale(1,1)"><path fill="none" stroke="#000000" d="M 781 86 L 781 96 L 791 96 L 781 86" stroke-miterlimit="10"/></g><g transform="translate(-6,2) scale(1,1)"><g><path fill="none" stroke="none"/><text fill="#000000" stroke="none" font-family="Arial" font-size="13px" font-style="normal" font-weight="normal" text-decoration="none" x="373" y="104">{Convert the interface of a class into another interface clients expect.</text><text fill="#000000" stroke="none" font-family="Arial" font-size="13px" font-style="normal" font-weight="normal" text-decoration="none" x="373" y="117">Adapter lets classes work together that couldn’t otherwise because of</text><text fill="#000000" stroke="none" font-family="Arial" font-size="13px" font-style="normal" font-weight="normal" text-decoration="none" x="373" y="130">incompatible interfaces.}</text></g></g><g transform="translate(-6,2) scale(1,1)"><path fill="none" stroke="#000000" d="M 367 111 L 239 111" stroke-miterlimit="10" stroke-dasharray="3"/></g><g transform="translate(-6,2) scale(1,1)"><path fill="#ffffff" stroke="none" d="M 368 146 L 781 146 L 791 156 L 791 195 L 368 195 L 368 146"/></g><g transform="translate(-6,2) scale(1,1)"><path fill="none" stroke="#000000" d="M 368 146 L 781 146 L 791 156 L 791 195 L 368 195 L 368 146 L 368 146" stroke-miterlimit="10"/></g><g transform="translate(-6,2) scale(1,1)"><path fill="none" stroke="#000000" d="M 781 146 L 781 156 L 791 156 L 781 146" stroke-miterlimit="10"/></g><g transform="translate(-6,2) scale(1,1)"><g><path fill="none" stroke="none"/><text fill="#000000" stroke="none" font-family="Arial" font-size="13px" font-style="normal" font-weight="normal" text-decoration="none" x="373" y="164">{Decouple an abstraction from its implementation so that the two can</text><text fill="#000000" stroke="none" font-family="Arial" font-size="13px" font-style="normal" font-weight="normal" text-decoration="none" x="373" y="177">vary independently.}</text></g></g><g transform="translate(-6,2) scale(1,1)"><path fill="none" stroke="#000000" d="M 367 170 L 239 170" stroke-miterlimit="10" stroke-dasharray="3"/></g><g transform="translate(-6,2) scale(1,1)"><path fill="#ffffff" stroke="none" d="M 368 206 L 781 206 L 791 216 L 791 255 L 368 255 L 368 206"/></g><g transform="translate(-6,2) scale(1,1)"><path fill="none" stroke="#000000" d="M 368 206 L 781 206 L 791 216 L 791 255 L 368 255 L 368 206 L 368 206" stroke-miterlimit="10"/></g><g transform="translate(-6,2) scale(1,1)"><path fill="none" stroke="#000000" d="M 781 206 L 781 216 L 791 216 L 781 206" stroke-miterlimit="10"/></g><g transform="translate(-6,2) scale(1,1)"><g><path fill="none" stroke="none"/><text fill="#000000" stroke="none" font-family="Arial" font-size="13px" font-style="normal" font-weight="normal" text-decoration="none" x="373" y="224">{Compose objects into tree structures to represent part-whole</text><text fill="#000000" stroke="none" font-family="Arial" font-size="13px" font-style="normal" font-weight="normal" text-decoration="none" x="373" y="237">hierarchies. Composite lets clients treat individual objects and</text><text fill="#000000" stroke="none" font-family="Arial" font-size="13px" font-style="normal" font-weight="normal" text-decoration="none" x="373" y="250">compositions of objects uniformly.}</text></g></g><g transform="translate(-6,2) scale(1,1)"><path fill="none" stroke="#000000" d="M 367 230 L 239 229" stroke-miterlimit="10" stroke-dasharray="3"/></g><g transform="translate(-6,2) scale(1,1)"><path fill="#C0C0C0" stroke="none" d="M 90 295.5 C 90 284.7304464 124.6828438453125 276 167.46630859375 276 C 210.2497733421875 276 244.9326171875 284.7304464 244.9326171875 295.5 C 244.9326171875 306.2695536 210.2497733421875 315 167.46630859375 315 C 124.6828438453125 315 90 306.2695536 90 295.5 Z" opacity="0.2"/></g><g transform="translate(-6,2) scale(1,1)"><path fill="#ffffff" stroke="none" d="M 83 288.5 C 83 277.7304464 117.6828438453125 269 160.46630859375 269 C 203.2497733421875 269 237.9326171875 277.7304464 237.9326171875 288.5 C 237.9326171875 299.2695536 203.2497733421875 308 160.46630859375 308 C 117.6828438453125 308 83 299.2695536 83 288.5 Z"/></g><g transform="translate(-6,2) scale(1,1)"><path fill="none" stroke="#000000" d="M 83 288.5 C 83 277.7304464 117.6828438453125 269 160.46630859375 269 C 203.2497733421875 269 237.9326171875 277.7304464 237.9326171875 288.5 C 237.9326171875 299.2695536 203.2497733421875 308 160.46630859375 308 C 117.6828438453125 308 83 299.2695536 83 288.5 Z" stroke-miterlimit="10" stroke-dasharray="5"/></g><g transform="translate(-6,2) scale(1,1)"><g><path fill="none" stroke="none"/><text fill="#000000" stroke="none" font-family="Arial" font-size="13px" font-style="normal" font-weight="bold" text-decoration="none" x="109.16455078125" y="288.5">Decorator Pattern</text></g></g><g transform="translate(-6,2) scale(1,1)"><path fill="#ffffff" stroke="none" d="M 368 266 L 781 266 L 791 276 L 791 315 L 368 315 L 368 266"/></g><g transform="translate(-6,2) scale(1,1)"><path fill="none" stroke="#000000" d="M 368 266 L 781 266 L 791 276 L 791 315 L 368 315 L 368 266 L 368 266" stroke-miterlimit="10"/></g><g transform="translate(-6,2) scale(1,1)"><path fill="none" stroke="#000000" d="M 781 266 L 781 276 L 791 276 L 781 266" stroke-miterlimit="10"/></g><g transform="translate(-6,2) scale(1,1)"><g><path fill="none" stroke="none"/><text fill="#000000" stroke="none" font-family="Arial" font-size="13px" font-style="normal" font-weight="normal" text-decoration="none" x="373" y="284">{Attach additional responsibilities to an object dynamically. Decorators</text><text fill="#000000" stroke="none" font-family="Arial" font-size="13px" font-style="normal" font-weight="normal" text-decoration="none" x="373" y="297">provide a flexible alternative to subclassing for extending functionality.}</text></g></g><g transform="translate(-6,2) scale(1,1)"><path fill="none" stroke="#000000" d="M 367 289 L 239 289" stroke-miterlimit="10" stroke-dasharray="3"/></g><g transform="translate(-6,2) scale(1,1)"><path fill="#ffffff" stroke="none" d="M 368 326 L 781 326 L 791 336 L 791 375 L 368 375 L 368 326"/></g><g transform="translate(-6,2) scale(1,1)"><path fill="none" stroke="#000000" d="M 368 326 L 781 326 L 791 336 L 791 375 L 368 375 L 368 326 L 368 326" stroke-miterlimit="10"/></g><g transform="translate(-6,2) scale(1,1)"><path fill="none" stroke="#000000" d="M 781 326 L 781 336 L 791 336 L 781 326" stroke-miterlimit="10"/></g><g transform="translate(-6,2) scale(1,1)"><g><path fill="none" stroke="none"/><text fill="#000000" stroke="none" font-family="Arial" font-size="13px" font-style="normal" font-weight="normal" text-decoration="none" x="373" y="344">{Provide a unified interface to a set of interfaces in a subsystem.</text><text fill="#000000" stroke="none" font-family="Arial" font-size="13px" font-style="normal" font-weight="normal" text-decoration="none" x="373" y="357">Facade defines a higher-level interface that makes the subsystem</text><text fill="#000000" stroke="none" font-family="Arial" font-size="13px" font-style="normal" font-weight="normal" text-decoration="none" x="373" y="370">easier to use.}</text></g></g><g transform="translate(-6,2) scale(1,1)"><path fill="none" stroke="#000000" d="M 367 349 L 239 348" stroke-miterlimit="10" stroke-dasharray="3"/></g><g transform="translate(-6,2) scale(1,1)"><path fill="#ffffff" stroke="none" d="M 368 386 L 781 386 L 791 396 L 791 435 L 368 435 L 368 386"/></g><g transform="translate(-6,2) scale(1,1)"><path fill="none" stroke="#000000" d="M 368 386 L 781 386 L 791 396 L 791 435 L 368 435 L 368 386 L 368 386" stroke-miterlimit="10"/></g><g transform="translate(-6,2) scale(1,1)"><path fill="none" stroke="#000000" d="M 781 386 L 781 396 L 791 396 L 781 386" stroke-miterlimit="10"/></g><g transform="translate(-6,2) scale(1,1)"><g><path fill="none" stroke="none"/><text fill="#000000" stroke="none" font-family="Arial" font-size="13px" font-style="normal" font-weight="normal" text-decoration="none" x="373" y="404">{Use sharing to support large numbers of fine-grained objects</text><text fill="#000000" stroke="none" font-family="Arial" font-size="13px" font-style="normal" font-weight="normal" text-decoration="none" x="373" y="417">efficiently.}</text></g></g><g transform="translate(-6,2) scale(1,1)"><path fill="none" stroke="#000000" d="M 367 408 L 239 407" stroke-miterlimit="10" stroke-dasharray="3"/></g><g transform="translate(-6,2) scale(1,1)"><path fill="#ffffff" stroke="none" d="M 368 446 L 781 446 L 791 456 L 791 495 L 368 495 L 368 446"/></g><g transform="translate(-6,2) scale(1,1)"><path fill="none" stroke="#000000" d="M 368 446 L 781 446 L 791 456 L 791 495 L 368 495 L 368 446 L 368 446" stroke-miterlimit="10"/></g><g transform="translate(-6,2) scale(1,1)"><path fill="none" stroke="#000000" d="M 781 446 L 781 456 L 791 456 L 781 446" stroke-miterlimit="10"/></g><g transform="translate(-6,2) scale(1,1)"><g><path fill="none" stroke="none"/><text fill="#000000" stroke="none" font-family="Arial" font-size="13px" font-style="normal" font-weight="normal" text-decoration="none" x="373" y="464">{Provide a surrogate or placeholder for another object to control access</text><text fill="#000000" stroke="none" font-family="Arial" font-size="13px" font-style="normal" font-weight="normal" text-decoration="none" x="373" y="477">to it.}</text></g></g><g transform="translate(-6,2) scale(1,1)"><path fill="none" stroke="#000000" d="M 367 468 L 239 466" stroke-miterlimit="10" stroke-dasharray="3"/></g></g></svg>