<svg version="1.1" xmlns="http://www.w3.org/2000/svg" width="772" height="460"><defs/><g><g transform="translate(-6,-6) scale(1,1)"><path fill="none" stroke="#000000" d="M 16 16 L 768 16 L 768 456 L 16 456 L 16 16" stroke-miterlimit="10"/></g><g transform="translate(-6,-6) scale(1,1)"><path fill="#ffffff" stroke="none" d="M 16 16 L 16 38 L 149.78076171875 38 L 160.78076171875 27 L 160.78076171875 16 L 16 16"/></g><g transform="translate(-6,-6) scale(1,1)"><path fill="none" stroke="#000000" d="M 16 16 L 16 38 L 149.78076171875 38 L 160.78076171875 27 L 160.78076171875 16 L 16 16 L 16 16" stroke-miterlimit="10"/></g><g transform="translate(-6,-6) scale(1,1)"><g><path fill="none" stroke="none"/><text fill="#000000" stroke="none" font-family="Arial" font-size="13px" font-style="normal" font-weight="normal" text-decoration="none" x="47.9599609375" y="33.5">Template Project</text></g></g><g transform="translate(-6,-6) scale(1,1)"><g><path fill="none" stroke="none"/><text fill="#000000" stroke="none" font-family="Arial" font-size="13px" font-style="normal" font-weight="bold" text-decoration="none" x="21" y="33.5">pkg</text></g></g><g transform="translate(-6,-6) scale(1,1)"><rect fill="#C0C0C0" stroke="none" x="271" y="127" width="51.4765625" height="15" opacity="0.2"/></g><g transform="translate(-6,-6) scale(1,1)"><rect fill="#C0C0C0" stroke="none" x="271" y="141" width="128.69140625" height="25" opacity="0.2"/></g><g transform="translate(-6,-6) scale(1,1)"><rect fill="#ffffff" stroke="none" x="264" y="135" width="128.69140625" height="24"/></g><g transform="translate(-6,-6) scale(1,1)"><path fill="none" stroke="#000000" d="M 264 135 L 392.69140625 135 L 392.69140625 159 L 264 159 L 264 135 Z Z" stroke-miterlimit="10"/></g><g transform="translate(-6,-6) scale(1,1)"><rect fill="#ffffff" stroke="none" x="264" y="120" width="51.4765625" height="15"/></g><g transform="translate(-6,-6) scale(1,1)"><path fill="none" stroke="#000000" d="M 264 120 L 315.4765625 120 L 315.4765625 135 L 264 135 L 264 120 Z Z" stroke-miterlimit="10"/></g><g transform="translate(-6,-6) scale(1,1)"><rect fill="#ffffff" stroke="none" x="264" y="134" width="128.69140625" height="25"/></g><g transform="translate(-6,-6) scale(1,1)"><path fill="none" stroke="#000000" d="M 264 134 L 392.69140625 134 L 392.69140625 159 L 264 159 L 264 134 Z Z" stroke-miterlimit="10"/></g><g transform="translate(-6,-6) scale(1,1)"><path fill="none" stroke="#000000" d="M 306.4765625 123 L 300.4765625 130 L 312.4765625 130 L 306.4765625 123" stroke-miterlimit="10"/></g><g transform="translate(-6,-6) scale(1,1)"><g><path fill="none" stroke="none"/><text fill="#000000" stroke="none" font-family="Arial" font-size="13px" font-style="normal" font-weight="bold" text-decoration="none" x="287.882568359375" y="154.5">Requirements</text></g></g><g transform="translate(-6,-6) scale(1,1)"><rect fill="#C0C0C0" stroke="none" x="567" y="199" width="51.4765625" height="15" opacity="0.2"/></g><g transform="translate(-6,-6) scale(1,1)"><rect fill="#C0C0C0" stroke="none" x="567" y="213" width="128.69140625" height="25" opacity="0.2"/></g><g transform="translate(-6,-6) scale(1,1)"><rect fill="#ffffff" stroke="none" x="560" y="207" width="128.69140625" height="24"/></g><g transform="translate(-6,-6) scale(1,1)"><path fill="none" stroke="#000000" d="M 560 207 L 688.69140625 207 L 688.69140625 231 L 560 231 L 560 207 Z Z" stroke-miterlimit="10"/></g><g transform="translate(-6,-6) scale(1,1)"><rect fill="#ffffff" stroke="none" x="560" y="192" width="51.4765625" height="15"/></g><g transform="translate(-6,-6) scale(1,1)"><path fill="none" stroke="#000000" d="M 560 192 L 611.4765625 192 L 611.4765625 207 L 560 207 L 560 192 Z Z" stroke-miterlimit="10"/></g><g transform="translate(-6,-6) scale(1,1)"><rect fill="#ffffff" stroke="none" x="560" y="206" width="128.69140625" height="25"/></g><g transform="translate(-6,-6) scale(1,1)"><path fill="none" stroke="#000000" d="M 560 206 L 688.69140625 206 L 688.69140625 231 L 560 231 L 560 206 Z Z" stroke-miterlimit="10"/></g><g transform="translate(-6,-6) scale(1,1)"><path fill="none" stroke="#000000" d="M 602.4765625 195 L 596.4765625 202 L 608.4765625 202 L 602.4765625 195" stroke-miterlimit="10"/></g><g transform="translate(-6,-6) scale(1,1)"><g><path fill="none" stroke="none"/><text fill="#000000" stroke="none" font-family="Arial" font-size="13px" font-style="normal" font-weight="bold" text-decoration="none" x="570.27001953125" y="226.5">Development View</text></g></g><g transform="translate(-6,-6) scale(1,1)"><rect fill="#C0C0C0" stroke="none" x="271" y="359" width="51.4765625" height="15" opacity="0.2"/></g><g transform="translate(-6,-6) scale(1,1)"><rect fill="#C0C0C0" stroke="none" x="271" y="373" width="128.69140625" height="25" opacity="0.2"/></g><g transform="translate(-6,-6) scale(1,1)"><rect fill="#ffffff" stroke="none" x="264" y="367" width="128.69140625" height="24"/></g><g transform="translate(-6,-6) scale(1,1)"><path fill="none" stroke="#000000" d="M 264 367 L 392.69140625 367 L 392.69140625 391 L 264 391 L 264 367 Z Z" stroke-miterlimit="10"/></g><g transform="translate(-6,-6) scale(1,1)"><rect fill="#ffffff" stroke="none" x="264" y="352" width="51.4765625" height="15"/></g><g transform="translate(-6,-6) scale(1,1)"><path fill="none" stroke="#000000" d="M 264 352 L 315.4765625 352 L 315.4765625 367 L 264 367 L 264 352 Z Z" stroke-miterlimit="10"/></g><g transform="translate(-6,-6) scale(1,1)"><rect fill="#ffffff" stroke="none" x="264" y="366" width="128.69140625" height="25"/></g><g transform="translate(-6,-6) scale(1,1)"><path fill="none" stroke="#000000" d="M 264 366 L 392.69140625 366 L 392.69140625 391 L 264 391 L 264 366 Z Z" stroke-miterlimit="10"/></g><g transform="translate(-6,-6) scale(1,1)"><path fill="none" stroke="#000000" d="M 306.4765625 355 L 300.4765625 362 L 312.4765625 362 L 306.4765625 355" stroke-miterlimit="10"/></g><g transform="translate(-6,-6) scale(1,1)"><g><path fill="none" stroke="none"/><text fill="#000000" stroke="none" font-family="Arial" font-size="13px" font-style="normal" font-weight="bold" text-decoration="none" x="289.088623046875" y="386.5">Process View</text></g></g><g transform="translate(-6,-6) scale(1,1)"><rect fill="#C0C0C0" stroke="none" x="567" y="359" width="51.4765625" height="15" opacity="0.2"/></g><g transform="translate(-6,-6) scale(1,1)"><rect fill="#C0C0C0" stroke="none" x="567" y="373" width="128.69140625" height="25" opacity="0.2"/></g><g transform="translate(-6,-6) scale(1,1)"><rect fill="#ffffff" stroke="none" x="560" y="367" width="128.69140625" height="24"/></g><g transform="translate(-6,-6) scale(1,1)"><path fill="none" stroke="#000000" d="M 560 367 L 688.69140625 367 L 688.69140625 391 L 560 391 L 560 367 Z Z" stroke-miterlimit="10"/></g><g transform="translate(-6,-6) scale(1,1)"><rect fill="#ffffff" stroke="none" x="560" y="352" width="51.4765625" height="15"/></g><g transform="translate(-6,-6) scale(1,1)"><path fill="none" stroke="#000000" d="M 560 352 L 611.4765625 352 L 611.4765625 367 L 560 367 L 560 352 Z Z" stroke-miterlimit="10"/></g><g transform="translate(-6,-6) scale(1,1)"><rect fill="#ffffff" stroke="none" x="560" y="366" width="128.69140625" height="25"/></g><g transform="translate(-6,-6) scale(1,1)"><path fill="none" stroke="#000000" d="M 560 366 L 688.69140625 366 L 688.69140625 391 L 560 391 L 560 366 Z Z" stroke-miterlimit="10"/></g><g transform="translate(-6,-6) scale(1,1)"><path fill="none" stroke="#000000" d="M 602.4765625 355 L 596.4765625 362 L 608.4765625 362 L 602.4765625 355" stroke-miterlimit="10"/></g><g transform="translate(-6,-6) scale(1,1)"><g><path fill="none" stroke="none"/><text fill="#000000" stroke="none" font-family="Arial" font-size="13px" font-style="normal" font-weight="bold" text-decoration="none" x="584.364990234375" y="386.5">Physical View</text></g></g><g transform="translate(-6,-6) scale(1,1)"><rect fill="#C0C0C0" stroke="none" x="423" y="271" width="51.4765625" height="15" opacity="0.2"/></g><g transform="translate(-6,-6) scale(1,1)"><rect fill="#C0C0C0" stroke="none" x="423" y="285" width="128.69140625" height="25" opacity="0.2"/></g><g transform="translate(-6,-6) scale(1,1)"><rect fill="#ffffff" stroke="none" x="416" y="279" width="128.69140625" height="24"/></g><g transform="translate(-6,-6) scale(1,1)"><path fill="none" stroke="#000000" d="M 416 279 L 544.69140625 279 L 544.69140625 303 L 416 303 L 416 279 Z Z" stroke-miterlimit="10"/></g><g transform="translate(-6,-6) scale(1,1)"><rect fill="#ffffff" stroke="none" x="416" y="264" width="51.4765625" height="15"/></g><g transform="translate(-6,-6) scale(1,1)"><path fill="none" stroke="#000000" d="M 416 264 L 467.4765625 264 L 467.4765625 279 L 416 279 L 416 264 Z Z" stroke-miterlimit="10"/></g><g transform="translate(-6,-6) scale(1,1)"><rect fill="#ffffff" stroke="none" x="416" y="278" width="128.69140625" height="25"/></g><g transform="translate(-6,-6) scale(1,1)"><path fill="none" stroke="#000000" d="M 416 278 L 544.69140625 278 L 544.69140625 303 L 416 303 L 416 278 Z Z" stroke-miterlimit="10"/></g><g transform="translate(-6,-6) scale(1,1)"><path fill="none" stroke="#000000" d="M 458.4765625 267 L 452.4765625 274 L 464.4765625 274 L 458.4765625 267" stroke-miterlimit="10"/></g><g transform="translate(-6,-6) scale(1,1)"><g><path fill="none" stroke="none"/><text fill="#000000" stroke="none" font-family="Arial" font-size="13px" font-style="normal" font-weight="bold" text-decoration="none" x="451.441650390625" y="298.5">Scenarios</text></g></g><g transform="translate(-6,-6) scale(1,1)"><rect fill="#C0C0C0" stroke="none" x="271" y="199" width="51.4765625" height="15" opacity="0.2"/></g><g transform="translate(-6,-6) scale(1,1)"><rect fill="#C0C0C0" stroke="none" x="271" y="213" width="128.69140625" height="25" opacity="0.2"/></g><g transform="translate(-6,-6) scale(1,1)"><rect fill="#ffffff" stroke="none" x="264" y="207" width="128.69140625" height="24"/></g><g transform="translate(-6,-6) scale(1,1)"><path fill="none" stroke="#000000" d="M 264 207 L 392.69140625 207 L 392.69140625 231 L 264 231 L 264 207 Z Z" stroke-miterlimit="10"/></g><g transform="translate(-6,-6) scale(1,1)"><rect fill="#ffffff" stroke="none" x="264" y="192" width="51.4765625" height="15"/></g><g transform="translate(-6,-6) scale(1,1)"><path fill="none" stroke="#000000" d="M 264 192 L 315.4765625 192 L 315.4765625 207 L 264 207 L 264 192 Z Z" stroke-miterlimit="10"/></g><g transform="translate(-6,-6) scale(1,1)"><rect fill="#ffffff" stroke="none" x="264" y="206" width="128.69140625" height="25"/></g><g transform="translate(-6,-6) scale(1,1)"><path fill="none" stroke="#000000" d="M 264 206 L 392.69140625 206 L 392.69140625 231 L 264 231 L 264 206 Z Z" stroke-miterlimit="10"/></g><g transform="translate(-6,-6) scale(1,1)"><path fill="none" stroke="#000000" d="M 306.4765625 195 L 300.4765625 202 L 312.4765625 202 L 306.4765625 195" stroke-miterlimit="10"/></g><g transform="translate(-6,-6) scale(1,1)"><g><path fill="none" stroke="none"/><text fill="#000000" stroke="none" font-family="Arial" font-size="13px" font-style="normal" font-weight="bold" text-decoration="none" x="291.970458984375" y="226.5">Logical View</text></g></g><g transform="translate(-6,-6) scale(1,1)"><path fill="none" stroke="#000000" d="M 520 263 L 582 232" stroke-miterlimit="10" stroke-dasharray="3"/></g><g transform="translate(-6,-6) scale(1,1)"><path fill="none" stroke="#000000" d="M 574.7927808450386 240.30999350495279 L 582 232 L 571.0276737030609 232.77977922099748" stroke-miterlimit="10"/></g><g transform="translate(-6,-6) scale(1,1)"><path fill="none" stroke="#000000" d="M 438 263 L 372 232" stroke-miterlimit="10" stroke-dasharray="3"/></g><g transform="translate(-6,-6) scale(1,1)"><path fill="none" stroke="#000000" d="M 382.98815391751276 232.5103660304618 L 372 232 L 379.408914866768 240.1306814288216" stroke-miterlimit="10"/></g><g transform="translate(-6,-6) scale(1,1)"><path fill="none" stroke="#000000" d="M 444 304 L 363 351" stroke-miterlimit="10" stroke-dasharray="3"/></g><g transform="translate(-6,-6) scale(1,1)"><path fill="none" stroke="#000000" d="M 369.6774247354509 342.25860429322705 L 363 351 L 373.90275249259423 349.540552130006" stroke-miterlimit="10"/></g><g transform="translate(-6,-6) scale(1,1)"><path fill="none" stroke="#000000" d="M 514 304 L 591 351" stroke-miterlimit="10" stroke-dasharray="3"/></g><g transform="translate(-6,-6) scale(1,1)"><path fill="none" stroke="#000000" d="M 580.132425363052 349.29828865245463 L 591 351 L 584.5187559126346 342.1121726456917" stroke-miterlimit="10"/></g><g transform="translate(-6,-6) scale(1,1)"><rect fill="#C0C0C0" stroke="none" x="423" y="47" width="51.4765625" height="15" opacity="0.2"/></g><g transform="translate(-6,-6) scale(1,1)"><rect fill="#C0C0C0" stroke="none" x="423" y="61" width="128.69140625" height="25" opacity="0.2"/></g><g transform="translate(-6,-6) scale(1,1)"><rect fill="#ffffff" stroke="none" x="416" y="55" width="128.69140625" height="24"/></g><g transform="translate(-6,-6) scale(1,1)"><path fill="none" stroke="#000000" d="M 416 55 L 544.69140625 55 L 544.69140625 79 L 416 79 L 416 55 Z Z" stroke-miterlimit="10"/></g><g transform="translate(-6,-6) scale(1,1)"><rect fill="#ffffff" stroke="none" x="416" y="40" width="51.4765625" height="15"/></g><g transform="translate(-6,-6) scale(1,1)"><path fill="none" stroke="#000000" d="M 416 40 L 467.4765625 40 L 467.4765625 55 L 416 55 L 416 40 Z Z" stroke-miterlimit="10"/></g><g transform="translate(-6,-6) scale(1,1)"><rect fill="#ffffff" stroke="none" x="416" y="54" width="128.69140625" height="25"/></g><g transform="translate(-6,-6) scale(1,1)"><path fill="none" stroke="#000000" d="M 416 54 L 544.69140625 54 L 544.69140625 79 L 416 79 L 416 54 Z Z" stroke-miterlimit="10"/></g><g transform="translate(-6,-6) scale(1,1)"><path fill="none" stroke="#000000" d="M 458.4765625 43 L 452.4765625 50 L 464.4765625 50 L 458.4765625 43" stroke-miterlimit="10"/></g><g transform="translate(-6,-6) scale(1,1)"><g><path fill="none" stroke="none"/><text fill="#000000" stroke="none" font-family="Arial" font-size="13px" font-style="normal" font-weight="bold" text-decoration="none" x="449.029541015625" y="74.5">Viewpoints</text></g></g><g transform="translate(-6,-6) scale(1,1)"><g><path fill="none" stroke="none"/><text fill="#000000" stroke="none" font-family="Arial" font-size="13px" font-style="normal" font-weight="normal" text-decoration="none" x="37" y="66">This model is structured in the</text><text fill="#000000" stroke="none" font-family="Arial" font-size="13px" font-style="normal" font-weight="normal" text-decoration="none" x="37" y="79">sub-models shown here. </text></g></g><g transform="translate(-6,-6) scale(1,1)"><g><path fill="none" stroke="none"/></g></g><g transform="translate(-6,-6) scale(1,1)"><g><path fill="none" stroke="none"/><text fill="#000000" stroke="none" font-family="Arial" font-size="13px" font-style="normal" font-weight="normal" text-decoration="none" x="37" y="96">You may want to start reading</text><text fill="#000000" stroke="none" font-family="Arial" font-size="13px" font-style="normal" font-weight="normal" text-decoration="none" x="37" y="109">with the Viewpoints model. </text></g></g><g transform="translate(-6,-6) scale(1,1)"><g><path fill="none" stroke="none"/></g></g><g transform="translate(-6,-6) scale(1,1)"><g><path fill="none" stroke="none"/><text fill="#000000" stroke="none" font-family="Arial" font-size="13px" font-style="normal" font-weight="normal" text-decoration="none" x="37" y="126">Then Requirements,</text><text fill="#000000" stroke="none" font-family="Arial" font-size="13px" font-style="normal" font-weight="normal" text-decoration="none" x="37" y="139">Assumptions, Decisions is a</text><text fill="#000000" stroke="none" font-family="Arial" font-size="13px" font-style="normal" font-weight="normal" text-decoration="none" x="37" y="152">good read, before you delve</text><text fill="#000000" stroke="none" font-family="Arial" font-size="13px" font-style="normal" font-weight="normal" text-decoration="none" x="37" y="165">into the details of the</text><text fill="#000000" stroke="none" font-family="Arial" font-size="13px" font-style="normal" font-weight="normal" text-decoration="none" x="37" y="178">specification. </text></g></g><g transform="translate(-6,-6) scale(1,1)"><g><path fill="none" stroke="none"/><text fill="#000000" stroke="none" font-family="Arial" font-size="13px" font-style="normal" font-weight="normal" text-decoration="none" x="37" y="180">.</text></g></g><g transform="translate(-6,-6) scale(1,1)"><g><path fill="none" stroke="none"/><text fill="#000000" stroke="none" font-family="Arial" font-size="13px" font-style="normal" font-weight="normal" text-decoration="none" x="37" y="195">The details of the specification</text><text fill="#000000" stroke="none" font-family="Arial" font-size="13px" font-style="normal" font-weight="normal" text-decoration="none" x="37" y="208">are given from 4+1 different</text><text fill="#000000" stroke="none" font-family="Arial" font-size="13px" font-style="normal" font-weight="normal" text-decoration="none" x="37" y="221">viewpoints - see Kruchten1995</text><text fill="#000000" stroke="none" font-family="Arial" font-size="13px" font-style="normal" font-weight="normal" text-decoration="none" x="37" y="234">for a description of these</text><text fill="#000000" stroke="none" font-family="Arial" font-size="13px" font-style="normal" font-weight="normal" text-decoration="none" x="37" y="247">viewpoints. </text></g></g><g transform="translate(-6,-6) scale(1,1)"><rect fill="#C0C0C0" stroke="none" x="423" y="127" width="51.4765625" height="15" opacity="0.2"/></g><g transform="translate(-6,-6) scale(1,1)"><rect fill="#C0C0C0" stroke="none" x="423" y="141" width="128.69140625" height="25" opacity="0.2"/></g><g transform="translate(-6,-6) scale(1,1)"><rect fill="#ffffff" stroke="none" x="416" y="135" width="128.69140625" height="24"/></g><g transform="translate(-6,-6) scale(1,1)"><path fill="none" stroke="#000000" d="M 416 135 L 544.69140625 135 L 544.69140625 159 L 416 159 L 416 135 Z Z" stroke-miterlimit="10"/></g><g transform="translate(-6,-6) scale(1,1)"><rect fill="#ffffff" stroke="none" x="416" y="120" width="51.4765625" height="15"/></g><g transform="translate(-6,-6) scale(1,1)"><path fill="none" stroke="#000000" d="M 416 120 L 467.4765625 120 L 467.4765625 135 L 416 135 L 416 120 Z Z" stroke-miterlimit="10"/></g><g transform="translate(-6,-6) scale(1,1)"><rect fill="#ffffff" stroke="none" x="416" y="134" width="128.69140625" height="25"/></g><g transform="translate(-6,-6) scale(1,1)"><path fill="none" stroke="#000000" d="M 416 134 L 544.69140625 134 L 544.69140625 159 L 416 159 L 416 134 Z Z" stroke-miterlimit="10"/></g><g transform="translate(-6,-6) scale(1,1)"><path fill="none" stroke="#000000" d="M 458.4765625 123 L 452.4765625 130 L 464.4765625 130 L 458.4765625 123" stroke-miterlimit="10"/></g><g transform="translate(-6,-6) scale(1,1)"><g><path fill="none" stroke="none"/><text fill="#000000" stroke="none" font-family="Arial" font-size="13px" font-style="normal" font-weight="bold" text-decoration="none" x="443.1357421875" y="154.5">Assumptions</text></g></g><g transform="translate(-6,-6) scale(1,1)"><rect fill="#C0C0C0" stroke="none" x="569" y="127" width="51.4765625" height="15" opacity="0.2"/></g><g transform="translate(-6,-6) scale(1,1)"><rect fill="#C0C0C0" stroke="none" x="569" y="141" width="128.69140625" height="25" opacity="0.2"/></g><g transform="translate(-6,-6) scale(1,1)"><rect fill="#ffffff" stroke="none" x="562" y="135" width="128.69140625" height="24"/></g><g transform="translate(-6,-6) scale(1,1)"><path fill="none" stroke="#000000" d="M 562 135 L 690.69140625 135 L 690.69140625 159 L 562 159 L 562 135 Z Z" stroke-miterlimit="10"/></g><g transform="translate(-6,-6) scale(1,1)"><rect fill="#ffffff" stroke="none" x="562" y="120" width="51.4765625" height="15"/></g><g transform="translate(-6,-6) scale(1,1)"><path fill="none" stroke="#000000" d="M 562 120 L 613.4765625 120 L 613.4765625 135 L 562 135 L 562 120 Z Z" stroke-miterlimit="10"/></g><g transform="translate(-6,-6) scale(1,1)"><rect fill="#ffffff" stroke="none" x="562" y="134" width="128.69140625" height="25"/></g><g transform="translate(-6,-6) scale(1,1)"><path fill="none" stroke="#000000" d="M 562 134 L 690.69140625 134 L 690.69140625 159 L 562 159 L 562 134 Z Z" stroke-miterlimit="10"/></g><g transform="translate(-6,-6) scale(1,1)"><path fill="none" stroke="#000000" d="M 604.4765625 123 L 598.4765625 130 L 610.4765625 130 L 604.4765625 123" stroke-miterlimit="10"/></g><g transform="translate(-6,-6) scale(1,1)"><g><path fill="none" stroke="none"/><text fill="#000000" stroke="none" font-family="Arial" font-size="13px" font-style="normal" font-weight="bold" text-decoration="none" x="598.16845703125" y="154.5">Decisions</text></g></g><g transform="translate(-6,-6) scale(1,1)"><rect fill="#ffffff" stroke="none" x="56" y="312" width="123.34619140625" height="22"/></g><g transform="translate(-6,-6) scale(1,1)"><path fill="none" stroke="#000000" d="M 56 312 L 179.34619140625 312 L 179.34619140625 334 L 56 334 L 56 312 Z Z" stroke-miterlimit="10"/></g><g transform="translate(-6,-6) scale(1,1)"><path fill="none" stroke="#000000" d="M 88.39453125 312 L 88.39453125 334" stroke-miterlimit="10"/></g><g transform="translate(-6,-6) scale(1,1)"><g><path fill="none" stroke="none"/><text fill="#000000" stroke="none" font-family="Arial" font-size="13px" font-style="normal" font-weight="normal" text-decoration="none" x="92.89453125" y="329.5">Kruchten1995</text></g></g><g transform="translate(-6,-6) scale(1,1)"><g><path fill="none" stroke="none"/><text fill="#000000" stroke="none" font-family="Arial" font-size="13px" font-style="normal" font-weight="bold" text-decoration="none" x="62.444091796875" y="329.5">link</text></g></g></g></svg>