<svg version="1.1" xmlns="http://www.w3.org/2000/svg" width="852" height="652"><defs/><g><g transform="translate(-14,-22) scale(1,1)"><path fill="none" stroke="#000000" d="M 24 32 L 856 32 L 856 664 L 24 664 L 24 32" stroke-miterlimit="10"/></g><g transform="translate(-14,-22) scale(1,1)"><path fill="#ffffff" stroke="none" d="M 24 32 L 24 54 L 235.8125 54 L 246.8125 43 L 246.8125 32 L 24 32"/></g><g transform="translate(-14,-22) scale(1,1)"><path fill="none" stroke="#000000" d="M 24 32 L 24 54 L 235.8125 54 L 246.8125 43 L 246.8125 32 L 24 32 L 24 32" stroke-miterlimit="10"/></g><g transform="translate(-14,-22) scale(1,1)"><g><path fill="none" stroke="none"/><text fill="#000000" stroke="none" font-family="Arial" font-size="13px" font-style="normal" font-weight="normal" text-decoration="none" x="35" y="49.5">Additions to UML Model Elements</text></g></g><g transform="translate(-14,-22) scale(1,1)"><g><path fill="none" stroke="none"/><text fill="#000000" stroke="none" font-family="Arial" font-size="13px" font-style="normal" font-weight="bold" text-decoration="none" x="29" y="49.5"></text></g></g><g transform="translate(-14,-22) scale(1,1)"><rect fill="#C0C0C0" stroke="none" x="215" y="183" width="95.68994140625" height="37" opacity="0.2"/></g><g transform="translate(-14,-22) scale(1,1)"><rect fill="#e2e2e2" stroke="none" x="208" y="176" width="95.68994140625" height="37"/></g><g transform="translate(-14,-22) scale(1,1)"><path fill="none" stroke="#000000" d="M 208 176 L 303.68994140625 176 L 303.68994140625 213 L 208 213 L 208 176 Z Z" stroke-miterlimit="10"/></g><g transform="translate(-14,-22) scale(1,1)"><g><path fill="none" stroke="none"/><text fill="#000000" stroke="none" font-family="Arial" font-size="13px" font-style="normal" font-weight="normal" text-decoration="none" x="217.911376953125" y="193.5">«metaClass»</text></g></g><g transform="translate(-14,-22) scale(1,1)"><g><path fill="none" stroke="none"/><text fill="#000000" stroke="none" font-family="Arial" font-size="13px" font-style="normal" font-weight="bold" text-decoration="none" x="215.39453125" y="208.5">UMLClassifier</text></g></g><g transform="translate(-14,-22) scale(1,1)"><rect fill="#C0C0C0" stroke="none" x="399" y="383" width="84.16259765625" height="70" opacity="0.2"/></g><g transform="translate(-14,-22) scale(1,1)"><rect fill="#ffffff" stroke="none" x="392" y="376" width="84.16259765625" height="70"/></g><g transform="translate(-14,-22) scale(1,1)"><path fill="none" stroke="#000000" d="M 392 376 L 476.16259765625 376 L 476.16259765625 446 L 392 446 L 392 376 Z Z" stroke-miterlimit="10"/></g><g transform="translate(-14,-22) scale(1,1)"><path fill="none" stroke="#000000" d="M 392 414 L 476.16259765625 414" stroke-miterlimit="10"/></g><g transform="translate(-14,-22) scale(1,1)"><path fill="none" stroke="#000000" d="M 392 437 L 476.16259765625 437" stroke-miterlimit="10"/></g><g transform="translate(-14,-22) scale(1,1)"><g><path fill="none" stroke="none"/><text fill="#000000" stroke="none" font-family="Arial" font-size="13px" font-style="normal" font-weight="normal" text-decoration="none" x="396.5" y="393.5">«stereotype»</text></g></g><g transform="translate(-14,-22) scale(1,1)"><g><path fill="none" stroke="none"/><text fill="#000000" stroke="none" font-family="Arial" font-size="13px" font-style="normal" font-weight="bold" text-decoration="none" x="409.147705078125" y="408.5">rationale</text></g></g><g transform="translate(-14,-22) scale(1,1)"><g><path fill="none" stroke="none"/><text fill="#000000" stroke="none" font-family="Arial" font-size="13px" font-style="normal" font-weight="normal" text-decoration="none" x="397" y="431.5">+text</text></g></g><g transform="translate(-14,-22) scale(1,1)"><path fill="none" stroke="#000000" d="M 404 375 L 271 214" stroke-miterlimit="10"/></g><g transform="translate(-14,-22) scale(1,1)"><path fill="#000000" stroke="none" d="M 280.7177962513599 219.15406984984244 L 271 214 L 274.22704188599306 224.51599736905854"/></g><g transform="translate(-14,-22) scale(1,1)"><path fill="none" stroke="#000000" d="M 280.7177962513599 219.15406984984244 L 271 214 L 274.22704188599306 224.51599736905854 L 280.7177962513599 219.15406984984244" stroke-miterlimit="10"/></g><g transform="translate(-14,-22) scale(1,1)"><rect fill="#C0C0C0" stroke="none" x="351" y="471" width="84.16259765625" height="70" opacity="0.2"/></g><g transform="translate(-14,-22) scale(1,1)"><rect fill="#ffffff" stroke="none" x="344" y="464" width="84.16259765625" height="70"/></g><g transform="translate(-14,-22) scale(1,1)"><path fill="none" stroke="#000000" d="M 344 464 L 428.16259765625 464 L 428.16259765625 534 L 344 534 L 344 464 Z Z" stroke-miterlimit="10"/></g><g transform="translate(-14,-22) scale(1,1)"><path fill="none" stroke="#000000" d="M 344 502 L 428.16259765625 502" stroke-miterlimit="10"/></g><g transform="translate(-14,-22) scale(1,1)"><path fill="none" stroke="#000000" d="M 344 525 L 428.16259765625 525" stroke-miterlimit="10"/></g><g transform="translate(-14,-22) scale(1,1)"><g><path fill="none" stroke="none"/><text fill="#000000" stroke="none" font-family="Arial" font-size="13px" font-style="normal" font-weight="normal" text-decoration="none" x="348.5" y="481.5">«stereotype»</text></g></g><g transform="translate(-14,-22) scale(1,1)"><g><path fill="none" stroke="none"/><text fill="#000000" stroke="none" font-family="Arial" font-size="13px" font-style="normal" font-weight="bold" text-decoration="none" x="357.891357421875" y="496.5">legal note</text></g></g><g transform="translate(-14,-22) scale(1,1)"><g><path fill="none" stroke="none"/><text fill="#000000" stroke="none" font-family="Arial" font-size="13px" font-style="normal" font-weight="normal" text-decoration="none" x="349" y="519.5">+text</text></g></g><g transform="translate(-14,-22) scale(1,1)"><path fill="none" stroke="#000000" d="M 371 463 L 264 214" stroke-miterlimit="10"/></g><g transform="translate(-14,-22) scale(1,1)"><path fill="#000000" stroke="none" d="M 271.8798719130652 221.67512987731715 L 264 214 L 264.14477448187137 224.99904724734824"/></g><g transform="translate(-14,-22) scale(1,1)"><path fill="none" stroke="#000000" d="M 271.8798719130652 221.67512987731715 L 264 214 L 264.14477448187137 224.99904724734824 L 271.8798719130652 221.67512987731715" stroke-miterlimit="10"/></g><g transform="translate(-14,-22) scale(1,1)"><g><path fill="none" stroke="none"/><text fill="#000000" stroke="none" font-family="Arial" font-size="13px" font-style="normal" font-weight="normal" text-decoration="none" x="45" y="90">This diagram shows</text><text fill="#000000" stroke="none" font-family="Arial" font-size="13px" font-style="normal" font-weight="normal" text-decoration="none" x="45" y="103">our own additions to</text><text fill="#000000" stroke="none" font-family="Arial" font-size="13px" font-style="normal" font-weight="normal" text-decoration="none" x="45" y="116">the UML Profile.</text></g></g></g></svg>