<svg version="1.1" xmlns="http://www.w3.org/2000/svg" xmlns:xlink="http://www.w3.org/1999/xlink" width="844" height="612"><defs/><g><g transform="translate(2,2) scale(1,1)"><path fill="none" stroke="#000000" d="M 8 8 L 832 8 L 832 600 L 8 600 L 8 8" stroke-miterlimit="10"/></g><g transform="translate(2,2) scale(1,1)"><path fill="#ffffff" stroke="none" d="M 8 8 L 8 30 L 198.85888671875 30 L 209.85888671875 19 L 209.85888671875 8 L 8 8"/></g><g transform="translate(2,2) scale(1,1)"><path fill="none" stroke="#000000" d="M 8 8 L 8 30 L 198.85888671875 30 L 209.85888671875 19 L 209.85888671875 8 L 8 8 L 8 8" stroke-miterlimit="10"/></g><g transform="translate(2,2) scale(1,1)"><g><path fill="none" stroke="none"/><text fill="#000000" stroke="none" font-family="Arial" font-size="13px" font-style="normal" font-weight="normal" text-decoration="none" x="48.6181640625" y="25.5">Facade Pattern Structure</text></g></g><g transform="translate(2,2) scale(1,1)"><g><path fill="none" stroke="none"/><text fill="#000000" stroke="none" font-family="Arial" font-size="13px" font-style="normal" font-weight="bold" text-decoration="none" x="13" y="25.5">class</text></g></g><g transform="translate(2,2) scale(1,1)"><path fill="none" stroke="#000000" d="M 400 64 L 800 64 L 800 408 L 400 408 L 400 64" stroke-miterlimit="10"/></g><g transform="translate(2,2) scale(1,1)"><path fill="#ffffff" stroke="none" d="M 400 64 L 400 86 L 509.919921875 86 L 520.919921875 75 L 520.919921875 64 L 400 64"/></g><g transform="translate(2,2) scale(1,1)"><path fill="none" stroke="#000000" d="M 400 64 L 400 86 L 509.919921875 86 L 520.919921875 75 L 520.919921875 64 L 400 64 L 400 64" stroke-miterlimit="10"/></g><g transform="translate(2,2) scale(1,1)"><g><path fill="none" stroke="none"/><text fill="#000000" stroke="none" font-family="Arial" font-size="13px" font-style="normal" font-weight="normal" text-decoration="none" x="440.6181640625" y="81.5">Subsystem</text></g></g><g transform="translate(2,2) scale(1,1)"><g><path fill="none" stroke="none"/><text fill="#000000" stroke="none" font-family="Arial" font-size="13px" font-style="normal" font-weight="bold" text-decoration="none" x="405" y="81.5">class</text></g></g><g transform="translate(2,2) scale(1,1)"><rect fill="#C0C0C0" stroke="none" x="271" y="223" width="121.37255859375" height="47" opacity="0.2"/></g><g transform="translate(2,2) scale(1,1)"><rect fill="#ffffff" stroke="none" x="264" y="216" width="121.37255859375" height="47"/></g><g transform="translate(2,2) scale(1,1)"><path fill="none" stroke="#000000" d="M 264 216 L 385.37255859375 216 L 385.37255859375 263 L 264 263 L 264 216 Z Z" stroke-miterlimit="10"/></g><g transform="translate(2,2) scale(1,1)"><path fill="none" stroke="#000000" d="M 264 241 L 385.37255859375 241" stroke-miterlimit="10"/></g><g transform="translate(2,2) scale(1,1)"><g><path fill="none" stroke="none"/><text fill="#000000" stroke="none" font-family="Arial" font-size="13px" font-style="normal" font-weight="bold" text-decoration="none" x="303.005859375" y="235.5">Facade</text></g></g><g transform="translate(2,2) scale(1,1)"><g><path fill="none" stroke="none"/><text fill="#000000" stroke="none" font-family="Arial" font-size="13px" font-style="normal" font-weight="normal" text-decoration="none" x="269" y="258.5">+facadeOperation()</text></g></g><g transform="translate(2,2) scale(1,1)"><rect fill="#ffffff" stroke="none" x="8" y="32" width="99" height="22"/></g><g transform="translate(2,2) scale(1,1)"><path fill="none" stroke="#000000" d="M 8 32 L 107 32 L 107 54 L 8 54 L 8 32 Z Z" stroke-miterlimit="10"/></g><g transform="translate(2,2) scale(1,1)"><path fill="none" stroke="#000000" d="M 40.39453125 32 L 40.39453125 54" stroke-miterlimit="10"/></g><g transform="translate(2,2) scale(1,1)"><g><path fill="none" stroke="none"/><text fill="#000000" stroke="none" font-family="Arial" font-size="13px" font-style="normal" font-weight="normal" text-decoration="none" x="44.89453125" y="49.5">GoF1995</text></g></g><g transform="translate(2,2) scale(1,1)"><g><path fill="none" stroke="none"/><text fill="#000000" stroke="none" font-family="Arial" font-size="13px" font-style="normal" font-weight="bold" text-decoration="none" x="14.444091796875" y="49.5">link</text></g></g><g transform="translate(2,2) scale(1,1)"><path fill="#C0C0C0" stroke="none" d="M 167 552 C 167 538.19288 243.111584 527 337 527 C 430.888416 527 507 538.19288 507 552 C 507 565.80712 430.888416 577 337 577 C 243.111584 577 167 565.80712 167 552 Z" opacity="0.2"/></g><g transform="translate(2,2) scale(1,1)"><path fill="#e2e2e2" stroke="none" d="M 160 545 C 160 531.19288 236.111584 520 330 520 C 423.888416 520 500 531.19288 500 545 C 500 558.80712 423.888416 570 330 570 C 236.111584 570 160 558.80712 160 545 Z"/></g><g transform="translate(2,2) scale(1,1)"><path fill="none" stroke="#000000" d="M 160 545 C 160 531.19288 236.111584 520 330 520 C 423.888416 520 500 531.19288 500 545 C 500 558.80712 423.888416 570 330 570 C 236.111584 570 160 558.80712 160 545 Z" stroke-miterlimit="10" stroke-dasharray="5"/></g><g transform="translate(2,2) scale(1,1)"><g><path fill="none" stroke="none"/><text fill="#000000" stroke="none" font-family="Arial" font-size="13px" font-style="normal" font-weight="bold" text-decoration="none" x="245.090576171875" y="552">example use: Facade Pattern</text></g></g><g transform="translate(2,2) scale(1,1)"><rect fill="#C0C0C0" stroke="none" x="39" y="231" width="45.11181640625" height="24" opacity="0.2"/></g><g transform="translate(2,2) scale(1,1)"><rect fill="#ffffff" stroke="none" x="32" y="224" width="45.11181640625" height="24"/></g><g transform="translate(2,2) scale(1,1)"><path fill="none" stroke="#000000" d="M 32 224 L 77.11181640625 224 L 77.11181640625 248 L 32 248 L 32 224 Z Z" stroke-miterlimit="10"/></g><g transform="translate(2,2) scale(1,1)"><g><path fill="none" stroke="none"/><text fill="#000000" stroke="none" font-family="Arial" font-size="13px" font-style="normal" font-weight="bold" text-decoration="none" x="37.937744140625" y="243.5">Client</text></g></g><g transform="translate(2,2) scale(1,1)"><path fill="none" stroke="#000000" d="M 77 240 L 264 240" stroke-miterlimit="10" stroke-dasharray="3"/></g><g transform="translate(2,2) scale(1,1)"><path fill="none" stroke="#000000" d="M 253.83732514237585 244.209517756016 L 264 240 L 253.83732514237585 235.790482243984" stroke-miterlimit="10"/></g><g transform="translate(2,2) scale(1,1)"><path fill="none" stroke="#8e8e8e" d="M 324 264 L 329 519" stroke-miterlimit="10" stroke-dasharray="3"/></g><g transform="translate(2,2) scale(1,1)"><path fill="#FFFFFF" stroke="none" d="M 320.18412276537816 498.8436037798401 L 329 519 L 337.01895787684873 498.5135089737328"/></g><g transform="translate(2,2) scale(1,1)"><path fill="none" stroke="#8e8e8e" d="M 320.18412276537816 498.8436037798401 L 329 519 L 337.01895787684873 498.5135089737328 L 320.18412276537816 498.8436037798401" stroke-miterlimit="10"/></g><g transform="translate(2,2) scale(1,1)"><g><path fill="none" stroke="none"/><text fill="#707070" stroke="none" font-family="Arial" font-size="13px" font-style="normal" font-weight="normal" text-decoration="none" x="314.8681640625" y="396.5">+Facade</text></g></g><g transform="translate(2,2) scale(1,1)"><path fill="none" stroke="#8e8e8e" d="M 66 249 L 307 519" stroke-miterlimit="10" stroke-dasharray="3"/></g><g transform="translate(2,2) scale(1,1)"><path fill="#FFFFFF" stroke="none" d="M 287.1843277103885 509.4428491844733 L 307 519 L 299.7461299007268 498.23027759976384"/></g><g transform="translate(2,2) scale(1,1)"><path fill="none" stroke="#8e8e8e" d="M 287.1843277103885 509.4428491844733 L 307 519 L 299.7461299007268 498.23027759976384 L 287.1843277103885 509.4428491844733" stroke-miterlimit="10"/></g><g transform="translate(2,2) scale(1,1)"><g><path fill="none" stroke="none"/><text fill="#707070" stroke="none" font-family="Arial" font-size="13px" font-style="normal" font-weight="normal" text-decoration="none" x="176.5" y="379.5">+Client</text></g></g><g transform="translate(2,2) scale(1,1)"><rect fill="#C0C0C0" stroke="none" x="495" y="119" width="167.18359375" height="47" opacity="0.2"/></g><g transform="translate(2,2) scale(1,1)"><rect fill="#ffffff" stroke="none" x="488" y="112" width="167.18359375" height="47"/></g><g transform="translate(2,2) scale(1,1)"><path fill="none" stroke="#000000" d="M 488 112 L 655.18359375 112 L 655.18359375 159 L 488 159 L 488 112 Z Z" stroke-miterlimit="10"/></g><g transform="translate(2,2) scale(1,1)"><path fill="none" stroke="#000000" d="M 488 137 L 655.18359375 137" stroke-miterlimit="10"/></g><g transform="translate(2,2) scale(1,1)"><g><path fill="none" stroke="none"/><text fill="#000000" stroke="none" font-family="Arial" font-size="13px" font-style="normal" font-weight="bold" text-decoration="none" x="497.88916015625" y="131.5">Subsystem Component A</text></g></g><g transform="translate(2,2) scale(1,1)"><g><path fill="none" stroke="none"/><text fill="#000000" stroke="none" font-family="Arial" font-size="13px" font-style="normal" font-weight="normal" text-decoration="none" x="493" y="154.5">+operationA()</text></g></g><g transform="translate(2,2) scale(1,1)"><rect fill="#C0C0C0" stroke="none" x="599" y="199" width="167.18359375" height="47" opacity="0.2"/></g><g transform="translate(2,2) scale(1,1)"><rect fill="#ffffff" stroke="none" x="592" y="192" width="167.18359375" height="47"/></g><g transform="translate(2,2) scale(1,1)"><path fill="none" stroke="#000000" d="M 592 192 L 759.18359375 192 L 759.18359375 239 L 592 239 L 592 192 Z Z" stroke-miterlimit="10"/></g><g transform="translate(2,2) scale(1,1)"><path fill="none" stroke="#000000" d="M 592 217 L 759.18359375 217" stroke-miterlimit="10"/></g><g transform="translate(2,2) scale(1,1)"><g><path fill="none" stroke="none"/><text fill="#000000" stroke="none" font-family="Arial" font-size="13px" font-style="normal" font-weight="bold" text-decoration="none" x="601.88916015625" y="211.5">Subsystem Component B</text></g></g><g transform="translate(2,2) scale(1,1)"><g><path fill="none" stroke="none"/><text fill="#000000" stroke="none" font-family="Arial" font-size="13px" font-style="normal" font-weight="normal" text-decoration="none" x="597" y="234.5">+operationB()</text></g></g><g transform="translate(2,2) scale(1,1)"><rect fill="#C0C0C0" stroke="none" x="591" y="335" width="167.18359375" height="47" opacity="0.2"/></g><g transform="translate(2,2) scale(1,1)"><rect fill="#ffffff" stroke="none" x="584" y="328" width="167.18359375" height="47"/></g><g transform="translate(2,2) scale(1,1)"><path fill="none" stroke="#000000" d="M 584 328 L 751.18359375 328 L 751.18359375 375 L 584 375 L 584 328 Z Z" stroke-miterlimit="10"/></g><g transform="translate(2,2) scale(1,1)"><path fill="none" stroke="#000000" d="M 584 353 L 751.18359375 353" stroke-miterlimit="10"/></g><g transform="translate(2,2) scale(1,1)"><g><path fill="none" stroke="none"/><text fill="#000000" stroke="none" font-family="Arial" font-size="13px" font-style="normal" font-weight="bold" text-decoration="none" x="593.530517578125" y="347.5">Subsystem Component C</text></g></g><g transform="translate(2,2) scale(1,1)"><g><path fill="none" stroke="none"/><text fill="#000000" stroke="none" font-family="Arial" font-size="13px" font-style="normal" font-weight="normal" text-decoration="none" x="589" y="370.5">+operationC()</text></g></g><g transform="translate(2,2) scale(1,1)"><path fill="none" stroke="#8e8e8e" d="M 449 409 L 353 519" stroke-miterlimit="10" stroke-dasharray="3"/></g><g transform="translate(2,2) scale(1,1)"><path fill="#FFFFFF" stroke="none" d="M 360.0215045639748 498.15057617923026 L 353 519 L 372.7077224588175 509.22218452382026"/></g><g transform="translate(2,2) scale(1,1)"><path fill="none" stroke="#8e8e8e" d="M 360.0215045639748 498.15057617923026 L 353 519 L 372.7077224588175 509.22218452382026 L 360.0215045639748 498.15057617923026" stroke-miterlimit="10"/></g><g transform="translate(2,2) scale(1,1)"><g><path fill="none" stroke="none"/><text fill="#707070" stroke="none" font-family="Arial" font-size="13px" font-style="normal" font-weight="normal" text-decoration="none" x="376.5" y="479.5">+Subsystem</text></g></g><g transform="translate(2,2) scale(1,1)"><path fill="none" stroke="#000000" d="M 381 215 L 512 160" stroke-miterlimit="10" stroke-dasharray="3"/></g><g transform="translate(2,2) scale(1,1)"><path fill="none" stroke="#000000" d="M 504.2592432594935 167.81541330220625 L 512 160 L 501.00012667350677 160.05279016103793" stroke-miterlimit="10"/></g><g transform="translate(2,2) scale(1,1)"><path fill="none" stroke="#000000" d="M 386 235 L 591 221" stroke-miterlimit="10" stroke-dasharray="3"/></g><g transform="translate(2,2) scale(1,1)"><path fill="none" stroke="#000000" d="M 581.1477525797196 225.8921591112288 L 591 221 L 580.5741301569986 217.49268792138554" stroke-miterlimit="10"/></g><g transform="translate(2,2) scale(1,1)"><path fill="none" stroke="#000000" d="M 386 259 L 594 327" stroke-miterlimit="10" stroke-dasharray="3"/></g><g transform="translate(2,2) scale(1,1)"><path fill="none" stroke="#000000" d="M 583.032364323438 327.84318898605477 L 594 327 L 585.6484857896584 319.8409350893806" stroke-miterlimit="10"/></g></g></svg>