<svg version="1.1" xmlns="http://www.w3.org/2000/svg" xmlns:xlink="http://www.w3.org/1999/xlink" width="563" height="411"><defs/><g><g transform="translate(-70,-22) scale(1,1)"><path fill="none" stroke="#000000" d="M 80 32 L 623 32 L 623 423 L 80 423 L 80 32" stroke-miterlimit="10"/></g><g transform="translate(-70,-22) scale(1,1)"><path fill="#ffffff" stroke="none" d="M 80 32 L 80 54 L 234.48681640625 54 L 245.48681640625 43 L 245.48681640625 32 L 80 32"/></g><g transform="translate(-70,-22) scale(1,1)"><path fill="none" stroke="#000000" d="M 80 32 L 80 54 L 234.48681640625 54 L 245.48681640625 43 L 245.48681640625 32 L 80 32 L 80 32" stroke-miterlimit="10"/></g><g transform="translate(-70,-22) scale(1,1)"><g><path fill="none" stroke="none"/><text fill="#000000" stroke="none" font-family="Arial" font-size="13px" font-style="normal" font-weight="normal" text-decoration="none" x="120.6181640625" y="49.5">Visited Set classes</text></g></g><g transform="translate(-70,-22) scale(1,1)"><g><path fill="none" stroke="none"/><text fill="#000000" stroke="none" font-family="Arial" font-size="13px" font-style="normal" font-weight="bold" text-decoration="none" x="85" y="49.5">class</text></g></g><g transform="translate(-70,-22) scale(1,1)"><rect fill="#C0C0C0" stroke="none" x="151" y="161" width="149.6689453125" height="70" opacity="0.2"/></g><g transform="translate(-70,-22) scale(1,1)"><rect fill="#C0C0C0" stroke="none" x="291.998046875" y="143" width="17.6708984375" height="22" opacity="0.2"/></g><g transform="translate(-70,-22) scale(1,1)"><rect fill="#ffffff" stroke="none" x="144" y="154" width="149.6689453125" height="70"/></g><g transform="translate(-70,-22) scale(1,1)"><path fill="none" stroke="#000000" d="M 144 154 L 293.6689453125 154 L 293.6689453125 224 L 144 224 L 144 154 Z Z" stroke-miterlimit="10"/></g><g transform="translate(-70,-22) scale(1,1)"><path fill="none" stroke="#000000" d="M 144 192 L 293.6689453125 192" stroke-miterlimit="10"/></g><g transform="translate(-70,-22) scale(1,1)"><path fill="none" stroke="#000000" d="M 144 215 L 293.6689453125 215" stroke-miterlimit="10"/></g><g transform="translate(-70,-22) scale(1,1)"><g><path fill="none" stroke="none"/><text fill="#000000" stroke="none" font-family="Arial" font-size="13px" font-style="normal" font-weight="normal" text-decoration="none" x="186.674072265625" y="171.5">«interface»</text></g></g><g transform="translate(-70,-22) scale(1,1)"><g><path fill="none" stroke="none"/><text fill="#000000" stroke="none" font-family="Arial" font-size="13px" font-style="normal" font-weight="bold" text-decoration="none" x="189.68603515625" y="186.5">VisitedSet</text></g></g><g transform="translate(-70,-22) scale(1,1)"><g><path fill="none" stroke="none"/><text fill="#000000" stroke="none" font-family="Arial" font-size="13px" font-style="normal" font-weight="normal" text-decoration="none" x="149" y="209.5">+add(v: V): boolean</text></g></g><g transform="translate(-70,-22) scale(1,1)"><rect fill="#ffffff" stroke="none" x="284.998046875" y="136" width="17.6708984375" height="22"/></g><g transform="translate(-70,-22) scale(1,1)"><path fill="none" stroke="#000000" d="M 284.998046875 136 L 302.6689453125 136 L 302.6689453125 158 L 284.998046875 158 L 284.998046875 136 Z Z" stroke-miterlimit="10" stroke-dasharray="3"/></g><g transform="translate(-70,-22) scale(1,1)"><g><path fill="none" stroke="none"/><text fill="#000000" stroke="none" font-family="Arial" font-size="13px" font-style="normal" font-weight="normal" text-decoration="none" x="289.998046875" y="153.5">V</text></g></g><g transform="translate(-70,-22) scale(1,1)"><path fill="#ffffff" stroke="none" d="M 384 160 L 557 160 L 567 170 L 567 226 L 384 226 L 384 160"/></g><g transform="translate(-70,-22) scale(1,1)"><path fill="none" stroke="#000000" d="M 384 160 L 557 160 L 567 170 L 567 226 L 384 226 L 384 160 L 384 160" stroke-miterlimit="10"/></g><g transform="translate(-70,-22) scale(1,1)"><path fill="none" stroke="#000000" d="M 557 160 L 557 170 L 567 170 L 557 160" stroke-miterlimit="10"/></g><g transform="translate(-70,-22) scale(1,1)"><g><path fill="none" stroke="none"/><text fill="#000000" stroke="none" font-family="Arial" font-size="13px" font-style="normal" font-weight="normal" text-decoration="none" x="389" y="178">{Must return true if v was not</text><text fill="#000000" stroke="none" font-family="Arial" font-size="13px" font-style="normal" font-weight="normal" text-decoration="none" x="389" y="191">already a member</text></g></g><g transform="translate(-70,-22) scale(1,1)"><g><path fill="none" stroke="none"/><text fill="#000000" stroke="none" font-family="Arial" font-size="13px" font-style="normal" font-weight="normal" text-decoration="none" x="389" y="206">of the set of visited objects.</text></g></g><g transform="translate(-70,-22) scale(1,1)"><g><path fill="none" stroke="none"/><text fill="#000000" stroke="none" font-family="Arial" font-size="13px" font-style="normal" font-weight="normal" text-decoration="none" x="389" y="221">Must return false otherwise.}</text></g></g><g transform="translate(-70,-22) scale(1,1)"><path fill="none" stroke="#000000" d="M 383 188 L 305 184" stroke-miterlimit="10" stroke-dasharray="3"/></g></g></svg>