<svg version="1.1" xmlns="http://www.w3.org/2000/svg" xmlns:xlink="http://www.w3.org/1999/xlink" width="931" height="563"><defs/><g><g transform="translate(-6,2) scale(1,1)"><path fill="none" stroke="#000000" d="M 16 8 L 927 8 L 927 551 L 16 551 L 16 8" stroke-miterlimit="10"/></g><g transform="translate(-6,2) scale(1,1)"><path fill="#ffffff" stroke="none" d="M 16 8 L 16 30 L 185.91162109375 30 L 196.91162109375 19 L 196.91162109375 8 L 16 8"/></g><g transform="translate(-6,2) scale(1,1)"><path fill="none" stroke="#000000" d="M 16 8 L 16 30 L 185.91162109375 30 L 196.91162109375 19 L 196.91162109375 8 L 16 8 L 16 8" stroke-miterlimit="10"/></g><g transform="translate(-6,2) scale(1,1)"><g><path fill="none" stroke="none"/><text fill="#000000" stroke="none" font-family="Arial" font-size="13px" font-style="normal" font-weight="normal" text-decoration="none" x="56.6181640625" y="25.5">Behavioral Patterns 2</text></g></g><g transform="translate(-6,2) scale(1,1)"><g><path fill="none" stroke="none"/><text fill="#000000" stroke="none" font-family="Arial" font-size="13px" font-style="normal" font-weight="bold" text-decoration="none" x="21" y="25.5">class</text></g></g><g transform="translate(-6,2) scale(1,1)"><rect fill="#ffffff" stroke="none" x="16" y="32" width="99" height="22"/></g><g transform="translate(-6,2) scale(1,1)"><path fill="none" stroke="#000000" d="M 16 32 L 115 32 L 115 54 L 16 54 L 16 32 Z Z" stroke-miterlimit="10"/></g><g transform="translate(-6,2) scale(1,1)"><path fill="none" stroke="#000000" d="M 48.39453125 32 L 48.39453125 54" stroke-miterlimit="10"/></g><g transform="translate(-6,2) scale(1,1)"><g><path fill="none" stroke="none"/><text fill="#000000" stroke="none" font-family="Arial" font-size="13px" font-style="normal" font-weight="normal" text-decoration="none" x="52.89453125" y="49.5">GoF1995</text></g></g><g transform="translate(-6,2) scale(1,1)"><g><path fill="none" stroke="none"/><text fill="#000000" stroke="none" font-family="Arial" font-size="13px" font-style="normal" font-weight="bold" text-decoration="none" x="22.444091796875" y="49.5">link</text></g></g><g transform="translate(-6,2) scale(1,1)"><path fill="#C0C0C0" stroke="none" d="M 102 106.5 C 102 95.7304464 145.09641369140624 87 198.258544921875 87 C 251.42067615234376 87 294.51708984375 95.7304464 294.51708984375 106.5 C 294.51708984375 117.2695536 251.42067615234376 126 198.258544921875 126 C 145.09641369140624 126 102 117.2695536 102 106.5 Z" opacity="0.2"/></g><g transform="translate(-6,2) scale(1,1)"><path fill="#ffffff" stroke="none" d="M 95 99.5 C 95 88.7304464 138.09641369140624 80 191.258544921875 80 C 244.42067615234376 80 287.51708984375 88.7304464 287.51708984375 99.5 C 287.51708984375 110.2695536 244.42067615234376 119 191.258544921875 119 C 138.09641369140624 119 95 110.2695536 95 99.5 Z"/></g><g transform="translate(-6,2) scale(1,1)"><path fill="none" stroke="#000000" d="M 95 99.5 C 95 88.7304464 138.09641369140624 80 191.258544921875 80 C 244.42067615234376 80 287.51708984375 88.7304464 287.51708984375 99.5 C 287.51708984375 110.2695536 244.42067615234376 119 191.258544921875 119 C 138.09641369140624 119 95 110.2695536 95 99.5 Z" stroke-miterlimit="10" stroke-dasharray="5"/></g><g transform="translate(-6,2) scale(1,1)"><g><path fill="none" stroke="none"/><text fill="#000000" stroke="none" font-family="Arial" font-size="13px" font-style="normal" font-weight="bold" text-decoration="none" x="141.765869140625" y="99.5">Observer Pattern</text></g></g><g transform="translate(-6,2) scale(1,1)"><path fill="#C0C0C0" stroke="none" d="M 102 290.5 C 102 279.7304464 145.09641369140624 271 198.258544921875 271 C 251.42067615234376 271 294.51708984375 279.7304464 294.51708984375 290.5 C 294.51708984375 301.2695536 251.42067615234376 310 198.258544921875 310 C 145.09641369140624 310 102 301.2695536 102 290.5 Z" opacity="0.2"/></g><g transform="translate(-6,2) scale(1,1)"><path fill="#ffffff" stroke="none" d="M 95 283.5 C 95 272.7304464 138.09641369140624 264 191.258544921875 264 C 244.42067615234376 264 287.51708984375 272.7304464 287.51708984375 283.5 C 287.51708984375 294.2695536 244.42067615234376 303 191.258544921875 303 C 138.09641369140624 303 95 294.2695536 95 283.5 Z"/></g><g transform="translate(-6,2) scale(1,1)"><path fill="none" stroke="#000000" d="M 95 283.5 C 95 272.7304464 138.09641369140624 264 191.258544921875 264 C 244.42067615234376 264 287.51708984375 272.7304464 287.51708984375 283.5 C 287.51708984375 294.2695536 244.42067615234376 303 191.258544921875 303 C 138.09641369140624 303 95 294.2695536 95 283.5 Z" stroke-miterlimit="10" stroke-dasharray="5"/></g><g transform="translate(-6,2) scale(1,1)"><g><path fill="none" stroke="none"/><text fill="#000000" stroke="none" font-family="Arial" font-size="13px" font-style="normal" font-weight="bold" text-decoration="none" x="144.2890625" y="283.5">Strategy Pattern</text></g></g><g transform="translate(-6,2) scale(1,1)"><path fill="#C0C0C0" stroke="none" d="M 102 378.5 C 102 367.7304464 145.09641369140624 359 198.258544921875 359 C 251.42067615234376 359 294.51708984375 367.7304464 294.51708984375 378.5 C 294.51708984375 389.2695536 251.42067615234376 398 198.258544921875 398 C 145.09641369140624 398 102 389.2695536 102 378.5 Z" opacity="0.2"/></g><g transform="translate(-6,2) scale(1,1)"><path fill="#ffffff" stroke="none" d="M 95 371.5 C 95 360.7304464 138.09641369140624 352 191.258544921875 352 C 244.42067615234376 352 287.51708984375 360.7304464 287.51708984375 371.5 C 287.51708984375 382.2695536 244.42067615234376 391 191.258544921875 391 C 138.09641369140624 391 95 382.2695536 95 371.5 Z"/></g><g transform="translate(-6,2) scale(1,1)"><path fill="none" stroke="#000000" d="M 95 371.5 C 95 360.7304464 138.09641369140624 352 191.258544921875 352 C 244.42067615234376 352 287.51708984375 360.7304464 287.51708984375 371.5 C 287.51708984375 382.2695536 244.42067615234376 391 191.258544921875 391 C 138.09641369140624 391 95 382.2695536 95 371.5 Z" stroke-miterlimit="10" stroke-dasharray="5"/></g><g transform="translate(-6,2) scale(1,1)"><g><path fill="none" stroke="none"/><text fill="#000000" stroke="none" font-family="Arial" font-size="13px" font-style="normal" font-weight="bold" text-decoration="none" x="118.635009765625" y="371.5">Template Method Pattern</text></g></g><g transform="translate(-6,2) scale(1,1)"><path fill="#C0C0C0" stroke="none" d="M 102 466.5 C 102 455.7304464 145.09641369140624 447 198.258544921875 447 C 251.42067615234376 447 294.51708984375 455.7304464 294.51708984375 466.5 C 294.51708984375 477.2695536 251.42067615234376 486 198.258544921875 486 C 145.09641369140624 486 102 477.2695536 102 466.5 Z" opacity="0.2"/></g><g transform="translate(-6,2) scale(1,1)"><path fill="#ffffff" stroke="none" d="M 95 459.5 C 95 448.7304464 138.09641369140624 440 191.258544921875 440 C 244.42067615234376 440 287.51708984375 448.7304464 287.51708984375 459.5 C 287.51708984375 470.2695536 244.42067615234376 479 191.258544921875 479 C 138.09641369140624 479 95 470.2695536 95 459.5 Z"/></g><g transform="translate(-6,2) scale(1,1)"><path fill="none" stroke="#000000" d="M 95 459.5 C 95 448.7304464 138.09641369140624 440 191.258544921875 440 C 244.42067615234376 440 287.51708984375 448.7304464 287.51708984375 459.5 C 287.51708984375 470.2695536 244.42067615234376 479 191.258544921875 479 C 138.09641369140624 479 95 470.2695536 95 459.5 Z" stroke-miterlimit="10" stroke-dasharray="5"/></g><g transform="translate(-6,2) scale(1,1)"><g><path fill="none" stroke="none"/><text fill="#000000" stroke="none" font-family="Arial" font-size="13px" font-style="normal" font-weight="bold" text-decoration="none" x="150.55419921875" y="459.5">Visitor Pattern</text></g></g><g transform="translate(-6,2) scale(1,1)"><path fill="#C0C0C0" stroke="none" d="M 102 202.5 C 102 191.7304464 145.09641369140624 183 198.258544921875 183 C 251.42067615234376 183 294.51708984375 191.7304464 294.51708984375 202.5 C 294.51708984375 213.2695536 251.42067615234376 222 198.258544921875 222 C 145.09641369140624 222 102 213.2695536 102 202.5 Z" opacity="0.2"/></g><g transform="translate(-6,2) scale(1,1)"><path fill="#ffffff" stroke="none" d="M 95 195.5 C 95 184.7304464 138.09641369140624 176 191.258544921875 176 C 244.42067615234376 176 287.51708984375 184.7304464 287.51708984375 195.5 C 287.51708984375 206.2695536 244.42067615234376 215 191.258544921875 215 C 138.09641369140624 215 95 206.2695536 95 195.5 Z"/></g><g transform="translate(-6,2) scale(1,1)"><path fill="none" stroke="#000000" d="M 95 195.5 C 95 184.7304464 138.09641369140624 176 191.258544921875 176 C 244.42067615234376 176 287.51708984375 184.7304464 287.51708984375 195.5 C 287.51708984375 206.2695536 244.42067615234376 215 191.258544921875 215 C 138.09641369140624 215 95 206.2695536 95 195.5 Z" stroke-miterlimit="10" stroke-dasharray="5"/></g><g transform="translate(-6,2) scale(1,1)"><g><path fill="none" stroke="none"/><text fill="#000000" stroke="none" font-family="Arial" font-size="13px" font-style="normal" font-weight="bold" text-decoration="none" x="153.318603515625" y="195.5">State Pattern</text></g></g><g transform="translate(-6,2) scale(1,1)"><path fill="#ffffff" stroke="none" d="M 360 80 L 711 80 L 721 90 L 721 146 L 360 146 L 360 80"/></g><g transform="translate(-6,2) scale(1,1)"><path fill="none" stroke="#000000" d="M 360 80 L 711 80 L 721 90 L 721 146 L 360 146 L 360 80 L 360 80" stroke-miterlimit="10"/></g><g transform="translate(-6,2) scale(1,1)"><path fill="none" stroke="#000000" d="M 711 80 L 711 90 L 721 90 L 711 80" stroke-miterlimit="10"/></g><g transform="translate(-6,2) scale(1,1)"><g><path fill="none" stroke="none"/><text fill="#000000" stroke="none" font-family="Arial" font-size="13px" font-style="normal" font-weight="normal" text-decoration="none" x="365" y="98">{Define a one-to-many dependency between objects so that</text><text fill="#000000" stroke="none" font-family="Arial" font-size="13px" font-style="normal" font-weight="normal" text-decoration="none" x="365" y="111">when one object changes state, all its dependents are</text><text fill="#000000" stroke="none" font-family="Arial" font-size="13px" font-style="normal" font-weight="normal" text-decoration="none" x="365" y="124">notified and updated automatically.}</text></g></g><g transform="translate(-6,2) scale(1,1)"><path fill="none" stroke="#000000" d="M 359 106 L 289 103" stroke-miterlimit="10" stroke-dasharray="3"/></g><g transform="translate(-6,2) scale(1,1)"><path fill="#ffffff" stroke="none" d="M 360 170 L 711 170 L 721 180 L 721 236 L 360 236 L 360 170"/></g><g transform="translate(-6,2) scale(1,1)"><path fill="none" stroke="#000000" d="M 360 170 L 711 170 L 721 180 L 721 236 L 360 236 L 360 170 L 360 170" stroke-miterlimit="10"/></g><g transform="translate(-6,2) scale(1,1)"><path fill="none" stroke="#000000" d="M 711 170 L 711 180 L 721 180 L 711 170" stroke-miterlimit="10"/></g><g transform="translate(-6,2) scale(1,1)"><g><path fill="none" stroke="none"/><text fill="#000000" stroke="none" font-family="Arial" font-size="13px" font-style="normal" font-weight="normal" text-decoration="none" x="365" y="188">{Allow an object to alter its behavior when its internal state</text><text fill="#000000" stroke="none" font-family="Arial" font-size="13px" font-style="normal" font-weight="normal" text-decoration="none" x="365" y="201">changes. The object will appear to change its class.}</text></g></g><g transform="translate(-6,2) scale(1,1)"><path fill="none" stroke="#000000" d="M 359 199 L 289 197" stroke-miterlimit="10" stroke-dasharray="3"/></g><g transform="translate(-6,2) scale(1,1)"><path fill="#ffffff" stroke="none" d="M 360 260 L 711 260 L 721 270 L 721 326 L 360 326 L 360 260"/></g><g transform="translate(-6,2) scale(1,1)"><path fill="none" stroke="#000000" d="M 360 260 L 711 260 L 721 270 L 721 326 L 360 326 L 360 260 L 360 260" stroke-miterlimit="10"/></g><g transform="translate(-6,2) scale(1,1)"><path fill="none" stroke="#000000" d="M 711 260 L 711 270 L 721 270 L 711 260" stroke-miterlimit="10"/></g><g transform="translate(-6,2) scale(1,1)"><g><path fill="none" stroke="none"/><text fill="#000000" stroke="none" font-family="Arial" font-size="13px" font-style="normal" font-weight="normal" text-decoration="none" x="365" y="278">{Define a family of algorithms, encapsulate each one, and</text><text fill="#000000" stroke="none" font-family="Arial" font-size="13px" font-style="normal" font-weight="normal" text-decoration="none" x="365" y="291">make them interchangeable. Strategy lets the algorithm vary</text><text fill="#000000" stroke="none" font-family="Arial" font-size="13px" font-style="normal" font-weight="normal" text-decoration="none" x="365" y="304">independently from clients that use it.}</text></g></g><g transform="translate(-6,2) scale(1,1)"><path fill="none" stroke="#000000" d="M 359 288 L 289 286" stroke-miterlimit="10" stroke-dasharray="3"/></g><g transform="translate(-6,2) scale(1,1)"><path fill="#ffffff" stroke="none" d="M 360 350 L 711 350 L 721 360 L 721 416 L 360 416 L 360 350"/></g><g transform="translate(-6,2) scale(1,1)"><path fill="none" stroke="#000000" d="M 360 350 L 711 350 L 721 360 L 721 416 L 360 416 L 360 350 L 360 350" stroke-miterlimit="10"/></g><g transform="translate(-6,2) scale(1,1)"><path fill="none" stroke="#000000" d="M 711 350 L 711 360 L 721 360 L 711 350" stroke-miterlimit="10"/></g><g transform="translate(-6,2) scale(1,1)"><g><path fill="none" stroke="none"/><text fill="#000000" stroke="none" font-family="Arial" font-size="13px" font-style="normal" font-weight="normal" text-decoration="none" x="365" y="368">{Define the skeleton of an algorithm in an operation,</text><text fill="#000000" stroke="none" font-family="Arial" font-size="13px" font-style="normal" font-weight="normal" text-decoration="none" x="365" y="381">deferring some steps to subclasses. Template Method lets</text><text fill="#000000" stroke="none" font-family="Arial" font-size="13px" font-style="normal" font-weight="normal" text-decoration="none" x="365" y="394">subclasses redefine certain steps of an algorithm without</text><text fill="#000000" stroke="none" font-family="Arial" font-size="13px" font-style="normal" font-weight="normal" text-decoration="none" x="365" y="407">changing the algorithm’s structure.}</text></g></g><g transform="translate(-6,2) scale(1,1)"><path fill="none" stroke="#000000" d="M 359 377 L 289 374" stroke-miterlimit="10" stroke-dasharray="3"/></g><g transform="translate(-6,2) scale(1,1)"><path fill="#ffffff" stroke="none" d="M 360 440 L 711 440 L 721 450 L 721 506 L 360 506 L 360 440"/></g><g transform="translate(-6,2) scale(1,1)"><path fill="none" stroke="#000000" d="M 360 440 L 711 440 L 721 450 L 721 506 L 360 506 L 360 440 L 360 440" stroke-miterlimit="10"/></g><g transform="translate(-6,2) scale(1,1)"><path fill="none" stroke="#000000" d="M 711 440 L 711 450 L 721 450 L 711 440" stroke-miterlimit="10"/></g><g transform="translate(-6,2) scale(1,1)"><g><path fill="none" stroke="none"/><text fill="#000000" stroke="none" font-family="Arial" font-size="13px" font-style="normal" font-weight="normal" text-decoration="none" x="365" y="458">{Represent an operation to be performed on the elements of</text><text fill="#000000" stroke="none" font-family="Arial" font-size="13px" font-style="normal" font-weight="normal" text-decoration="none" x="365" y="471">an object structure. Visitor lets you define a new operation</text><text fill="#000000" stroke="none" font-family="Arial" font-size="13px" font-style="normal" font-weight="normal" text-decoration="none" x="365" y="484">without changing the classes of the elements on which it</text><text fill="#000000" stroke="none" font-family="Arial" font-size="13px" font-style="normal" font-weight="normal" text-decoration="none" x="365" y="497">operates.}</text></g></g><g transform="translate(-6,2) scale(1,1)"><path fill="none" stroke="#000000" d="M 359 466 L 289 463" stroke-miterlimit="10" stroke-dasharray="3"/></g></g></svg>