<svg version="1.1" xmlns="http://www.w3.org/2000/svg" width="780" height="579"><defs/><g><g transform="translate(-14,2) scale(1,1)"><path fill="none" stroke="#000000" d="M 24 8 L 784 8 L 784 567 L 24 567 L 24 8" stroke-miterlimit="10"/></g><g transform="translate(-14,2) scale(1,1)"><path fill="#ffffff" stroke="none" d="M 24 8 L 24 30 L 100.6708984375 30 L 111.6708984375 19 L 111.6708984375 8 L 24 8"/></g><g transform="translate(-14,2) scale(1,1)"><path fill="none" stroke="#000000" d="M 24 8 L 24 30 L 100.6708984375 30 L 111.6708984375 19 L 111.6708984375 8 L 24 8 L 24 8" stroke-miterlimit="10"/></g><g transform="translate(-14,2) scale(1,1)"><g><path fill="none" stroke="none"/><text fill="#000000" stroke="none" font-family="Arial" font-size="13px" font-style="normal" font-weight="normal" text-decoration="none" x="64.6181640625" y="25.5">OMG</text></g></g><g transform="translate(-14,2) scale(1,1)"><g><path fill="none" stroke="none"/><text fill="#000000" stroke="none" font-family="Arial" font-size="13px" font-style="normal" font-weight="bold" text-decoration="none" x="29" y="25.5">class</text></g></g><g transform="translate(-14,2) scale(1,1)"><rect fill="#C0C0C0" stroke="none" x="55" y="55" width="696" height="122" opacity="0.2"/></g><g transform="translate(-14,2) scale(1,1)"><rect fill="#ffffff" stroke="none" x="48" y="48" width="696" height="122"/></g><g transform="translate(-14,2) scale(1,1)"><path fill="none" stroke="#000000" d="M 48 48 L 744 48 L 744 170 L 48 170 L 48 48 Z Z" stroke-miterlimit="10"/></g><g transform="translate(-14,2) scale(1,1)"><rect fill="#ffffff" stroke="none" x="48" y="48" width="696" height="122"/></g><g transform="translate(-14,2) scale(1,1)"><path fill="none" stroke="#000000" d="M 48 48 L 744 48 L 744 170 L 48 170 L 48 48 Z Z" stroke-miterlimit="10"/></g><g transform="translate(-14,2) scale(1,1)"><path fill="none" stroke="#000000" d="M 48 73 L 744 73" stroke-miterlimit="10"/></g><g transform="translate(-14,2) scale(1,1)"><g><path fill="none" stroke="none"/><text fill="#000000" stroke="none" font-family="Arial" font-size="13px" font-style="normal" font-weight="bold" text-decoration="none" x="341.45458984375" y="67.5">SysML: BiblioEntry</text><path fill="none" stroke="#000000" d="M 455.588623046875 67.5 L 336.411376953125 67.5" stroke-miterlimit="10"/></g></g><g transform="translate(-14,2) scale(1,1)"><g><path fill="none" stroke="none"/><text fill="#000000" stroke="none" font-family="Arial" font-size="13px" font-style="normal" font-weight="normal" text-decoration="none" x="53" y="90.5">+authors = OMG</text></g></g><g transform="translate(-14,2) scale(1,1)"><g><path fill="none" stroke="none"/><text fill="#000000" stroke="none" font-family="Arial" font-size="13px" font-style="normal" font-weight="normal" text-decoration="none" x="53" y="105.5">+date = December 2017</text></g></g><g transform="translate(-14,2) scale(1,1)"><g><path fill="none" stroke="none"/><text fill="#000000" stroke="none" font-family="Arial" font-size="13px" font-style="normal" font-weight="normal" text-decoration="none" x="53" y="120.5">+title = OMG Systems Modeling Language (OMG SysML)</text></g></g><g transform="translate(-14,2) scale(1,1)"><g><path fill="none" stroke="none"/><text fill="#000000" stroke="none" font-family="Arial" font-size="13px" font-style="normal" font-weight="normal" text-decoration="none" x="53" y="135.5">+url = https://www.omg.org/spec/SysML</text></g></g><g transform="translate(-14,2) scale(1,1)"><g><path fill="none" stroke="none"/><text fill="#000000" stroke="none" font-family="Arial" font-size="13px" font-style="normal" font-weight="normal" text-decoration="none" x="53" y="150.5">+omgDocumentNumber = formal/19-11-01</text></g></g><g transform="translate(-14,2) scale(1,1)"><g><path fill="none" stroke="none"/><text fill="#000000" stroke="none" font-family="Arial" font-size="13px" font-style="normal" font-weight="normal" text-decoration="none" x="53" y="165.5">+version = 1.6</text></g></g><g transform="translate(-14,2) scale(1,1)"><rect fill="#C0C0C0" stroke="none" x="55" y="191" width="696" height="122" opacity="0.2"/></g><g transform="translate(-14,2) scale(1,1)"><rect fill="#ffffff" stroke="none" x="48" y="184" width="696" height="122"/></g><g transform="translate(-14,2) scale(1,1)"><path fill="none" stroke="#000000" d="M 48 184 L 744 184 L 744 306 L 48 306 L 48 184 Z Z" stroke-miterlimit="10"/></g><g transform="translate(-14,2) scale(1,1)"><rect fill="#ffffff" stroke="none" x="48" y="184" width="696" height="122"/></g><g transform="translate(-14,2) scale(1,1)"><path fill="none" stroke="#000000" d="M 48 184 L 744 184 L 744 306 L 48 306 L 48 184 Z Z" stroke-miterlimit="10"/></g><g transform="translate(-14,2) scale(1,1)"><path fill="none" stroke="#000000" d="M 48 209 L 744 209" stroke-miterlimit="10"/></g><g transform="translate(-14,2) scale(1,1)"><g><path fill="none" stroke="none"/><text fill="#000000" stroke="none" font-family="Arial" font-size="13px" font-style="normal" font-weight="bold" text-decoration="none" x="347.595947265625" y="203.5">UML: BiblioEntry</text><path fill="none" stroke="#000000" d="M 448.71728515625 203.5 L 343.28271484375 203.5" stroke-miterlimit="10"/></g></g><g transform="translate(-14,2) scale(1,1)"><g><path fill="none" stroke="none"/><text fill="#000000" stroke="none" font-family="Arial" font-size="13px" font-style="normal" font-weight="normal" text-decoration="none" x="53" y="226.5">+authors = OMG</text></g></g><g transform="translate(-14,2) scale(1,1)"><g><path fill="none" stroke="none"/><text fill="#000000" stroke="none" font-family="Arial" font-size="13px" font-style="normal" font-weight="normal" text-decoration="none" x="53" y="241.5">+date = December 2017</text></g></g><g transform="translate(-14,2) scale(1,1)"><g><path fill="none" stroke="none"/><text fill="#000000" stroke="none" font-family="Arial" font-size="13px" font-style="normal" font-weight="normal" text-decoration="none" x="53" y="256.5">+title = OMG Unified Modeling Language (OMG UML)</text></g></g><g transform="translate(-14,2) scale(1,1)"><g><path fill="none" stroke="none"/><text fill="#000000" stroke="none" font-family="Arial" font-size="13px" font-style="normal" font-weight="normal" text-decoration="none" x="53" y="271.5">+url = https://www.omg.org/spec/UML</text></g></g><g transform="translate(-14,2) scale(1,1)"><g><path fill="none" stroke="none"/><text fill="#000000" stroke="none" font-family="Arial" font-size="13px" font-style="normal" font-weight="normal" text-decoration="none" x="53" y="286.5">+omgDocumentNumber = formal/2017-12-05</text></g></g><g transform="translate(-14,2) scale(1,1)"><g><path fill="none" stroke="none"/><text fill="#000000" stroke="none" font-family="Arial" font-size="13px" font-style="normal" font-weight="normal" text-decoration="none" x="53" y="301.5">+version = 2.5.1</text></g></g></g></svg>