<svg version="1.1" xmlns="http://www.w3.org/2000/svg" xmlns:xlink="http://www.w3.org/1999/xlink" width="900" height="620"><defs/><g><g transform="translate(-6,2) scale(1,1)"><path fill="none" stroke="#000000" d="M 16 8 L 896 8 L 896 608 L 16 608 L 16 8" stroke-miterlimit="10"/></g><g transform="translate(-6,2) scale(1,1)"><path fill="#ffffff" stroke="none" d="M 16 8 L 16 30 L 241.54248046875 30 L 252.54248046875 19 L 252.54248046875 8 L 16 8"/></g><g transform="translate(-6,2) scale(1,1)"><path fill="none" stroke="#000000" d="M 16 8 L 16 30 L 241.54248046875 30 L 252.54248046875 19 L 252.54248046875 8 L 16 8 L 16 8" stroke-miterlimit="10"/></g><g transform="translate(-6,2) scale(1,1)"><g><path fill="none" stroke="none"/><text fill="#000000" stroke="none" font-family="Arial" font-size="13px" font-style="normal" font-weight="normal" text-decoration="none" x="56.6181640625" y="25.5">Docking System design pattern</text></g></g><g transform="translate(-6,2) scale(1,1)"><g><path fill="none" stroke="none"/><text fill="#000000" stroke="none" font-family="Arial" font-size="13px" font-style="normal" font-weight="bold" text-decoration="none" x="21" y="25.5">class</text></g></g><g transform="translate(-6,2) scale(1,1)"><rect fill="#C0C0C0" stroke="none" x="527" y="319" width="73.32080078125" height="37" opacity="0.2"/></g><g transform="translate(-6,2) scale(1,1)"><rect fill="#ffffff" stroke="none" x="520" y="312" width="73.32080078125" height="37"/></g><g transform="translate(-6,2) scale(1,1)"><path fill="none" stroke="#000000" d="M 520 312 L 593.32080078125 312 L 593.32080078125 349 L 520 349 L 520 312 Z Z" stroke-miterlimit="10"/></g><g transform="translate(-6,2) scale(1,1)"><g><path fill="none" stroke="none"/><text fill="#000000" stroke="none" font-family="Arial" font-size="13px" font-style="normal" font-weight="normal" text-decoration="none" x="524.5" y="329.5">«interface»</text></g></g><g transform="translate(-6,2) scale(1,1)"><g><path fill="none" stroke="none"/><text fill="#000000" stroke="none" font-family="Arial" font-size="13px" font-style="normal" font-weight="bold" text-decoration="none" x="529.562255859375" y="344.5">Dockable</text></g></g><g transform="translate(-6,2) scale(1,1)"><rect fill="#C0C0C0" stroke="none" x="391" y="215" width="73.32080078125" height="37" opacity="0.2"/></g><g transform="translate(-6,2) scale(1,1)"><rect fill="#ffffff" stroke="none" x="384" y="208" width="73.32080078125" height="37"/></g><g transform="translate(-6,2) scale(1,1)"><path fill="none" stroke="#000000" d="M 384 208 L 457.32080078125 208 L 457.32080078125 245 L 384 245 L 384 208 Z Z" stroke-miterlimit="10"/></g><g transform="translate(-6,2) scale(1,1)"><g><path fill="none" stroke="none"/><text fill="#000000" stroke="none" font-family="Arial" font-size="13px" font-style="normal" font-weight="normal" text-decoration="none" x="388.5" y="225.5">«interface»</text></g></g><g transform="translate(-6,2) scale(1,1)"><g><path fill="none" stroke="none"/><text fill="#000000" stroke="none" font-family="Arial" font-size="13px" font-style="normal" font-weight="bold" text-decoration="none" x="390.312255859375" y="240.5">DockNode</text></g></g><g transform="translate(-6,2) scale(1,1)"><path fill="none" stroke="#000000" d="M 568 312 L 568 280 L 440 280 L 440 245" stroke-miterlimit="10"/></g><g transform="translate(-6,2) scale(1,1)"><path fill="#FFFFFF" stroke="none" d="M 448.419035512032 265.3253497152483 L 440 245 L 431.580964487968 265.3253497152483"/></g><g transform="translate(-6,2) scale(1,1)"><path fill="none" stroke="#000000" d="M 448.419035512032 265.3253497152483 L 440 245 L 431.580964487968 265.3253497152483 L 448.419035512032 265.3253497152483" stroke-miterlimit="10"/></g><g transform="translate(-6,2) scale(1,1)"><path fill="none" stroke="#000000" d="M 420 208 L 420 187 L 512 187 L 512 226 L 457 226" stroke-miterlimit="10"/></g><g transform="translate(-6,2) scale(1,1)"><path fill="#FFFFFF" stroke="none" d="M 467.16267485762415 221.790482243984 L 457 226 L 467.16267485762415 230.209517756016 L 479 226"/></g><g transform="translate(-6,2) scale(1,1)"><path fill="none" stroke="#000000" d="M 467.16267485762415 221.790482243984 L 457 226 L 467.16267485762415 230.209517756016 L 479 226 L 467.16267485762415 221.790482243984" stroke-miterlimit="10"/></g><g transform="translate(-6,2) scale(1,1)"><g><path fill="none" stroke="none"/><text fill="#000000" stroke="none" font-family="Arial" font-size="13px" font-style="normal" font-weight="normal" text-decoration="none" x="334.72998046875" y="176.5">+dockChildrenReadOnly</text></g></g><g transform="translate(-6,2) scale(1,1)"><path fill="#C0C0C0" stroke="none" d="M 375 496 C 375 486.6111584 414.3989376 479 463 479 C 511.6010624 479 551 486.6111584 551 496 C 551 505.3888416 511.6010624 513 463 513 C 414.3989376 513 375 505.3888416 375 496 Z" opacity="0.2"/></g><g transform="translate(-6,2) scale(1,1)"><path fill="#ffffff" stroke="none" d="M 368 489 C 368 479.6111584 407.3989376 472 456 472 C 504.6010624 472 544 479.6111584 544 489 C 544 498.3888416 504.6010624 506 456 506 C 407.3989376 506 368 498.3888416 368 489 Z"/></g><g transform="translate(-6,2) scale(1,1)"><path fill="none" stroke="#000000" d="M 368 489 C 368 479.6111584 407.3989376 472 456 472 C 504.6010624 472 544 479.6111584 544 489 C 544 498.3888416 504.6010624 506 456 506 C 407.3989376 506 368 498.3888416 368 489 Z" stroke-miterlimit="10" stroke-dasharray="5"/></g><g transform="translate(-6,2) scale(1,1)"><g><path fill="none" stroke="none"/><text fill="#000000" stroke="none" font-family="Arial" font-size="13px" font-style="normal" font-weight="bold" text-decoration="none" x="402.168701171875" y="496">Composite Pattern</text></g></g><g transform="translate(-6,2) scale(1,1)"><path fill="none" stroke="#000000" d="M 543 350 L 467 471" stroke-miterlimit="10" stroke-dasharray="3"/></g><g transform="translate(-6,2) scale(1,1)"><path fill="#FFFFFF" stroke="none" d="M 470.68136604033157 449.31019723286784 L 467 471 L 484.9401255103862 458.26611227191046"/></g><g transform="translate(-6,2) scale(1,1)"><path fill="none" stroke="#000000" d="M 470.68136604033157 449.31019723286784 L 467 471 L 484.9401255103862 458.26611227191046 L 470.68136604033157 449.31019723286784" stroke-miterlimit="10"/></g><g transform="translate(-6,2) scale(1,1)"><g><path fill="none" stroke="none"/><text fill="#000000" stroke="none" font-family="Arial" font-size="13px" font-style="normal" font-weight="normal" text-decoration="none" x="500.5" y="423.5">+Leaf</text></g></g><g transform="translate(-6,2) scale(1,1)"><path fill="none" stroke="#000000" d="M 423 246 L 454 471" stroke-miterlimit="10" stroke-dasharray="3"/></g><g transform="translate(-6,2) scale(1,1)"><path fill="#FFFFFF" stroke="none" d="M 442.88557799984557 452.0139624038484 L 454 471 L 459.5660727668234 449.71576090262033"/></g><g transform="translate(-6,2) scale(1,1)"><path fill="none" stroke="#000000" d="M 442.88557799984557 452.0139624038484 L 454 471 L 459.5660727668234 449.71576090262033 L 442.88557799984557 452.0139624038484" stroke-miterlimit="10"/></g><g transform="translate(-6,2) scale(1,1)"><g><path fill="none" stroke="none"/><text fill="#000000" stroke="none" font-family="Arial" font-size="13px" font-style="normal" font-weight="normal" text-decoration="none" x="414.5" y="361.5">+Component</text></g></g><g transform="translate(-6,2) scale(1,1)"><g><path fill="none" stroke="none"/><text fill="#000000" stroke="none" font-family="Arial" font-size="13px" font-style="normal" font-weight="normal" text-decoration="none" x="61" y="74">The docking system is a tree structure. We use the composite pattern to represent it.</text></g></g><g transform="translate(-6,2) scale(1,1)"><g><path fill="none" stroke="none"/><text fill="#000000" stroke="none" font-family="Arial" font-size="13px" font-style="normal" font-weight="normal" text-decoration="none" x="61" y="89">Parentship is restricted to Docks and to the DockPane.</text></g></g><g transform="translate(-6,2) scale(1,1)"><rect fill="#C0C0C0" stroke="none" x="199" y="407" width="73.32080078125" height="48" opacity="0.2"/></g><g transform="translate(-6,2) scale(1,1)"><rect fill="#ffffff" stroke="none" x="192" y="400" width="73.32080078125" height="48"/></g><g transform="translate(-6,2) scale(1,1)"><path fill="none" stroke="#000000" d="M 192 400 L 265.32080078125 400 L 265.32080078125 448 L 192 448 L 192 400 Z Z" stroke-miterlimit="10"/></g><g transform="translate(-6,2) scale(1,1)"><g><path fill="none" stroke="none"/><text fill="#000000" stroke="none" font-family="Arial" font-size="13px" font-style="normal" font-weight="normal" text-decoration="none" x="196.5" y="417.5">«interface»</text></g></g><g transform="translate(-6,2) scale(1,1)"><g><path fill="none" stroke="none"/><text fill="#000000" stroke="none" font-family="Arial" font-size="13px" font-style="normal" font-weight="bold" text-decoration="none" x="198.6708984375" y="432.5">DockPane</text></g></g><g transform="translate(-6,2) scale(1,1)"><rect fill="#C0C0C0" stroke="none" x="290" y="311" width="107.9599609375" height="48" opacity="0.2"/></g><g transform="translate(-6,2) scale(1,1)"><rect fill="#ffffff" stroke="none" x="283" y="304" width="107.9599609375" height="48"/></g><g transform="translate(-6,2) scale(1,1)"><path fill="none" stroke="#000000" d="M 283 304 L 390.9599609375 304 L 390.9599609375 352 L 283 352 L 283 304 Z Z" stroke-miterlimit="10"/></g><g transform="translate(-6,2) scale(1,1)"><g><path fill="none" stroke="none"/><text fill="#000000" stroke="none" font-family="Arial" font-size="13px" font-style="normal" font-weight="normal" text-decoration="none" x="304.819580078125" y="321.5">«interface»</text></g></g><g transform="translate(-6,2) scale(1,1)"><g><path fill="none" stroke="none"/><text fill="#000000" stroke="none" font-family="Arial" font-size="13px" font-style="normal" font-weight="bold" text-decoration="none" x="322.1708984375" y="336.5">Dock</text></g></g><g transform="translate(-6,2) scale(1,1)"><path fill="none" stroke="#000000" d="M 256 399 L 308 353" stroke-miterlimit="10"/></g><g transform="translate(-6,2) scale(1,1)"><path fill="#FFFFFF" stroke="none" d="M 298.35461597547635 372.7728745259627 L 308 353 L 287.198149888252 360.1612172099699"/></g><g transform="translate(-6,2) scale(1,1)"><path fill="none" stroke="#000000" d="M 298.35461597547635 372.7728745259627 L 308 353 L 287.198149888252 360.1612172099699 L 298.35461597547635 372.7728745259627" stroke-miterlimit="10"/></g><g transform="translate(-6,2) scale(1,1)"><path fill="none" stroke="#000000" d="M 357 303 L 404 246" stroke-miterlimit="10"/></g><g transform="translate(-6,2) scale(1,1)"><path fill="#FFFFFF" stroke="none" d="M 397.56500417214005 267.03784277665903 L 404 246 L 384.57376952430104 256.32577210212514"/></g><g transform="translate(-6,2) scale(1,1)"><path fill="none" stroke="#000000" d="M 397.56500417214005 267.03784277665903 L 404 246 L 384.57376952430104 256.32577210212514 L 397.56500417214005 267.03784277665903" stroke-miterlimit="10"/></g><g transform="translate(-6,2) scale(1,1)"><path fill="none" stroke="#000000" d="M 355 353 L 443 471" stroke-miterlimit="10" stroke-dasharray="3"/></g><g transform="translate(-6,2) scale(1,1)"><path fill="#FFFFFF" stroke="none" d="M 424.10009039612373 459.7397417007732 L 443 471 L 437.5979507565817 449.67354075399095"/></g><g transform="translate(-6,2) scale(1,1)"><path fill="none" stroke="#000000" d="M 424.10009039612373 459.7397417007732 L 443 471 L 437.5979507565817 449.67354075399095 L 424.10009039612373 459.7397417007732" stroke-miterlimit="10"/></g><g transform="translate(-6,2) scale(1,1)"><g><path fill="none" stroke="none"/><text fill="#000000" stroke="none" font-family="Arial" font-size="13px" font-style="normal" font-weight="normal" text-decoration="none" x="376.5" y="409.5">+Composite</text></g></g></g></svg>