<svg version="1.1" xmlns="http://www.w3.org/2000/svg" width="1084" height="612"><defs/><g><g transform="translate(-14,2) scale(1,1)"><path fill="none" stroke="#000000" d="M 24 8 L 1088 8 L 1088 600 L 24 600 L 24 8" stroke-miterlimit="10"/></g><g transform="translate(-14,2) scale(1,1)"><path fill="#ffffff" stroke="none" d="M 24 8 L 24 30 L 234.14306640625 30 L 245.14306640625 19 L 245.14306640625 8 L 24 8"/></g><g transform="translate(-14,2) scale(1,1)"><path fill="none" stroke="#000000" d="M 24 8 L 24 30 L 234.14306640625 30 L 245.14306640625 19 L 245.14306640625 8 L 24 8 L 24 8" stroke-miterlimit="10"/></g><g transform="translate(-14,2) scale(1,1)"><g><path fill="none" stroke="none"/><text fill="#000000" stroke="none" font-family="Arial" font-size="13px" font-style="normal" font-weight="normal" text-decoration="none" x="64.6181640625" y="25.5">Undo Support - Logical View</text></g></g><g transform="translate(-14,2) scale(1,1)"><g><path fill="none" stroke="none"/><text fill="#000000" stroke="none" font-family="Arial" font-size="13px" font-style="normal" font-weight="bold" text-decoration="none" x="29" y="25.5">class</text></g></g><g transform="translate(-14,2) scale(1,1)"><rect fill="#C0C0C0" stroke="none" x="301" y="152" width="394.8740234375" height="75" opacity="0.2"/></g><g transform="translate(-14,2) scale(1,1)"><rect fill="#d8ffd8" stroke="none" x="294" y="145" width="394.8740234375" height="75"/></g><g transform="translate(-14,2) scale(1,1)"><path fill="none" stroke="#000000" d="M 294 145 L 688.8740234375 145 L 688.8740234375 220 L 294 220 L 294 145 Z Z" stroke-miterlimit="10"/></g><g transform="translate(-14,2) scale(1,1)"><path fill="none" stroke="#000000" d="M 294 183 L 688.8740234375 183" stroke-miterlimit="10"/></g><g transform="translate(-14,2) scale(1,1)"><g><path fill="none" stroke="none"/><text fill="#000000" stroke="none" font-family="Arial" font-size="13px" font-style="normal" font-weight="normal" text-decoration="none" x="459.276611328125" y="162.5">«interface»</text></g></g><g transform="translate(-14,2) scale(1,1)"><g><path fill="none" stroke="none"/><text fill="#000000" stroke="none" font-family="Arial" font-size="13px" font-style="normal" font-weight="bold" text-decoration="none" x="467.592041015625" y="177.5">A Model</text></g></g><g transform="translate(-14,2) scale(1,1)"><g><path fill="none" stroke="none"/><text fill="#000000" stroke="none" font-family="Arial" font-size="13px" font-style="normal" font-weight="normal" text-decoration="none" x="299" y="200.5">+addListener(l: ChangeListener&lt;E-&gt;A Model ChangeEvent&gt;)</text></g></g><g transform="translate(-14,2) scale(1,1)"><g><path fill="none" stroke="none"/><text fill="#000000" stroke="none" font-family="Arial" font-size="13px" font-style="normal" font-weight="normal" text-decoration="none" x="299" y="215.5">+removeListener(l: ChangeListener&lt;E-&gt;A Model Change Event&gt;)</text></g></g><g transform="translate(-14,2) scale(1,1)"><rect fill="#C0C0C0" stroke="none" x="735" y="161" width="248.34326171875" height="60" opacity="0.2"/></g><g transform="translate(-14,2) scale(1,1)"><rect fill="#C0C0C0" stroke="none" x="974.67236328125" y="143" width="17.6708984375" height="22" opacity="0.2"/></g><g transform="translate(-14,2) scale(1,1)"><rect fill="#ffffff" stroke="none" x="728" y="154" width="248.34326171875" height="60"/></g><g transform="translate(-14,2) scale(1,1)"><path fill="none" stroke="#000000" d="M 728 154 L 976.34326171875 154 L 976.34326171875 214 L 728 214 L 728 154 Z Z" stroke-miterlimit="10"/></g><g transform="translate(-14,2) scale(1,1)"><path fill="none" stroke="#000000" d="M 728 192 L 976.34326171875 192" stroke-miterlimit="10"/></g><g transform="translate(-14,2) scale(1,1)"><g><path fill="none" stroke="none"/><text fill="#000000" stroke="none" font-family="Arial" font-size="13px" font-style="normal" font-weight="normal" text-decoration="none" x="820.01123046875" y="171.5">«interface»</text></g></g><g transform="translate(-14,2) scale(1,1)"><g><path fill="none" stroke="none"/><text fill="#000000" stroke="none" font-family="Arial" font-size="13px" font-style="normal" font-weight="bold" text-decoration="none" x="806.278076171875" y="186.5">ChangeListener</text></g></g><g transform="translate(-14,2) scale(1,1)"><g><path fill="none" stroke="none"/><text fill="#000000" stroke="none" font-family="Arial" font-size="13px" font-style="normal" font-weight="normal" text-decoration="none" x="733" y="209.5">+changed(event: E)</text></g></g><g transform="translate(-14,2) scale(1,1)"><rect fill="#ffffff" stroke="none" x="967.67236328125" y="136" width="17.6708984375" height="22"/></g><g transform="translate(-14,2) scale(1,1)"><path fill="none" stroke="#000000" d="M 967.67236328125 136 L 985.34326171875 136 L 985.34326171875 158 L 967.67236328125 158 L 967.67236328125 136 Z Z" stroke-miterlimit="10" stroke-dasharray="3"/></g><g transform="translate(-14,2) scale(1,1)"><g><path fill="none" stroke="none"/><text fill="#000000" stroke="none" font-family="Arial" font-size="13px" font-style="normal" font-weight="normal" text-decoration="none" x="972.67236328125" y="153.5">E</text></g></g><g transform="translate(-14,2) scale(1,1)"><rect fill="#C0C0C0" stroke="none" x="734" y="305" width="200.16455078125" height="24" opacity="0.2"/></g><g transform="translate(-14,2) scale(1,1)"><rect fill="#C0C0C0" stroke="none" x="776.98388671875" y="287" width="166.1806640625" height="22" opacity="0.2"/></g><g transform="translate(-14,2) scale(1,1)"><rect fill="#ffffff" stroke="none" x="727" y="298" width="200.16455078125" height="24"/></g><g transform="translate(-14,2) scale(1,1)"><path fill="none" stroke="#000000" d="M 727 298 L 927.16455078125 298 L 927.16455078125 322 L 727 322 L 727 298 Z Z" stroke-miterlimit="10"/></g><g transform="translate(-14,2) scale(1,1)"><g><path fill="none" stroke="none"/><text fill="#000000" stroke="none" font-family="Arial" font-size="13px" font-style="normal" font-weight="bold" text-decoration="none" x="761.320556640625" y="317.5">A Model Undo Adapter</text></g></g><g transform="translate(-14,2) scale(1,1)"><rect fill="#ffffff" stroke="none" x="769.98388671875" y="280" width="166.1806640625" height="22"/></g><g transform="translate(-14,2) scale(1,1)"><path fill="none" stroke="#000000" d="M 769.98388671875 280 L 936.16455078125 280 L 936.16455078125 302 L 769.98388671875 302 L 769.98388671875 280 Z Z" stroke-miterlimit="10" stroke-dasharray="3"/></g><g transform="translate(-14,2) scale(1,1)"><g><path fill="none" stroke="none"/><text fill="#000000" stroke="none" font-family="Arial" font-size="13px" font-style="normal" font-weight="normal" text-decoration="none" x="774.98388671875" y="297.5">E = A Model Change Event</text></g></g><g transform="translate(-14,2) scale(1,1)"><path fill="none" stroke="#000000" d="M 836 279 L 849 215" stroke-miterlimit="10" stroke-dasharray="3"/></g><g transform="translate(-14,2) scale(1,1)"><path fill="#FFFFFF" stroke="none" d="M 853.2045854694151 236.59447755863482 L 849 215 L 836.7034893796105 233.24269241539326"/></g><g transform="translate(-14,2) scale(1,1)"><path fill="none" stroke="#000000" d="M 853.2045854694151 236.59447755863482 L 849 215 L 836.7034893796105 233.24269241539326 L 853.2045854694151 236.59447755863482" stroke-miterlimit="10"/></g><g transform="translate(-14,2) scale(1,1)"><rect fill="#C0C0C0" stroke="none" x="639" y="407" width="172.693359375" height="150" opacity="0.2"/></g><g transform="translate(-14,2) scale(1,1)"><rect fill="#ffd8d8" stroke="none" x="632" y="400" width="172.693359375" height="150"/></g><g transform="translate(-14,2) scale(1,1)"><path fill="none" stroke="#000000" d="M 632 400 L 804.693359375 400 L 804.693359375 550 L 632 550 L 632 400 Z Z" stroke-miterlimit="10"/></g><g transform="translate(-14,2) scale(1,1)"><path fill="none" stroke="#000000" d="M 632 453 L 804.693359375 453" stroke-miterlimit="10"/></g><g transform="translate(-14,2) scale(1,1)"><g><path fill="none" stroke="none"/><text fill="#000000" stroke="none" font-family="Arial" font-size="13px" font-style="normal" font-weight="normal" text-decoration="none" x="686.186279296875" y="417.5">«interface»</text></g></g><g transform="translate(-14,2) scale(1,1)"><g><path fill="none" stroke="none"/><text fill="#000000" stroke="none" font-family="Arial" font-size="13px" font-style="normal" font-weight="bold" text-decoration="none" x="677.153564453125" y="432.5">UndoManager</text></g></g><g transform="translate(-14,2) scale(1,1)"><g><path fill="none" stroke="none"/><text fill="#000000" stroke="none" font-family="Arial" font-size="13px" font-style="normal" font-weight="normal" text-decoration="none" x="649.34765625" y="447.5">(from javax.swing.undo)</text></g></g><g transform="translate(-14,2) scale(1,1)"><g><path fill="none" stroke="none"/><text fill="#000000" stroke="none" font-family="Arial" font-size="13px" font-style="normal" font-weight="normal" text-decoration="none" x="637" y="470.5">+addEdit(e: UndoableEdit)</text></g></g><g transform="translate(-14,2) scale(1,1)"><g><path fill="none" stroke="none"/><text fill="#000000" stroke="none" font-family="Arial" font-size="13px" font-style="normal" font-weight="normal" text-decoration="none" x="637" y="485.5">+undo()</text></g></g><g transform="translate(-14,2) scale(1,1)"><g><path fill="none" stroke="none"/><text fill="#000000" stroke="none" font-family="Arial" font-size="13px" font-style="normal" font-weight="normal" text-decoration="none" x="637" y="500.5">+redo()</text></g></g><g transform="translate(-14,2) scale(1,1)"><g><path fill="none" stroke="none"/><text fill="#000000" stroke="none" font-family="Arial" font-size="13px" font-style="normal" font-weight="normal" text-decoration="none" x="637" y="515.5">+canUndo(): boolean</text></g></g><g transform="translate(-14,2) scale(1,1)"><g><path fill="none" stroke="none"/><text fill="#000000" stroke="none" font-family="Arial" font-size="13px" font-style="normal" font-weight="normal" text-decoration="none" x="637" y="530.5">+canRedo(): boolean</text></g></g><g transform="translate(-14,2) scale(1,1)"><g><path fill="none" stroke="none"/><text fill="#000000" stroke="none" font-family="Arial" font-size="13px" font-style="normal" font-weight="normal" text-decoration="none" x="637" y="545.5">+discardAllEdits()</text></g></g><g transform="translate(-14,2) scale(1,1)"><rect fill="#C0C0C0" stroke="none" x="847" y="407" width="215.34326171875" height="135" opacity="0.2"/></g><g transform="translate(-14,2) scale(1,1)"><rect fill="#ffd8eb" stroke="none" x="840" y="400" width="215.34326171875" height="135"/></g><g transform="translate(-14,2) scale(1,1)"><path fill="none" stroke="#000000" d="M 840 400 L 1055.34326171875 400 L 1055.34326171875 535 L 840 535 L 840 400 Z Z" stroke-miterlimit="10"/></g><g transform="translate(-14,2) scale(1,1)"><path fill="none" stroke="#000000" d="M 840 453 L 1055.34326171875 453" stroke-miterlimit="10"/></g><g transform="translate(-14,2) scale(1,1)"><g><path fill="none" stroke="none"/><text fill="#000000" stroke="none" font-family="Arial" font-size="13px" font-style="normal" font-weight="normal" text-decoration="none" x="915.51123046875" y="417.5">«interface»</text></g></g><g transform="translate(-14,2) scale(1,1)"><g><path fill="none" stroke="none"/><text fill="#000000" stroke="none" font-family="Arial" font-size="13px" font-style="normal" font-weight="bold" text-decoration="none" x="908.64306640625" y="432.5">UndoableEdit</text></g></g><g transform="translate(-14,2) scale(1,1)"><g><path fill="none" stroke="none"/><text fill="#000000" stroke="none" font-family="Arial" font-size="13px" font-style="normal" font-weight="normal" text-decoration="none" x="878.672607421875" y="447.5">(from javax.swing.undo)</text></g></g><g transform="translate(-14,2) scale(1,1)"><g><path fill="none" stroke="none"/><text fill="#000000" stroke="none" font-family="Arial" font-size="13px" font-style="normal" font-weight="normal" text-decoration="none" x="845" y="470.5">+undo()</text></g></g><g transform="translate(-14,2) scale(1,1)"><g><path fill="none" stroke="none"/><text fill="#000000" stroke="none" font-family="Arial" font-size="13px" font-style="normal" font-weight="normal" text-decoration="none" x="845" y="485.5">+redo()</text></g></g><g transform="translate(-14,2) scale(1,1)"><g><path fill="none" stroke="none"/><text fill="#000000" stroke="none" font-family="Arial" font-size="13px" font-style="normal" font-weight="normal" text-decoration="none" x="845" y="500.5">+canUndo(): boolean</text></g></g><g transform="translate(-14,2) scale(1,1)"><g><path fill="none" stroke="none"/><text fill="#000000" stroke="none" font-family="Arial" font-size="13px" font-style="normal" font-weight="normal" text-decoration="none" x="845" y="515.5">+canRedo(): boolean</text></g></g><g transform="translate(-14,2) scale(1,1)"><g><path fill="none" stroke="none"/><text fill="#000000" stroke="none" font-family="Arial" font-size="13px" font-style="normal" font-weight="normal" text-decoration="none" x="845" y="530.5">+addEdit(e: UndoableEdit): boolean</text></g></g><g transform="translate(-14,2) scale(1,1)"><path fill="#C0C0C0" stroke="none" d="M 487.101318359375 58.5 C 487.101318359375 52.1487248 492.250043159375 47 498.601318359375 47 C 504.952593559375 47 510.101318359375 52.1487248 510.101318359375 58.5 C 510.101318359375 64.8512752 504.952593559375 70 498.601318359375 70 C 492.250043159375 70 487.101318359375 64.8512752 487.101318359375 58.5 Z" opacity="0.2"/></g><g transform="translate(-14,2) scale(1,1)"><path fill="#ffffff" stroke="none" d="M 480.101318359375 51.5 C 480.101318359375 45.1487248 485.250043159375 40 491.601318359375 40 C 497.952593559375 40 503.101318359375 45.1487248 503.101318359375 51.5 C 503.101318359375 57.8512752 497.952593559375 63 491.601318359375 63 C 485.250043159375 63 480.101318359375 57.8512752 480.101318359375 51.5 Z"/></g><g transform="translate(-14,2) scale(1,1)"><path fill="none" stroke="#000000" d="M 480.101318359375 51.5 C 480.101318359375 45.1487248 485.250043159375 40 491.601318359375 40 C 497.952593559375 40 503.101318359375 45.1487248 503.101318359375 51.5 C 503.101318359375 57.8512752 497.952593559375 63 491.601318359375 63 C 485.250043159375 63 480.101318359375 57.8512752 480.101318359375 51.5 Z" stroke-miterlimit="10"/></g><g transform="translate(-14,2) scale(1,1)"><g><path fill="none" stroke="none"/><text fill="#000000" stroke="none" font-family="Arial" font-size="13px" font-style="normal" font-weight="bold" text-decoration="none" x="421.878662109375" y="82.5">A User Interface Control</text></g></g><g transform="translate(-14,2) scale(1,1)"><path fill="none" stroke="#000000" d="M 491 89 L 491 144" stroke-miterlimit="10" stroke-dasharray="3"/></g><g transform="translate(-14,2) scale(1,1)"><path fill="none" stroke="#000000" d="M 486.790482243984 133.83732514237585 L 491 144 L 495.209517756016 133.83732514237585" stroke-miterlimit="10"/></g><g transform="translate(-14,2) scale(1,1)"><path fill="none" stroke="#000000" d="M 727 177 L 690 178" stroke-miterlimit="10"/></g><g transform="translate(-14,2) scale(1,1)"><path fill="#FFFFFF" stroke="none" d="M 700.0452359547176 173.5174522184309 L 690 178 L 700.2726943955399 181.93341452885946 L 711.9919693372028 177.40562245034587"/></g><g transform="translate(-14,2) scale(1,1)"><path fill="none" stroke="#000000" d="M 700.0452359547176 173.5174522184309 L 690 178 L 700.2726943955399 181.93341452885946 L 711.9919693372028 177.40562245034587 L 700.0452359547176 173.5174522184309" stroke-miterlimit="10"/></g><g transform="translate(-14,2) scale(1,1)"><rect fill="#C0C0C0" stroke="none" x="415" y="287" width="158.51904296875" height="48" opacity="0.2"/></g><g transform="translate(-14,2) scale(1,1)"><rect fill="#ffd8eb" stroke="none" x="408" y="280" width="158.51904296875" height="48"/></g><g transform="translate(-14,2) scale(1,1)"><path fill="none" stroke="#000000" d="M 408 280 L 566.51904296875 280 L 566.51904296875 328 L 408 328 L 408 280 Z Z" stroke-miterlimit="10"/></g><g transform="translate(-14,2) scale(1,1)"><g><path fill="none" stroke="none"/><text fill="#000000" stroke="none" font-family="Arial" font-size="13px" font-style="normal" font-weight="normal" text-decoration="none" x="455.09912109375" y="297.5">«interface»</text></g></g><g transform="translate(-14,2) scale(1,1)"><g><path fill="none" stroke="none"/><text fill="#000000" stroke="none" font-family="Arial" font-size="13px" font-style="normal" font-weight="bold" text-decoration="none" x="420.412353515625" y="312.5">A Model Change Event</text></g></g><g transform="translate(-14,2) scale(1,1)"><g><path fill="none" stroke="none"/><text fill="#000000" stroke="none" font-family="Arial" font-size="13px" font-style="normal" font-weight="normal" text-decoration="none" x="45" y="66">Undo Support is based on the</text><text fill="#000000" stroke="none" font-family="Arial" font-size="13px" font-style="normal" font-weight="normal" text-decoration="none" x="45" y="79">javax.swing.undo package.</text></g></g><g transform="translate(-14,2) scale(1,1)"><g><path fill="none" stroke="none"/></g></g><g transform="translate(-14,2) scale(1,1)"><g><path fill="none" stroke="none"/><text fill="#000000" stroke="none" font-family="Arial" font-size="13px" font-style="normal" font-weight="normal" text-decoration="none" x="45" y="96">The Undo Support is implemented,</text><text fill="#000000" stroke="none" font-family="Arial" font-size="13px" font-style="normal" font-weight="normal" text-decoration="none" x="45" y="109">by adding a change listener to a</text><text fill="#000000" stroke="none" font-family="Arial" font-size="13px" font-style="normal" font-weight="normal" text-decoration="none" x="45" y="122">Model of a UserInterfaceControl. </text></g></g><g transform="translate(-14,2) scale(1,1)"><g><path fill="none" stroke="none"/></g></g><g transform="translate(-14,2) scale(1,1)"><g><path fill="none" stroke="none"/><text fill="#000000" stroke="none" font-family="Arial" font-size="13px" font-style="normal" font-weight="normal" text-decoration="none" x="45" y="139">Here the change listener is shown</text><text fill="#000000" stroke="none" font-family="Arial" font-size="13px" font-style="normal" font-weight="normal" text-decoration="none" x="45" y="152">with the name ModelUndoAdapter. </text></g></g><g transform="translate(-14,2) scale(1,1)"><g><path fill="none" stroke="none"/></g></g><g transform="translate(-14,2) scale(1,1)"><g><path fill="none" stroke="none"/><text fill="#000000" stroke="none" font-family="Arial" font-size="13px" font-style="normal" font-weight="normal" text-decoration="none" x="45" y="169">The Model calls the</text><text fill="#000000" stroke="none" font-family="Arial" font-size="13px" font-style="normal" font-weight="normal" text-decoration="none" x="45" y="182">changed()-method of the</text><text fill="#000000" stroke="none" font-family="Arial" font-size="13px" font-style="normal" font-weight="normal" text-decoration="none" x="45" y="195">ChangeListener on each change of</text><text fill="#000000" stroke="none" font-family="Arial" font-size="13px" font-style="normal" font-weight="normal" text-decoration="none" x="45" y="208">the model. The type of a change</text><text fill="#000000" stroke="none" font-family="Arial" font-size="13px" font-style="normal" font-weight="normal" text-decoration="none" x="45" y="221">event is  Model-specific. Here we</text><text fill="#000000" stroke="none" font-family="Arial" font-size="13px" font-style="normal" font-weight="normal" text-decoration="none" x="45" y="234">show it as of type</text><text fill="#000000" stroke="none" font-family="Arial" font-size="13px" font-style="normal" font-weight="normal" text-decoration="none" x="45" y="247">ModelChangeEvent.</text></g></g><g transform="translate(-14,2) scale(1,1)"><g><path fill="none" stroke="none"/></g></g><g transform="translate(-14,2) scale(1,1)"><g><path fill="none" stroke="none"/><text fill="#000000" stroke="none" font-family="Arial" font-size="13px" font-style="normal" font-weight="normal" text-decoration="none" x="45" y="264">The ModelUndoAdapter change</text><text fill="#000000" stroke="none" font-family="Arial" font-size="13px" font-style="normal" font-weight="normal" text-decoration="none" x="45" y="277">listener creates an UndoableEdit</text><text fill="#000000" stroke="none" font-family="Arial" font-size="13px" font-style="normal" font-weight="normal" text-decoration="none" x="45" y="290">event for each ModelChangeEvent</text><text fill="#000000" stroke="none" font-family="Arial" font-size="13px" font-style="normal" font-weight="normal" text-decoration="none" x="45" y="303">from the Model and adds it to the</text><text fill="#000000" stroke="none" font-family="Arial" font-size="13px" font-style="normal" font-weight="normal" text-decoration="none" x="45" y="316">UndoManager.</text></g></g><g transform="translate(-14,2) scale(1,1)"><g><path fill="none" stroke="none"/></g></g><g transform="translate(-14,2) scale(1,1)"><path fill="none" stroke="#000000" d="M 847 323 L 900 399" stroke-miterlimit="10" stroke-dasharray="3"/></g><g transform="translate(-14,2) scale(1,1)"><path fill="none" stroke="#000000" d="M 890.7339855590786 393.0720175117805 L 900 399 L 897.6396549704272 388.25622173807693" stroke-miterlimit="10"/></g><g transform="translate(-14,2) scale(1,1)"><path fill="none" stroke="#000000" d="M 818 323 L 768 399" stroke-miterlimit="10"/></g><g transform="translate(-14,2) scale(1,1)"><path fill="none" stroke="#000000" d="M 770.0688707595034 388.196307400686 L 768 399 L 777.1022768422732 392.82354824461356" stroke-miterlimit="10"/></g><g transform="translate(-14,2) scale(1,1)"><path fill="none" stroke="#000000" d="M 726 302 L 568 303" stroke-miterlimit="10" stroke-dasharray="3"/></g><g transform="translate(-14,2) scale(1,1)"><path fill="none" stroke="#000000" d="M 578.1358293332945 298.72624711449913 L 568 303 L 578.1891133009754 307.1451140080688" stroke-miterlimit="10"/></g><g transform="translate(-14,2) scale(1,1)"><path fill="none" stroke="#000000" d="M 490 221 L 488 279" stroke-miterlimit="10" stroke-dasharray="3"/></g><g transform="translate(-14,2) scale(1,1)"><path fill="none" stroke="#000000" d="M 484.1432116044656 268.69829221575026 L 488 279 L 492.55724620396126 268.98843133987083" stroke-miterlimit="10"/></g></g></svg>