<svg version="1.1" xmlns="http://www.w3.org/2000/svg" width="1100" height="611"><defs/><g><g transform="translate(10,2) scale(1,1)"><path fill="none" stroke="#000000" d="M 8 8 L 1080 8 L 1080 599 L 8 599 L 8 8" stroke-miterlimit="10"/></g><g transform="translate(10,2) scale(1,1)"><path fill="#ffffff" stroke="none" d="M 8 8 L 8 30 L 254.49609375 30 L 265.49609375 19 L 265.49609375 8 L 8 8"/></g><g transform="translate(10,2) scale(1,1)"><path fill="none" stroke="#000000" d="M 8 8 L 8 30 L 254.49609375 30 L 265.49609375 19 L 265.49609375 8 L 8 8 L 8 8" stroke-miterlimit="10"/></g><g transform="translate(10,2) scale(1,1)"><g><path fill="none" stroke="none"/><text fill="#000000" stroke="none" font-family="Arial" font-size="13px" font-style="normal" font-weight="normal" text-decoration="none" x="32.72998046875" y="25.5">AbstractFactory Pattern Collaboration</text></g></g><g transform="translate(10,2) scale(1,1)"><g><path fill="none" stroke="none"/><text fill="#000000" stroke="none" font-family="Arial" font-size="13px" font-style="normal" font-weight="bold" text-decoration="none" x="13" y="25.5">sd</text></g></g><g transform="translate(10,2) scale(1,1)"><rect fill="#C0C0C0" stroke="none" x="127" y="47" width="106.39453125" height="39" opacity="0.2"/></g><g transform="translate(10,2) scale(1,1)"><rect fill="#ffffff" stroke="none" x="120" y="40" width="106.39453125" height="39"/></g><g transform="translate(10,2) scale(1,1)"><path fill="none" stroke="#000000" d="M 120 40 L 226.39453125 40 L 226.39453125 79 L 120 79 L 120 40 Z Z" stroke-miterlimit="10"/></g><g transform="translate(10,2) scale(1,1)"><g><path fill="none" stroke="none"/><text fill="#000000" stroke="none" font-family="Arial" font-size="13px" font-style="normal" font-weight="bold" text-decoration="none" x="132.734130859375" y="59.5">aClient: Client</text></g></g><g transform="translate(10,2) scale(1,1)"><path fill="none" stroke="#000000" d="M 174.5 80 L 174.5 240" stroke-miterlimit="10" stroke-dasharray="3"/></g><g transform="translate(10,2) scale(1,1)"><rect fill="#ffffff" stroke="none" x="0" y="104.5" width="14" height="14"/></g><g transform="translate(10,2) scale(1,1)"><path fill="none" stroke="#000000" d="M 0 104.5 L 14 104.5 L 14 118.5 L 0 118.5 L 0 104.5 Z Z" stroke-miterlimit="10"/></g><g transform="translate(10,2) scale(1,1)"><rect fill="#C0C0C0" stroke="none" x="327" y="47" width="184.43896484375" height="39" opacity="0.2"/></g><g transform="translate(10,2) scale(1,1)"><rect fill="#ffffff" stroke="none" x="320" y="40" width="184.43896484375" height="39"/></g><g transform="translate(10,2) scale(1,1)"><path fill="none" stroke="#000000" d="M 320 40 L 504.43896484375 40 L 504.43896484375 79 L 320 79 L 320 40 Z Z" stroke-miterlimit="10"/></g><g transform="translate(10,2) scale(1,1)"><g><path fill="none" stroke="none"/><text fill="#000000" stroke="none" font-family="Arial" font-size="13px" font-style="normal" font-weight="bold" text-decoration="none" x="335.2763671875" y="59.5">aFactory: ConcreteFactory</text></g></g><g transform="translate(10,2) scale(1,1)"><path fill="none" stroke="#000000" d="M 413.5 80 L 413.5 240" stroke-miterlimit="10" stroke-dasharray="3"/></g><g transform="translate(10,2) scale(1,1)"><rect fill="#C0C0C0" stroke="none" x="607" y="139" width="188.74267578125" height="39" opacity="0.2"/></g><g transform="translate(10,2) scale(1,1)"><rect fill="#ffffff" stroke="none" x="600" y="132" width="188.74267578125" height="39"/></g><g transform="translate(10,2) scale(1,1)"><path fill="none" stroke="#000000" d="M 600 132 L 788.74267578125 132 L 788.74267578125 171 L 600 171 L 600 132 Z Z" stroke-miterlimit="10"/></g><g transform="translate(10,2) scale(1,1)"><g><path fill="none" stroke="none"/><text fill="#000000" stroke="none" font-family="Arial" font-size="13px" font-style="normal" font-weight="bold" text-decoration="none" x="615.96826171875" y="151.5">aProduct: ConcreteProduct</text></g></g><g transform="translate(10,2) scale(1,1)"><path fill="none" stroke="#000000" d="M 695.5 172 L 695.5 224" stroke-miterlimit="10" stroke-dasharray="3"/></g><g transform="translate(10,2) scale(1,1)"><path fill="none" stroke="#000000" d="M 14 112 L 167 112" stroke-miterlimit="10"/></g><g transform="translate(10,2) scale(1,1)"><path fill="#000000" stroke="none" d="M 156.83732514237585 116.20951775601598 L 167 112 L 156.83732514237585 107.79048224398402"/></g><g transform="translate(10,2) scale(1,1)"><path fill="none" stroke="#000000" d="M 156.83732514237585 116.20951775601598 L 167 112 L 156.83732514237585 107.79048224398402 L 156.83732514237585 116.20951775601598" stroke-miterlimit="10"/></g><g transform="translate(10,2) scale(1,1)"><g><path fill="none" stroke="none"/><text fill="#000000" stroke="none" font-family="Arial" font-size="13px" font-style="normal" font-weight="normal" text-decoration="none" x="68.71630859375" y="108.5">1 : start</text></g></g><g transform="translate(10,2) scale(1,1)"><rect fill="#ffffff" stroke="none" x="167" y="112" width="13" height="80"/></g><g transform="translate(10,2) scale(1,1)"><path fill="none" stroke="#000000" d="M 167 112 L 180 112 L 180 192 L 167 192 L 167 112 Z Z" stroke-miterlimit="10"/></g><g transform="translate(10,2) scale(1,1)"><path fill="none" stroke="#000000" d="M 180 144 L 406 144" stroke-miterlimit="10"/></g><g transform="translate(10,2) scale(1,1)"><path fill="#000000" stroke="none" d="M 395.83732514237585 148.209517756016 L 406 144 L 395.83732514237585 139.790482243984"/></g><g transform="translate(10,2) scale(1,1)"><path fill="none" stroke="#000000" d="M 395.83732514237585 148.209517756016 L 406 144 L 395.83732514237585 139.790482243984 L 395.83732514237585 148.209517756016" stroke-miterlimit="10"/></g><g transform="translate(10,2) scale(1,1)"><g><path fill="none" stroke="none"/><text fill="#000000" stroke="none" font-family="Arial" font-size="13px" font-style="normal" font-weight="normal" text-decoration="none" x="239.5" y="140.5">2 : createProduct()</text></g></g><g transform="translate(10,2) scale(1,1)"><rect fill="#ffffff" stroke="none" x="406" y="144" width="13" height="28"/></g><g transform="translate(10,2) scale(1,1)"><path fill="none" stroke="#000000" d="M 406 144 L 419 144 L 419 172 L 406 172 L 406 144 Z Z" stroke-miterlimit="10"/></g><g transform="translate(10,2) scale(1,1)"><path fill="none" stroke="#000000" d="M 419 152 L 600 152" stroke-miterlimit="10" stroke-dasharray="3"/></g><g transform="translate(10,2) scale(1,1)"><path fill="none" stroke="#000000" d="M 589.8373251423759 156.209517756016 L 600 152 L 589.8373251423758 147.790482243984" stroke-miterlimit="10"/></g><g transform="translate(10,2) scale(1,1)"><g><path fill="none" stroke="none"/><text fill="#000000" stroke="none" font-family="Arial" font-size="13px" font-style="normal" font-weight="normal" text-decoration="none" x="437.5" y="148.5">3 : new ConcreteProduct</text></g></g><g transform="translate(10,2) scale(1,1)"><g><path fill="none" stroke="none"/><text fill="#000000" stroke="none" font-family="Arial" font-size="13px" font-style="normal" font-weight="normal" text-decoration="none" x="483.5" y="133.5">«create»</text></g></g><g transform="translate(10,2) scale(1,1)"><path fill="none" stroke="#000000" d="M 406 167 L 180 167" stroke-miterlimit="10" stroke-dasharray="3"/></g><g transform="translate(10,2) scale(1,1)"><path fill="none" stroke="#000000" d="M 190.16267485762415 162.790482243984 L 180 167 L 190.16267485762415 171.209517756016" stroke-miterlimit="10"/></g><g transform="translate(10,2) scale(1,1)"><g><path fill="none" stroke="none"/><text fill="#000000" stroke="none" font-family="Arial" font-size="13px" font-style="normal" font-weight="normal" text-decoration="none" x="257.430419921875" y="183.5">4 : aProduct</text></g></g></g></svg>