<svg version="1.1" xmlns="http://www.w3.org/2000/svg" width="931" height="563"><defs/><g><g transform="translate(-6,2) scale(1,1)"><path fill="none" stroke="#000000" d="M 16 8 L 927 8 L 927 551 L 16 551 L 16 8" stroke-miterlimit="10"/></g><g transform="translate(-6,2) scale(1,1)"><path fill="#ffffff" stroke="none" d="M 16 8 L 16 30 L 185.91162109375 30 L 196.91162109375 19 L 196.91162109375 8 L 16 8"/></g><g transform="translate(-6,2) scale(1,1)"><path fill="none" stroke="#000000" d="M 16 8 L 16 30 L 185.91162109375 30 L 196.91162109375 19 L 196.91162109375 8 L 16 8 L 16 8" stroke-miterlimit="10"/></g><g transform="translate(-6,2) scale(1,1)"><g><path fill="none" stroke="none"/><text fill="#000000" stroke="none" font-family="Arial" font-size="13px" font-style="normal" font-weight="normal" text-decoration="none" x="56.6181640625" y="25.5">Behavioral Patterns 1</text></g></g><g transform="translate(-6,2) scale(1,1)"><g><path fill="none" stroke="none"/><text fill="#000000" stroke="none" font-family="Arial" font-size="13px" font-style="normal" font-weight="bold" text-decoration="none" x="21" y="25.5">class</text></g></g><g transform="translate(-6,2) scale(1,1)"><rect fill="#ffffff" stroke="none" x="16" y="32" width="99" height="22"/></g><g transform="translate(-6,2) scale(1,1)"><path fill="none" stroke="#000000" d="M 16 32 L 115 32 L 115 54 L 16 54 L 16 32 Z Z" stroke-miterlimit="10"/></g><g transform="translate(-6,2) scale(1,1)"><path fill="none" stroke="#000000" d="M 48.39453125 32 L 48.39453125 54" stroke-miterlimit="10"/></g><g transform="translate(-6,2) scale(1,1)"><g><path fill="none" stroke="none"/><text fill="#000000" stroke="none" font-family="Arial" font-size="13px" font-style="normal" font-weight="normal" text-decoration="none" x="52.89453125" y="49.5">GoF1995</text></g></g><g transform="translate(-6,2) scale(1,1)"><g><path fill="none" stroke="none"/><text fill="#000000" stroke="none" font-family="Arial" font-size="13px" font-style="normal" font-weight="bold" text-decoration="none" x="22.444091796875" y="49.5">link</text></g></g><g transform="translate(-6,2) scale(1,1)"><path fill="#C0C0C0" stroke="none" d="M 79 114.5 C 79 103.7304464 129.37462763359375 95 191.514892578125 95 C 253.65515752265625 95 304.02978515625 103.7304464 304.02978515625 114.5 C 304.02978515625 125.2695536 253.65515752265625 134 191.514892578125 134 C 129.37462763359375 134 79 125.2695536 79 114.5 Z" opacity="0.2"/></g><g transform="translate(-6,2) scale(1,1)"><path fill="#ffffff" stroke="none" d="M 72 107.5 C 72 96.7304464 122.37462763359375 88 184.514892578125 88 C 246.65515752265625 88 297.02978515625 96.7304464 297.02978515625 107.5 C 297.02978515625 118.2695536 246.65515752265625 127 184.514892578125 127 C 122.37462763359375 127 72 118.2695536 72 107.5 Z"/></g><g transform="translate(-6,2) scale(1,1)"><path fill="none" stroke="#000000" d="M 72 107.5 C 72 96.7304464 122.37462763359375 88 184.514892578125 88 C 246.65515752265625 88 297.02978515625 96.7304464 297.02978515625 107.5 C 297.02978515625 118.2695536 246.65515752265625 127 184.514892578125 127 C 122.37462763359375 127 72 118.2695536 72 107.5 Z" stroke-miterlimit="10" stroke-dasharray="5"/></g><g transform="translate(-6,2) scale(1,1)"><g><path fill="none" stroke="none"/><text fill="#000000" stroke="none" font-family="Arial" font-size="13px" font-style="normal" font-weight="bold" text-decoration="none" x="95.635009765625" y="107.5">Chain of Responsibility Pattern</text></g></g><g transform="translate(-6,2) scale(1,1)"><path fill="#C0C0C0" stroke="none" d="M 79 191.5 C 79 180.7304464 129.37462763359375 172 191.514892578125 172 C 253.65515752265625 172 304.02978515625 180.7304464 304.02978515625 191.5 C 304.02978515625 202.2695536 253.65515752265625 211 191.514892578125 211 C 129.37462763359375 211 79 202.2695536 79 191.5 Z" opacity="0.2"/></g><g transform="translate(-6,2) scale(1,1)"><path fill="#ffffff" stroke="none" d="M 72 184.5 C 72 173.7304464 122.37462763359375 165 184.514892578125 165 C 246.65515752265625 165 297.02978515625 173.7304464 297.02978515625 184.5 C 297.02978515625 195.2695536 246.65515752265625 204 184.514892578125 204 C 122.37462763359375 204 72 195.2695536 72 184.5 Z"/></g><g transform="translate(-6,2) scale(1,1)"><path fill="none" stroke="#000000" d="M 72 184.5 C 72 173.7304464 122.37462763359375 165 184.514892578125 165 C 246.65515752265625 165 297.02978515625 173.7304464 297.02978515625 184.5 C 297.02978515625 195.2695536 246.65515752265625 204 184.514892578125 204 C 122.37462763359375 204 72 195.2695536 72 184.5 Z" stroke-miterlimit="10" stroke-dasharray="5"/></g><g transform="translate(-6,2) scale(1,1)"><g><path fill="none" stroke="none"/><text fill="#000000" stroke="none" font-family="Arial" font-size="13px" font-style="normal" font-weight="bold" text-decoration="none" x="131.76904296875" y="184.5">Command Pattern</text></g></g><g transform="translate(-6,2) scale(1,1)"><path fill="#C0C0C0" stroke="none" d="M 79 268.5 C 79 257.7304464 129.37462763359375 249 191.514892578125 249 C 253.65515752265625 249 304.02978515625 257.7304464 304.02978515625 268.5 C 304.02978515625 279.2695536 253.65515752265625 288 191.514892578125 288 C 129.37462763359375 288 79 279.2695536 79 268.5 Z" opacity="0.2"/></g><g transform="translate(-6,2) scale(1,1)"><path fill="#ffffff" stroke="none" d="M 72 261.5 C 72 250.7304464 122.37462763359375 242 184.514892578125 242 C 246.65515752265625 242 297.02978515625 250.7304464 297.02978515625 261.5 C 297.02978515625 272.2695536 246.65515752265625 281 184.514892578125 281 C 122.37462763359375 281 72 272.2695536 72 261.5 Z"/></g><g transform="translate(-6,2) scale(1,1)"><path fill="none" stroke="#000000" d="M 72 261.5 C 72 250.7304464 122.37462763359375 242 184.514892578125 242 C 246.65515752265625 242 297.02978515625 250.7304464 297.02978515625 261.5 C 297.02978515625 272.2695536 246.65515752265625 281 184.514892578125 281 C 122.37462763359375 281 72 272.2695536 72 261.5 Z" stroke-miterlimit="10" stroke-dasharray="5"/></g><g transform="translate(-6,2) scale(1,1)"><g><path fill="none" stroke="none"/><text fill="#000000" stroke="none" font-family="Arial" font-size="13px" font-style="normal" font-weight="bold" text-decoration="none" x="131.765869140625" y="261.5">Interpreter Pattern</text></g></g><g transform="translate(-6,2) scale(1,1)"><path fill="#C0C0C0" stroke="none" d="M 79 345.5 C 79 334.7304464 129.37462763359375 326 191.514892578125 326 C 253.65515752265625 326 304.02978515625 334.7304464 304.02978515625 345.5 C 304.02978515625 356.2695536 253.65515752265625 365 191.514892578125 365 C 129.37462763359375 365 79 356.2695536 79 345.5 Z" opacity="0.2"/></g><g transform="translate(-6,2) scale(1,1)"><path fill="#ffffff" stroke="none" d="M 72 338.5 C 72 327.7304464 122.37462763359375 319 184.514892578125 319 C 246.65515752265625 319 297.02978515625 327.7304464 297.02978515625 338.5 C 297.02978515625 349.2695536 246.65515752265625 358 184.514892578125 358 C 122.37462763359375 358 72 349.2695536 72 338.5 Z"/></g><g transform="translate(-6,2) scale(1,1)"><path fill="none" stroke="#000000" d="M 72 338.5 C 72 327.7304464 122.37462763359375 319 184.514892578125 319 C 246.65515752265625 319 297.02978515625 327.7304464 297.02978515625 338.5 C 297.02978515625 349.2695536 246.65515752265625 358 184.514892578125 358 C 122.37462763359375 358 72 349.2695536 72 338.5 Z" stroke-miterlimit="10" stroke-dasharray="5"/></g><g transform="translate(-6,2) scale(1,1)"><g><path fill="none" stroke="none"/><text fill="#000000" stroke="none" font-family="Arial" font-size="13px" font-style="normal" font-weight="bold" text-decoration="none" x="141.160400390625" y="338.5">Iterator Pattern</text></g></g><g transform="translate(-6,2) scale(1,1)"><path fill="#C0C0C0" stroke="none" d="M 79 422.5 C 79 411.7304464 129.37462763359375 403 191.514892578125 403 C 253.65515752265625 403 304.02978515625 411.7304464 304.02978515625 422.5 C 304.02978515625 433.2695536 253.65515752265625 442 191.514892578125 442 C 129.37462763359375 442 79 433.2695536 79 422.5 Z" opacity="0.2"/></g><g transform="translate(-6,2) scale(1,1)"><path fill="#ffffff" stroke="none" d="M 72 415.5 C 72 404.7304464 122.37462763359375 396 184.514892578125 396 C 246.65515752265625 396 297.02978515625 404.7304464 297.02978515625 415.5 C 297.02978515625 426.2695536 246.65515752265625 435 184.514892578125 435 C 122.37462763359375 435 72 426.2695536 72 415.5 Z"/></g><g transform="translate(-6,2) scale(1,1)"><path fill="none" stroke="#000000" d="M 72 415.5 C 72 404.7304464 122.37462763359375 396 184.514892578125 396 C 246.65515752265625 396 297.02978515625 404.7304464 297.02978515625 415.5 C 297.02978515625 426.2695536 246.65515752265625 435 184.514892578125 435 C 122.37462763359375 435 72 426.2695536 72 415.5 Z" stroke-miterlimit="10" stroke-dasharray="5"/></g><g transform="translate(-6,2) scale(1,1)"><g><path fill="none" stroke="none"/><text fill="#000000" stroke="none" font-family="Arial" font-size="13px" font-style="normal" font-weight="bold" text-decoration="none" x="136.463134765625" y="415.5">Mediator Pattern</text></g></g><g transform="translate(-6,2) scale(1,1)"><path fill="#C0C0C0" stroke="none" d="M 79 499.5 C 79 488.7304464 129.37462763359375 480 191.514892578125 480 C 253.65515752265625 480 304.02978515625 488.7304464 304.02978515625 499.5 C 304.02978515625 510.2695536 253.65515752265625 519 191.514892578125 519 C 129.37462763359375 519 79 510.2695536 79 499.5 Z" opacity="0.2"/></g><g transform="translate(-6,2) scale(1,1)"><path fill="#ffffff" stroke="none" d="M 72 492.5 C 72 481.7304464 122.37462763359375 473 184.514892578125 473 C 246.65515752265625 473 297.02978515625 481.7304464 297.02978515625 492.5 C 297.02978515625 503.2695536 246.65515752265625 512 184.514892578125 512 C 122.37462763359375 512 72 503.2695536 72 492.5 Z"/></g><g transform="translate(-6,2) scale(1,1)"><path fill="none" stroke="#000000" d="M 72 492.5 C 72 481.7304464 122.37462763359375 473 184.514892578125 473 C 246.65515752265625 473 297.02978515625 481.7304464 297.02978515625 492.5 C 297.02978515625 503.2695536 246.65515752265625 512 184.514892578125 512 C 122.37462763359375 512 72 503.2695536 72 492.5 Z" stroke-miterlimit="10" stroke-dasharray="5"/></g><g transform="translate(-6,2) scale(1,1)"><g><path fill="none" stroke="none"/><text fill="#000000" stroke="none" font-family="Arial" font-size="13px" font-style="normal" font-weight="bold" text-decoration="none" x="134.6572265625" y="492.5">Memento Pattern</text></g></g><g transform="translate(-6,2) scale(1,1)"><path fill="#ffffff" stroke="none" d="M 320 79 L 741 79 L 751 89 L 751 141 L 320 141 L 320 79"/></g><g transform="translate(-6,2) scale(1,1)"><path fill="none" stroke="#000000" d="M 320 79 L 741 79 L 751 89 L 751 141 L 320 141 L 320 79 L 320 79" stroke-miterlimit="10"/></g><g transform="translate(-6,2) scale(1,1)"><path fill="none" stroke="#000000" d="M 741 79 L 741 89 L 751 89 L 741 79" stroke-miterlimit="10"/></g><g transform="translate(-6,2) scale(1,1)"><g><path fill="none" stroke="none"/><text fill="#000000" stroke="none" font-family="Arial" font-size="13px" font-style="normal" font-weight="normal" text-decoration="none" x="325" y="97">{Avoid coupling the sender of a request to its receiver by giving more</text><text fill="#000000" stroke="none" font-family="Arial" font-size="13px" font-style="normal" font-weight="normal" text-decoration="none" x="325" y="110">than one object a chance to handle the request. Chain the receiving</text><text fill="#000000" stroke="none" font-family="Arial" font-size="13px" font-style="normal" font-weight="normal" text-decoration="none" x="325" y="123">objects and pass the request along the chain until an object handles it.}</text></g></g><g transform="translate(-6,2) scale(1,1)"><path fill="none" stroke="#000000" d="M 319 108 L 298 108" stroke-miterlimit="10" stroke-dasharray="3"/></g><g transform="translate(-6,2) scale(1,1)"><path fill="#ffffff" stroke="none" d="M 320 156 L 741 156 L 751 166 L 751 218 L 320 218 L 320 156"/></g><g transform="translate(-6,2) scale(1,1)"><path fill="none" stroke="#000000" d="M 320 156 L 741 156 L 751 166 L 751 218 L 320 218 L 320 156 L 320 156" stroke-miterlimit="10"/></g><g transform="translate(-6,2) scale(1,1)"><path fill="none" stroke="#000000" d="M 741 156 L 741 166 L 751 166 L 741 156" stroke-miterlimit="10"/></g><g transform="translate(-6,2) scale(1,1)"><g><path fill="none" stroke="none"/><text fill="#000000" stroke="none" font-family="Arial" font-size="13px" font-style="normal" font-weight="normal" text-decoration="none" x="325" y="174">{Encapsulate a request as an object, thereby letting you parameterize</text><text fill="#000000" stroke="none" font-family="Arial" font-size="13px" font-style="normal" font-weight="normal" text-decoration="none" x="325" y="187">clients with different requests, queue or log requests, and support</text><text fill="#000000" stroke="none" font-family="Arial" font-size="13px" font-style="normal" font-weight="normal" text-decoration="none" x="325" y="200">undoable operations.}</text></g></g><g transform="translate(-6,2) scale(1,1)"><path fill="none" stroke="#000000" d="M 319 185 L 298 185" stroke-miterlimit="10" stroke-dasharray="3"/></g><g transform="translate(-6,2) scale(1,1)"><path fill="#ffffff" stroke="none" d="M 320 233 L 741 233 L 751 243 L 751 295 L 320 295 L 320 233"/></g><g transform="translate(-6,2) scale(1,1)"><path fill="none" stroke="#000000" d="M 320 233 L 741 233 L 751 243 L 751 295 L 320 295 L 320 233 L 320 233" stroke-miterlimit="10"/></g><g transform="translate(-6,2) scale(1,1)"><path fill="none" stroke="#000000" d="M 741 233 L 741 243 L 751 243 L 741 233" stroke-miterlimit="10"/></g><g transform="translate(-6,2) scale(1,1)"><g><path fill="none" stroke="none"/><text fill="#000000" stroke="none" font-family="Arial" font-size="13px" font-style="normal" font-weight="normal" text-decoration="none" x="325" y="251">{Given a language, define a represention for its grammar along with an</text><text fill="#000000" stroke="none" font-family="Arial" font-size="13px" font-style="normal" font-weight="normal" text-decoration="none" x="325" y="264">interpreter that uses the representation to interpret sentences in the</text><text fill="#000000" stroke="none" font-family="Arial" font-size="13px" font-style="normal" font-weight="normal" text-decoration="none" x="325" y="277">language.}</text></g></g><g transform="translate(-6,2) scale(1,1)"><path fill="none" stroke="#000000" d="M 319 262 L 298 262" stroke-miterlimit="10" stroke-dasharray="3"/></g><g transform="translate(-6,2) scale(1,1)"><path fill="#ffffff" stroke="none" d="M 320 310 L 741 310 L 751 320 L 751 372 L 320 372 L 320 310"/></g><g transform="translate(-6,2) scale(1,1)"><path fill="none" stroke="#000000" d="M 320 310 L 741 310 L 751 320 L 751 372 L 320 372 L 320 310 L 320 310" stroke-miterlimit="10"/></g><g transform="translate(-6,2) scale(1,1)"><path fill="none" stroke="#000000" d="M 741 310 L 741 320 L 751 320 L 741 310" stroke-miterlimit="10"/></g><g transform="translate(-6,2) scale(1,1)"><g><path fill="none" stroke="none"/><text fill="#000000" stroke="none" font-family="Arial" font-size="13px" font-style="normal" font-weight="normal" text-decoration="none" x="325" y="328">{Provide a way to access the elements of an aggregate object</text><text fill="#000000" stroke="none" font-family="Arial" font-size="13px" font-style="normal" font-weight="normal" text-decoration="none" x="325" y="341">sequentially without exposing its underlying representation.}</text></g></g><g transform="translate(-6,2) scale(1,1)"><path fill="none" stroke="#000000" d="M 319 339 L 298 339" stroke-miterlimit="10" stroke-dasharray="3"/></g><g transform="translate(-6,2) scale(1,1)"><path fill="#ffffff" stroke="none" d="M 320 387 L 741 387 L 751 397 L 751 449 L 320 449 L 320 387"/></g><g transform="translate(-6,2) scale(1,1)"><path fill="none" stroke="#000000" d="M 320 387 L 741 387 L 751 397 L 751 449 L 320 449 L 320 387 L 320 387" stroke-miterlimit="10"/></g><g transform="translate(-6,2) scale(1,1)"><path fill="none" stroke="#000000" d="M 741 387 L 741 397 L 751 397 L 741 387" stroke-miterlimit="10"/></g><g transform="translate(-6,2) scale(1,1)"><g><path fill="none" stroke="none"/><text fill="#000000" stroke="none" font-family="Arial" font-size="13px" font-style="normal" font-weight="normal" text-decoration="none" x="325" y="405">{Define an object that encapsulates how a set of objects interact.</text><text fill="#000000" stroke="none" font-family="Arial" font-size="13px" font-style="normal" font-weight="normal" text-decoration="none" x="325" y="418">Mediator promotes loose coupling by keeping objects from referring to</text><text fill="#000000" stroke="none" font-family="Arial" font-size="13px" font-style="normal" font-weight="normal" text-decoration="none" x="325" y="431">each other explicitly, and it lets you vary their interaction independently.}</text></g></g><g transform="translate(-6,2) scale(1,1)"><path fill="none" stroke="#000000" d="M 319 416 L 298 416" stroke-miterlimit="10" stroke-dasharray="3"/></g><g transform="translate(-6,2) scale(1,1)"><path fill="#ffffff" stroke="none" d="M 320 464 L 741 464 L 751 474 L 751 526 L 320 526 L 320 464"/></g><g transform="translate(-6,2) scale(1,1)"><path fill="none" stroke="#000000" d="M 320 464 L 741 464 L 751 474 L 751 526 L 320 526 L 320 464 L 320 464" stroke-miterlimit="10"/></g><g transform="translate(-6,2) scale(1,1)"><path fill="none" stroke="#000000" d="M 741 464 L 741 474 L 751 474 L 741 464" stroke-miterlimit="10"/></g><g transform="translate(-6,2) scale(1,1)"><g><path fill="none" stroke="none"/><text fill="#000000" stroke="none" font-family="Arial" font-size="13px" font-style="normal" font-weight="normal" text-decoration="none" x="325" y="482">{Without violating encapsulation, capture and externalize an object’s</text><text fill="#000000" stroke="none" font-family="Arial" font-size="13px" font-style="normal" font-weight="normal" text-decoration="none" x="325" y="495">internal state so that the object can be restored to this state later.}</text></g></g><g transform="translate(-6,2) scale(1,1)"><path fill="none" stroke="#000000" d="M 319 493 L 298 493" stroke-miterlimit="10" stroke-dasharray="3"/></g></g></svg>