<svg version="1.1" xmlns="http://www.w3.org/2000/svg" xmlns:xlink="http://www.w3.org/1999/xlink" width="899" height="579"><defs/><g><g transform="translate(-22,-198) scale(1,1)"><path fill="none" stroke="#000000" d="M 32 208 L 911 208 L 911 767 L 32 767 L 32 208" stroke-miterlimit="10"/></g><g transform="translate(-22,-198) scale(1,1)"><path fill="#ffffff" stroke="none" d="M 32 208 L 32 230 L 164.32080078125 230 L 175.32080078125 219 L 175.32080078125 208 L 32 208"/></g><g transform="translate(-22,-198) scale(1,1)"><path fill="none" stroke="#000000" d="M 32 208 L 32 230 L 164.32080078125 230 L 175.32080078125 219 L 175.32080078125 208 L 32 208 L 32 208" stroke-miterlimit="10"/></g><g transform="translate(-22,-198) scale(1,1)"><g><path fill="none" stroke="none"/><text fill="#000000" stroke="none" font-family="Arial" font-size="13px" font-style="normal" font-weight="normal" text-decoration="none" x="72.6181640625" y="225.5">Size in JavaFX</text></g></g><g transform="translate(-22,-198) scale(1,1)"><g><path fill="none" stroke="none"/><text fill="#000000" stroke="none" font-family="Arial" font-size="13px" font-style="normal" font-weight="bold" text-decoration="none" x="37" y="225.5">class</text></g></g><g transform="translate(-22,-198) scale(1,1)"><rect fill="#C0C0C0" stroke="none" x="111" y="391" width="218.193359375" height="100" opacity="0.2"/></g><g transform="translate(-22,-198) scale(1,1)"><rect fill="#ffffff" stroke="none" x="104" y="384" width="218.193359375" height="100"/></g><g transform="translate(-22,-198) scale(1,1)"><path fill="none" stroke="#000000" d="M 104 384 L 322.193359375 384 L 322.193359375 484 L 104 484 L 104 384 Z Z" stroke-miterlimit="10"/></g><g transform="translate(-22,-198) scale(1,1)"><path fill="none" stroke="#000000" d="M 104 424 L 322.193359375 424" stroke-miterlimit="10"/></g><g transform="translate(-22,-198) scale(1,1)"><path fill="none" stroke="#000000" d="M 104 462 L 322.193359375 462" stroke-miterlimit="10"/></g><g transform="translate(-22,-198) scale(1,1)"><g><path fill="none" stroke="none"/><text fill="#000000" stroke="none" font-family="Arial" font-size="13px" font-style="normal" font-weight="bold" text-decoration="none" x="200.4521484375" y="403.5">Size</text></g></g><g transform="translate(-22,-198) scale(1,1)"><g><path fill="none" stroke="none"/><text fill="#000000" stroke="none" font-family="Arial" font-size="13px" font-style="normal" font-weight="normal" text-decoration="none" x="165.42578125" y="418.5">(from javafx.css)</text></g></g><g transform="translate(-22,-198) scale(1,1)"><g><path fill="none" stroke="none"/><text fill="#000000" stroke="none" font-family="Arial" font-size="13px" font-style="normal" font-weight="normal" text-decoration="none" x="109" y="441.5">+value: double {readOnly}</text></g></g><g transform="translate(-22,-198) scale(1,1)"><g><path fill="none" stroke="none"/><text fill="#000000" stroke="none" font-family="Arial" font-size="13px" font-style="normal" font-weight="normal" text-decoration="none" x="109" y="456.5">+units: SizeUnit {readOnly}</text></g></g><g transform="translate(-22,-198) scale(1,1)"><g><path fill="none" stroke="none"/><text fill="#000000" stroke="none" font-family="Arial" font-size="13px" font-style="normal" font-weight="normal" text-decoration="none" x="109" y="479.5">+Size(value: double, units: SizeUnit)</text></g></g><g transform="translate(-22,-198) scale(1,1)"><rect fill="#C0C0C0" stroke="none" x="399" y="391" width="351.18310546875" height="323" opacity="0.2"/></g><g transform="translate(-22,-198) scale(1,1)"><rect fill="#ffffff" stroke="none" x="392" y="384" width="351.18310546875" height="323"/></g><g transform="translate(-22,-198) scale(1,1)"><path fill="none" stroke="#000000" d="M 392 384 L 743.18310546875 384 L 743.18310546875 707 L 392 707 L 392 384 Z Z" stroke-miterlimit="10"/></g><g transform="translate(-22,-198) scale(1,1)"><path fill="none" stroke="#000000" d="M 392 655 L 743.18310546875 655" stroke-miterlimit="10"/></g><g transform="translate(-22,-198) scale(1,1)"><path fill="none" stroke="#000000" d="M 392 437 L 743.18310546875 437" stroke-miterlimit="10"/></g><g transform="translate(-22,-198) scale(1,1)"><g><path fill="none" stroke="none"/><text fill="#000000" stroke="none" font-family="Arial" font-size="13px" font-style="normal" font-weight="normal" text-decoration="none" x="524.2275390625" y="401.5">«enumeration»</text></g></g><g transform="translate(-22,-198) scale(1,1)"><g><path fill="none" stroke="none"/><text fill="#000000" stroke="none" font-family="Arial" font-size="13px" font-style="normal" font-weight="bold" text-decoration="none" x="543.387939453125" y="416.5">SizeUnit</text></g></g><g transform="translate(-22,-198) scale(1,1)"><g><path fill="none" stroke="none"/><text fill="#000000" stroke="none" font-family="Arial" font-size="13px" font-style="normal" font-weight="normal" text-decoration="none" x="519.920654296875" y="431.5">(from javafx.css)</text></g></g><g transform="translate(-22,-198) scale(1,1)"><g><path fill="none" stroke="none"/><text fill="#000000" stroke="none" font-family="Arial" font-size="13px" font-style="normal" font-weight="normal" text-decoration="none" x="397" y="672.5">+points(value: double, multiplier: double, font: Font): double</text></g></g><g transform="translate(-22,-198) scale(1,1)"><g><path fill="none" stroke="none"/><text fill="#000000" stroke="none" font-family="Arial" font-size="13px" font-style="normal" font-weight="normal" text-decoration="none" x="397" y="687.5">+pixels(value: double, multiplier: double, font: Font): double</text></g></g><g transform="translate(-22,-198) scale(1,1)"><g><path fill="none" stroke="none"/><text fill="#000000" stroke="none" font-family="Arial" font-size="13px" font-style="normal" font-weight="normal" text-decoration="none" x="397" y="454.5">CM</text></g></g><g transform="translate(-22,-198) scale(1,1)"><g><path fill="none" stroke="none"/><text fill="#000000" stroke="none" font-family="Arial" font-size="13px" font-style="normal" font-weight="normal" text-decoration="none" x="397" y="469.5">DEG</text></g></g><g transform="translate(-22,-198) scale(1,1)"><g><path fill="none" stroke="none"/><text fill="#000000" stroke="none" font-family="Arial" font-size="13px" font-style="normal" font-weight="normal" text-decoration="none" x="397" y="484.5">EM</text></g></g><g transform="translate(-22,-198) scale(1,1)"><g><path fill="none" stroke="none"/><text fill="#000000" stroke="none" font-family="Arial" font-size="13px" font-style="normal" font-weight="normal" text-decoration="none" x="397" y="499.5">EX</text></g></g><g transform="translate(-22,-198) scale(1,1)"><g><path fill="none" stroke="none"/><text fill="#000000" stroke="none" font-family="Arial" font-size="13px" font-style="normal" font-weight="normal" text-decoration="none" x="397" y="514.5">GRAD</text></g></g><g transform="translate(-22,-198) scale(1,1)"><g><path fill="none" stroke="none"/><text fill="#000000" stroke="none" font-family="Arial" font-size="13px" font-style="normal" font-weight="normal" text-decoration="none" x="397" y="529.5">IN</text></g></g><g transform="translate(-22,-198) scale(1,1)"><g><path fill="none" stroke="none"/><text fill="#000000" stroke="none" font-family="Arial" font-size="13px" font-style="normal" font-weight="normal" text-decoration="none" x="397" y="544.5">MM</text></g></g><g transform="translate(-22,-198) scale(1,1)"><g><path fill="none" stroke="none"/><text fill="#000000" stroke="none" font-family="Arial" font-size="13px" font-style="normal" font-weight="normal" text-decoration="none" x="397" y="559.5">PC</text></g></g><g transform="translate(-22,-198) scale(1,1)"><g><path fill="none" stroke="none"/><text fill="#000000" stroke="none" font-family="Arial" font-size="13px" font-style="normal" font-weight="normal" text-decoration="none" x="397" y="574.5">PERCENT</text></g></g><g transform="translate(-22,-198) scale(1,1)"><g><path fill="none" stroke="none"/><text fill="#000000" stroke="none" font-family="Arial" font-size="13px" font-style="normal" font-weight="normal" text-decoration="none" x="397" y="589.5">PT</text></g></g><g transform="translate(-22,-198) scale(1,1)"><g><path fill="none" stroke="none"/><text fill="#000000" stroke="none" font-family="Arial" font-size="13px" font-style="normal" font-weight="normal" text-decoration="none" x="397" y="604.5">PX</text></g></g><g transform="translate(-22,-198) scale(1,1)"><g><path fill="none" stroke="none"/><text fill="#000000" stroke="none" font-family="Arial" font-size="13px" font-style="normal" font-weight="normal" text-decoration="none" x="397" y="619.5">RAD</text></g></g><g transform="translate(-22,-198) scale(1,1)"><g><path fill="none" stroke="none"/><text fill="#000000" stroke="none" font-family="Arial" font-size="13px" font-style="normal" font-weight="normal" text-decoration="none" x="397" y="634.5">S</text></g></g><g transform="translate(-22,-198) scale(1,1)"><g><path fill="none" stroke="none"/><text fill="#000000" stroke="none" font-family="Arial" font-size="13px" font-style="normal" font-weight="normal" text-decoration="none" x="397" y="649.5">TURN</text></g></g><g transform="translate(-22,-198) scale(1,1)"><path fill="#ffffff" stroke="none" d="M 504 248 L 582.82080078125 248 L 592.82080078125 258 L 592.82080078125 364 L 504 364 L 504 248"/></g><g transform="translate(-22,-198) scale(1,1)"><path fill="none" stroke="#000000" d="M 504 248 L 582.82080078125 248 L 592.82080078125 258 L 592.82080078125 364 L 504 364 L 504 248 L 504 248" stroke-miterlimit="10"/></g><g transform="translate(-22,-198) scale(1,1)"><path fill="none" stroke="#000000" d="M 582.82080078125 248 L 582.82080078125 258 L 592.82080078125 258 L 582.82080078125 248" stroke-miterlimit="10"/></g><g transform="translate(-22,-198) scale(1,1)"><g><path fill="none" stroke="none"/><text fill="#000000" stroke="none" font-family="Arial" font-size="13px" font-style="normal" font-weight="normal" text-decoration="none" x="509" y="266">{Represents</text><text fill="#000000" stroke="none" font-family="Arial" font-size="13px" font-style="normal" font-weight="normal" text-decoration="none" x="509" y="279">a unit of a</text><text fill="#000000" stroke="none" font-family="Arial" font-size="13px" font-style="normal" font-weight="normal" text-decoration="none" x="509" y="292">size, such as</text><text fill="#000000" stroke="none" font-family="Arial" font-size="13px" font-style="normal" font-weight="normal" text-decoration="none" x="509" y="305">"px" or "em".</text></g></g><g transform="translate(-22,-198) scale(1,1)"><g><path fill="none" stroke="none"/><text fill="#000000" stroke="none" font-family="Arial" font-size="13px" font-style="normal" font-weight="normal" text-decoration="none" x="509" y="320">Provides</text><text fill="#000000" stroke="none" font-family="Arial" font-size="13px" font-style="normal" font-weight="normal" text-decoration="none" x="509" y="333">conversion</text><text fill="#000000" stroke="none" font-family="Arial" font-size="13px" font-style="normal" font-weight="normal" text-decoration="none" x="509" y="346">methods.}</text></g></g><g transform="translate(-22,-198) scale(1,1)"><path fill="none" stroke="#000000" d="M 553 366 L 554 383" stroke-miterlimit="10" stroke-dasharray="3"/></g><g transform="translate(-22,-198) scale(1,1)"><path fill="#ffffff" stroke="none" d="M 136 272 L 283 272 L 293 282 L 293 335 L 136 335 L 136 272"/></g><g transform="translate(-22,-198) scale(1,1)"><path fill="none" stroke="#000000" d="M 136 272 L 283 272 L 293 282 L 293 335 L 136 335 L 136 272 L 136 272" stroke-miterlimit="10"/></g><g transform="translate(-22,-198) scale(1,1)"><path fill="none" stroke="#000000" d="M 283 272 L 283 282 L 293 282 L 283 272" stroke-miterlimit="10"/></g><g transform="translate(-22,-198) scale(1,1)"><g><path fill="none" stroke="none"/><text fill="#000000" stroke="none" font-family="Arial" font-size="13px" font-style="normal" font-weight="normal" text-decoration="none" x="141" y="290">{Represents a size</text><text fill="#000000" stroke="none" font-family="Arial" font-size="13px" font-style="normal" font-weight="normal" text-decoration="none" x="141" y="303">specified in a particular</text><text fill="#000000" stroke="none" font-family="Arial" font-size="13px" font-style="normal" font-weight="normal" text-decoration="none" x="141" y="316">unit, such as 14px or</text><text fill="#000000" stroke="none" font-family="Arial" font-size="13px" font-style="normal" font-weight="normal" text-decoration="none" x="141" y="329">0.2em.}</text></g></g><g transform="translate(-22,-198) scale(1,1)"><path fill="none" stroke="#000000" d="M 214 337 L 214 383" stroke-miterlimit="10" stroke-dasharray="3"/></g><g transform="translate(-22,-198) scale(1,1)"><path fill="none" stroke="#000000" d="M 391 490 L 323 469" stroke-miterlimit="10"/></g><g transform="translate(-22,-198) scale(1,1)"><path fill="#000000" stroke="none" d="M 333.9522939334769 467.9766439550547 L 323 469 L 331.4680633088588 476.0208193109607 L 344.02044320599606 475.49160746067525"/></g><g transform="translate(-22,-198) scale(1,1)"><path fill="none" stroke="#000000" d="M 333.9522939334769 467.9766439550547 L 323 469 L 331.4680633088588 476.0208193109607 L 344.02044320599606 475.49160746067525 L 333.9522939334769 467.9766439550547" stroke-miterlimit="10"/></g></g></svg>