<svg version="1.1" xmlns="http://www.w3.org/2000/svg" xmlns:xlink="http://www.w3.org/1999/xlink" width="899" height="579"><defs/><g><g transform="translate(-14,-150) scale(1,1)"><path fill="none" stroke="#000000" d="M 24 160 L 903 160 L 903 719 L 24 719 L 24 160" stroke-miterlimit="10"/></g><g transform="translate(-14,-150) scale(1,1)"><path fill="#ffffff" stroke="none" d="M 24 160 L 24 182 L 253.12255859375 182 L 264.12255859375 171 L 264.12255859375 160 L 24 160"/></g><g transform="translate(-14,-150) scale(1,1)"><path fill="none" stroke="#000000" d="M 24 160 L 24 182 L 253.12255859375 182 L 264.12255859375 171 L 264.12255859375 160 L 24 160 L 24 160" stroke-miterlimit="10"/></g><g transform="translate(-14,-150) scale(1,1)"><g><path fill="none" stroke="none"/><text fill="#000000" stroke="none" font-family="Arial" font-size="13px" font-style="normal" font-weight="normal" text-decoration="none" x="64.6181640625" y="177.5">CSS Size in JavaFX - Problems</text></g></g><g transform="translate(-14,-150) scale(1,1)"><g><path fill="none" stroke="none"/><text fill="#000000" stroke="none" font-family="Arial" font-size="13px" font-style="normal" font-weight="bold" text-decoration="none" x="29" y="177.5">class</text></g></g><g transform="translate(-14,-150) scale(1,1)"><rect fill="#C0C0C0" stroke="none" x="239" y="391" width="218.193359375" height="100" opacity="0.2"/></g><g transform="translate(-14,-150) scale(1,1)"><rect fill="#ffffff" stroke="none" x="232" y="384" width="218.193359375" height="100"/></g><g transform="translate(-14,-150) scale(1,1)"><path fill="none" stroke="#000000" d="M 232 384 L 450.193359375 384 L 450.193359375 484 L 232 484 L 232 384 Z Z" stroke-miterlimit="10"/></g><g transform="translate(-14,-150) scale(1,1)"><path fill="none" stroke="#000000" d="M 232 424 L 450.193359375 424" stroke-miterlimit="10"/></g><g transform="translate(-14,-150) scale(1,1)"><path fill="none" stroke="#000000" d="M 232 462 L 450.193359375 462" stroke-miterlimit="10"/></g><g transform="translate(-14,-150) scale(1,1)"><g><path fill="none" stroke="none"/><text fill="#000000" stroke="none" font-family="Arial" font-size="13px" font-style="normal" font-weight="bold" text-decoration="none" x="328.4521484375" y="403.5">Size</text></g></g><g transform="translate(-14,-150) scale(1,1)"><g><path fill="none" stroke="none"/><text fill="#000000" stroke="none" font-family="Arial" font-size="13px" font-style="normal" font-weight="normal" text-decoration="none" x="293.42578125" y="418.5">(from javafx.css)</text></g></g><g transform="translate(-14,-150) scale(1,1)"><g><path fill="none" stroke="none"/><text fill="#000000" stroke="none" font-family="Arial" font-size="13px" font-style="normal" font-weight="normal" text-decoration="none" x="237" y="441.5">+value: double {readOnly}</text></g></g><g transform="translate(-14,-150) scale(1,1)"><g><path fill="none" stroke="none"/><text fill="#000000" stroke="none" font-family="Arial" font-size="13px" font-style="normal" font-weight="normal" text-decoration="none" x="237" y="456.5">+units: SizeUnit {readOnly}</text></g></g><g transform="translate(-14,-150) scale(1,1)"><g><path fill="none" stroke="none"/><text fill="#000000" stroke="none" font-family="Arial" font-size="13px" font-style="normal" font-weight="normal" text-decoration="none" x="237" y="479.5">+Size(value: double, units: SizeUnit)</text></g></g><g transform="translate(-14,-150) scale(1,1)"><rect fill="#C0C0C0" stroke="none" x="527" y="391" width="351.18310546875" height="323" opacity="0.2"/></g><g transform="translate(-14,-150) scale(1,1)"><rect fill="#ffffff" stroke="none" x="520" y="384" width="351.18310546875" height="323"/></g><g transform="translate(-14,-150) scale(1,1)"><path fill="none" stroke="#000000" d="M 520 384 L 871.18310546875 384 L 871.18310546875 707 L 520 707 L 520 384 Z Z" stroke-miterlimit="10"/></g><g transform="translate(-14,-150) scale(1,1)"><path fill="none" stroke="#000000" d="M 520 655 L 871.18310546875 655" stroke-miterlimit="10"/></g><g transform="translate(-14,-150) scale(1,1)"><path fill="none" stroke="#000000" d="M 520 437 L 871.18310546875 437" stroke-miterlimit="10"/></g><g transform="translate(-14,-150) scale(1,1)"><g><path fill="none" stroke="none"/><text fill="#000000" stroke="none" font-family="Arial" font-size="13px" font-style="normal" font-weight="normal" text-decoration="none" x="652.2275390625" y="401.5">«enumeration»</text></g></g><g transform="translate(-14,-150) scale(1,1)"><g><path fill="none" stroke="none"/><text fill="#000000" stroke="none" font-family="Arial" font-size="13px" font-style="normal" font-weight="bold" text-decoration="none" x="671.387939453125" y="416.5">SizeUnit</text></g></g><g transform="translate(-14,-150) scale(1,1)"><g><path fill="none" stroke="none"/><text fill="#000000" stroke="none" font-family="Arial" font-size="13px" font-style="normal" font-weight="normal" text-decoration="none" x="647.920654296875" y="431.5">(from javafx.css)</text></g></g><g transform="translate(-14,-150) scale(1,1)"><g><path fill="none" stroke="none"/><text fill="#000000" stroke="none" font-family="Arial" font-size="13px" font-style="normal" font-weight="normal" text-decoration="none" x="525" y="672.5">+points(value: double, multiplier: double, font: Font): double</text></g></g><g transform="translate(-14,-150) scale(1,1)"><g><path fill="none" stroke="none"/><text fill="#000000" stroke="none" font-family="Arial" font-size="13px" font-style="normal" font-weight="normal" text-decoration="none" x="525" y="687.5">+pixels(value: double, multiplier: double, font: Font): double</text></g></g><g transform="translate(-14,-150) scale(1,1)"><g><path fill="none" stroke="none"/><text fill="#000000" stroke="none" font-family="Arial" font-size="13px" font-style="normal" font-weight="normal" text-decoration="none" x="525" y="454.5">CM</text></g></g><g transform="translate(-14,-150) scale(1,1)"><g><path fill="none" stroke="none"/><text fill="#000000" stroke="none" font-family="Arial" font-size="13px" font-style="normal" font-weight="normal" text-decoration="none" x="525" y="469.5">DEG</text></g></g><g transform="translate(-14,-150) scale(1,1)"><g><path fill="none" stroke="none"/><text fill="#000000" stroke="none" font-family="Arial" font-size="13px" font-style="normal" font-weight="normal" text-decoration="none" x="525" y="484.5">EM</text></g></g><g transform="translate(-14,-150) scale(1,1)"><g><path fill="none" stroke="none"/><text fill="#000000" stroke="none" font-family="Arial" font-size="13px" font-style="normal" font-weight="normal" text-decoration="none" x="525" y="499.5">EX</text></g></g><g transform="translate(-14,-150) scale(1,1)"><g><path fill="none" stroke="none"/><text fill="#000000" stroke="none" font-family="Arial" font-size="13px" font-style="normal" font-weight="normal" text-decoration="none" x="525" y="514.5">GRAD</text></g></g><g transform="translate(-14,-150) scale(1,1)"><g><path fill="none" stroke="none"/><text fill="#000000" stroke="none" font-family="Arial" font-size="13px" font-style="normal" font-weight="normal" text-decoration="none" x="525" y="529.5">IN</text></g></g><g transform="translate(-14,-150) scale(1,1)"><g><path fill="none" stroke="none"/><text fill="#000000" stroke="none" font-family="Arial" font-size="13px" font-style="normal" font-weight="normal" text-decoration="none" x="525" y="544.5">MM</text></g></g><g transform="translate(-14,-150) scale(1,1)"><g><path fill="none" stroke="none"/><text fill="#000000" stroke="none" font-family="Arial" font-size="13px" font-style="normal" font-weight="normal" text-decoration="none" x="525" y="559.5">PC</text></g></g><g transform="translate(-14,-150) scale(1,1)"><g><path fill="none" stroke="none"/><text fill="#000000" stroke="none" font-family="Arial" font-size="13px" font-style="normal" font-weight="normal" text-decoration="none" x="525" y="574.5">PERCENT</text></g></g><g transform="translate(-14,-150) scale(1,1)"><g><path fill="none" stroke="none"/><text fill="#000000" stroke="none" font-family="Arial" font-size="13px" font-style="normal" font-weight="normal" text-decoration="none" x="525" y="589.5">PT</text></g></g><g transform="translate(-14,-150) scale(1,1)"><g><path fill="none" stroke="none"/><text fill="#000000" stroke="none" font-family="Arial" font-size="13px" font-style="normal" font-weight="normal" text-decoration="none" x="525" y="604.5">PX</text></g></g><g transform="translate(-14,-150) scale(1,1)"><g><path fill="none" stroke="none"/><text fill="#000000" stroke="none" font-family="Arial" font-size="13px" font-style="normal" font-weight="normal" text-decoration="none" x="525" y="619.5">RAD</text></g></g><g transform="translate(-14,-150) scale(1,1)"><g><path fill="none" stroke="none"/><text fill="#000000" stroke="none" font-family="Arial" font-size="13px" font-style="normal" font-weight="normal" text-decoration="none" x="525" y="634.5">S</text></g></g><g transform="translate(-14,-150) scale(1,1)"><g><path fill="none" stroke="none"/><text fill="#000000" stroke="none" font-family="Arial" font-size="13px" font-style="normal" font-weight="normal" text-decoration="none" x="525" y="649.5">TURN</text></g></g><g transform="translate(-14,-150) scale(1,1)"><path fill="none" stroke="#000000" d="M 519 490 L 451 469" stroke-miterlimit="10"/></g><g transform="translate(-14,-150) scale(1,1)"><path fill="#000000" stroke="none" d="M 461.9522939334769 467.9766439550547 L 451 469 L 459.4680633088588 476.0208193109607 L 472.02044320599606 475.49160746067525"/></g><g transform="translate(-14,-150) scale(1,1)"><path fill="none" stroke="#000000" d="M 461.9522939334769 467.9766439550547 L 451 469 L 459.4680633088588 476.0208193109607 L 472.02044320599606 475.49160746067525 L 461.9522939334769 467.9766439550547" stroke-miterlimit="10"/></g><g transform="translate(-14,-150) scale(1,1)"><g><path fill="none" stroke="none"/><text fill="#000000" stroke="none" font-family="Arial" font-size="13px" font-style="normal" font-weight="normal" text-decoration="none" x="37" y="218">Unfortunately, in</text><text fill="#000000" stroke="none" font-family="Arial" font-size="13px" font-style="normal" font-weight="normal" text-decoration="none" x="37" y="231">JavaFX a Size</text><text fill="#000000" stroke="none" font-family="Arial" font-size="13px" font-style="normal" font-weight="normal" text-decoration="none" x="37" y="244">is limited to a</text><text fill="#000000" stroke="none" font-family="Arial" font-size="13px" font-style="normal" font-weight="normal" text-decoration="none" x="37" y="257">fixed set of</text><text fill="#000000" stroke="none" font-family="Arial" font-size="13px" font-style="normal" font-weight="normal" text-decoration="none" x="37" y="270">SizeUnits.</text></g></g><g transform="translate(-14,-150) scale(1,1)"><path fill="#ffffd8" stroke="none" d="M 336 208 L 477 208 L 487 218 L 487 279 L 336 279 L 336 208"/></g><g transform="translate(-14,-150) scale(1,1)"><path fill="none" stroke="#000000" d="M 336 208 L 477 208 L 487 218 L 487 279 L 336 279 L 336 208 L 336 208" stroke-miterlimit="10"/></g><g transform="translate(-14,-150) scale(1,1)"><path fill="none" stroke="#000000" d="M 477 208 L 477 218 L 487 218 L 477 208" stroke-miterlimit="10"/></g><g transform="translate(-14,-150) scale(1,1)"><g><path fill="none" stroke="none"/><text fill="#000000" stroke="none" font-family="Arial" font-size="13px" font-style="normal" font-weight="normal" text-decoration="none" x="341" y="226">PROBLEM: Cannot use</text><text fill="#000000" stroke="none" font-family="Arial" font-size="13px" font-style="normal" font-weight="normal" text-decoration="none" x="341" y="239">a Size with a SizeUnit</text><text fill="#000000" stroke="none" font-family="Arial" font-size="13px" font-style="normal" font-weight="normal" text-decoration="none" x="341" y="252">that is not in the</text><text fill="#000000" stroke="none" font-family="Arial" font-size="13px" font-style="normal" font-weight="normal" text-decoration="none" x="341" y="265">SizeUnit enum.</text></g></g><g transform="translate(-14,-150) scale(1,1)"><path fill="none" stroke="#000000" d="M 360 383 L 398 281" stroke-miterlimit="10" stroke-dasharray="3"/></g></g></svg>