<svg version="1.1" xmlns="http://www.w3.org/2000/svg" xmlns:xlink="http://www.w3.org/1999/xlink" width="780" height="612"><defs/><g><g transform="translate(2,10) scale(1,1)"><path fill="none" stroke="#000000" d="M 8 0 L 768 0 L 768 592 L 8 592 L 8 0" stroke-miterlimit="10"/></g><g transform="translate(2,10) scale(1,1)"><path fill="#ffffff" stroke="none" d="M 8 0 L 8 22 L 217.63525390625 22 L 228.63525390625 11 L 228.63525390625 0 L 8 0"/></g><g transform="translate(2,10) scale(1,1)"><path fill="none" stroke="#000000" d="M 8 0 L 8 22 L 217.63525390625 22 L 228.63525390625 11 L 228.63525390625 0 L 8 0 L 8 0" stroke-miterlimit="10"/></g><g transform="translate(2,10) scale(1,1)"><g><path fill="none" stroke="none"/><text fill="#000000" stroke="none" font-family="Arial" font-size="13px" font-style="normal" font-weight="normal" text-decoration="none" x="48.6181640625" y="17.5">Composite Pattern Structure</text></g></g><g transform="translate(2,10) scale(1,1)"><g><path fill="none" stroke="none"/><text fill="#000000" stroke="none" font-family="Arial" font-size="13px" font-style="normal" font-weight="bold" text-decoration="none" x="13" y="17.5">class</text></g></g><g transform="translate(2,10) scale(1,1)"><rect fill="#C0C0C0" stroke="none" x="279" y="399" width="212.39794921875" height="92" opacity="0.2"/></g><g transform="translate(2,10) scale(1,1)"><rect fill="#ffffff" stroke="none" x="272" y="392" width="212.39794921875" height="92"/></g><g transform="translate(2,10) scale(1,1)"><path fill="none" stroke="#000000" d="M 272 392 L 484.39794921875 392 L 484.39794921875 484 L 272 484 L 272 392 Z Z" stroke-miterlimit="10"/></g><g transform="translate(2,10) scale(1,1)"><path fill="none" stroke="#000000" d="M 272 417 L 484.39794921875 417" stroke-miterlimit="10"/></g><g transform="translate(2,10) scale(1,1)"><g><path fill="none" stroke="none"/><text fill="#000000" stroke="none" font-family="Arial" font-size="13px" font-style="normal" font-weight="bold" text-decoration="none" x="347.13037109375" y="411.5">Composite</text></g></g><g transform="translate(2,10) scale(1,1)"><g><path fill="none" stroke="none"/><text fill="#000000" stroke="none" font-family="Arial" font-size="13px" font-style="normal" font-weight="normal" text-decoration="none" x="277" y="434.5">+operation()</text></g></g><g transform="translate(2,10) scale(1,1)"><g><path fill="none" stroke="none"/><text fill="#000000" stroke="none" font-family="Arial" font-size="13px" font-style="normal" font-weight="normal" text-decoration="none" x="277" y="449.5">+add(component:Component)()</text></g></g><g transform="translate(2,10) scale(1,1)"><g><path fill="none" stroke="none"/><text fill="#000000" stroke="none" font-family="Arial" font-size="13px" font-style="normal" font-weight="normal" text-decoration="none" x="277" y="464.5">+remove(component:Component)()</text></g></g><g transform="translate(2,10) scale(1,1)"><g><path fill="none" stroke="none"/><text fill="#000000" stroke="none" font-family="Arial" font-size="13px" font-style="normal" font-weight="normal" text-decoration="none" x="277" y="479.5">+getChild(n:int):Component()</text></g></g><g transform="translate(2,10) scale(1,1)"><rect fill="#C0C0C0" stroke="none" x="127" y="399" width="79.458984375" height="47" opacity="0.2"/></g><g transform="translate(2,10) scale(1,1)"><rect fill="#ffffff" stroke="none" x="120" y="392" width="79.458984375" height="47"/></g><g transform="translate(2,10) scale(1,1)"><path fill="none" stroke="#000000" d="M 120 392 L 199.458984375 392 L 199.458984375 439 L 120 439 L 120 392 Z Z" stroke-miterlimit="10"/></g><g transform="translate(2,10) scale(1,1)"><path fill="none" stroke="#000000" d="M 120 417 L 199.458984375 417" stroke-miterlimit="10"/></g><g transform="translate(2,10) scale(1,1)"><g><path fill="none" stroke="none"/><text fill="#000000" stroke="none" font-family="Arial" font-size="13px" font-style="normal" font-weight="bold" text-decoration="none" x="147.07861328125" y="411.5">Leaf</text></g></g><g transform="translate(2,10) scale(1,1)"><g><path fill="none" stroke="none"/><text fill="#000000" stroke="none" font-family="Arial" font-size="13px" font-style="normal" font-weight="normal" text-decoration="none" x="125" y="434.5">+operation()</text></g></g><g transform="translate(2,10) scale(1,1)"><rect fill="#C0C0C0" stroke="none" x="151" y="207" width="207.3515625" height="105" opacity="0.2"/></g><g transform="translate(2,10) scale(1,1)"><rect fill="#ffffff" stroke="none" x="144" y="200" width="207.3515625" height="105"/></g><g transform="translate(2,10) scale(1,1)"><path fill="none" stroke="#000000" d="M 144 200 L 351.3515625 200 L 351.3515625 305 L 144 305 L 144 200 Z Z" stroke-miterlimit="10"/></g><g transform="translate(2,10) scale(1,1)"><path fill="none" stroke="#000000" d="M 144 238 L 351.3515625 238" stroke-miterlimit="10"/></g><g transform="translate(2,10) scale(1,1)"><g><path fill="none" stroke="none"/><text fill="#000000" stroke="none" font-family="Arial" font-size="13px" font-style="normal" font-weight="normal" text-decoration="none" x="215.515380859375" y="217.5">«interface»</text></g></g><g transform="translate(2,10) scale(1,1)"><g><path fill="none" stroke="none"/><text fill="#000000" stroke="none" font-family="Arial" font-size="13px" font-style="normal" font-weight="bold" text-decoration="none" x="214.0712890625" y="232.5">Component</text></g></g><g transform="translate(2,10) scale(1,1)"><g><path fill="none" stroke="none"/><text fill="#000000" stroke="none" font-family="Arial" font-size="13px" font-style="italic" font-weight="normal" text-decoration="none" x="149" y="255.5">+operation()</text></g></g><g transform="translate(2,10) scale(1,1)"><g><path fill="none" stroke="none"/><text fill="#000000" stroke="none" font-family="Arial" font-size="13px" font-style="italic" font-weight="normal" text-decoration="none" x="149" y="270.5">+add(component: Component)</text></g></g><g transform="translate(2,10) scale(1,1)"><g><path fill="none" stroke="none"/><text fill="#000000" stroke="none" font-family="Arial" font-size="13px" font-style="italic" font-weight="normal" text-decoration="none" x="149" y="285.5">+remove(component: Component)</text></g></g><g transform="translate(2,10) scale(1,1)"><g><path fill="none" stroke="none"/><text fill="#000000" stroke="none" font-family="Arial" font-size="13px" font-style="italic" font-weight="normal" text-decoration="none" x="149" y="300.5">+getChild(n: int): Component</text></g></g><g transform="translate(2,10) scale(1,1)"><path fill="none" stroke="#000000" d="M 160 392 L 160 360 L 248 360 L 248 305" stroke-miterlimit="10" stroke-dasharray="3"/></g><g transform="translate(2,10) scale(1,1)"><path fill="#FFFFFF" stroke="none" d="M 256.419035512032 325.3253497152483 L 248 305 L 239.58096448796803 325.3253497152483"/></g><g transform="translate(2,10) scale(1,1)"><path fill="none" stroke="#000000" d="M 256.419035512032 325.3253497152483 L 248 305 L 239.58096448796803 325.3253497152483 L 256.419035512032 325.3253497152483" stroke-miterlimit="10"/></g><g transform="translate(2,10) scale(1,1)"><rect fill="#ffffff" stroke="none" x="8" y="32" width="99" height="22"/></g><g transform="translate(2,10) scale(1,1)"><path fill="none" stroke="#000000" d="M 8 32 L 107 32 L 107 54 L 8 54 L 8 32 Z Z" stroke-miterlimit="10"/></g><g transform="translate(2,10) scale(1,1)"><path fill="none" stroke="#000000" d="M 40.39453125 32 L 40.39453125 54" stroke-miterlimit="10"/></g><g transform="translate(2,10) scale(1,1)"><g><path fill="none" stroke="none"/><text fill="#000000" stroke="none" font-family="Arial" font-size="13px" font-style="normal" font-weight="normal" text-decoration="none" x="44.89453125" y="49.5">GoF1995</text></g></g><g transform="translate(2,10) scale(1,1)"><g><path fill="none" stroke="none"/><text fill="#000000" stroke="none" font-family="Arial" font-size="13px" font-style="normal" font-weight="bold" text-decoration="none" x="14.444091796875" y="49.5">link</text></g></g><g transform="translate(2,10) scale(1,1)"><path fill="#C0C0C0" stroke="none" d="M 263 544 C 263 534.6111584 341.1263024 527 437.5 527 C 533.8736976 527 612 534.6111584 612 544 C 612 553.3888416 533.8736976 561 437.5 561 C 341.1263024 561 263 553.3888416 263 544 Z" opacity="0.2"/></g><g transform="translate(2,10) scale(1,1)"><path fill="#e2e2e2" stroke="none" d="M 256 537 C 256 527.6111584 334.1263024 520 430.5 520 C 526.8736976 520 605 527.6111584 605 537 C 605 546.3888416 526.8736976 554 430.5 554 C 334.1263024 554 256 546.3888416 256 537 Z"/></g><g transform="translate(2,10) scale(1,1)"><path fill="none" stroke="#000000" d="M 256 537 C 256 527.6111584 334.1263024 520 430.5 520 C 526.8736976 520 605 527.6111584 605 537 C 605 546.3888416 526.8736976 554 430.5 554 C 334.1263024 554 256 546.3888416 256 537 Z" stroke-miterlimit="10" stroke-dasharray="5"/></g><g transform="translate(2,10) scale(1,1)"><g><path fill="none" stroke="none"/><text fill="#000000" stroke="none" font-family="Arial" font-size="13px" font-style="normal" font-weight="bold" text-decoration="none" x="336.202392578125" y="544">example use: Composite Pattern</text></g></g><g transform="translate(2,10) scale(1,1)"><rect fill="#C0C0C0" stroke="none" x="31" y="207" width="45.11181640625" height="24" opacity="0.2"/></g><g transform="translate(2,10) scale(1,1)"><rect fill="#ffffff" stroke="none" x="24" y="200" width="45.11181640625" height="24"/></g><g transform="translate(2,10) scale(1,1)"><path fill="none" stroke="#000000" d="M 24 200 L 69.11181640625 200 L 69.11181640625 224 L 24 224 L 24 200 Z Z" stroke-miterlimit="10"/></g><g transform="translate(2,10) scale(1,1)"><g><path fill="none" stroke="none"/><text fill="#000000" stroke="none" font-family="Arial" font-size="13px" font-style="normal" font-weight="bold" text-decoration="none" x="29.937744140625" y="219.5">Client</text></g></g><g transform="translate(2,10) scale(1,1)"><path fill="none" stroke="#000000" d="M 69 216 L 144 216" stroke-miterlimit="10" stroke-dasharray="3"/></g><g transform="translate(2,10) scale(1,1)"><path fill="none" stroke="#000000" d="M 133.83732514237585 220.209517756016 L 144 216 L 133.83732514237585 211.790482243984" stroke-miterlimit="10"/></g><g transform="translate(2,10) scale(1,1)"><g><path fill="none" stroke="none"/><text fill="#000000" stroke="none" font-family="Arial" font-size="13px" font-style="normal" font-weight="normal" text-decoration="none" x="88.08544921875" y="207.5">+uses</text></g></g><g transform="translate(2,10) scale(1,1)"><path fill="none" stroke="#000000" d="M 368 392 L 368 360 L 248 360 L 248 305" stroke-miterlimit="10" stroke-dasharray="3"/></g><g transform="translate(2,10) scale(1,1)"><path fill="#FFFFFF" stroke="none" d="M 256.419035512032 325.3253497152483 L 248 305 L 239.58096448796803 325.3253497152483"/></g><g transform="translate(2,10) scale(1,1)"><path fill="none" stroke="#000000" d="M 256.419035512032 325.3253497152483 L 248 305 L 239.58096448796803 325.3253497152483 L 256.419035512032 325.3253497152483" stroke-miterlimit="10"/></g><g transform="translate(2,10) scale(1,1)"><path fill="none" stroke="#000000" d="M 351 216 L 560 216 L 560 408 L 484 408" stroke-miterlimit="10"/></g><g transform="translate(2,10) scale(1,1)"><path fill="#FFFFFF" stroke="none" d="M 494.16267485762415 403.790482243984 L 484 408 L 494.16267485762415 412.209517756016 L 506 408"/></g><g transform="translate(2,10) scale(1,1)"><path fill="none" stroke="#000000" d="M 494.16267485762415 403.790482243984 L 484 408 L 494.16267485762415 412.209517756016 L 506 408 L 494.16267485762415 403.790482243984" stroke-miterlimit="10"/></g><g transform="translate(2,10) scale(1,1)"><g><path fill="none" stroke="none"/><text fill="#000000" stroke="none" font-family="Arial" font-size="13px" font-style="normal" font-weight="normal" text-decoration="none" x="367.5" y="207.5">+children</text></g></g></g></svg>