<svg version="1.1" xmlns="http://www.w3.org/2000/svg" xmlns:xlink="http://www.w3.org/1999/xlink" width="724" height="500"><defs/><g><g transform="translate(-6,-6) scale(1,1)"><path fill="none" stroke="#000000" d="M 16 16 L 720 16 L 720 496 L 16 496 L 16 16" stroke-miterlimit="10"/></g><g transform="translate(-6,-6) scale(1,1)"><path fill="#ffffff" stroke="none" d="M 16 16 L 16 38 L 256.6943359375 38 L 267.6943359375 27 L 267.6943359375 16 L 16 16"/></g><g transform="translate(-6,-6) scale(1,1)"><path fill="none" stroke="#000000" d="M 16 16 L 16 38 L 256.6943359375 38 L 267.6943359375 27 L 267.6943359375 16 L 16 16 L 16 16" stroke-miterlimit="10"/></g><g transform="translate(-6,-6) scale(1,1)"><g><path fill="none" stroke="none"/><text fill="#000000" stroke="none" font-family="Arial" font-size="13px" font-style="normal" font-weight="normal" text-decoration="none" x="47.9599609375" y="33.5">JHotDraw 8 Application Framework</text></g></g><g transform="translate(-6,-6) scale(1,1)"><g><path fill="none" stroke="none"/><text fill="#000000" stroke="none" font-family="Arial" font-size="13px" font-style="normal" font-weight="bold" text-decoration="none" x="21" y="33.5">pkg</text></g></g><g transform="translate(-6,-6) scale(1,1)"><rect fill="#C0C0C0" stroke="none" x="319" y="127" width="38.27597656249998" height="15" opacity="0.2"/></g><g transform="translate(-6,-6) scale(1,1)"><rect fill="#C0C0C0" stroke="none" x="319" y="141" width="95.68994140625" height="25" opacity="0.2"/></g><g transform="translate(-6,-6) scale(1,1)"><rect fill="#ebffd8" stroke="none" x="312" y="135" width="95.68994140625" height="24"/></g><g transform="translate(-6,-6) scale(1,1)"><path fill="none" stroke="#000000" d="M 312 135 L 407.68994140625 135 L 407.68994140625 159 L 312 159 L 312 135 Z Z" stroke-miterlimit="10"/></g><g transform="translate(-6,-6) scale(1,1)"><rect fill="#ebffd8" stroke="none" x="312" y="120" width="38.27597656249998" height="15"/></g><g transform="translate(-6,-6) scale(1,1)"><path fill="none" stroke="#000000" d="M 312 120 L 350.2759765625 120 L 350.2759765625 135 L 312 135 L 312 120 Z Z" stroke-miterlimit="10"/></g><g transform="translate(-6,-6) scale(1,1)"><rect fill="#ebffd8" stroke="none" x="312" y="134" width="95.68994140625" height="25"/></g><g transform="translate(-6,-6) scale(1,1)"><path fill="none" stroke="#000000" d="M 312 134 L 407.68994140625 134 L 407.68994140625 159 L 312 159 L 312 134 Z Z" stroke-miterlimit="10"/></g><g transform="translate(-6,-6) scale(1,1)"><path fill="none" stroke="#000000" d="M 341.2759765625 123 L 335.2759765625 130 L 347.2759765625 130 L 341.2759765625 123" stroke-miterlimit="10"/></g><g transform="translate(-6,-6) scale(1,1)"><g><path fill="none" stroke="none"/><text fill="#000000" stroke="none" font-family="Arial" font-size="13px" font-style="normal" font-weight="bold" text-decoration="none" x="319.3818359375" y="154.5">Requirements</text></g></g><g transform="translate(-6,-6) scale(1,1)"><rect fill="#C0C0C0" stroke="none" x="583" y="183" width="49.452929687500045" height="15" opacity="0.2"/></g><g transform="translate(-6,-6) scale(1,1)"><rect fill="#C0C0C0" stroke="none" x="583" y="197" width="123.63232421875" height="25" opacity="0.2"/></g><g transform="translate(-6,-6) scale(1,1)"><rect fill="#d8e5ff" stroke="none" x="576" y="191" width="123.63232421875" height="24"/></g><g transform="translate(-6,-6) scale(1,1)"><path fill="none" stroke="#000000" d="M 576 191 L 699.63232421875 191 L 699.63232421875 215 L 576 215 L 576 191 Z Z" stroke-miterlimit="10"/></g><g transform="translate(-6,-6) scale(1,1)"><rect fill="#d8e5ff" stroke="none" x="576" y="176" width="49.452929687500045" height="15"/></g><g transform="translate(-6,-6) scale(1,1)"><path fill="none" stroke="#000000" d="M 576 176 L 625.4529296875 176 L 625.4529296875 191 L 576 191 L 576 176 Z Z" stroke-miterlimit="10"/></g><g transform="translate(-6,-6) scale(1,1)"><rect fill="#d8e5ff" stroke="none" x="576" y="190" width="123.63232421875" height="25"/></g><g transform="translate(-6,-6) scale(1,1)"><path fill="none" stroke="#000000" d="M 576 190 L 699.63232421875 190 L 699.63232421875 215 L 576 215 L 576 190 Z Z" stroke-miterlimit="10"/></g><g transform="translate(-6,-6) scale(1,1)"><path fill="none" stroke="#000000" d="M 616.4529296875 179 L 610.4529296875 186 L 622.4529296875 186 L 616.4529296875 179" stroke-miterlimit="10"/></g><g transform="translate(-6,-6) scale(1,1)"><g><path fill="none" stroke="none"/><text fill="#000000" stroke="none" font-family="Arial" font-size="13px" font-style="normal" font-weight="bold" text-decoration="none" x="583.740478515625" y="210.5">Development View</text></g></g><g transform="translate(-6,-6) scale(1,1)"><rect fill="#C0C0C0" stroke="none" x="319" y="327" width="37.03691406249999" height="15" opacity="0.2"/></g><g transform="translate(-6,-6) scale(1,1)"><rect fill="#C0C0C0" stroke="none" x="319" y="341" width="92.59228515625" height="25" opacity="0.2"/></g><g transform="translate(-6,-6) scale(1,1)"><rect fill="#d8e5ff" stroke="none" x="312" y="335" width="92.59228515625" height="24"/></g><g transform="translate(-6,-6) scale(1,1)"><path fill="none" stroke="#000000" d="M 312 335 L 404.59228515625 335 L 404.59228515625 359 L 312 359 L 312 335 Z Z" stroke-miterlimit="10"/></g><g transform="translate(-6,-6) scale(1,1)"><rect fill="#d8e5ff" stroke="none" x="312" y="320" width="37.03691406249999" height="15"/></g><g transform="translate(-6,-6) scale(1,1)"><path fill="none" stroke="#000000" d="M 312 320 L 349.0369140625 320 L 349.0369140625 335 L 312 335 L 312 320 Z Z" stroke-miterlimit="10"/></g><g transform="translate(-6,-6) scale(1,1)"><rect fill="#d8e5ff" stroke="none" x="312" y="334" width="92.59228515625" height="25"/></g><g transform="translate(-6,-6) scale(1,1)"><path fill="none" stroke="#000000" d="M 312 334 L 404.59228515625 334 L 404.59228515625 359 L 312 359 L 312 334 Z Z" stroke-miterlimit="10"/></g><g transform="translate(-6,-6) scale(1,1)"><path fill="none" stroke="#000000" d="M 340.0369140625 323 L 334.0369140625 330 L 346.0369140625 330 L 340.0369140625 323" stroke-miterlimit="10"/></g><g transform="translate(-6,-6) scale(1,1)"><g><path fill="none" stroke="none"/><text fill="#000000" stroke="none" font-family="Arial" font-size="13px" font-style="normal" font-weight="bold" text-decoration="none" x="319.0390625" y="354.5">Process View</text></g></g><g transform="translate(-6,-6) scale(1,1)"><rect fill="#C0C0C0" stroke="none" x="591" y="327" width="37.90273437500002" height="15" opacity="0.2"/></g><g transform="translate(-6,-6) scale(1,1)"><rect fill="#C0C0C0" stroke="none" x="591" y="341" width="94.7568359375" height="25" opacity="0.2"/></g><g transform="translate(-6,-6) scale(1,1)"><rect fill="#d8e5ff" stroke="none" x="584" y="335" width="94.7568359375" height="24"/></g><g transform="translate(-6,-6) scale(1,1)"><path fill="none" stroke="#000000" d="M 584 335 L 678.7568359375 335 L 678.7568359375 359 L 584 359 L 584 335 Z Z" stroke-miterlimit="10"/></g><g transform="translate(-6,-6) scale(1,1)"><rect fill="#d8e5ff" stroke="none" x="584" y="320" width="37.90273437500002" height="15"/></g><g transform="translate(-6,-6) scale(1,1)"><path fill="none" stroke="#000000" d="M 584 320 L 621.902734375 320 L 621.902734375 335 L 584 335 L 584 320 Z Z" stroke-miterlimit="10"/></g><g transform="translate(-6,-6) scale(1,1)"><rect fill="#d8e5ff" stroke="none" x="584" y="334" width="94.7568359375" height="25"/></g><g transform="translate(-6,-6) scale(1,1)"><path fill="none" stroke="#000000" d="M 584 334 L 678.7568359375 334 L 678.7568359375 359 L 584 359 L 584 334 Z Z" stroke-miterlimit="10"/></g><g transform="translate(-6,-6) scale(1,1)"><path fill="none" stroke="#000000" d="M 612.902734375 323 L 606.902734375 330 L 618.902734375 330 L 612.902734375 323" stroke-miterlimit="10"/></g><g transform="translate(-6,-6) scale(1,1)"><g><path fill="none" stroke="none"/><text fill="#000000" stroke="none" font-family="Arial" font-size="13px" font-style="normal" font-weight="bold" text-decoration="none" x="591.397705078125" y="354.5">Physical View</text></g></g><g transform="translate(-6,-6) scale(1,1)"><rect fill="#C0C0C0" stroke="none" x="455" y="255" width="41.65800781249999" height="15" opacity="0.2"/></g><g transform="translate(-6,-6) scale(1,1)"><rect fill="#C0C0C0" stroke="none" x="455" y="269" width="104.14501953125" height="25" opacity="0.2"/></g><g transform="translate(-6,-6) scale(1,1)"><rect fill="#d8e5ff" stroke="none" x="448" y="263" width="104.14501953125" height="24"/></g><g transform="translate(-6,-6) scale(1,1)"><path fill="none" stroke="#000000" d="M 448 263 L 552.14501953125 263 L 552.14501953125 287 L 448 287 L 448 263 Z Z" stroke-miterlimit="10"/></g><g transform="translate(-6,-6) scale(1,1)"><rect fill="#d8e5ff" stroke="none" x="448" y="248" width="41.65800781249999" height="15"/></g><g transform="translate(-6,-6) scale(1,1)"><path fill="none" stroke="#000000" d="M 448 248 L 489.6580078125 248 L 489.6580078125 263 L 448 263 L 448 248 Z Z" stroke-miterlimit="10"/></g><g transform="translate(-6,-6) scale(1,1)"><rect fill="#d8e5ff" stroke="none" x="448" y="262" width="104.14501953125" height="25"/></g><g transform="translate(-6,-6) scale(1,1)"><path fill="none" stroke="#000000" d="M 448 262 L 552.14501953125 262 L 552.14501953125 287 L 448 287 L 448 262 Z Z" stroke-miterlimit="10"/></g><g transform="translate(-6,-6) scale(1,1)"><path fill="none" stroke="#000000" d="M 480.6580078125 251 L 474.6580078125 258 L 486.6580078125 258 L 480.6580078125 251" stroke-miterlimit="10"/></g><g transform="translate(-6,-6) scale(1,1)"><g><path fill="none" stroke="none"/><text fill="#000000" stroke="none" font-family="Arial" font-size="13px" font-style="normal" font-weight="bold" text-decoration="none" x="471.16845703125" y="282.5">Scenarios</text></g></g><g transform="translate(-6,-6) scale(1,1)"><rect fill="#C0C0C0" stroke="none" x="319" y="183" width="35.00312500000001" height="15" opacity="0.2"/></g><g transform="translate(-6,-6) scale(1,1)"><rect fill="#C0C0C0" stroke="none" x="319" y="197" width="87.5078125" height="25" opacity="0.2"/></g><g transform="translate(-6,-6) scale(1,1)"><rect fill="#d8e5ff" stroke="none" x="312" y="191" width="87.5078125" height="24"/></g><g transform="translate(-6,-6) scale(1,1)"><path fill="none" stroke="#000000" d="M 312 191 L 399.5078125 191 L 399.5078125 215 L 312 215 L 312 191 Z Z" stroke-miterlimit="10"/></g><g transform="translate(-6,-6) scale(1,1)"><rect fill="#d8e5ff" stroke="none" x="312" y="176" width="35.00312500000001" height="15"/></g><g transform="translate(-6,-6) scale(1,1)"><path fill="none" stroke="#000000" d="M 312 176 L 347.003125 176 L 347.003125 191 L 312 191 L 312 176 Z Z" stroke-miterlimit="10"/></g><g transform="translate(-6,-6) scale(1,1)"><rect fill="#d8e5ff" stroke="none" x="312" y="190" width="87.5078125" height="25"/></g><g transform="translate(-6,-6) scale(1,1)"><path fill="none" stroke="#000000" d="M 312 190 L 399.5078125 190 L 399.5078125 215 L 312 215 L 312 190 Z Z" stroke-miterlimit="10"/></g><g transform="translate(-6,-6) scale(1,1)"><path fill="none" stroke="#000000" d="M 338.003125 179 L 332.003125 186 L 344.003125 186 L 338.003125 179" stroke-miterlimit="10"/></g><g transform="translate(-6,-6) scale(1,1)"><g><path fill="none" stroke="none"/><text fill="#000000" stroke="none" font-family="Arial" font-size="13px" font-style="normal" font-weight="bold" text-decoration="none" x="319.378662109375" y="210.5">Logical View</text></g></g><g transform="translate(-6,-6) scale(1,1)"><rect fill="#C0C0C0" stroke="none" x="455" y="63" width="30.95332031250001" height="15" opacity="0.2"/></g><g transform="translate(-6,-6) scale(1,1)"><rect fill="#C0C0C0" stroke="none" x="455" y="77" width="77.38330078125" height="25" opacity="0.2"/></g><g transform="translate(-6,-6) scale(1,1)"><rect fill="#ffffd8" stroke="none" x="448" y="71" width="77.38330078125" height="24"/></g><g transform="translate(-6,-6) scale(1,1)"><path fill="none" stroke="#000000" d="M 448 71 L 525.38330078125 71 L 525.38330078125 95 L 448 95 L 448 71 Z Z" stroke-miterlimit="10"/></g><g transform="translate(-6,-6) scale(1,1)"><rect fill="#ffffd8" stroke="none" x="448" y="56" width="30.95332031250001" height="15"/></g><g transform="translate(-6,-6) scale(1,1)"><path fill="none" stroke="#000000" d="M 448 56 L 478.9533203125 56 L 478.9533203125 71 L 448 71 L 448 56 Z Z" stroke-miterlimit="10"/></g><g transform="translate(-6,-6) scale(1,1)"><rect fill="#ffffd8" stroke="none" x="448" y="70" width="77.38330078125" height="25"/></g><g transform="translate(-6,-6) scale(1,1)"><path fill="none" stroke="#000000" d="M 448 70 L 525.38330078125 70 L 525.38330078125 95 L 448 95 L 448 70 Z Z" stroke-miterlimit="10"/></g><g transform="translate(-6,-6) scale(1,1)"><path fill="none" stroke="#000000" d="M 469.9533203125 59 L 463.9533203125 66 L 475.9533203125 66 L 469.9533203125 59" stroke-miterlimit="10"/></g><g transform="translate(-6,-6) scale(1,1)"><g><path fill="none" stroke="none"/><text fill="#000000" stroke="none" font-family="Arial" font-size="13px" font-style="normal" font-weight="bold" text-decoration="none" x="455.37548828125" y="90.5">Viewpoints</text></g></g><g transform="translate(-6,-6) scale(1,1)"><g><path fill="none" stroke="none"/><text fill="#000000" stroke="none" font-family="Arial" font-size="13px" font-style="normal" font-weight="normal" text-decoration="none" x="37" y="82">This model is structured in the</text><text fill="#000000" stroke="none" font-family="Arial" font-size="13px" font-style="normal" font-weight="normal" text-decoration="none" x="37" y="95">sub-models shown here. </text></g></g><g transform="translate(-6,-6) scale(1,1)"><g><path fill="none" stroke="none"/></g></g><g transform="translate(-6,-6) scale(1,1)"><g><path fill="none" stroke="none"/><text fill="#000000" stroke="none" font-family="Arial" font-size="13px" font-style="normal" font-weight="normal" text-decoration="none" x="37" y="112">You may want to start reading with the</text><text fill="#000000" stroke="none" font-family="Arial" font-size="13px" font-style="normal" font-weight="normal" text-decoration="none" x="37" y="125">Viewpoints model. </text></g></g><g transform="translate(-6,-6) scale(1,1)"><g><path fill="none" stroke="none"/></g></g><g transform="translate(-6,-6) scale(1,1)"><g><path fill="none" stroke="none"/><text fill="#000000" stroke="none" font-family="Arial" font-size="13px" font-style="normal" font-weight="normal" text-decoration="none" x="37" y="142">Then Requirements, Assumptions,</text><text fill="#000000" stroke="none" font-family="Arial" font-size="13px" font-style="normal" font-weight="normal" text-decoration="none" x="37" y="155">Decisions is a good read, before you</text><text fill="#000000" stroke="none" font-family="Arial" font-size="13px" font-style="normal" font-weight="normal" text-decoration="none" x="37" y="168">delve into the details of the</text><text fill="#000000" stroke="none" font-family="Arial" font-size="13px" font-style="normal" font-weight="normal" text-decoration="none" x="37" y="181">specification. </text></g></g><g transform="translate(-6,-6) scale(1,1)"><g><path fill="none" stroke="none"/><text fill="#000000" stroke="none" font-family="Arial" font-size="13px" font-style="normal" font-weight="normal" text-decoration="none" x="37" y="196">The details of the specification are</text><text fill="#000000" stroke="none" font-family="Arial" font-size="13px" font-style="normal" font-weight="normal" text-decoration="none" x="37" y="209">given from 4+1 different viewpoints -</text><text fill="#000000" stroke="none" font-family="Arial" font-size="13px" font-style="normal" font-weight="normal" text-decoration="none" x="37" y="222">see Kruchten1995 for a description of</text><text fill="#000000" stroke="none" font-family="Arial" font-size="13px" font-style="normal" font-weight="normal" text-decoration="none" x="37" y="235">these viewpoints. </text></g></g><g transform="translate(-6,-6) scale(1,1)"><rect fill="#C0C0C0" stroke="none" x="455" y="127" width="36.53671874999998" height="15" opacity="0.2"/></g><g transform="translate(-6,-6) scale(1,1)"><rect fill="#C0C0C0" stroke="none" x="455" y="141" width="91.341796875" height="25" opacity="0.2"/></g><g transform="translate(-6,-6) scale(1,1)"><rect fill="#ebffd8" stroke="none" x="448" y="135" width="91.341796875" height="24"/></g><g transform="translate(-6,-6) scale(1,1)"><path fill="none" stroke="#000000" d="M 448 135 L 539.341796875 135 L 539.341796875 159 L 448 159 L 448 135 Z Z" stroke-miterlimit="10"/></g><g transform="translate(-6,-6) scale(1,1)"><rect fill="#ebffd8" stroke="none" x="448" y="120" width="36.53671874999998" height="15"/></g><g transform="translate(-6,-6) scale(1,1)"><path fill="none" stroke="#000000" d="M 448 120 L 484.53671875 120 L 484.53671875 135 L 448 135 L 448 120 Z Z" stroke-miterlimit="10"/></g><g transform="translate(-6,-6) scale(1,1)"><rect fill="#ebffd8" stroke="none" x="448" y="134" width="91.341796875" height="25"/></g><g transform="translate(-6,-6) scale(1,1)"><path fill="none" stroke="#000000" d="M 448 134 L 539.341796875 134 L 539.341796875 159 L 448 159 L 448 134 Z Z" stroke-miterlimit="10"/></g><g transform="translate(-6,-6) scale(1,1)"><path fill="none" stroke="#000000" d="M 475.53671875 123 L 469.53671875 130 L 481.53671875 130 L 475.53671875 123" stroke-miterlimit="10"/></g><g transform="translate(-6,-6) scale(1,1)"><g><path fill="none" stroke="none"/><text fill="#000000" stroke="none" font-family="Arial" font-size="13px" font-style="normal" font-weight="bold" text-decoration="none" x="456.4609375" y="154.5">Assumptions</text></g></g><g transform="translate(-6,-6) scale(1,1)"><rect fill="#C0C0C0" stroke="none" x="583" y="127" width="28.165429687500023" height="15" opacity="0.2"/></g><g transform="translate(-6,-6) scale(1,1)"><rect fill="#C0C0C0" stroke="none" x="583" y="141" width="70.41357421875" height="25" opacity="0.2"/></g><g transform="translate(-6,-6) scale(1,1)"><rect fill="#ebffd8" stroke="none" x="576" y="135" width="70.41357421875" height="24"/></g><g transform="translate(-6,-6) scale(1,1)"><path fill="none" stroke="#000000" d="M 576 135 L 646.41357421875 135 L 646.41357421875 159 L 576 159 L 576 135 Z Z" stroke-miterlimit="10"/></g><g transform="translate(-6,-6) scale(1,1)"><rect fill="#ebffd8" stroke="none" x="576" y="120" width="28.165429687500023" height="15"/></g><g transform="translate(-6,-6) scale(1,1)"><path fill="none" stroke="#000000" d="M 576 120 L 604.1654296875 120 L 604.1654296875 135 L 576 135 L 576 120 Z Z" stroke-miterlimit="10"/></g><g transform="translate(-6,-6) scale(1,1)"><rect fill="#ebffd8" stroke="none" x="576" y="134" width="70.41357421875" height="25"/></g><g transform="translate(-6,-6) scale(1,1)"><path fill="none" stroke="#000000" d="M 576 134 L 646.41357421875 134 L 646.41357421875 159 L 576 159 L 576 134 Z Z" stroke-miterlimit="10"/></g><g transform="translate(-6,-6) scale(1,1)"><path fill="none" stroke="#000000" d="M 595.1654296875 123 L 589.1654296875 130 L 601.1654296875 130 L 595.1654296875 123" stroke-miterlimit="10"/></g><g transform="translate(-6,-6) scale(1,1)"><g><path fill="none" stroke="none"/><text fill="#000000" stroke="none" font-family="Arial" font-size="13px" font-style="normal" font-weight="bold" text-decoration="none" x="583.029541015625" y="154.5">Decisions</text></g></g><g transform="translate(-6,-6) scale(1,1)"><path fill="none" stroke="#000000" d="M 538 247 L 597 216" stroke-miterlimit="10" stroke-dasharray="3"/></g><g transform="translate(-6,-6) scale(1,1)"><path fill="none" stroke="#000000" d="M 589.961522660066 224.4533920254082 L 597 216 L 586.0455941185104 217.00049576889919" stroke-miterlimit="10"/></g><g transform="translate(-6,-6) scale(1,1)"><path fill="none" stroke="#000000" d="M 538 288 L 595 319" stroke-miterlimit="10" stroke-dasharray="3"/></g><g transform="translate(-6,-6) scale(1,1)"><path fill="none" stroke="#000000" d="M 584.0610642385822 317.8425526329147 L 595 319 L 588.0834432262699 310.44656546200486" stroke-miterlimit="10"/></g><g transform="translate(-6,-6) scale(1,1)"><path fill="none" stroke="#000000" d="M 459 288 L 397 319" stroke-miterlimit="10" stroke-dasharray="3"/></g><g transform="translate(-6,-6) scale(1,1)"><path fill="none" stroke="#000000" d="M 404.2072191549614 310.6900064950472 L 397 319 L 407.97232629693906 318.22022077900255" stroke-miterlimit="10"/></g><g transform="translate(-6,-6) scale(1,1)"><path fill="none" stroke="#000000" d="M 460 247 L 397 216" stroke-miterlimit="10" stroke-dasharray="3"/></g><g transform="translate(-6,-6) scale(1,1)"><path fill="none" stroke="#000000" d="M 407.97707037816645 216.70987739278067 L 397 216 L 404.2600017837172 224.2639200202097" stroke-miterlimit="10"/></g><g transform="translate(-6,-6) scale(1,1)"><rect fill="#ffffff" stroke="none" x="64" y="312" width="123.34619140625" height="22"/></g><g transform="translate(-6,-6) scale(1,1)"><path fill="none" stroke="#000000" d="M 64 312 L 187.34619140625 312 L 187.34619140625 334 L 64 334 L 64 312 Z Z" stroke-miterlimit="10"/></g><g transform="translate(-6,-6) scale(1,1)"><path fill="none" stroke="#000000" d="M 96.39453125 312 L 96.39453125 334" stroke-miterlimit="10"/></g><g transform="translate(-6,-6) scale(1,1)"><g><path fill="none" stroke="none"/><text fill="#000000" stroke="none" font-family="Arial" font-size="13px" font-style="normal" font-weight="normal" text-decoration="none" x="100.89453125" y="329.5">Kruchten1995</text></g></g><g transform="translate(-6,-6) scale(1,1)"><g><path fill="none" stroke="none"/><text fill="#000000" stroke="none" font-family="Arial" font-size="13px" font-style="normal" font-weight="bold" text-decoration="none" x="70.444091796875" y="329.5">link</text></g></g></g></svg>