<svg version="1.1" xmlns="http://www.w3.org/2000/svg" width="452" height="475"><defs/><g><g transform="translate(-14,-6) scale(1,1)"><path fill="none" stroke="#000000" d="M 24 16 L 456 16 L 456 471 L 24 471 L 24 16" stroke-miterlimit="10"/></g><g transform="translate(-14,-6) scale(1,1)"><path fill="#ffffff" stroke="none" d="M 24 16 L 24 38 L 188.83984375 38 L 199.83984375 27 L 199.83984375 16 L 24 16"/></g><g transform="translate(-14,-6) scale(1,1)"><path fill="none" stroke="#000000" d="M 24 16 L 24 38 L 188.83984375 38 L 199.83984375 27 L 199.83984375 16 L 24 16 L 24 16" stroke-miterlimit="10"/></g><g transform="translate(-14,-6) scale(1,1)"><g><path fill="none" stroke="none"/><text fill="#000000" stroke="none" font-family="Arial" font-size="13px" font-style="normal" font-weight="normal" text-decoration="none" x="35" y="33.5">Docking System Scenario</text></g></g><g transform="translate(-14,-6) scale(1,1)"><g><path fill="none" stroke="none"/><text fill="#000000" stroke="none" font-family="Arial" font-size="13px" font-style="normal" font-weight="bold" text-decoration="none" x="29" y="33.5"></text></g></g><g transform="translate(-14,-6) scale(1,1)"><rect fill="#C0C0C0" stroke="none" x="159" y="111" width="68.94091796875" height="24" opacity="0.2"/></g><g transform="translate(-14,-6) scale(1,1)"><rect fill="#ffffff" stroke="none" x="152" y="104" width="68.94091796875" height="24"/></g><g transform="translate(-14,-6) scale(1,1)"><path fill="none" stroke="#000000" d="M 152 104 L 220.94091796875 104 L 220.94091796875 128 L 152 128 L 152 104 Z Z" stroke-miterlimit="10"/></g><g transform="translate(-14,-6) scale(1,1)"><rect fill="#ffffff" stroke="none" x="152" y="104" width="68.94091796875" height="24"/></g><g transform="translate(-14,-6) scale(1,1)"><path fill="none" stroke="#000000" d="M 152 104 L 220.94091796875 104 L 220.94091796875 128 L 152 128 L 152 104 Z Z" stroke-miterlimit="10"/></g><g transform="translate(-14,-6) scale(1,1)"><g><path fill="none" stroke="none"/><text fill="#000000" stroke="none" font-family="Arial" font-size="13px" font-style="normal" font-weight="bold" text-decoration="none" x="159.010498046875" y="123.5">dockRoot</text><path fill="none" stroke="#000000" d="M 216.44091796875 123.5 L 156.5 123.5" stroke-miterlimit="10"/></g></g><g transform="translate(-14,-6) scale(1,1)"><rect fill="#C0C0C0" stroke="none" x="191" y="175" width="100.76806640625" height="24" opacity="0.2"/></g><g transform="translate(-14,-6) scale(1,1)"><rect fill="#ffffff" stroke="none" x="184" y="168" width="100.76806640625" height="24"/></g><g transform="translate(-14,-6) scale(1,1)"><path fill="none" stroke="#000000" d="M 184 168 L 284.76806640625 168 L 284.76806640625 192 L 184 192 L 184 168 Z Z" stroke-miterlimit="10"/></g><g transform="translate(-14,-6) scale(1,1)"><rect fill="#ffffff" stroke="none" x="184" y="168" width="100.76806640625" height="24"/></g><g transform="translate(-14,-6) scale(1,1)"><path fill="none" stroke="#000000" d="M 184 168 L 284.76806640625 168 L 284.76806640625 192 L 184 192 L 184 168 Z Z" stroke-miterlimit="10"/></g><g transform="translate(-14,-6) scale(1,1)"><g><path fill="none" stroke="none"/><text fill="#000000" stroke="none" font-family="Arial" font-size="13px" font-style="normal" font-weight="bold" text-decoration="none" x="191.6357421875" y="187.5">splitPaneTrack</text><path fill="none" stroke="#000000" d="M 280.26806640625 187.5 L 188.5 187.5" stroke-miterlimit="10"/></g></g><g transform="translate(-14,-6) scale(1,1)"><rect fill="#C0C0C0" stroke="none" x="255" y="247" width="136.89892578125" height="24" opacity="0.2"/></g><g transform="translate(-14,-6) scale(1,1)"><rect fill="#ffffff" stroke="none" x="248" y="240" width="136.89892578125" height="24"/></g><g transform="translate(-14,-6) scale(1,1)"><path fill="none" stroke="#000000" d="M 248 240 L 384.89892578125 240 L 384.89892578125 264 L 248 264 L 248 240 Z Z" stroke-miterlimit="10"/></g><g transform="translate(-14,-6) scale(1,1)"><rect fill="#ffffff" stroke="none" x="248" y="240" width="136.89892578125" height="24"/></g><g transform="translate(-14,-6) scale(1,1)"><path fill="none" stroke="#000000" d="M 248 240 L 384.89892578125 240 L 384.89892578125 264 L 248 264 L 248 240 Z Z" stroke-miterlimit="10"/></g><g transform="translate(-14,-6) scale(1,1)"><g><path fill="none" stroke="none"/><text fill="#000000" stroke="none" font-family="Arial" font-size="13px" font-style="normal" font-weight="bold" text-decoration="none" x="257.447998046875" y="259.5">scrollableVBoxTrack</text><path fill="none" stroke="#000000" d="M 380.39892578125 259.5 L 252.5 259.5" stroke-miterlimit="10"/></g></g><g transform="translate(-14,-6) scale(1,1)"><rect fill="#C0C0C0" stroke="none" x="111" y="319" width="154.91357421875" height="24" opacity="0.2"/></g><g transform="translate(-14,-6) scale(1,1)"><rect fill="#ffffff" stroke="none" x="104" y="312" width="154.91357421875" height="24"/></g><g transform="translate(-14,-6) scale(1,1)"><path fill="none" stroke="#000000" d="M 104 312 L 258.91357421875 312 L 258.91357421875 336 L 104 336 L 104 312 Z Z" stroke-miterlimit="10"/></g><g transform="translate(-14,-6) scale(1,1)"><rect fill="#ffffff" stroke="none" x="104" y="312" width="154.91357421875" height="24"/></g><g transform="translate(-14,-6) scale(1,1)"><path fill="none" stroke="#000000" d="M 104 312 L 258.91357421875 312 L 258.91357421875 336 L 104 336 L 104 312 Z Z" stroke-miterlimit="10"/></g><g transform="translate(-14,-6) scale(1,1)"><g><path fill="none" stroke="none"/><text fill="#000000" stroke="none" font-family="Arial" font-size="13px" font-style="normal" font-weight="bold" text-decoration="none" x="114.247802734375" y="331.5">tabbedAccordionDock1</text><path fill="none" stroke="#000000" d="M 254.41357421875 331.5 L 108.5 331.5" stroke-miterlimit="10"/></g></g><g transform="translate(-14,-6) scale(1,1)"><rect fill="#C0C0C0" stroke="none" x="103" y="383" width="73.3017578125" height="24" opacity="0.2"/></g><g transform="translate(-14,-6) scale(1,1)"><rect fill="#ffffff" stroke="none" x="96" y="376" width="73.3017578125" height="24"/></g><g transform="translate(-14,-6) scale(1,1)"><path fill="none" stroke="#000000" d="M 96 376 L 169.3017578125 376 L 169.3017578125 400 L 96 400 L 96 376 Z Z" stroke-miterlimit="10"/></g><g transform="translate(-14,-6) scale(1,1)"><rect fill="#ffffff" stroke="none" x="96" y="376" width="73.3017578125" height="24"/></g><g transform="translate(-14,-6) scale(1,1)"><path fill="none" stroke="#000000" d="M 96 376 L 169.3017578125 376 L 169.3017578125 400 L 96 400 L 96 376 Z Z" stroke-miterlimit="10"/></g><g transform="translate(-14,-6) scale(1,1)"><g><path fill="none" stroke="none"/><text fill="#000000" stroke="none" font-family="Arial" font-size="13px" font-style="normal" font-weight="bold" text-decoration="none" x="102.66455078125" y="395.5">dockItem1</text><path fill="none" stroke="#000000" d="M 164.8017578125 395.5 L 100.5 395.5" stroke-miterlimit="10"/></g></g><g transform="translate(-14,-6) scale(1,1)"><rect fill="#C0C0C0" stroke="none" x="215" y="383" width="73.3017578125" height="24" opacity="0.2"/></g><g transform="translate(-14,-6) scale(1,1)"><rect fill="#ffffff" stroke="none" x="208" y="376" width="73.3017578125" height="24"/></g><g transform="translate(-14,-6) scale(1,1)"><path fill="none" stroke="#000000" d="M 208 376 L 281.3017578125 376 L 281.3017578125 400 L 208 400 L 208 376 Z Z" stroke-miterlimit="10"/></g><g transform="translate(-14,-6) scale(1,1)"><rect fill="#ffffff" stroke="none" x="208" y="376" width="73.3017578125" height="24"/></g><g transform="translate(-14,-6) scale(1,1)"><path fill="none" stroke="#000000" d="M 208 376 L 281.3017578125 376 L 281.3017578125 400 L 208 400 L 208 376 Z Z" stroke-miterlimit="10"/></g><g transform="translate(-14,-6) scale(1,1)"><g><path fill="none" stroke="none"/><text fill="#000000" stroke="none" font-family="Arial" font-size="13px" font-style="normal" font-weight="bold" text-decoration="none" x="214.66455078125" y="395.5">dockItem2</text><path fill="none" stroke="#000000" d="M 276.8017578125 395.5 L 212.5 395.5" stroke-miterlimit="10"/></g></g><g transform="translate(-14,-6) scale(1,1)"><path fill="none" stroke="#000000" d="M 142 375 L 171 337" stroke-miterlimit="10"/></g><g transform="translate(-14,-6) scale(1,1)"><path fill="none" stroke="#000000" d="M 231 375 L 194 337" stroke-miterlimit="10"/></g><g transform="translate(-14,-6) scale(1,1)"><path fill="none" stroke="#000000" d="M 205 311 L 292 265" stroke-miterlimit="10"/></g><g transform="translate(-14,-6) scale(1,1)"><path fill="none" stroke="#000000" d="M 301 239 L 249 193" stroke-miterlimit="10"/></g><g transform="translate(-14,-6) scale(1,1)"><path fill="none" stroke="#000000" d="M 224 167 L 196 129" stroke-miterlimit="10"/></g><g transform="translate(-14,-6) scale(1,1)"><rect fill="#C0C0C0" stroke="none" x="111" y="247" width="105.08447265625" height="24" opacity="0.2"/></g><g transform="translate(-14,-6) scale(1,1)"><rect fill="#ffffff" stroke="none" x="104" y="240" width="105.08447265625" height="24"/></g><g transform="translate(-14,-6) scale(1,1)"><path fill="none" stroke="#000000" d="M 104 240 L 209.08447265625 240 L 209.08447265625 264 L 104 264 L 104 240 Z Z" stroke-miterlimit="10"/></g><g transform="translate(-14,-6) scale(1,1)"><rect fill="#ffffff" stroke="none" x="104" y="240" width="105.08447265625" height="24"/></g><g transform="translate(-14,-6) scale(1,1)"><path fill="none" stroke="#000000" d="M 104 240 L 209.08447265625 240 L 209.08447265625 264 L 104 264 L 104 240 Z Z" stroke-miterlimit="10"/></g><g transform="translate(-14,-6) scale(1,1)"><g><path fill="none" stroke="none"/><text fill="#000000" stroke="none" font-family="Arial" font-size="13px" font-style="normal" font-weight="bold" text-decoration="none" x="112.108642578125" y="259.5">singleItemDock</text><path fill="none" stroke="#000000" d="M 204.58447265625 259.5 L 108.5 259.5" stroke-miterlimit="10"/></g></g><g transform="translate(-14,-6) scale(1,1)"><path fill="none" stroke="#000000" d="M 170 239 L 220 193" stroke-miterlimit="10"/></g><g transform="translate(-14,-6) scale(1,1)"><rect fill="#C0C0C0" stroke="none" x="287" y="319" width="154.91357421875" height="24" opacity="0.2"/></g><g transform="translate(-14,-6) scale(1,1)"><rect fill="#ffffff" stroke="none" x="280" y="312" width="154.91357421875" height="24"/></g><g transform="translate(-14,-6) scale(1,1)"><path fill="none" stroke="#000000" d="M 280 312 L 434.91357421875 312 L 434.91357421875 336 L 280 336 L 280 312 Z Z" stroke-miterlimit="10"/></g><g transform="translate(-14,-6) scale(1,1)"><rect fill="#ffffff" stroke="none" x="280" y="312" width="154.91357421875" height="24"/></g><g transform="translate(-14,-6) scale(1,1)"><path fill="none" stroke="#000000" d="M 280 312 L 434.91357421875 312 L 434.91357421875 336 L 280 336 L 280 312 Z Z" stroke-miterlimit="10"/></g><g transform="translate(-14,-6) scale(1,1)"><g><path fill="none" stroke="none"/><text fill="#000000" stroke="none" font-family="Arial" font-size="13px" font-style="normal" font-weight="bold" text-decoration="none" x="290.247802734375" y="331.5">tabbedAccordionDock2</text><path fill="none" stroke="#000000" d="M 430.41357421875 331.5 L 284.5 331.5" stroke-miterlimit="10"/></g></g><g transform="translate(-14,-6) scale(1,1)"><path fill="none" stroke="#000000" d="M 350 311 L 323 265" stroke-miterlimit="10"/></g><g transform="translate(-14,-6) scale(1,1)"><rect fill="#C0C0C0" stroke="none" x="351" y="383" width="73.3017578125" height="24" opacity="0.2"/></g><g transform="translate(-14,-6) scale(1,1)"><rect fill="#ffffff" stroke="none" x="344" y="376" width="73.3017578125" height="24"/></g><g transform="translate(-14,-6) scale(1,1)"><path fill="none" stroke="#000000" d="M 344 376 L 417.3017578125 376 L 417.3017578125 400 L 344 400 L 344 376 Z Z" stroke-miterlimit="10"/></g><g transform="translate(-14,-6) scale(1,1)"><rect fill="#ffffff" stroke="none" x="344" y="376" width="73.3017578125" height="24"/></g><g transform="translate(-14,-6) scale(1,1)"><path fill="none" stroke="#000000" d="M 344 376 L 417.3017578125 376 L 417.3017578125 400 L 344 400 L 344 376 Z Z" stroke-miterlimit="10"/></g><g transform="translate(-14,-6) scale(1,1)"><g><path fill="none" stroke="none"/><text fill="#000000" stroke="none" font-family="Arial" font-size="13px" font-style="normal" font-weight="bold" text-decoration="none" x="350.66455078125" y="395.5">dockItem3</text><path fill="none" stroke="#000000" d="M 412.8017578125 395.5 L 348.5 395.5" stroke-miterlimit="10"/></g></g><g transform="translate(-14,-6) scale(1,1)"><path fill="none" stroke="#000000" d="M 375 375 L 362 337" stroke-miterlimit="10"/></g></g></svg>