<svg version="1.1" xmlns="http://www.w3.org/2000/svg" xmlns:xlink="http://www.w3.org/1999/xlink" width="884" height="500"><defs/><g><g transform="translate(2,2) scale(1,1)"><path fill="none" stroke="#000000" d="M 8 8 L 872 8 L 872 488 L 8 488 L 8 8" stroke-miterlimit="10"/></g><g transform="translate(2,2) scale(1,1)"><path fill="#ffffff" stroke="none" d="M 8 8 L 8 30 L 143.919921875 30 L 154.919921875 19 L 154.919921875 8 L 8 8"/></g><g transform="translate(2,2) scale(1,1)"><path fill="none" stroke="#000000" d="M 8 8 L 8 30 L 143.919921875 30 L 154.919921875 19 L 154.919921875 8 L 8 8 L 8 8" stroke-miterlimit="10"/></g><g transform="translate(2,2) scale(1,1)"><g><path fill="none" stroke="none"/><text fill="#000000" stroke="none" font-family="Arial" font-size="13px" font-style="normal" font-weight="normal" text-decoration="none" x="48.6181640625" y="25.5">MVC in JavaFX</text></g></g><g transform="translate(2,2) scale(1,1)"><g><path fill="none" stroke="none"/><text fill="#000000" stroke="none" font-family="Arial" font-size="13px" font-style="normal" font-weight="bold" text-decoration="none" x="13" y="25.5">class</text></g></g><g transform="translate(2,2) scale(1,1)"><g><path fill="none" stroke="none"/><text fill="#000000" stroke="none" font-family="Arial" font-size="13px" font-style="normal" font-weight="normal" text-decoration="none" x="21" y="58">This diagram shows the MVC</text><text fill="#000000" stroke="none" font-family="Arial" font-size="13px" font-style="normal" font-weight="normal" text-decoration="none" x="21" y="71">pattern in JavaFX.</text></g></g><g transform="translate(2,2) scale(1,1)"><rect fill="#C0C0C0" stroke="none" x="71" y="255" width="162.16259765625" height="59" opacity="0.2"/></g><g transform="translate(2,2) scale(1,1)"><rect fill="#ffffff" stroke="none" x="64" y="248" width="162.16259765625" height="59"/></g><g transform="translate(2,2) scale(1,1)"><path fill="none" stroke="#000000" d="M 64 248 L 226.16259765625 248 L 226.16259765625 307 L 64 307 L 64 248 Z Z" stroke-miterlimit="10"/></g><g transform="translate(2,2) scale(1,1)"><path fill="none" stroke="#000000" d="M 64 288 L 226.16259765625 288" stroke-miterlimit="10"/></g><g transform="translate(2,2) scale(1,1)"><path fill="none" stroke="#000000" d="M 64 298 L 226.16259765625 298" stroke-miterlimit="10"/></g><g transform="translate(2,2) scale(1,1)"><g><path fill="none" stroke="none"/><text fill="#000000" stroke="none" font-family="Arial" font-size="13px" font-style="normal" font-weight="bold" text-decoration="none" x="124.127685546875" y="267.5">Control</text></g></g><g transform="translate(2,2) scale(1,1)"><g><path fill="none" stroke="none"/><text fill="#000000" stroke="none" font-family="Arial" font-size="13px" font-style="normal" font-weight="normal" text-decoration="none" x="68.5" y="282.5">(from javafx.scene.control)</text></g></g><g transform="translate(2,2) scale(1,1)"><path fill="#C0C0C0" stroke="none" d="M 327 432 C 327 422.6111584 417.662328 415 529.5 415 C 641.337672 415 732 422.6111584 732 432 C 732 441.3888416 641.337672 449 529.5 449 C 417.662328 449 327 441.3888416 327 432 Z" opacity="0.2"/></g><g transform="translate(2,2) scale(1,1)"><path fill="#e2e2e2" stroke="none" d="M 320 425 C 320 415.6111584 410.662328 408 522.5 408 C 634.337672 408 725 415.6111584 725 425 C 725 434.3888416 634.337672 442 522.5 442 C 410.662328 442 320 434.3888416 320 425 Z"/></g><g transform="translate(2,2) scale(1,1)"><path fill="none" stroke="#000000" d="M 320 425 C 320 415.6111584 410.662328 408 522.5 408 C 634.337672 408 725 415.6111584 725 425 C 725 434.3888416 634.337672 442 522.5 442 C 410.662328 442 320 434.3888416 320 425 Z" stroke-miterlimit="10" stroke-dasharray="5"/></g><g transform="translate(2,2) scale(1,1)"><g><path fill="none" stroke="none"/><text fill="#000000" stroke="none" font-family="Arial" font-size="13px" font-style="normal" font-weight="bold" text-decoration="none" x="392.572998046875" y="432">mvcInJavaFX: Model-View-Controller Pattern</text></g></g><g transform="translate(2,2) scale(1,1)"><rect fill="#C0C0C0" stroke="none" x="311" y="137" width="182.16259765625" height="59" opacity="0.2"/></g><g transform="translate(2,2) scale(1,1)"><rect fill="#C0C0C0" stroke="none" x="419.45361328125" y="119" width="82.708984375" height="22" opacity="0.2"/></g><g transform="translate(2,2) scale(1,1)"><rect fill="#ffffff" stroke="none" x="304" y="130" width="182.16259765625" height="59"/></g><g transform="translate(2,2) scale(1,1)"><path fill="none" stroke="#000000" d="M 304 130 L 486.16259765625 130 L 486.16259765625 189 L 304 189 L 304 130 Z Z" stroke-miterlimit="10"/></g><g transform="translate(2,2) scale(1,1)"><path fill="none" stroke="#000000" d="M 304 170 L 486.16259765625 170" stroke-miterlimit="10"/></g><g transform="translate(2,2) scale(1,1)"><path fill="none" stroke="#000000" d="M 304 180 L 486.16259765625 180" stroke-miterlimit="10"/></g><g transform="translate(2,2) scale(1,1)"><g><path fill="none" stroke="none"/><text fill="#000000" stroke="none" font-family="Arial" font-size="13px" font-style="normal" font-weight="bold" text-decoration="none" x="382.436767578125" y="149.5">Skin</text></g></g><g transform="translate(2,2) scale(1,1)"><g><path fill="none" stroke="none"/><text fill="#000000" stroke="none" font-family="Arial" font-size="13px" font-style="normal" font-weight="normal" text-decoration="none" x="318.5" y="164.5">(from javafx.scene.control)</text></g></g><g transform="translate(2,2) scale(1,1)"><rect fill="#ffffff" stroke="none" x="412.45361328125" y="112" width="82.708984375" height="22"/></g><g transform="translate(2,2) scale(1,1)"><path fill="none" stroke="#000000" d="M 412.45361328125 112 L 495.16259765625 112 L 495.16259765625 134 L 412.45361328125 134 L 412.45361328125 112 Z Z" stroke-miterlimit="10" stroke-dasharray="3"/></g><g transform="translate(2,2) scale(1,1)"><g><path fill="none" stroke="none"/><text fill="#000000" stroke="none" font-family="Arial" font-size="13px" font-style="normal" font-weight="normal" text-decoration="none" x="417.45361328125" y="129.5">C: Skinnable</text></g></g><g transform="translate(2,2) scale(1,1)"><path fill="none" stroke="#000000" d="M 418 190 L 514 407" stroke-miterlimit="10" stroke-dasharray="3"/></g><g transform="translate(2,2) scale(1,1)"><path fill="#FFFFFF" stroke="none" d="M 498.0776430345609 391.8184800278387 L 514 407 L 513.4761491382994 385.00623769623087"/></g><g transform="translate(2,2) scale(1,1)"><path fill="none" stroke="#000000" d="M 498.0776430345609 391.8184800278387 L 514 407 L 513.4761491382994 385.00623769623087 L 498.0776430345609 391.8184800278387" stroke-miterlimit="10"/></g><g transform="translate(2,2) scale(1,1)"><g><path fill="none" stroke="none"/><text fill="#000000" stroke="none" font-family="Arial" font-size="13px" font-style="normal" font-weight="normal" text-decoration="none" x="461.5" y="297.5">+View</text></g></g><g transform="translate(2,2) scale(1,1)"><rect fill="#C0C0C0" stroke="none" x="567" y="148" width="288.38427734375" height="59" opacity="0.2"/></g><g transform="translate(2,2) scale(1,1)"><rect fill="#C0C0C0" stroke="none" x="807.6943359375" y="130" width="56.68994140625" height="22" opacity="0.2"/></g><g transform="translate(2,2) scale(1,1)"><rect fill="#ffffff" stroke="none" x="560" y="141" width="288.38427734375" height="59"/></g><g transform="translate(2,2) scale(1,1)"><path fill="none" stroke="#000000" d="M 560 141 L 848.38427734375 141 L 848.38427734375 200 L 560 200 L 560 141 Z Z" stroke-miterlimit="10"/></g><g transform="translate(2,2) scale(1,1)"><path fill="none" stroke="#000000" d="M 560 181 L 848.38427734375 181" stroke-miterlimit="10"/></g><g transform="translate(2,2) scale(1,1)"><path fill="none" stroke="#000000" d="M 560 191 L 848.38427734375 191" stroke-miterlimit="10"/></g><g transform="translate(2,2) scale(1,1)"><g><path fill="none" stroke="none"/><text fill="#000000" stroke="none" font-family="Arial" font-size="13px" font-style="normal" font-weight="bold" text-decoration="none" x="663.72265625" y="160.5">BehaviorBase</text></g></g><g transform="translate(2,2) scale(1,1)"><g><path fill="none" stroke="none"/><text fill="#000000" stroke="none" font-family="Arial" font-size="13px" font-style="normal" font-weight="normal" text-decoration="none" x="574.5" y="175.5">(from com.sun.javafx.scene.control.behavior)</text></g></g><g transform="translate(2,2) scale(1,1)"><rect fill="#ffffff" stroke="none" x="800.6943359375" y="123" width="56.68994140625" height="22"/></g><g transform="translate(2,2) scale(1,1)"><path fill="none" stroke="#000000" d="M 800.6943359375 123 L 857.38427734375 123 L 857.38427734375 145 L 800.6943359375 145 L 800.6943359375 123 Z Z" stroke-miterlimit="10" stroke-dasharray="3"/></g><g transform="translate(2,2) scale(1,1)"><g><path fill="none" stroke="none"/><text fill="#000000" stroke="none" font-family="Arial" font-size="13px" font-style="normal" font-weight="normal" text-decoration="none" x="805.6943359375" y="140.5">N: Node</text></g></g><g transform="translate(2,2) scale(1,1)"><path fill="none" stroke="#000000" d="M 681 201 L 535 407" stroke-miterlimit="10" stroke-dasharray="3"/></g><g transform="translate(2,2) scale(1,1)"><path fill="#FFFFFF" stroke="none" d="M 539.8840429582752 385.5489831387479 L 535 407 L 553.6216993813412 395.2853804094645"/></g><g transform="translate(2,2) scale(1,1)"><path fill="none" stroke="#000000" d="M 539.8840429582752 385.5489831387479 L 535 407 L 553.6216993813412 395.2853804094645 L 539.8840429582752 385.5489831387479" stroke-miterlimit="10"/></g><g transform="translate(2,2) scale(1,1)"><g><path fill="none" stroke="none"/><text fill="#000000" stroke="none" font-family="Arial" font-size="13px" font-style="normal" font-weight="normal" text-decoration="none" x="588.5" y="318.5">+Controller</text></g></g><g transform="translate(2,2) scale(1,1)"><rect fill="#C0C0C0" stroke="none" x="71" y="367" width="171.5634765625" height="63" opacity="0.2"/></g><g transform="translate(2,2) scale(1,1)"><rect fill="#ffffff" stroke="none" x="64" y="360" width="171.5634765625" height="63"/></g><g transform="translate(2,2) scale(1,1)"><path fill="none" stroke="#000000" d="M 64 360 L 235.5634765625 360 L 235.5634765625 423 L 64 423 L 64 360 Z Z" stroke-miterlimit="10"/></g><g transform="translate(2,2) scale(1,1)"><g><path fill="none" stroke="none"/><text fill="#000000" stroke="none" font-family="Arial" font-size="13px" font-style="normal" font-weight="normal" text-decoration="none" x="117.621337890625" y="377.5">«interface»</text></g></g><g transform="translate(2,2) scale(1,1)"><g><path fill="none" stroke="none"/><text fill="#000000" stroke="none" font-family="Arial" font-size="13px" font-style="normal" font-weight="bold" text-decoration="none" x="125.21630859375" y="392.5">Property</text></g></g><g transform="translate(2,2) scale(1,1)"><g><path fill="none" stroke="none"/><text fill="#000000" stroke="none" font-family="Arial" font-size="13px" font-style="normal" font-weight="normal" text-decoration="none" x="68.5" y="407.5">(from javafx.beans.property)</text></g></g><g transform="translate(2,2) scale(1,1)"><path fill="none" stroke="#000000" d="M 148 359 L 146 308" stroke-miterlimit="10"/></g><g transform="translate(2,2) scale(1,1)"><path fill="#000000" stroke="none" d="M 150.60451481241955 317.9899170838505 L 146 308 L 142.1919455344537 318.3198217614178 L 146.8620824672978 329.9831029160939"/></g><g transform="translate(2,2) scale(1,1)"><path fill="none" stroke="#000000" d="M 150.60451481241955 317.9899170838505 L 146 308 L 142.1919455344537 318.3198217614178 L 146.8620824672978 329.9831029160939 L 150.60451481241955 317.9899170838505" stroke-miterlimit="10"/></g><g transform="translate(2,2) scale(1,1)"><rect fill="#C0C0C0" stroke="none" x="71" y="135" width="162.16259765625" height="63" opacity="0.2"/></g><g transform="translate(2,2) scale(1,1)"><rect fill="#ffffff" stroke="none" x="64" y="128" width="162.16259765625" height="63"/></g><g transform="translate(2,2) scale(1,1)"><path fill="none" stroke="#000000" d="M 64 128 L 226.16259765625 128 L 226.16259765625 191 L 64 191 L 64 128 Z Z" stroke-miterlimit="10"/></g><g transform="translate(2,2) scale(1,1)"><g><path fill="none" stroke="none"/><text fill="#000000" stroke="none" font-family="Arial" font-size="13px" font-style="normal" font-weight="normal" text-decoration="none" x="112.9208984375" y="145.5">«interface»</text></g></g><g transform="translate(2,2) scale(1,1)"><g><path fill="none" stroke="none"/><text fill="#000000" stroke="none" font-family="Arial" font-size="13px" font-style="normal" font-weight="bold" text-decoration="none" x="116.53271484375" y="160.5">Skinnable</text></g></g><g transform="translate(2,2) scale(1,1)"><g><path fill="none" stroke="none"/><text fill="#000000" stroke="none" font-family="Arial" font-size="13px" font-style="normal" font-weight="normal" text-decoration="none" x="68.5" y="175.5">(from javafx.scene.control)</text></g></g><g transform="translate(2,2) scale(1,1)"><path fill="none" stroke="#000000" d="M 145 247 L 145 192" stroke-miterlimit="10" stroke-dasharray="3"/></g><g transform="translate(2,2) scale(1,1)"><path fill="#FFFFFF" stroke="none" d="M 153.41903551203197 212.3253497152483 L 145 192 L 136.58096448796803 212.3253497152483"/></g><g transform="translate(2,2) scale(1,1)"><path fill="none" stroke="#000000" d="M 153.41903551203197 212.3253497152483 L 145 192 L 136.58096448796803 212.3253497152483 L 153.41903551203197 212.3253497152483" stroke-miterlimit="10"/></g><g transform="translate(2,2) scale(1,1)"><path fill="none" stroke="#000000" d="M 303 153 L 227 156" stroke-miterlimit="10"/></g><g transform="translate(2,2) scale(1,1)"><path fill="#000000" stroke="none" d="M 236.98873063321767 151.39291194603155 L 227 156 L 237.32080237067865 159.8053959617094 L 248.98288011499832 155.1322547323027"/></g><g transform="translate(2,2) scale(1,1)"><path fill="none" stroke="#000000" d="M 236.98873063321767 151.39291194603155 L 227 156 L 237.32080237067865 159.8053959617094 L 248.98288011499832 155.1322547323027 L 236.98873063321767 151.39291194603155" stroke-miterlimit="10"/></g><g transform="translate(2,2) scale(1,1)"><path fill="none" stroke="#000000" d="M 237 399 L 325 407" stroke-miterlimit="10" stroke-dasharray="3"/></g><g transform="translate(2,2) scale(1,1)"><path fill="#FFFFFF" stroke="none" d="M 303.99589863846364 413.5442895713979 L 325 407 L 305.5203459605442 396.77536902851193"/></g><g transform="translate(2,2) scale(1,1)"><path fill="none" stroke="#000000" d="M 303.99589863846364 413.5442895713979 L 325 407 L 305.5203459605442 396.77536902851193 L 303.99589863846364 413.5442895713979" stroke-miterlimit="10"/></g><g transform="translate(2,2) scale(1,1)"><g><path fill="none" stroke="none"/><text fill="#000000" stroke="none" font-family="Arial" font-size="13px" font-style="normal" font-weight="normal" text-decoration="none" x="260.5" y="394.5">+Model</text></g></g><g transform="translate(2,2) scale(1,1)"><path fill="none" stroke="#000000" d="M 559 156 L 497 153" stroke-miterlimit="10"/></g><g transform="translate(2,2) scale(1,1)"><path fill="#000000" stroke="none" d="M 507.3542470303427 149.28656918273148 L 497 153 L 506.94735040159367 157.69576617687832 L 518.974290713804 154.06327213131308"/></g><g transform="translate(2,2) scale(1,1)"><path fill="none" stroke="#000000" d="M 507.3542470303427 149.28656918273148 L 497 153 L 506.94735040159367 157.69576617687832 L 518.974290713804 154.06327213131308 L 507.3542470303427 149.28656918273148" stroke-miterlimit="10"/></g></g></svg>