<svg version="1.1" xmlns="http://www.w3.org/2000/svg" xmlns:xlink="http://www.w3.org/1999/xlink" width="868" height="676"><defs/><g><g transform="translate(2,2) scale(1,1)"><path fill="none" stroke="#000000" d="M 8 8 L 856 8 L 856 664 L 8 664 L 8 8" stroke-miterlimit="10"/></g><g transform="translate(2,2) scale(1,1)"><path fill="#ffffff" stroke="none" d="M 8 8 L 8 30 L 198.12890625 30 L 209.12890625 19 L 209.12890625 8 L 8 8"/></g><g transform="translate(2,2) scale(1,1)"><path fill="none" stroke="#000000" d="M 8 8 L 8 30 L 198.12890625 30 L 209.12890625 19 L 209.12890625 8 L 8 8 L 8 8" stroke-miterlimit="10"/></g><g transform="translate(2,2) scale(1,1)"><g><path fill="none" stroke="none"/><text fill="#000000" stroke="none" font-family="Arial" font-size="13px" font-style="normal" font-weight="normal" text-decoration="none" x="48.6181640625" y="25.5">Composite Pattern Roles</text></g></g><g transform="translate(2,2) scale(1,1)"><g><path fill="none" stroke="none"/><text fill="#000000" stroke="none" font-family="Arial" font-size="13px" font-style="normal" font-weight="bold" text-decoration="none" x="13" y="25.5">class</text></g></g><g transform="translate(2,2) scale(1,1)"><path fill="#C0C0C0" stroke="none" d="M 54 307 C 54 238.5166848 118.4709888 183 198 183 C 277.5290112 183 342 238.5166848 342 307 C 342 375.4833152 277.5290112 431 198 431 C 118.4709888 431 54 375.4833152 54 307 Z" opacity="0.2"/></g><g transform="translate(2,2) scale(1,1)"><path fill="#ffffff" stroke="none" d="M 47 300 C 47 231.5166848 111.4709888 176 191 176 C 270.5290112 176 335 231.5166848 335 300 C 335 368.4833152 270.5290112 424 191 424 C 111.4709888 424 47 368.4833152 47 300 Z"/></g><g transform="translate(2,2) scale(1,1)"><path fill="none" stroke="#000000" d="M 47 300 C 47 231.5166848 111.4709888 176 191 176 C 270.5290112 176 335 231.5166848 335 300 C 335 368.4833152 270.5290112 424 191 424 C 111.4709888 424 47 368.4833152 47 300 Z" stroke-miterlimit="10" stroke-dasharray="5"/></g><g transform="translate(2,2) scale(1,1)"><g><path fill="none" stroke="none"/><text fill="#000000" stroke="none" font-family="Arial" font-size="13px" font-style="normal" font-weight="bold" text-decoration="none" x="137.168701171875" y="195.5">Composite Pattern</text></g></g><g transform="translate(2,2) scale(1,1)"><rect fill="#ffffff" stroke="none" x="8" y="32" width="99" height="22"/></g><g transform="translate(2,2) scale(1,1)"><path fill="none" stroke="#000000" d="M 8 32 L 107 32 L 107 54 L 8 54 L 8 32 Z Z" stroke-miterlimit="10"/></g><g transform="translate(2,2) scale(1,1)"><path fill="none" stroke="#000000" d="M 40.39453125 32 L 40.39453125 54" stroke-miterlimit="10"/></g><g transform="translate(2,2) scale(1,1)"><g><path fill="none" stroke="none"/><text fill="#000000" stroke="none" font-family="Arial" font-size="13px" font-style="normal" font-weight="normal" text-decoration="none" x="44.89453125" y="49.5">GoF1995</text></g></g><g transform="translate(2,2) scale(1,1)"><g><path fill="none" stroke="none"/><text fill="#000000" stroke="none" font-family="Arial" font-size="13px" font-style="normal" font-weight="bold" text-decoration="none" x="14.444091796875" y="49.5">link</text></g></g><g transform="translate(2,2) scale(1,1)"><rect fill="#C0C0C0" stroke="none" x="128" y="263" width="141.91357421875" height="24" opacity="0.2"/></g><g transform="translate(2,2) scale(1,1)"><rect fill="#ffffff" stroke="none" x="121" y="256" width="141.91357421875" height="24"/></g><g transform="translate(2,2) scale(1,1)"><path fill="none" stroke="#000000" d="M 121 256 L 262.91357421875 256 L 262.91357421875 280 L 121 280 L 121 256 Z Z" stroke-miterlimit="10"/></g><g transform="translate(2,2) scale(1,1)"><g><path fill="none" stroke="none"/><text fill="#000000" stroke="none" font-family="Arial" font-size="13px" font-style="normal" font-weight="bold" text-decoration="none" x="158.352294921875" y="275.5">Component</text></g></g><g transform="translate(2,2) scale(1,1)"><rect fill="#C0C0C0" stroke="none" x="128" y="295" width="141.91357421875" height="24" opacity="0.2"/></g><g transform="translate(2,2) scale(1,1)"><rect fill="#ffffff" stroke="none" x="121" y="288" width="141.91357421875" height="24"/></g><g transform="translate(2,2) scale(1,1)"><path fill="none" stroke="#000000" d="M 121 288 L 262.91357421875 288 L 262.91357421875 312 L 121 312 L 121 288 Z Z" stroke-miterlimit="10"/></g><g transform="translate(2,2) scale(1,1)"><g><path fill="none" stroke="none"/><text fill="#000000" stroke="none" font-family="Arial" font-size="13px" font-style="normal" font-weight="bold" text-decoration="none" x="179.305908203125" y="307.5">Leaf</text></g></g><g transform="translate(2,2) scale(1,1)"><rect fill="#C0C0C0" stroke="none" x="128" y="327" width="141.91357421875" height="24" opacity="0.2"/></g><g transform="translate(2,2) scale(1,1)"><rect fill="#ffffff" stroke="none" x="121" y="320" width="141.91357421875" height="24"/></g><g transform="translate(2,2) scale(1,1)"><path fill="none" stroke="#000000" d="M 121 320 L 262.91357421875 320 L 262.91357421875 344 L 121 344 L 121 320 Z Z" stroke-miterlimit="10"/></g><g transform="translate(2,2) scale(1,1)"><g><path fill="none" stroke="none"/><text fill="#000000" stroke="none" font-family="Arial" font-size="13px" font-style="normal" font-weight="bold" text-decoration="none" x="160.88818359375" y="339.5">Composite</text></g></g><g transform="translate(2,2) scale(1,1)"><path fill="none" stroke="#000000" d="M 439 247 L 264 262" stroke-miterlimit="10" stroke-dasharray="3"/></g><g transform="translate(2,2) scale(1,1)"><path fill="none" stroke="#000000" d="M 439 328 L 264 308" stroke-miterlimit="10" stroke-dasharray="3"/></g><g transform="translate(2,2) scale(1,1)"><path fill="none" stroke="#000000" d="M 456 407 L 237 345" stroke-miterlimit="10" stroke-dasharray="3"/></g><g transform="translate(2,2) scale(1,1)"><rect fill="#C0C0C0" stroke="none" x="128" y="231" width="141.91357421875" height="24" opacity="0.2"/></g><g transform="translate(2,2) scale(1,1)"><rect fill="#ffffff" stroke="none" x="121" y="224" width="141.91357421875" height="24"/></g><g transform="translate(2,2) scale(1,1)"><path fill="none" stroke="#000000" d="M 121 224 L 262.91357421875 224 L 262.91357421875 248 L 121 248 L 121 224 Z Z" stroke-miterlimit="10"/></g><g transform="translate(2,2) scale(1,1)"><g><path fill="none" stroke="none"/><text fill="#000000" stroke="none" font-family="Arial" font-size="13px" font-style="normal" font-weight="bold" text-decoration="none" x="155.108642578125" y="243.5">Client: Client</text></g></g><g transform="translate(2,2) scale(1,1)"><path fill="#ffffff" stroke="none" d="M 440 64 L 821 64 L 831 74 L 831 156 L 440 156 L 440 64"/></g><g transform="translate(2,2) scale(1,1)"><path fill="none" stroke="#000000" d="M 440 64 L 821 64 L 831 74 L 831 156 L 440 156 L 440 64 L 440 64" stroke-miterlimit="10"/></g><g transform="translate(2,2) scale(1,1)"><path fill="none" stroke="#000000" d="M 821 64 L 821 74 L 831 74 L 821 64" stroke-miterlimit="10"/></g><g transform="translate(2,2) scale(1,1)"><g><path fill="none" stroke="none"/><text fill="#000000" stroke="none" font-family="Arial" font-size="13px" font-style="normal" font-weight="normal" text-decoration="none" x="445" y="82">{Manipulates objects in the composition through the Component</text><text fill="#000000" stroke="none" font-family="Arial" font-size="13px" font-style="normal" font-weight="normal" text-decoration="none" x="445" y="95">interface.}</text></g></g><g transform="translate(2,2) scale(1,1)"><path fill="none" stroke="#000000" d="M 466 158 L 237 223" stroke-miterlimit="10" stroke-dasharray="3"/></g><g transform="translate(2,2) scale(1,1)"><path fill="#ffffff" stroke="none" d="M 440 168 L 821 168 L 831 178 L 831 294 L 440 294 L 440 168"/></g><g transform="translate(2,2) scale(1,1)"><path fill="none" stroke="#000000" d="M 440 168 L 821 168 L 831 178 L 831 294 L 440 294 L 440 168 L 440 168" stroke-miterlimit="10"/></g><g transform="translate(2,2) scale(1,1)"><path fill="none" stroke="#000000" d="M 821 168 L 821 178 L 831 178 L 821 168" stroke-miterlimit="10"/></g><g transform="translate(2,2) scale(1,1)"><g><path fill="none" stroke="none"/><text fill="#000000" stroke="none" font-family="Arial" font-size="13px" font-style="normal" font-weight="normal" text-decoration="none" x="445" y="186">{Declares the interface for objects in the composition.</text></g></g><g transform="translate(2,2) scale(1,1)"><g><path fill="none" stroke="none"/></g></g><g transform="translate(2,2) scale(1,1)"><g><path fill="none" stroke="none"/><text fill="#000000" stroke="none" font-family="Arial" font-size="13px" font-style="normal" font-weight="normal" text-decoration="none" x="445" y="203">Implements default behavior for the interface common to all</text><text fill="#000000" stroke="none" font-family="Arial" font-size="13px" font-style="normal" font-weight="normal" text-decoration="none" x="445" y="216">classes, as appropriate.</text></g></g><g transform="translate(2,2) scale(1,1)"><g><path fill="none" stroke="none"/></g></g><g transform="translate(2,2) scale(1,1)"><g><path fill="none" stroke="none"/><text fill="#000000" stroke="none" font-family="Arial" font-size="13px" font-style="normal" font-weight="normal" text-decoration="none" x="445" y="233">Declares an interface for accessing and managing its child</text><text fill="#000000" stroke="none" font-family="Arial" font-size="13px" font-style="normal" font-weight="normal" text-decoration="none" x="445" y="246">components.</text></g></g><g transform="translate(2,2) scale(1,1)"><g><path fill="none" stroke="none"/></g></g><g transform="translate(2,2) scale(1,1)"><g><path fill="none" stroke="none"/><text fill="#000000" stroke="none" font-family="Arial" font-size="13px" font-style="normal" font-weight="normal" text-decoration="none" x="445" y="263">(optional) Defines an interface for accessing a component’s</text><text fill="#000000" stroke="none" font-family="Arial" font-size="13px" font-style="normal" font-weight="normal" text-decoration="none" x="445" y="276">parent in the recursive structure, and implements it if that’s</text><text fill="#000000" stroke="none" font-family="Arial" font-size="13px" font-style="normal" font-weight="normal" text-decoration="none" x="445" y="289">appropriate.}</text></g></g><g transform="translate(2,2) scale(1,1)"><path fill="#ffffff" stroke="none" d="M 440 408 L 821 408 L 831 418 L 831 508 L 440 508 L 440 408"/></g><g transform="translate(2,2) scale(1,1)"><path fill="none" stroke="#000000" d="M 440 408 L 821 408 L 831 418 L 831 508 L 440 508 L 440 408 L 440 408" stroke-miterlimit="10"/></g><g transform="translate(2,2) scale(1,1)"><path fill="none" stroke="#000000" d="M 821 408 L 821 418 L 831 418 L 821 408" stroke-miterlimit="10"/></g><g transform="translate(2,2) scale(1,1)"><g><path fill="none" stroke="none"/><text fill="#000000" stroke="none" font-family="Arial" font-size="13px" font-style="normal" font-weight="normal" text-decoration="none" x="445" y="426">{Defines behavior for components having children.</text></g></g><g transform="translate(2,2) scale(1,1)"><g><path fill="none" stroke="none"/></g></g><g transform="translate(2,2) scale(1,1)"><g><path fill="none" stroke="none"/><text fill="#000000" stroke="none" font-family="Arial" font-size="13px" font-style="normal" font-weight="normal" text-decoration="none" x="445" y="443">Stores child components.</text></g></g><g transform="translate(2,2) scale(1,1)"><g><path fill="none" stroke="none"/></g></g><g transform="translate(2,2) scale(1,1)"><g><path fill="none" stroke="none"/><text fill="#000000" stroke="none" font-family="Arial" font-size="13px" font-style="normal" font-weight="normal" text-decoration="none" x="445" y="460">Implements child-related operations in the Component interface.}</text></g></g><g transform="translate(2,2) scale(1,1)"><path fill="#ffffff" stroke="none" d="M 440 304 L 821 304 L 831 314 L 831 396 L 440 396 L 440 304"/></g><g transform="translate(2,2) scale(1,1)"><path fill="none" stroke="#000000" d="M 440 304 L 821 304 L 831 314 L 831 396 L 440 396 L 440 304 L 440 304" stroke-miterlimit="10"/></g><g transform="translate(2,2) scale(1,1)"><path fill="none" stroke="#000000" d="M 821 304 L 821 314 L 831 314 L 821 304" stroke-miterlimit="10"/></g><g transform="translate(2,2) scale(1,1)"><g><path fill="none" stroke="none"/><text fill="#000000" stroke="none" font-family="Arial" font-size="13px" font-style="normal" font-weight="normal" text-decoration="none" x="445" y="322">{Represents leaf objects in the composition. A leaf has no</text><text fill="#000000" stroke="none" font-family="Arial" font-size="13px" font-style="normal" font-weight="normal" text-decoration="none" x="445" y="335">children.</text></g></g><g transform="translate(2,2) scale(1,1)"><g><path fill="none" stroke="none"/><text fill="#000000" stroke="none" font-family="Arial" font-size="13px" font-style="normal" font-weight="normal" text-decoration="none" x="445" y="337">.</text></g></g><g transform="translate(2,2) scale(1,1)"><g><path fill="none" stroke="none"/><text fill="#000000" stroke="none" font-family="Arial" font-size="13px" font-style="normal" font-weight="normal" text-decoration="none" x="445" y="352">Defines behavior for primitive objects in the composition.}</text></g></g></g></svg>