<?xml version="1.0" standalone="no"?><!-- Generator: Adobe Fireworks CS3, Export SVG Extension by Aaron Beall (http://fireworks.abeall.com) . Version: 0.6.1  --><!DOCTYPE svg PUBLIC "-//W3C//DTD SVG 1.1//EN" "http://www.w3.org/Graphics/SVG/1.1/DTD/svg11.dtd"><svg id="Untitled-Seite%201" viewBox="-50 0 500 300" style="background-color:#ffffff00" version="1.1"	xmlns="http://www.w3.org/2000/svg" xmlns:xlink="http://www.w3.org/1999/xlink" xml:space="preserve"	x="-50px" y="0px" width="500px" height="300px">	<defs>		<filter id="filter1" x="-100%" y="-100%" width="300%" height="300%">			<!-- Schlagschatten -->			<feOffset result="out" in="SourceGraphic" dx="0" dy="1"/>			<feColorMatrix result="out" in="out" type="matrix" values="0 0 0 0 0  0 0 0 0 0  0 0 0 0 0  0 0 0 0.302 0"/>			<feGaussianBlur result="out" in="out" stdDeviation="0"/>			<feBlend in="SourceGraphic" in2="out" mode="normal" result="Schlagschatten1"/>		</filter>		<filter id="filter2" x="-100%" y="-100%" width="300%" height="300%">			<!-- Schlagschatten -->			<feOffset result="out" in="SourceGraphic" dx="0" dy="1"/>			<feColorMatrix result="out" in="out" type="matrix" values="0 0 0 0 0  0 0 0 0 0  0 0 0 0 0  0 0 0 0.302 0"/>			<feGaussianBlur result="out" in="out" stdDeviation="0"/>			<feBlend in="SourceGraphic" in2="out" mode="normal" result="Schlagschatten2"/>		</filter>		<filter id="filter3" x="-100%" y="-100%" width="300%" height="300%">			<!-- Schlagschatten -->			<feOffset result="out" in="SourceGraphic" dx="0" dy="1"/>			<feColorMatrix result="out" in="out" type="matrix" values="0 0 0 0 0  0 0 0 0 0  0 0 0 0 0  0 0 0 0.302 0"/>			<feGaussianBlur result="out" in="out" stdDeviation="0"/>			<feBlend in="SourceGraphic" in2="out" mode="normal" result="Schlagschatten3"/>		</filter>		<filter id="filter4" x="-100%" y="-100%" width="300%" height="300%">			<!-- Schlagschatten -->			<feOffset result="out" in="SourceGraphic" dx="0" dy="1"/>			<feColorMatrix result="out" in="out" type="matrix" values="0 0 0 0 0  0 0 0 0 0  0 0 0 0 0  0 0 0 0.302 0"/>			<feGaussianBlur result="out" in="out" stdDeviation="0"/>			<feBlend in="SourceGraphic" in2="out" mode="normal" result="Schlagschatten4"/>		</filter>		<filter id="filter5" x="-100%" y="-100%" width="300%" height="300%">			<!-- Schlagschatten -->			<feOffset result="out" in="SourceGraphic" dx="0" dy="1"/>			<feColorMatrix result="out" in="out" type="matrix" values="0 0 0 0 0  0 0 0 0 0  0 0 0 0 0  0 0 0 0.302 0"/>			<feGaussianBlur result="out" in="out" stdDeviation="0"/>			<feBlend in="SourceGraphic" in2="out" mode="normal" result="Schlagschatten5"/>		</filter>		<filter id="filter6" x="-100%" y="-100%" width="300%" height="300%">			<!-- Schlagschatten -->			<feOffset result="out" in="SourceGraphic" dx="0" dy="1"/>			<feColorMatrix result="out" in="out" type="matrix" values="0 0 0 0 0  0 0 0 0 0  0 0 0 0 0  0 0 0 0.302 0"/>			<feGaussianBlur result="out" in="out" stdDeviation="0"/>			<feBlend in="SourceGraphic" in2="out" mode="normal" result="Schlagschatten6"/>		</filter>		<filter id="filter7" x="-100%" y="-100%" width="300%" height="300%">			<!-- Schlagschatten -->			<feOffset result="out" in="SourceGraphic" dx="0" dy="1"/>			<feColorMatrix result="out" in="out" type="matrix" values="0 0 0 0 0  0 0 0 0 0  0 0 0 0 0  0 0 0 0.302 0"/>			<feGaussianBlur result="out" in="out" stdDeviation="0"/>			<feBlend in="SourceGraphic" in2="out" mode="normal" result="Schlagschatten7"/>		</filter>		<filter id="filter8" x="-100%" y="-100%" width="300%" height="300%">			<!-- Schlagschatten -->			<feOffset result="out" in="SourceGraphic" dx="0" dy="1"/>			<feColorMatrix result="out" in="out" type="matrix" values="0 0 0 0 0  0 0 0 0 0  0 0 0 0 0  0 0 0 0.302 0"/>			<feGaussianBlur result="out" in="out" stdDeviation="0"/>			<feBlend in="SourceGraphic" in2="out" mode="normal" result="Schlagschatten8"/>		</filter>		<filter id="filter9" x="-100%" y="-100%" width="300%" height="300%">			<!-- Schlagschatten -->			<feOffset result="out" in="SourceGraphic" dx="0" dy="1"/>			<feColorMatrix result="out" in="out" type="matrix" values="0 0 0 1 0  0 0 0 1 0  0 0 0 1 0  0 0 0 0.6471 0"/>			<feGaussianBlur result="out" in="out" stdDeviation="0"/>			<feBlend in="SourceGraphic" in2="out" mode="normal" result="Schlagschatten9"/>		</filter>		<linearGradient id="gradient1" x1="50%" y1="0%" x2="50%" y2="96.875%">			<stop stop-color="#232323" stop-opacity="1" offset="0%"/>			<stop stop-color="#484848" stop-opacity="1" offset="100%"/>		</linearGradient>		<filter id="filter10" x="-100%" y="-100%" width="300%" height="300%">			<!-- Schlagschatten -->			<feOffset result="out" in="SourceGraphic" dx="0" dy="1"/>			<feColorMatrix result="out" in="out" type="matrix" values="0 0 0 1 0  0 0 0 1 0  0 0 0 1 0  0 0 0 0.6471 0"/>			<feGaussianBlur result="out" in="out" stdDeviation="0"/>			<feBlend in="SourceGraphic" in2="out" mode="normal" result="Schlagschatten10"/>		</filter>		<linearGradient id="gradient2" x1="50%" y1="0%" x2="50%" y2="96.875%">			<stop stop-color="#232323" stop-opacity="1" offset="0%"/>			<stop stop-color="#484848" stop-opacity="1" offset="100%"/>		</linearGradient>	</defs>	<g id="Gill">		<path d="M 283.5 28 C 283.25 38 296.25 28.25 296.25 37.5 " stroke="#333333" stroke-width="2" fill="none"/>		<rect x="238" y="54" width="17" height="5" fill="#666666" rx="2.5" ry="2.5"/>		<rect x="-3" y="92" width="11" height="10" stroke="#666666" stroke-width="1" fill="#ffffff"/>		<rect x="2" y="97" width="11" height="10" stroke="#666666" stroke-width="1" fill="#ffffff"/>		<rect x="-25" y="92" width="11" height="10" stroke="#666666" stroke-width="1" fill="#ffffff"/>		<rect x="-20" y="97" width="11" height="10" stroke="#666666" stroke-width="1" fill="#ffffff"/>		<rect x="129" y="5" width="12" height="13" stroke="#222222" stroke-width="2" fill="#999999"/>		<g>			<path d="M 21 4 L 28.5 4 L 33.25 7.75 L 33 19 L 21 19 L 21 4 Z" stroke="#222222" stroke-width="2" fill="#ffffff"/>			<path d="M 28.5 3.5 L 28.5 8.5 " stroke="#222222" stroke-width="1" fill="none"/>			<path d="M 28.5 8.5 L 33.5 8.5 " stroke="#222222" stroke-width="1" fill="none"/>			<path d="M 29.5 5.5 L 31.5 7.5 " stroke="#ffffff" stroke-width="1" fill="none"/>		</g>		<rect x="219" y="47" width="13" height="5" fill="#666666"/>		<rect x="239" y="47" width="15" height="5" fill="#666666"/>		<rect x="219" y="55" width="13" height="4" fill="#666666"/>		<rect x="26" y="76" width="10" height="10" stroke="#222222" stroke-width="1" fill="#cccccc"/>		<rect x="0" y="72" width="10" height="10" stroke="#222222" stroke-width="2" fill="#ffffff"/>		<rect x="19" y="69" width="12" height="12" stroke="#222222" stroke-width="2" fill="#ffffff"/>		<rect x="41" y="69" width="12" height="12" stroke="#222222" stroke-width="2" fill="#ffffff"/>		<rect x="-26" y="68" width="7" height="7" stroke="#222222" stroke-width="1" fill="#cccccc"/>		<rect x="-4" y="68" width="7" height="7" stroke="#222222" stroke-width="1" fill="#cccccc"/>		<rect x="-15" y="79" width="7" height="7" stroke="#222222" stroke-width="1" fill="#cccccc"/>		<rect x="7" y="79" width="7" height="7" stroke="#222222" stroke-width="1" fill="#cccccc"/>		<rect x="48" y="76" width="10" height="10" stroke="#222222" stroke-width="1" fill="#cccccc"/>		<rect x="-22" y="72" width="10" height="10" stroke="#222222" stroke-width="2" fill="#ffffff"/>		<rect x="-42" y="57" width="3" height="6" fill="#cccccc"/>		<path d="M -22 56 L -13 56 L -13.625 63 C -13.625 63 -13.7134 63.25 -14.75 63.25 C -15.1998 63.25 -14.3354 59 -14.875 59 C -15.3593 59 -16.617 63.125 -17.125 63.125 C -19.7952 63.125 -23.7236 63 -23.0625 63 C -21.8125 63 -22 56 -22 56 Z" stroke="#333333" stroke-width="2" fill="#333333"/>		<g filter="url(#filter1)">			<path d="M 319.357 57.3526 C 319.357 58.4601 318.9783 59.3449 318.2209 60.007 C 317.4634 60.669 316.4046 61 315.0443 61 L 307.615 61 L 307.615 48.137 L 313.8292 48.137 C 314.6329 48.137 315.3332 48.2143 315.9299 48.369 C 316.5266 48.5237 317.0073 48.7356 317.3721 49.0049 C 317.7368 49.2742 318.0089 49.5914 318.1882 49.9565 C 318.3675 50.3217 318.4572 50.7209 318.4572 51.1541 C 318.4572 51.6244 318.3644 52.0591 318.179 52.4583 C 317.9936 52.8575 317.7633 53.1855 317.4882 53.4423 C 317.2131 53.6991 316.9364 53.8801 316.6581 53.9854 C 317.5361 54.3318 318.2054 54.7693 318.666 55.2981 C 319.1267 55.8268 319.357 56.5116 319.357 57.3526 ZM 314.8311 51.842 C 314.8311 51.2239 314.627 50.8129 314.2188 50.6089 C 313.8106 50.405 313.1735 50.303 312.3074 50.303 L 311.491 50.303 L 311.491 53.381 L 312.3261 53.381 C 313.2106 53.381 313.8492 53.279 314.242 53.0751 C 314.6348 52.8711 314.8311 52.4601 314.8311 51.842 ZM 315.462 57.1953 C 315.462 56.0964 314.6641 55.547 313.0683 55.547 L 311.491 55.547 L 311.491 58.834 L 313.0683 58.834 C 314.6641 58.834 315.462 58.2878 315.462 57.1953 Z" fill="#333333"/>		</g>		<g filter="url(#filter2)">			<path d="M 383.8256 53.21 L 383.8256 55.794 L 378.491 55.794 L 378.491 61 L 374.615 61 L 374.615 48.137 L 383.8256 48.137 L 383.8256 50.721 L 378.491 50.721 L 378.491 53.21 L 383.8256 53.21 Z" fill="#333333"/>		</g>		<g filter="url(#filter3)">			<path d="M 334.5594 48.042 L 336.34 48.042 L 334.5211 61 L 332.741 61 L 334.5594 48.042 Z" fill="#333333"/>		</g>		<g filter="url(#filter4)">			<path d="M 403.9074 48.042 L 405.887 48.042 L 399.9254 54.0332 L 405.716 61 L 403.6886 61 L 398.3393 54.2197 L 397.3976 61 L 395.646 61 L 397.4644 48.042 L 399.2162 48.042 L 398.3579 53.5888 L 398.404 53.6259 L 403.9074 48.042 Z" fill="#333333"/>		</g>		<g>			<path d="M 291.46 59.74 L 290.74 57.78 C 290.66 57.5667 290.5767 57.4333 290.49 57.38 C 290.4033 57.3267 290.2267 57.3 289.96 57.3 L 286.4 57.3 C 286.1333 57.3 285.95 57.3467 285.85 57.44 C 285.75 57.5333 285.62 57.7867 285.46 58.2 L 284.88 59.74 C 284.8267 59.8867 284.8 60.0267 284.8 60.16 C 284.8 60.5867 285.06 60.8 285.58 60.8 C 285.7133 60.8 285.9033 60.7867 286.15 60.76 C 286.3967 60.7333 286.58 60.72 286.7 60.72 C 287.2467 60.72 287.52 60.9533 287.52 61.42 C 287.52 61.86 287.22 62.08 286.62 62.08 C 286.5133 62.08 286.3667 62.0667 286.18 62.04 L 285.18 61.9156 C 284.9933 61.8919 284.6867 61.88 284.26 61.88 C 283.7933 61.88 283.4667 61.8911 283.28 61.9134 L 282.44 62.0134 C 282.0667 62.0578 281.7933 62.08 281.62 62.08 C 281.1 62.08 280.84 61.86 280.84 61.42 C 280.84 60.9533 281.0933 60.72 281.6 60.72 C 281.7067 60.72 281.7867 60.7467 281.84 60.8 L 282.1 60.8 C 282.46 60.8 282.7333 60.6596 282.92 60.3787 C 283 60.2717 283.1333 59.9573 283.32 59.4356 L 287.04 49.3428 C 287.2533 48.7809 287.6733 48.5 288.3 48.5 C 288.9133 48.5 289.32 48.78 289.52 49.34 L 293.1 59.26 C 293.3267 59.8867 293.5333 60.3 293.72 60.5 C 293.9067 60.7 294.1733 60.8 294.52 60.8 C 294.6267 60.8 294.7067 60.7911 294.76 60.7734 C 295.1333 60.7378 295.32 60.72 295.32 60.72 C 295.8267 60.72 296.08 60.9398 296.08 61.3794 C 296.08 61.8465 295.8267 62.08 295.32 62.08 C 295.1733 62.08 294.98 62.0652 294.74 62.0356 C 293.9 61.9319 293.2733 61.88 292.86 61.88 C 292.3667 61.88 291.5667 61.9333 290.46 62.04 C 290.18 62.0667 289.9667 62.08 289.82 62.08 C 289.2867 62.08 289.02 61.8533 289.02 61.4 C 289.02 60.9467 289.3133 60.72 289.9 60.72 C 290.02 60.72 290.1967 60.7333 290.43 60.76 C 290.6633 60.7867 290.84 60.8 290.96 60.8 C 291.4 60.8 291.62 60.62 291.62 60.26 C 291.62 60.2067 291.5667 60.0333 291.46 59.74 ZM 290.02 55.66 L 288.22 50.14 L 286.38 55.66 C 286.3533 55.74 286.34 55.7867 286.34 55.8 C 286.34 55.92 286.44 55.98 286.64 55.98 L 289.82 55.98 C 289.98 55.98 290.06 55.9267 290.06 55.82 C 290.06 55.7933 290.0467 55.74 290.02 55.66 Z" fill="#333333"/>		</g>		<g>			<path d="M 293 55 L 296.8041 46.082 L 297.6981 46.082 L 301.671 55 L 300.3718 55 L 299.1923 52.374 L 295.4123 52.374 L 294.3045 55 L 293 55 ZM 295.9037 51.243 L 298.6853 51.243 L 297.2445 48.0306 L 295.9037 51.243 Z" fill="#333333"/>		</g>		<g filter="url(#filter5)">			<path d="M 360.35 54.9885 L 360.35 48.406 L 362.016 48.406 L 362.016 54.989 C 362.016 55.8801 361.951 56.5525 361.8209 57.0063 C 361.6908 57.46 361.5303 57.8378 361.3393 58.1394 C 361.1483 58.4411 360.9146 58.7109 360.6379 58.9489 C 359.7191 59.7403 358.518 60.136 357.0347 60.136 C 355.5239 60.136 354.3118 59.743 353.3986 58.9572 C 353.1218 58.7137 352.8879 58.4411 352.697 58.1394 C 352.506 57.8378 352.3482 57.4684 352.2237 57.0312 C 352.0992 56.5941 352.037 55.9079 352.037 54.9725 L 352.037 48.406 L 353.703 48.406 L 353.703 54.9885 C 353.703 56.0786 353.8276 56.8367 354.0769 57.2629 C 354.3261 57.689 354.7056 58.0307 355.2152 58.288 C 355.7249 58.5453 356.3259 58.674 357.0183 58.674 C 358.0043 58.674 358.8074 58.4167 359.4278 57.9021 C 359.7545 57.6253 359.9899 57.2988 360.1339 56.9225 C 360.278 56.5462 360.35 55.9015 360.35 54.9885 Z" fill="#333333"/>			<path d="M 351 62 L 363 62 L 363 63 L 351 63 L 351 62 Z" fill="#333333"/>		</g>		<g filter="url(#filter6)">			<path d="M 426.35 54.9885 L 426.35 48.406 L 428.016 48.406 L 428.016 54.989 C 428.016 55.8801 427.951 56.5525 427.8209 57.0063 C 427.6908 57.46 427.5303 57.8378 427.3393 58.1394 C 427.1483 58.4411 426.9146 58.7109 426.6379 58.9489 C 425.7191 59.7403 424.518 60.136 423.0347 60.136 C 421.5239 60.136 420.3118 59.743 419.3986 58.9572 C 419.1218 58.7137 418.8879 58.4411 418.697 58.1394 C 418.506 57.8378 418.3482 57.4684 418.2237 57.0312 C 418.0992 56.5941 418.037 55.9079 418.037 54.9725 L 418.037 48.406 L 419.703 48.406 L 419.703 54.9885 C 419.703 56.0786 419.8276 56.8367 420.0769 57.2629 C 420.3261 57.689 420.7056 58.0307 421.2152 58.288 C 421.7249 58.5453 422.3259 58.674 423.0183 58.674 C 424.0043 58.674 424.8074 58.4167 425.4278 57.9021 C 425.7545 57.6253 425.9899 57.2988 426.1339 56.9225 C 426.278 56.5462 426.35 55.9015 426.35 54.9885 Z" fill="#333333"/>			<path d="M 417 62 L 429 62 L 429 63 L 417 63 L 417 62 Z" fill="#333333"/>		</g>		<path d="M 297 62 L 302 62 L 299.625 65.375 L 297 62 Z" fill="#333333"/>		<path d="M -24 33 C -24 29.134 -20.866 26 -17 26 C -13.134 26 -10 29.134 -10 33 C -10 36.866 -13.134 40 -17 40 C -20.866 40 -24 36.866 -24 33 Z" stroke="#222222" stroke-width="2" fill="#ffffff"/>		<rect x="-2" y="26" width="14" height="14" stroke="#222222" stroke-width="2" fill="#ffffff"/>		<path d="M 13 4 L -3 4 L -3 19 L 11.625 19 L 13 17.5 L 13 4 Z" stroke="#222222" stroke-width="2" fill="#cccccc"/>		<path d="M 247 26 L 255 40 L 238.75 40 L 247 26 Z" stroke="#222222" stroke-width="2" fill="#ffffff"/>		<rect x="216.5147" y="24.5147" width="16.9706" height="16.9706" stroke="#222222" stroke-width="2" fill="#ffffff"/>		<rect x="0" y="47" width="11" height="11" stroke="#333333" stroke-width="2" fill="#cccccc"/>		<rect x="108" y="26" width="14" height="14" stroke="#222222" stroke-width="2" fill="#ffffff"/>		<path d="M 21 26 L 35 40 " stroke="#222222" stroke-width="2" fill="none"/>		<path d="M 43 47 L 54 58 " stroke="#222222" stroke-width="2" fill="none"/>		<path d="M 64 26 L 78 40 " stroke="#222222" stroke-width="2" fill="none"/>		<path d="M 42 26 L 56 40 " stroke="#222222" stroke-width="2" fill="none"/>		<path d="M 55 39 L 48.5 38 " stroke="#222222" stroke-width="2" fill="none"/>		<path d="M 54.25 32.25 L 55.25 38.75 " stroke="#222222" stroke-width="2" fill="none"/>		<rect x="62" y="24" width="5" height="5" stroke="#666666" stroke-width="1" fill="#ffffff"/>		<rect x="75" y="37" width="5" height="5" stroke="#666666" stroke-width="1" fill="#ffffff"/>		<g filter="url(#filter7)">			<path d="M 87 39 L 92.2673 26.652 L 93.505 26.652 L 99.006 39 L 97.2071 39 L 95.5739 35.364 L 90.3401 35.364 L 88.8062 39 L 87 39 ZM 91.0205 33.798 L 94.8719 33.798 L 92.877 29.35 L 91.0205 33.798 Z" fill="#333333"/>		</g>		<path d="M 100 26 L 100 40 " stroke="#666666" stroke-width="1" fill="none"/>		<path d="M 119 28 L 119 37 " stroke="#666666" stroke-width="1" fill="none"/>		<g>			<path d="M 110 37 L 113.8041 28.082 L 114.6981 28.082 L 118.671 37 L 117.3718 37 L 116.1923 34.374 L 112.4123 34.374 L 111.3045 37 L 110 37 ZM 112.9037 33.243 L 115.6853 33.243 L 114.2445 30.0306 L 112.9037 33.243 Z" fill="#333333"/>		</g>		<path d="M 131 26 L 131 33 " stroke="#333333" stroke-width="2" fill="none"/>		<path d="M 131 33 L 143 33 " stroke="#333333" stroke-width="2" fill="none"/>		<path d="M 142.5 34.5 L 142.5 40.5 " stroke="#333333" stroke-width="2" fill="none"/>		<rect x="128" y="24" width="5" height="5" stroke="#666666" stroke-width="1" fill="#ffffff"/>		<rect x="281" y="24" width="5" height="5" stroke="#666666" stroke-width="1" fill="#ffffff"/>		<rect x="141" y="37" width="5" height="5" stroke="#666666" stroke-width="1" fill="#ffffff"/>		<rect x="294" y="37" width="5" height="5" stroke="#666666" stroke-width="1" fill="#ffffff"/>		<path d="M 152 39.8925 C 152 36.444 152.5926 33.2415 152.5926 30.0378 C 152.5926 30.0378 152.4938 28.8275 152.8889 29.5191 L 152.8889 28.4818 C 153.0615 28.7839 153.6856 26.5684 153.7778 26.4071 C 154.1968 25.6736 153.9513 27.1406 154.3704 26.4071 C 154.6656 25.8903 155.5273 25.8389 155.8518 26.4071 C 157.0488 28.5023 156.4654 38.0955 158.5185 39.8925 C 159.0519 40.3594 158.724 39.1733 158.8148 38.8552 C 159.3119 37.1149 160.3161 31.7885 161.375 31.7885 L 162.3704 34.7058 L 162.3704 36.2618 C 162.5046 36.9667 163.0678 39.4656 163.5556 39.8925 C 163.8856 40.1814 164.7283 35.7432 165.9259 35.7432 C 166.0415 35.7432 165.8442 36.1188 165.9259 36.2618 C 166.2014 36.744 166.6991 39.3739 167.4074 39.3739 C 167.4602 39.3739 167.7427 37.3675 168 37.8179 " stroke="#333333" stroke-width="2" fill="none"/>		<path d="M 174 29.9231 C 174.9375 29.3077 180.25 25 180.25 25 L 179 34.8462 L 189 32.3846 L 187.75 41 L 175.25 38.5385 L 174 29.9231 Z" stroke="#333333" stroke-width="2" fill="#ffffff"/>		<rect x="196" y="26" width="14" height="14" stroke="#333333" stroke-width="2" fill="#ffffff" rx="4.2" ry="4.2"/>		<path d="M -43.375 26.25 L -42.375 38.375 L -40.125 35.5 L -36.75 40.75 L -33.75 39.5 L -37.5 34.25 L -33.75 33.625 L -43.375 26.25 Z" stroke="#333333" stroke-width="2" fill="#333333"/>		<g filter="url(#filter8)">			<path d="M 87 58 L 92.5599 44.966 L 93.8664 44.966 L 99.673 58 L 97.7742 58 L 96.0502 54.162 L 90.5257 54.162 L 88.9065 58 L 87 58 ZM 91.2438 52.509 L 95.3092 52.509 L 93.2035 47.8139 L 91.2438 52.509 Z" fill="#333333"/>		</g>		<rect x="82" y="60" width="22" height="6" stroke="#666666" stroke-width="1" fill="none"/>		<rect x="38" y="60" width="22" height="6" stroke="#666666" stroke-width="1" fill="none"/>		<rect x="-6" y="60" width="22" height="6" stroke="#666666" stroke-width="1" fill="none"/>		<path d="M 107 54 L 112 54 L 109.625 57.375 L 107 54 Z" fill="#000000"/>		<path d="M 63 54 L 68 54 L 65.625 57.375 L 63 54 Z" fill="#000000"/>		<path d="M 19 54 L 24 54 L 21.625 57.375 L 19 54 Z" fill="#000000"/>		<path d="M 30 54 L 35 54 L 32.625 57.375 L 30 54 Z" fill="#000000"/>		<path d="M -41.5 53.5 L -41.5 63.5 " stroke="#666666" stroke-width="1" fill="none"/>		<path d="M -38.5 53.5 L -38.5 63.5 " stroke="#666666" stroke-width="1" fill="none"/>		<path d="M -43.9556 52.1507 C -37.5557 50.9298 -45.049 48.227 -39.9375 46.9375 C -34.826 48.534 -42.8339 50.9298 -36 52.1507 L -36 54 L -43.9556 54 C -43.9556 54 -44.0555 52.1697 -43.9556 52.1507 Z" stroke="#333333" stroke-width="2" fill="none"/>		<path d="M -22.9381 53.8627 C -13.6752 53.8627 -23.8249 47 -17.5183 47 C -10.6197 47 -21.5585 53.8627 -12 53.8627 L -12 57 L -22.9381 57 C -22.9381 57 -23.0774 53.8627 -22.9381 53.8627 Z" stroke="#333333" stroke-width="2" fill="#ffffff"/>		<path d="M -40.5 64.5 L -41.5 62.5 " stroke="#666666" stroke-width="1" fill="none"/>		<path d="M -39.625 64.625 L -38.5 62.5 " stroke="#666666" stroke-width="1" fill="none"/>		<g>			<path opacity="0.749" d="M -46 72 L -32 72 " stroke="#333333" stroke-width="1" fill="none"/>			<path opacity="0.749" d="M -34 70 L -34 84 " stroke="#333333" stroke-width="1" fill="none"/>			<path opacity="0.749" d="M -46 77 L -32 77 " stroke="#333333" stroke-width="1" fill="none"/>			<path opacity="0.749" d="M -39 70 L -39 84 " stroke="#333333" stroke-width="1" fill="none"/>			<path opacity="0.749" d="M -46 82 L -32 82 " stroke="#333333" stroke-width="1" fill="none"/>			<path opacity="0.749" d="M -44 70 L -44 84 " stroke="#333333" stroke-width="1" fill="none"/>		</g>		<path opacity="0.749" d="M -43 97 L -35 97 " stroke="#333333" stroke-width="1" fill="none"/>		<path opacity="0.749" d="M -43 101 L -35 101 " stroke="#333333" stroke-width="1" fill="none"/>		<path opacity="0.749" d="M -37 95 L -37 103 " stroke="#333333" stroke-width="1" fill="none"/>		<path opacity="0.749" d="M -41 95 L -41 103 " stroke="#333333" stroke-width="1" fill="none"/>		<g>			<g>				<path d="M 136.8125 83.1875 L 136.8125 72.3125 " stroke="#333333" stroke-width="2" fill="none"/>				<path d="M 133.3125 77.5625 L 136.6875 72.5625 L 140.8125 78.1875 " stroke="#333333" stroke-width="2" fill="none"/>			</g>		</g>		<g>			<path d="M 98.5 77 L 87.625 77 " stroke="#333333" stroke-width="2" fill="none"/>			<path d="M 92.875 80.5 L 87.875 77.125 L 93.5 73 " stroke="#333333" stroke-width="2" fill="none"/>		</g>		<g>			<path d="M 52.5 9 L 41.625 9 " stroke="#333333" stroke-width="2" fill="none"/>			<path d="M 46.875 12.5 L 41.875 9.125 L 47.5 5 " stroke="#333333" stroke-width="2" fill="none"/>		</g>		<g>			<path d="M 65.625 77 L 76.5 77 " stroke="#333333" stroke-width="2" fill="none"/>			<path d="M 71.25 80.5 L 76.25 77.125 L 70.625 73 " stroke="#333333" stroke-width="2" fill="none"/>		</g>		<g>			<path d="M 68.625 9 L 79.5 9 " stroke="#333333" stroke-width="2" fill="none"/>			<path d="M 74.25 12.5 L 79.25 9.125 L 73.625 5 " stroke="#333333" stroke-width="2" fill="none"/>		</g>		<g>			<path d="M 115.8125 72.3125 L 115.8125 83.1875 " stroke="#333333" stroke-width="2" fill="none"/>			<path d="M 112.3125 77.9375 L 115.6875 82.9375 L 119.8125 77.3125 " stroke="#333333" stroke-width="2" fill="none"/>		</g>		<image x="152" y="48" width="15" height="10" xlink:href="fwexport.svg.images/image1.png"/>		<image x="174" y="48" width="15" height="10" xlink:href="fwexport.svg.images/image2.png"/>		<image x="130" y="47" width="15" height="15" xlink:href="fwexport.svg.images/image3.png"/>		<path d="M 141 62 L 146 62 L 143.625 65.375 L 141 62 Z" fill="#000000"/>		<path d="M 164 62 L 169 62 L 166.625 65.375 L 164 62 Z" fill="#000000"/>		<path d="M 186 62 L 191 62 L 188.625 65.375 L 186 62 Z" fill="#000000"/>		<path d="M 208 62 L 213 62 L 210.625 65.375 L 208 62 Z" fill="#000000"/>		<path d="M 230 62 L 235 62 L 232.625 65.375 L 230 62 Z" fill="#000000"/>		<path d="M 252 62 L 257 62 L 254.625 65.375 L 252 62 Z" fill="#000000"/>		<path d="M 274 62 L 279 62 L 276.625 65.375 L 274 62 Z" fill="#000000"/>		<rect x="196" y="55" width="15" height="1" fill="#333333"/>		<rect x="196" y="57" width="15" height="1" fill="#333333"/>		<rect x="196" y="48" width="15" height="3" fill="#333333"/>		<path d="M 216.5 49.5 L 234.5 49.5 " stroke="#000000" stroke-width="1" fill="none"/>		<path d="M 241 49 L 251 49 " stroke="#000000" stroke-width="1" fill="none"/>		<path d="M 241 56 L 251 56 " stroke="#000000" stroke-width="1" fill="none"/>		<path d="M 216.5 58.5 L 234.5 58.5 " stroke="#000000" stroke-width="1" fill="none"/>		<path d="M 254.75 76.25 L 238.75 76.25 " stroke="#666666" stroke-width="1" fill="none"/>		<path d="M 276.75 67.25 L 260.75 67.25 " stroke="#666666" stroke-width="1" fill="none"/>		<path d="M 180 69 L 180 85 " stroke="#666666" stroke-width="1" fill="none"/>		<path d="M 210 69 L 210 85 " stroke="#666666" stroke-width="1" fill="none"/>		<rect x="201" y="70" width="7" height="5" stroke="#222222" stroke-width="1" fill="#cccccc"/>		<rect x="194" y="77" width="14" height="7" stroke="#222222" stroke-width="2" fill="#ffffff"/>		<rect x="225" y="69" width="7" height="14" stroke="#222222" stroke-width="2" fill="#ffffff"/>		<rect x="240" y="69" width="7" height="15" stroke="#222222" stroke-width="2" fill="#ffffff"/>		<rect x="262" y="70" width="7" height="14" stroke="#222222" stroke-width="2" fill="#ffffff"/>		<path d="M 150 69 L 150 85 " stroke="#666666" stroke-width="1" fill="none"/>		<rect x="152" y="70" width="7" height="5" stroke="#222222" stroke-width="1" fill="#cccccc"/>		<rect x="177" y="70" width="7" height="5" stroke="#222222" stroke-width="1" fill="#cccccc"/>		<rect x="153" y="77" width="14" height="7" stroke="#222222" stroke-width="2" fill="#ffffff"/>		<rect x="173" y="77" width="15" height="7" stroke="#222222" stroke-width="2" fill="#ffffff"/>		<path d="M 217.5 85.5 L 233.5 85.5 " stroke="#666666" stroke-width="1" fill="none"/>		<rect x="218" y="77" width="5" height="7" stroke="#222222" stroke-width="1" fill="#cccccc"/>		<rect x="249" y="73" width="5" height="7" stroke="#222222" stroke-width="1" fill="#cccccc"/>		<rect x="271" y="69" width="5" height="7" stroke="#222222" stroke-width="1" fill="#cccccc"/>		<g>			<path d="M -24.2394 4 L -19.9296 4 L -18.25 6 L -11.75 6 L -11.8169 19 L -25 19 L -25 6.25 L -24.2394 4 Z" stroke="#333333" stroke-width="2" fill="#eeeeee"/>			<path d="M -19.6761 9 L -7 9 L -12.0704 19 L -23.9859 19 L -19.6761 9 Z" stroke="#333333" stroke-width="2" fill="#ffffff"/>		</g>		<rect x="2" y="13" width="9" height="7" stroke="#222222" stroke-width="1" fill="#ffffff"/>		<rect x="6" y="15" width="2" height="4" stroke="#222222" stroke-width="1" fill="#333333"/>		<rect x="-1" y="4" width="1" height="3" stroke="#222222" stroke-width="1" fill="none"/>		<rect x="20" y="15" width="14" height="5" stroke="#222222" stroke-width="2" fill="#666666"/>		<rect x="18" y="13" width="18" height="3" stroke="#222222" stroke-width="2" fill="#666666" rx="1.5" ry="1.5"/>		<path d="M 46 9 L 53 9 C 53 9 57.25 9 57.25 13 C 57.25 17 53.375 17 53.375 17 L 46 17 " stroke="#333333" stroke-width="2" fill="none"/>		<path d="M 74.25 9 L 67.25 9 C 67.25 9 63 9 63 13 C 63 17 66.875 17 66.875 17 L 74.25 17 " stroke="#333333" stroke-width="2" fill="none"/>		<g>			<path d="M 98.9143 14.4261 C 97.7826 12.8681 95.9764 12.457 94.7946 13.3842 C 93.6158 14.3089 93.3503 16.3362 94.2702 18.0473 C 95.2796 19.9252 97.3062 20.7102 98.7079 19.625 C 100.114 18.5365 100.1568 16.1367 98.9143 14.4261 Z" stroke="#333333" stroke-width="2" fill="none"/>			<path d="M 85.61 14.4261 C 86.7417 12.8681 88.5478 12.457 89.7297 13.3842 C 90.9085 14.3089 91.174 16.3362 90.2541 18.0473 C 89.2446 19.9252 87.2181 20.7102 85.8163 19.625 C 84.4102 18.5365 84.3675 16.1367 85.61 14.4261 Z" stroke="#333333" stroke-width="2" fill="none"/>			<path d="M 91 15 L 97 3 C 97 3 97.5 6.5 95 11.5 C 92.5 16.5 91 15 91 15 Z" stroke="#333333" stroke-width="1" fill="none"/>			<path d="M 93.0408 15 L 87.0408 3 C 87.0408 3 86.5408 6.5 89.0408 11.5 C 91.5408 16.5 93.0408 15 93.0408 15 Z" stroke="#333333" stroke-width="1" fill="none"/>		</g>		<g>			<path d="M -45 4 L -37 4 L -33 7.875 L -33 19 L -45 19 L -45 4 Z" stroke="#222222" stroke-width="2" fill="#ffffff"/>			<path d="M -37.5 3.5 L -37.5 8.5 " stroke="#222222" stroke-width="1" fill="none"/>			<path d="M -36.5 5.5 L -34.5 7.5 " stroke="#ffffff" stroke-width="1" fill="none"/>			<path d="M -37.5 8.5 L -32.5 8.5 " stroke="#222222" stroke-width="1" fill="none"/>		</g>		<path d="M 111.875 3 L 118 3 L 122 6.875 L 122 15 L 111.875 15 L 111.875 3 Z" stroke="#222222" stroke-width="2" fill="#f0f0f0"/>		<path d="M 117.5 2.5 L 117.5 7.5 " stroke="#222222" stroke-width="1" fill="#cccccc"/>		<path d="M 118.5 4.5 L 120.5 6.5 " stroke="#f0f0f0" stroke-width="1" fill="#cccccc"/>		<path d="M 117.5 7.5 L 122.5 7.5 " stroke="#222222" stroke-width="1" fill="#cccccc"/>		<g>			<g>				<g>					<path d="M 106.875 8 L 113 8 L 117 11.875 L 117 20 L 106.875 20 L 106.875 8 Z" stroke="#222222" stroke-width="2" fill="#ffffff"/>					<path d="M 112.5 7.5 L 112.5 12.5 " stroke="#222222" stroke-width="1" fill="none"/>					<path d="M 113.5 9.5 L 115.5 11.5 " stroke="#ffffff" stroke-width="1" fill="none"/>					<path d="M 112.5 12.5 L 117.5 12.5 " stroke="#222222" stroke-width="1" fill="none"/>				</g>			</g>		</g>		<g>			<path d="M 136.75 9 L 142 9 L 146 12.875 L 146 19.75 L 136.75 19.875 L 136.75 9 Z" stroke="#222222" stroke-width="2" fill="#ffffff"/>			<path d="M 141.5 8.5 L 141.5 13.5 " stroke="#222222" stroke-width="1" fill="none"/>			<path d="M 142.5 10.5 L 144.5 12.5 " stroke="#ffffff" stroke-width="1" fill="none"/>			<path d="M 141.5 13.5 L 146.5 13.5 " stroke="#222222" stroke-width="1" fill="none"/>		</g>		<path d="M 131 6.375 L 131 4 L 132.5 3.875 L 134 2 L 136 2 L 138 4 L 139 4 L 139 6.375 L 131 6.375 Z" stroke="#222222" stroke-width="1" fill="#ffffff"/>		<rect x="-11" y="91" width="3" height="3" stroke="#222222" stroke-width="1" fill="#222222"/>		<rect x="11" y="96" width="3" height="3" stroke="#222222" stroke-width="1" fill="#222222"/>		<rect x="6" y="91" width="3" height="3" stroke="#222222" stroke-width="1" fill="#222222"/>		<rect x="1" y="96" width="3" height="3" stroke="#222222" stroke-width="1" fill="#222222"/>		<rect x="1" y="105" width="3" height="3" stroke="#222222" stroke-width="1" fill="#222222"/>		<rect x="-26" y="91" width="3" height="3" stroke="#222222" stroke-width="1" fill="#222222"/>		<rect x="-4" y="91" width="3" height="3" stroke="#222222" stroke-width="1" fill="#222222"/>		<rect x="-26" y="105" width="3" height="3" stroke="#222222" stroke-width="1" fill="#222222"/>		<rect x="-4" y="100" width="3" height="3" stroke="#222222" stroke-width="1" fill="#222222"/>		<rect x="-11" y="105" width="3" height="3" stroke="#222222" stroke-width="1" fill="#222222"/>		<rect x="11" y="105" width="3" height="3" stroke="#222222" stroke-width="1" fill="#222222"/>		<path filter="url(#filter9)" d="M 90.5 100 C 90.5 99.1716 91.1716 98.5 92 98.5 C 92.8284 98.5 93.5 99.1716 93.5 100 C 93.5 100.8284 92.8284 101.5 92 101.5 C 91.1716 101.5 90.5 100.8284 90.5 100 ZM 96.96 99.38 L 94.6398 98.8181 L 95.86 96.82 C 95.6174 96.5258 95.3432 96.2621 95.04 96.03 L 93.0568 97.2352 L 92.52 95.025 C 92.3488 95.0072 92.1758 95 92 95 C 91.78 95 91.5625 95.0124 91.35 95.04 L 90.8182 97.2352 L 88.905 96.07 C 88.5948 96.3147 88.3144 96.5946 88.07 96.905 L 89.2352 98.8181 L 87.04 99.35 C 87.0125 99.5626 87 99.78 87 100 C 87 100.1758 87.0073 100.3489 87.025 100.52 L 89.2352 101.0569 L 88.03 103.04 C 88.2613 103.3417 88.5273 103.6183 88.82 103.86 L 90.8182 102.6398 L 91.38 104.96 C 91.5824 104.9848 91.7907 105 92 105 C 92.1652 105 92.3289 104.9906 92.49 104.975 L 93.0568 102.6398 L 95.125 103.9 C 95.4107 103.6708 95.6706 103.4105 95.9 103.125 L 94.6398 101.0569 L 96.975 100.49 C 96.9907 100.3289 97 100.1652 97 100 C 97 99.7908 96.985 99.5825 96.96 99.38 Z" fill="url(#gradient1)"/>		<path filter="url(#filter10)" d="M 69.05 99 C 69.05 97.923 69.923 97.05 71 97.05 C 72.077 97.05 72.95 97.923 72.95 99 C 72.95 100.077 72.077 100.95 71 100.95 C 69.923 100.95 69.05 100.077 69.05 99 ZM 77.448 98.194 L 74.4318 97.4636 L 76.018 94.866 C 75.7026 94.4836 75.3461 94.1407 74.952 93.839 L 72.3739 95.4057 L 71.676 92.5325 C 71.4535 92.5094 71.2285 92.5 71 92.5 C 70.714 92.5 70.4313 92.5162 70.155 92.552 L 69.4636 95.4057 L 66.9765 93.891 C 66.5733 94.2092 66.2087 94.573 65.891 94.9765 L 67.4057 97.4636 L 64.552 98.155 C 64.5162 98.4313 64.5 98.714 64.5 99 C 64.5 99.2286 64.5095 99.4535 64.5325 99.676 L 67.4057 100.3739 L 65.839 102.952 C 66.1397 103.3442 66.4854 103.7037 66.866 104.018 L 69.4636 102.4318 L 70.194 105.448 C 70.4572 105.4803 70.7279 105.5 71 105.5 C 71.2147 105.5 71.4276 105.4878 71.637 105.4675 L 72.3739 102.4318 L 75.0625 104.07 C 75.4339 103.7721 75.7717 103.4336 76.07 103.0625 L 74.4318 100.3739 L 77.4675 99.637 C 77.4879 99.4276 77.5 99.2148 77.5 99 C 77.5 98.728 77.4804 98.4572 77.448 98.194 Z" fill="url(#gradient2)"/>		<path d="M 76 106 L 81 106 L 78.625 109.375 L 76 106 Z" fill="#000000"/>		<rect x="261" y="26" width="16" height="14" fill="#cccccc"/>		<path d="M 270 30 C 270 28.8954 270.8954 28 272 28 C 273.1046 28 274 28.8954 274 30 C 274 31.1046 273.1046 32 272 32 C 270.8954 32 270 31.1046 270 30 Z" stroke="#333333" stroke-width="1" fill="#ffffff"/>		<path d="M 271.0923 33 L 277 41 L 265 41 L 271.0923 33 Z" stroke="#333333" stroke-width="1" fill="#ffffff"/>		<path d="M 265.0923 31 L 272 40 L 261 40 L 261 36.125 L 265.0923 31 Z" stroke="#333333" stroke-width="1" fill="#ffffff"/>		<rect x="262" y="26" width="14" height="14" stroke="#222222" stroke-width="2" fill="none"/>		<path d="M 268.5625 44.25 L 275.6875 50.8125 L 272.5625 54.25 L 268.6875 49.5 L 264.5 54.0625 L 261.375 51.375 L 268.5625 44.25 Z" fill="#666666"/>		<path d="M 266.5 54.4375 L 270.75 54.375 L 275.3125 59.3125 L 272.1875 62 L 268.6875 57.5 L 264.375 61.9375 L 261.5 59.3125 L 266.5 54.4375 Z" fill="#666666"/>		<path d="M 268.5 55.5 L 263.4375 60.4375 " stroke="#000000" stroke-width="1" fill="none"/>		<path d="M 268.5 55.5 L 273.5 60.5 " stroke="#000000" stroke-width="1" fill="none"/>		<path d="M 273.4375 52.5 L 268.5 47.5 L 263.4375 52.4375 " stroke="#000000" stroke-width="1" fill="none"/>		<rect x="17" y="90" width="10" height="18" stroke="#000000" stroke-width="1" fill="#ffffff"/>		<rect x="18" y="91" width="4" height="4" fill="#dfdfdf"/>		<rect x="18" y="99" width="4" height="4" fill="#dfdfdf"/>		<rect x="22" y="95" width="4" height="4" fill="#dfdfdf"/>		<rect x="22" y="103" width="4" height="4" fill="#dfdfdf"/>	</g>	<g id="Web-Ebene">	</g></svg>